<svg width="375" height="812" viewBox="0 0 375 812" fill="none" xmlns="http://www.w3.org/2000/svg">
<g clip-path="url(#clip0_34_2567)">
<rect width="375" height="812" fill="#FA86BE"/>
<g filter="url(#filter0_d_34_2567)">
<circle cx="-76.5" cy="149.5" r="523.5" fill="#F5E7EE"/>
</g>
<path d="M389.582 779.808C389.586 779.752 389.586 779.696 389.582 779.641C389.621 778.85 389.47 778.061 389.142 777.34C388.138 775.306 385.719 774.972 383.667 774.618C380.287 774.038 377.048 772.82 374.124 771.028C372.183 769.844 370.193 768.101 369.951 765.652C369.951 765.15 369.988 764.647 369.951 764.189C369.951 763.854 369.951 763.525 369.951 763.209C369.951 761.901 369.877 760.698 368.903 760.462C363.087 759.023 358.058 754.069 356.055 747.788C355.627 746.448 355.33 745.053 354.778 743.77C353.023 739.702 349.117 737.495 346.165 734.419C342.284 730.37 340.033 724.74 338.402 719.091C336.771 713.442 335.643 707.595 333.503 702.157C329.938 693.085 326.72 683.425 320.674 676.176C319.763 675.079 318.758 673.956 317.698 672.822C312.322 664.971 308.67 655.689 304.013 647.219C303.124 645.483 302.04 643.854 300.782 642.364C299.17 640.578 297.174 639.301 295.313 637.843C286.353 630.849 280.624 619.861 272.904 611.224C271.559 609.717 269.463 607.596 268.471 605.78C268.465 604.719 268.556 603.661 268.743 602.617C269.239 600.044 270.573 597.601 270.343 594.978C270.263 594.467 270.219 593.951 270.213 593.434C270.276 592.838 270.436 592.256 270.684 591.71C271.084 590.528 271.612 589.392 272.259 588.325C273.383 586.598 274.123 584.651 274.429 582.614C275.973 581.151 276.643 578.472 278.572 577.796C279.644 577.424 281.052 577.678 281.672 576.618C281.851 576.254 281.95 575.857 281.963 575.452C282.158 573.358 281.98 571.246 281.436 569.214C281.592 568.141 281.634 567.054 281.56 565.971C281.349 563.273 280.578 560.648 279.297 558.264C278.51 556.763 277.437 555.263 275.905 554.915C275.57 554.841 275.229 554.822 274.907 554.723C272.935 554.147 272.253 551.102 270.473 550.159C272.761 551.4 275.099 552.801 277.251 551.759C279.954 550.439 286.705 542.286 286.5 539L288 531.5C287.616 525.299 284.865 515.109 281.672 510C278.795 505.387 272.29 498.311 264.608 500.17C261.358 498.998 255.97 501.937 252.752 503.133C252.944 502.997 253.13 502.861 253.316 502.737C252.92 502.855 252.533 503 252.157 503.171C250.469 504.028 248.901 505.104 247.494 506.37C248.274 504.396 248.674 502.292 248.672 500.17C248.69 496.994 247.79 493.88 246.08 491.203L249.714 488.146L248.864 486.764L250.464 485.238C250.363 485.075 250.223 484.941 250.056 484.847C249.889 484.754 249.7 484.705 249.509 484.705C249.435 484.699 249.36 484.699 249.286 484.705C249.343 484.25 249.305 483.787 249.174 483.347L249.062 483.453C248.966 483.073 248.816 482.71 248.616 482.374H248.746C248.67 482.234 248.585 482.1 248.492 481.971C248.492 482.033 248.492 482.101 248.492 482.163C247.969 481.392 247.329 480.708 246.595 480.135C243.817 477.853 240.636 475.962 237.194 475.708C235.52 475.584 233.84 475.85 232.166 475.708C229.909 475.553 227.72 474.697 225.456 474.604C223.193 474.511 220.645 475.435 219.708 477.704C219.305 478.697 219.25 479.813 218.946 480.836C218.27 483.118 216.465 484.699 214.934 486.385C213.402 488.072 211.982 490.335 212.404 492.692C212.572 493.441 212.834 494.166 213.185 494.849L221.042 511.814C221.074 513.056 221.037 514.298 220.93 515.535C220.88 516.068 220.812 516.608 220.725 517.153C220.688 517.383 220.645 517.618 220.589 517.854C219.661 518.01 218.821 518.494 218.22 519.218C217.996 519.5 217.854 519.84 217.811 520.198C217.856 520.766 217.956 521.329 218.109 521.878C218.121 522.61 217.948 523.333 217.606 523.98C216.819 525.809 215.982 527.67 214.642 529.04C214.097 529.604 213.477 530.075 212.925 530.634C212.295 531.303 211.721 532.023 211.207 532.785C210.06 534.397 208.876 536.084 208.454 538.093C207.76 541.379 206.358 544.504 205.354 547.71C205.211 547.969 205.033 548.206 204.827 548.417C204.207 549 203.413 549.248 202.805 549.818C201.441 551.108 201.565 553.464 201.9 555.43C203.103 562.734 205.211 569.847 206.048 577.213C206.383 580.103 206.52 583.042 207.164 585.863C207.402 587.082 207.854 588.249 208.498 589.311C208.405 592.082 208.69 594.891 207.704 597.446C207.245 598.599 206.606 599.653 206.048 600.757C205.276 602.347 204.591 603.978 203.996 605.643L200.629 614.51C200.009 616.191 199.352 617.883 198.868 619.632C197.473 624.723 197.467 630.173 197.665 635.475C197.69 635.639 197.655 635.806 197.566 635.946C197.467 636.07 197.231 636.033 197.225 635.865C197.181 636.175 197.008 636.702 196.97 637.006C198.471 637.738 200.158 637.502 201.832 637.323C201.832 637.484 201.832 637.651 201.832 637.812C201.829 637.852 201.829 637.891 201.832 637.93C201.847 638.436 201.899 638.939 201.987 639.437C201.987 639.437 201.987 639.437 201.987 639.474C202.03 639.728 202.086 639.976 202.142 640.225C202.142 640.293 202.142 640.355 202.191 640.423C202.247 640.646 202.309 640.876 202.377 641.093C202.415 641.21 202.446 641.316 202.483 641.427C202.52 641.539 202.576 641.7 202.626 641.83C202.675 641.961 202.681 641.998 202.712 642.078C203.122 643.145 203.611 644.174 204.076 645.216C204.875 646.827 205.409 648.557 205.658 650.338C205.695 650.747 205.707 651.156 205.726 651.578V652.006C205.738 652.448 205.775 652.889 205.837 653.327C205.949 654.033 206.16 654.709 206.327 655.404C206.427 655.813 206.501 656.235 206.575 656.644C206.65 657.053 206.718 657.593 206.78 658.064C207.247 661.569 207.592 665.083 207.815 668.605C207.871 669.455 207.921 670.31 207.964 671.16C208.256 677.36 208.181 683.561 208.107 689.799C208.066 691.834 207.858 693.862 207.487 695.863C206.451 701.735 204.312 707.44 202.898 713.269C202.749 713.889 202.613 714.509 202.483 715.129C202.168 716.443 201.961 717.781 201.863 719.128C201.853 720.925 202.015 722.719 202.346 724.486C202.652 726.631 202.888 728.787 203.053 730.953C201.91 732.971 201.165 735.19 200.858 737.488C200.108 744.39 194.261 749.567 193.467 756.469C193.414 756.907 193.396 757.348 193.411 757.79C193.393 758.074 193.393 758.36 193.411 758.645C193.328 759.378 193.392 760.12 193.597 760.828C193.891 761.57 194.384 762.217 195.022 762.697C195.66 763.178 196.418 763.473 197.212 763.55C198.731 763.742 200.251 763.358 201.764 763.104C202.446 762.986 203.128 762.911 203.81 762.843C203.828 763.078 203.828 763.315 203.81 763.55C203.489 764.126 203.215 764.728 202.991 765.348C202.609 766.075 202.371 766.869 202.291 767.686C202.264 768.651 202.507 769.604 202.991 770.439C204.517 773.223 207.561 774.531 210.476 774.779C213.39 775.027 216.286 774.389 219.2 774.234H219.696C219.796 774.508 219.919 774.773 220.062 775.027C221.581 777.812 224.632 779.12 227.54 779.368C230.448 779.616 233.356 778.983 236.27 778.828C237.139 778.785 238.013 778.785 238.881 778.723C240.663 778.588 242.425 778.266 244.139 777.762C245.373 779.516 246.788 781.135 248.362 782.592C253.471 786.933 260.534 786.685 266.92 785.835C273.307 784.986 280.506 783.411 286.329 786.455C290.793 785.965 293.453 793.053 297.936 793.233C299.995 793.313 301.843 791.869 303.331 790.281C303.842 789.615 304.5 789.076 305.253 788.706C305.876 788.521 306.536 788.5 307.169 788.644C310.643 789.273 313.764 791.158 315.937 793.939C317.065 795.353 318.219 797.133 319.912 797.17C321.431 797.17 322.776 795.738 324.283 795.93C325.306 796.066 326.143 796.941 327.03 797.48C329.808 799.123 333.231 797.604 335.897 795.793C338.563 793.983 341.415 791.794 344.541 792.123C346.568 792.334 348.373 793.598 350.264 794.423C356.093 796.965 363.242 795.043 367.421 789.859C368.085 789.029 368.767 788.067 369.746 787.85C370.401 787.77 371.065 787.868 371.669 788.136C375.172 789.301 378.855 790.374 382.439 789.58C386.023 788.787 389.434 785.544 389.508 781.464C389.513 781.215 389.503 780.967 389.477 780.72C389.477 780.565 389.508 780.403 389.508 780.242C389.542 780.099 389.567 779.954 389.582 779.808ZM248.827 546.836C248.578 547.489 248.148 548.057 247.587 548.473C247.537 548.206 247.487 547.94 247.432 547.667C247.208 546.513 246.954 545.366 246.681 544.225C247.509 544.756 248.392 545.193 249.317 545.528C249.137 545.962 248.988 546.427 248.808 546.836H248.827ZM239.737 518.846C239.737 518.889 239.737 518.933 239.737 518.976C239.737 521.159 240.493 522.405 241.597 523.118C240.366 525.507 239.728 528.157 239.737 530.844C239.315 530.516 238.862 530.224 238.496 529.858C237.817 529.16 237.265 528.347 236.866 527.459C237.043 527.489 237.226 527.461 237.387 527.378C237.703 527.161 237.69 526.653 237.647 526.243C237.228 522.35 237.753 518.413 239.179 514.766C239.903 514.511 240.603 514.189 241.268 513.805C240.346 515.301 239.823 517.009 239.749 518.765C239.749 518.765 239.718 518.815 239.718 518.846H239.737ZM270.083 549.967C269.761 551.17 269.584 552.406 269.556 553.65C268.432 551.927 266.775 550.621 264.837 549.93C264.609 549.862 264.377 549.806 264.143 549.763C264.287 549.619 264.443 549.486 264.608 549.366C266.387 548.126 268.39 548.994 270.436 550.079C270.315 550.034 270.19 549.996 270.064 549.967H270.083Z" fill="url(#paint0_linear_34_2567)"/>
<path d="M196.412 774.978C196.387 775.972 196.666 776.95 197.212 777.781C198.942 780.614 202.414 781.941 205.719 782.189C209.024 782.437 212.336 781.792 215.641 781.637C216.633 781.594 217.625 781.588 218.611 781.532C223.745 781.222 228.65 779.405 233.492 777.607C234.286 777.316 235.21 776.844 235.253 776.007C235.233 775.718 235.149 775.437 235.008 775.184C234.866 774.931 234.671 774.712 234.435 774.544C233.802 773.99 233.089 773.534 232.32 773.192C229.629 772.008 226.405 772.318 223.85 770.861C223.286 770.538 222.771 770.141 222.182 769.875C221.493 769.598 220.765 769.43 220.024 769.379C216.827 769.015 213.593 769.122 210.426 769.695C208.014 770.135 205.639 770.848 203.19 771.022C202.262 771.102 201.327 771.041 200.418 770.842C199.798 770.699 199.01 770.141 198.421 770.513C197.832 770.885 197.504 772.07 197.224 772.597C196.79 773.325 196.513 774.136 196.412 774.978V774.978Z" fill="#3F3D56"/>
<path opacity="0.05" d="M196.412 774.978C196.387 775.972 196.666 776.95 197.212 777.781C198.942 780.614 202.414 781.941 205.719 782.189C209.024 782.437 212.336 781.792 215.641 781.637C216.633 781.594 217.625 781.588 218.611 781.532C223.745 781.222 228.65 779.405 233.492 777.607C234.286 777.316 235.21 776.844 235.253 776.007C235.233 775.718 235.149 775.437 235.008 775.184C234.866 774.931 234.671 774.712 234.435 774.544C233.802 773.99 233.089 773.534 232.32 773.192C229.629 772.008 226.405 772.318 223.85 770.861C223.286 770.538 222.771 770.141 222.182 769.875C221.493 769.598 220.765 769.43 220.024 769.379C216.827 769.015 213.593 769.122 210.426 769.695C208.014 770.135 205.639 770.848 203.19 771.022C202.262 771.102 201.327 771.041 200.418 770.842C199.798 770.699 199.01 770.141 198.421 770.513C197.832 770.885 197.504 772.07 197.224 772.597C196.79 773.325 196.513 774.136 196.412 774.978V774.978Z" fill="black"/>
<path d="M215.833 779.628C215.805 780.623 216.084 781.601 216.633 782.431C218.363 785.265 221.829 786.592 225.14 786.84C228.451 787.088 231.756 786.443 235.061 786.288C236.053 786.245 237.039 786.238 238.031 786.182C243.165 785.872 248.07 784.056 252.913 782.257C253.707 781.96 254.63 781.495 254.674 780.651C254.654 780.363 254.57 780.083 254.428 779.831C254.287 779.579 254.091 779.362 253.855 779.194C253.224 778.638 252.511 778.183 251.741 777.843C249.05 776.658 245.825 776.962 243.271 775.505C242.706 775.189 242.192 774.786 241.603 774.525C240.913 774.249 240.186 774.08 239.445 774.023C236.247 773.662 233.013 773.77 229.846 774.345C227.434 774.786 225.059 775.499 222.61 775.666C221.683 775.751 220.748 775.693 219.838 775.493C219.218 775.35 218.431 774.792 217.842 775.164C217.253 775.536 216.918 776.72 216.645 777.247C216.208 777.974 215.931 778.786 215.833 779.628V779.628Z" fill="#3F3D56"/>
<path d="M205.689 547.512C205.463 546.887 205.052 546.346 204.51 545.962C203.214 545.242 201.683 546.582 201.119 547.927C200.554 549.273 200.368 550.922 199.258 551.896C198.583 552.516 197.652 552.739 196.958 553.322C195.408 554.63 195.563 557.042 195.929 559.027C197.299 566.467 199.699 573.697 200.654 581.194C201.032 584.139 201.187 587.128 201.894 589.999C202.328 591.698 203.016 593.422 204.374 594.525C205.732 595.629 207.902 595.896 209.18 594.693C206.87 588.432 205.716 581.803 205.775 575.13C205.813 570.789 206.395 566.449 206.513 562.059C206.643 558.227 206.451 554.388 206.259 550.556C206.277 549.572 206.091 548.595 205.713 547.685C205.513 547.236 205.184 546.857 204.768 546.595C204.352 546.334 203.867 546.202 203.376 546.216" fill="#F4F6FB"/>
<path d="M233.53 518.325C242.149 518.325 249.137 511.338 249.137 502.718C249.137 494.099 242.149 487.111 233.53 487.111C224.91 487.111 217.923 494.099 217.923 502.718C217.923 511.338 224.91 518.325 233.53 518.325Z" fill="#CB8C8E"/>
<path d="M254.562 549.639C263.209 549.639 270.219 542.629 270.219 533.982C270.219 525.335 263.209 518.325 254.562 518.325C245.915 518.325 238.906 525.335 238.906 533.982C238.906 542.629 245.915 549.639 254.562 549.639Z" fill="#FBBEBE"/>
<path d="M261.005 549.143C261.141 550.383 261.625 551.828 262.809 552.144C263.359 552.209 263.912 552.24 264.465 552.237C264.906 552.318 265.32 552.504 265.675 552.778C266.03 553.052 266.314 553.406 266.505 553.812C266.879 554.632 267.027 555.538 266.933 556.435C266.831 557.798 266.392 559.115 265.655 560.267C264.26 562.265 262.24 563.744 259.914 564.471C257.604 565.183 255.219 565.622 252.808 565.779C251.738 565.952 250.646 565.918 249.589 565.68C248.925 565.463 248.297 565.145 247.729 564.737C245.964 563.554 244.418 562.072 243.159 560.36C242.234 559.168 241.565 557.798 241.194 556.335C240.837 554.867 241.043 553.319 241.77 551.995C241.994 551.556 242.362 551.208 242.812 551.009C244.139 550.532 245.342 552.175 246.749 552.212C247.866 552.212 248.746 551.257 249.23 550.253C249.713 549.248 249.968 548.113 250.687 547.264C251.524 546.266 252.839 545.825 254.097 545.49C256.168 544.945 258.884 544.12 261.042 544.35C262.226 544.467 261.451 545.174 261.178 546.03C260.904 547.044 260.845 548.104 261.005 549.143V549.143Z" fill="#FBBEBE"/>
<path d="M246.247 565.481C248.151 564.626 249.205 562.561 250.904 561.339C252.33 560.316 254.11 559.95 255.74 559.299C257.395 558.639 258.91 557.671 260.205 556.447C261.383 555.337 262.431 553.967 263.925 553.421C265.067 553.058 266.293 553.058 267.435 553.421C270.653 554.314 273.127 556.993 274.566 560C276.004 563.007 276.556 566.356 277.096 569.648L277.902 574.609C278.5 577.639 278.789 580.722 278.764 583.811C278.633 586.911 277.827 590.011 275.949 592.492C275.221 593.566 274.62 594.721 274.157 595.933C273.879 596.484 273.7 597.081 273.629 597.694C273.634 598.22 273.682 598.745 273.772 599.263C274.032 601.929 272.532 604.416 271.949 607.032C271.647 608.786 271.555 610.57 271.676 612.346C271.661 612.578 271.708 612.809 271.813 613.016C271.946 613.202 272.128 613.348 272.34 613.438C272.749 613.655 273.171 613.859 273.58 614.058C270.158 614.818 266.661 615.188 263.156 615.161C257.012 615.019 251.016 613.301 244.908 612.588C244.678 609.785 245.447 607.082 245.621 604.279C245.656 602.45 245.542 600.621 245.28 598.81C244.769 593.86 244.817 588.868 245.423 583.928C245.633 582.192 245.919 580.462 245.999 578.714C246.092 576.643 245.906 574.565 246.055 572.513C246.198 570.547 246.675 568.6 246.725 566.629C246.783 566.411 246.768 566.181 246.682 565.974C246.595 565.766 246.442 565.593 246.247 565.481V565.481Z" fill="#F4F6FB"/>
<path d="M253.167 609.543C259.591 609.581 265.252 609.767 271.658 610.207C272.786 612.067 270.083 617.084 271.614 618.621C280.394 627.42 282.348 639.245 292.542 646.369C294.656 647.845 300.602 649.042 302.463 650.865C303.92 652.31 301.694 651.28 302.773 653.035C308.973 663.155 322.956 673.144 331.06 681.844C337.931 689.216 341.601 699.05 345.657 708.283C348.087 713.808 349.377 719.767 351.237 725.515C353.097 731.263 355.658 736.986 360.073 741.103C363.434 744.241 367.88 746.486 369.87 750.622C370.431 751.958 370.917 753.324 371.327 754.714C372.5 757.909 374.451 760.762 377.004 763.012C379.558 765.263 382.632 766.842 385.949 767.605C387.753 768.002 386.928 771.009 387.114 772.851C387.369 775.368 389.644 777.154 391.864 778.363C395.241 780.198 398.91 781.434 402.709 782.016C405.041 782.369 407.794 782.716 408.91 784.781C409.28 785.505 409.453 786.313 409.412 787.125C409.331 791.279 405.444 794.566 401.351 795.384C397.259 796.203 393.08 795.099 389.099 793.915C388.403 793.642 387.652 793.542 386.91 793.623C385.794 793.84 385.05 794.82 384.262 795.67C381.832 798.284 378.681 800.12 375.209 800.947C371.736 801.773 368.096 801.553 364.749 800.314C362.591 799.471 360.544 798.187 358.238 797.97C354.679 797.635 351.46 799.867 348.397 801.69C345.334 803.513 341.465 805.076 338.309 803.402C337.267 802.856 336.349 801.969 335.208 801.827C333.491 801.628 331.959 803.117 330.248 803.067C328.326 803.03 327.005 801.207 325.721 799.781C323.111 796.903 319.582 795.02 315.738 794.454C315.018 794.304 314.272 794.325 313.562 794.516C312.722 794.879 311.974 795.426 311.373 796.116C309.68 797.734 307.578 799.216 305.241 799.117C300.137 798.937 297.105 791.726 292.027 792.222C285.405 789.122 277.207 790.721 269.946 791.602C262.685 792.482 254.643 792.737 248.827 788.303C245.764 785.959 243.686 782.555 240.828 779.957C236.314 775.852 230.225 774.06 224.353 772.386C215.052 769.732 205.391 767.053 195.829 768.498C194.106 768.759 192.376 769.118 190.646 768.951C188.916 768.783 187.142 767.81 186.535 766.185C186.269 765.352 186.21 764.467 186.361 763.606C187.26 756.587 193.913 751.316 194.763 744.291C195.191 740.806 197.063 737.755 199.06 734.872C200.759 732.294 202.31 729.621 203.704 726.867C207.009 720.666 210.327 714.465 212.819 707.917C215.442 701.028 217.123 693.823 218.797 686.643C220.409 679.717 221.178 672.623 222.337 665.604C223.181 660.501 224.501 655.491 225.822 650.487C229.729 635.704 233.66 620.835 240.084 606.97C244.263 608.148 248.87 609.519 253.167 609.543Z" fill="#E3E8F4"/>
<path d="M253.167 611.404C259.591 611.441 265.252 611.007 271.658 611.447C272.786 613.307 275.173 615.453 276.705 616.984C285.485 625.796 292.008 636.957 302.196 644.075C304.31 645.557 306.58 646.859 308.397 648.676C309.816 650.176 311.051 651.842 312.074 653.637C318.274 663.762 322.931 675.029 331.035 683.729C337.906 691.101 341.577 700.935 345.632 710.168C348.062 715.693 349.352 721.652 351.212 727.4C353.073 733.148 355.634 738.871 360.048 742.989C363.409 746.126 367.855 748.371 369.845 752.507C370.406 753.843 370.892 755.209 371.303 756.599C372.475 759.794 374.427 762.647 376.98 764.898C379.533 767.148 382.607 768.727 385.924 769.49C387.728 769.887 386.904 772.894 387.09 774.736C387.344 777.254 389.62 779.039 391.839 780.248C395.216 782.083 398.886 783.319 402.684 783.901C405.016 784.254 407.769 784.601 408.885 786.666C409.255 787.39 409.428 788.198 409.387 789.01C409.307 793.164 405.419 796.451 401.326 797.269C397.234 798.088 393.055 796.984 389.074 795.8C388.379 795.527 387.627 795.427 386.885 795.508C385.769 795.725 385.025 796.705 384.237 797.555C381.807 800.169 378.657 802.005 375.184 802.832C371.711 803.658 368.071 803.438 364.724 802.199C362.566 801.356 360.52 800.072 358.213 799.855C354.654 799.52 351.436 801.752 348.373 803.575C345.309 805.398 341.44 806.961 338.284 805.287C337.242 804.741 336.325 803.854 335.184 803.712C333.466 803.513 331.935 805.002 330.223 804.952C328.301 804.915 326.98 803.092 325.697 801.666C323.096 798.784 319.577 796.893 315.738 796.314C315.018 796.164 314.272 796.185 313.562 796.376C312.722 796.74 311.974 797.286 311.373 797.976C309.68 799.595 307.578 801.077 305.241 800.977C300.137 800.798 297.105 793.586 292.027 794.082C285.405 790.982 277.207 792.582 269.946 793.462C262.685 794.343 254.643 794.597 248.827 790.163C245.764 787.82 243.686 784.415 240.828 781.817C236.314 777.712 230.225 775.92 224.353 774.246C215.052 771.592 205.391 768.914 195.829 770.358C194.106 770.619 192.376 770.978 190.646 770.811C188.916 770.644 187.142 769.67 186.535 768.045C186.269 767.212 186.21 766.327 186.361 765.466C187.26 758.447 193.913 753.176 194.763 746.151C195.191 742.666 197.063 739.615 199.06 736.732C200.759 734.154 202.31 731.481 203.704 728.727C207.009 722.526 210.327 716.326 212.819 709.778C215.442 702.889 217.123 695.683 218.797 688.503C220.409 681.577 221.178 674.483 222.337 667.464C223.181 662.361 224.501 657.351 225.822 652.347C229.729 637.564 233.66 622.695 240.084 608.83C244.263 610.009 248.87 611.379 253.167 611.404Z" fill="#E3E8F4"/>
<path d="M253.167 610.164C259.591 610.201 265.252 609.767 271.658 610.207C272.786 612.067 275.173 614.213 276.705 615.744C285.485 624.555 292.008 635.717 302.196 642.835C304.31 644.317 306.58 645.619 308.397 647.436C309.816 648.936 311.051 650.602 312.074 652.397C318.274 662.522 322.931 673.789 331.035 682.488C337.906 689.861 341.577 699.695 345.632 708.928C348.062 714.453 349.352 720.412 351.212 726.16C353.073 731.908 355.634 737.631 360.048 741.748C363.409 744.886 367.855 747.131 369.845 751.266C370.406 752.603 370.892 753.969 371.303 755.359C372.475 758.554 374.427 761.406 376.98 763.657C379.533 765.908 382.607 767.487 385.924 768.25C387.728 768.647 386.904 771.654 387.09 773.496C387.344 776.013 389.62 777.799 391.839 779.008C395.216 780.843 398.886 782.078 402.684 782.661C405.016 783.014 407.769 783.361 408.885 785.426C409.255 786.15 409.428 786.958 409.387 787.77C409.307 791.924 405.419 795.211 401.326 796.029C397.234 796.848 393.055 795.744 389.074 794.56C388.379 794.287 387.627 794.187 386.885 794.268C385.769 794.485 385.025 795.465 384.237 796.314C381.807 798.929 378.657 800.765 375.184 801.592C371.711 802.418 368.071 802.198 364.724 800.959C362.566 800.115 360.52 798.832 358.213 798.615C354.654 798.28 351.436 800.512 348.373 802.335C345.309 804.158 341.44 805.721 338.284 804.047C337.242 803.501 336.325 802.614 335.184 802.472C333.466 802.273 331.935 803.761 330.223 803.712C328.301 803.675 326.98 801.852 325.697 800.426C323.096 797.544 319.577 795.652 315.738 795.074C315.018 794.924 314.272 794.945 313.562 795.136C312.722 795.499 311.974 796.046 311.373 796.736C309.68 798.354 307.578 799.836 305.241 799.737C300.137 799.557 297.105 792.346 292.027 792.842C285.405 789.742 277.207 791.342 269.946 792.222C262.685 793.103 254.643 793.357 248.827 788.923C245.764 786.579 243.686 783.175 240.828 780.577C236.314 776.472 230.225 774.68 224.353 773.006C215.052 770.352 205.391 767.673 195.829 769.118C194.106 769.379 192.376 769.738 190.646 769.571C188.916 769.403 187.142 768.43 186.535 766.805C186.269 765.972 186.21 765.087 186.361 764.226C187.26 757.207 193.913 751.936 194.763 744.911C195.191 741.426 197.063 738.375 199.06 735.492C200.759 732.914 202.31 730.241 203.704 727.487C207.009 721.286 210.327 715.085 212.819 708.538C215.442 701.649 217.123 694.443 218.797 687.263C220.409 680.337 221.178 673.243 222.337 666.224C223.181 661.121 224.501 656.111 225.822 651.107C229.729 636.324 233.66 621.455 240.084 607.59C244.263 608.768 248.87 610.139 253.167 610.164Z" fill="#F4F6FB"/>
<path d="M197.243 638.619C195.197 640.857 195.662 644.416 196.859 647.2C198.055 649.985 199.872 652.595 200.207 655.609C200.319 656.613 200.257 657.63 200.43 658.628C200.561 659.348 200.802 660.036 200.988 660.743C201.214 661.637 201.388 662.544 201.509 663.459C202.167 667.873 202.613 672.326 202.849 676.79C203.19 683.102 203.103 689.433 203.016 695.758C202.892 704.606 198.676 712.891 196.623 721.497C196.262 722.828 196.025 724.19 195.916 725.565C195.907 727.395 196.088 729.222 196.456 731.015C198.268 742.303 197.899 753.833 195.371 764.982C197.231 766.446 198.527 768.901 198.08 771.22C202.08 771.921 206.265 772.609 210.116 771.338C212.441 770.575 214.531 769.125 216.937 768.672C218.797 768.331 220.948 768.504 222.263 767.153C222.797 766.521 223.187 765.781 223.404 764.982C227.943 751.775 226.672 737.396 226.417 723.438C226.281 715.935 226.417 708.426 226.132 700.929C225.572 687.563 223.475 674.305 219.882 661.419C218.146 655.218 216.472 649.017 213.061 643.517C212.375 642.246 211.402 641.15 210.221 640.318C208.925 639.524 207.357 639.332 205.844 639.158C202.681 638.817 200.406 638.978 197.243 638.619Z" fill="#3F3D56"/>
<path opacity="0.05" d="M223.404 764.989C223.185 765.784 222.796 766.523 222.263 767.153C220.948 768.51 218.791 768.331 216.937 768.678C216.701 768.721 216.465 768.777 216.236 768.839C214.121 769.403 212.212 770.65 210.122 771.319C206.265 772.56 202.061 771.902 198.08 771.202C198.527 768.883 197.231 766.421 195.371 764.958C197.901 753.811 198.272 742.282 196.462 730.996C196.089 729.204 195.906 727.377 195.916 725.546C196.028 724.171 196.264 722.81 196.623 721.478C198.663 712.866 202.892 704.581 203.016 695.733C203.103 689.408 203.19 683.077 202.855 676.765C202.611 672.301 202.162 667.857 201.509 663.434C201.387 662.52 201.216 661.613 200.995 660.718C200.802 660.017 200.561 659.323 200.437 658.603C200.257 657.611 200.319 656.588 200.207 655.584C199.872 652.57 198.062 649.966 196.859 647.182C196.356 646.034 196.03 644.818 195.891 643.573C195.749 642.697 195.796 641.802 196.029 640.946C196.262 640.09 196.676 639.294 197.243 638.612C199.37 638.848 201.088 638.842 202.948 638.922C203.859 638.96 204.808 639.022 205.844 639.139C207.357 639.307 208.944 639.499 210.227 640.299C211.408 641.131 212.378 642.226 213.061 643.498C213.396 644.038 213.712 644.584 214.016 645.135C216.8 650.201 218.319 655.782 219.882 661.394C223.474 674.28 225.572 687.538 226.132 700.904C226.448 708.401 226.281 715.91 226.417 723.419C226.678 737.408 227.943 751.775 223.404 764.989Z" fill="black"/>
<path d="M246.266 643.48C246.266 644.565 246.266 645.656 246.266 646.742C246.237 657.217 246.21 667.69 246.185 678.16C246.185 682.47 246.185 686.792 245.739 691.076C244.641 702.238 240.561 713.045 240.995 724.219C241.305 732.336 241.615 740.546 239.985 748.507C239.365 751.558 238.459 754.559 238.013 757.641C237.566 760.723 237.616 763.972 238.838 766.843C239.718 768.895 241.2 770.836 241.119 773.043C241.028 773.992 240.715 774.906 240.206 775.712C239.696 776.518 239.005 777.192 238.186 777.681C236.538 778.64 234.71 779.25 232.817 779.473C230.454 779.865 228.062 780.049 225.667 780.025C222.238 779.988 218.332 779.238 216.558 776.305C215.368 774.333 215.461 771.828 216.031 769.59C216.1 769.329 216.168 769.075 216.242 768.821C216.825 766.867 217.656 764.989 218.102 763.004C218.82 759.873 218.589 756.598 217.439 753.598C217.228 753.04 216.565 751.986 215.969 752.054C215.021 749.605 214.878 746.926 214.729 744.297L213.855 726.501C213.669 722.626 213.483 718.701 214.277 714.906C214.897 711.805 216.217 708.854 216.589 705.71C216.756 703.822 216.745 701.923 216.558 700.036C215.863 690.313 214.605 680.638 212.788 671.061C212.728 670.573 212.566 670.104 212.311 669.684C211.902 669.114 211.189 668.847 210.686 668.351C209.632 667.322 209.731 665.641 209.483 664.184C209.037 661.555 207.295 659.372 205.949 657.078C203.808 653.381 202.609 649.213 202.458 644.943C202.382 642.924 202.546 640.903 202.948 638.922C202.998 638.656 203.06 638.389 203.122 638.123C216.636 637.26 230.205 638.093 243.513 640.603C244.486 640.783 245.578 641.062 246.03 641.942C246.228 642.429 246.309 642.956 246.266 643.48V643.48Z" fill="#3F3D56"/>
<path d="M322.398 692.286C329.07 704.03 335.767 715.799 341.074 728.219C345.384 738.295 348.918 749.028 356.148 757.263C362.919 764.97 372.27 769.782 381.453 774.414L373.231 767.171C364.978 759.886 356.551 752.395 351.312 742.716C348.459 737.445 346.649 731.685 344.491 726.073C338.992 711.64 331.333 698.126 321.778 685.992C319.121 682.505 316.264 679.176 313.221 676.021C315.323 681.602 319.434 687.077 322.398 692.286Z" fill="#E3E8F4"/>
<path d="M288.362 772.752C290.371 776.881 292.417 781.073 295.481 784.496C295.741 782.45 294.34 780.614 293.23 778.878C291.221 775.722 289.999 772.169 288.778 768.653C287.649 765.398 286.601 760.908 284.201 758.335C282.974 762.75 286.502 768.957 288.362 772.752Z" fill="#E3E8F4"/>
<path d="M265.104 695.404C265.686 698.505 266.027 701.605 266.809 704.637C267.576 707.361 268.519 710.033 269.63 712.636L282.701 745.215C282.59 740.787 280.221 736.782 278.714 732.627C276.854 727.524 276.184 722.086 274.665 716.84C273.425 712.587 271.627 708.525 270.325 704.29C268.514 698.319 267.751 692.081 266.331 686.004C265.049 680.745 263.448 675.568 261.538 670.502C260.67 668.109 259.678 665.623 257.762 663.967C255.846 662.311 252.634 661.84 250.823 663.632C248.275 666.156 252.138 667.737 253.409 669.38C259.287 677.028 263.288 685.948 265.091 695.423L265.104 695.404Z" fill="#E3E8F4"/>
<path d="M282.645 628.102C283.339 628.802 283.943 629.585 284.443 630.434C285.144 631.723 285.423 633.23 286.304 634.427C284.753 632.25 282.983 630.239 281.021 628.425C279.83 627.402 278.54 626.521 277.344 625.498C276.432 624.717 272.439 621.331 273.233 620.178C276.73 621.957 279.985 625.231 282.645 628.102Z" fill="#E3E8F4"/>
<path d="M241.15 511.604C241.008 512.887 240.22 513.997 239.544 515.101C237.573 518.376 236.474 522.101 236.351 525.921C236.314 527.041 236.364 528.163 236.5 529.276C236.549 529.691 236.562 530.212 236.202 530.429C236.009 530.519 235.792 530.547 235.582 530.509C235.16 530.472 234.751 530.423 234.342 530.354C227.713 529.294 221.909 524.774 215.238 523.633C215.649 523.438 216.014 523.158 216.309 522.81C216.603 522.463 216.819 522.056 216.943 521.618C217.122 521.118 217.257 520.603 217.346 520.08C217.445 519.528 217.519 518.976 217.575 518.437C217.997 514.443 217.389 510.773 217.166 506.717C216.912 501.992 222.747 503.549 226.169 503.487C228.916 503.437 231.713 503.394 234.367 504.138C237.021 504.882 239.544 506.525 240.685 509.03C241.068 509.831 241.228 510.72 241.15 511.604Z" fill="#CB8C8E"/>
<path d="M236.202 530.429C236.009 530.519 235.792 530.547 235.582 530.509C235.16 530.472 234.751 530.423 234.342 530.354C233.772 529.821 233.22 529.263 232.693 528.68C231.452 527.304 230.336 525.791 228.898 524.619C226.676 522.893 223.96 521.924 221.147 521.853C219.741 521.891 218.335 521.812 216.943 521.618C217.122 521.118 217.257 520.603 217.346 520.08C217.445 519.528 217.52 518.976 217.575 518.437C218.353 518.337 219.135 518.281 219.919 518.269C220.839 518.136 221.772 518.117 222.697 518.214C224.229 518.443 225.58 519.299 226.957 520.012C228.861 520.998 230.901 521.742 232.668 522.963C233.213 523.348 233.734 523.769 234.255 524.203C234.962 524.78 235.663 525.363 236.37 525.933C236.333 527.054 236.382 528.175 236.518 529.288C236.549 529.685 236.562 530.212 236.202 530.429Z" fill="#E3E8F4"/>
<path opacity="0.1" d="M246.266 643.48C246.266 644.565 246.266 645.656 246.266 646.741C243.686 646.816 241.051 647.194 238.484 647.361C236.072 647.535 233.654 647.541 231.235 647.51C229.343 647.557 227.454 647.349 225.617 646.89C224.297 646.506 223.057 645.873 221.742 645.476C219.262 644.714 216.645 644.807 214.022 645.117C211.889 645.365 209.737 645.737 207.611 645.929C206.232 646.121 204.828 645.977 203.518 645.507C203.152 645.341 202.799 645.146 202.464 644.925C201.94 644.573 201.393 644.256 200.827 643.976C199.302 643.294 197.603 643.405 195.898 643.567C195.755 642.691 195.802 641.795 196.035 640.94C196.268 640.084 196.682 639.288 197.249 638.606C199.376 638.842 201.094 638.835 202.954 638.916C203.004 638.649 203.066 638.383 203.128 638.116C216.642 637.253 230.211 638.087 243.519 640.596C244.492 640.776 245.584 641.055 246.036 641.936C246.233 642.425 246.312 642.954 246.266 643.48V643.48Z" fill="black"/>
<path d="M218.127 520.644C216.782 520.805 215.343 521.146 214.475 522.182C214.223 522.46 214.061 522.808 214.01 523.18C214.062 523.761 214.174 524.334 214.345 524.892C214.359 525.642 214.161 526.381 213.774 527.025C212.875 528.885 211.914 530.782 210.401 532.177C209.781 532.754 209.074 533.232 208.448 533.796C207.736 534.471 207.082 535.205 206.495 535.991C205.186 537.628 203.841 539.345 203.363 541.385C202.526 544.926 200.784 548.268 199.643 551.728C198.502 555.188 197.783 558.871 198.403 562.455C198.694 564.154 199.283 565.785 199.693 567.459C200.35 570.144 200.536 572.922 201.23 575.595C201.671 577.263 202.303 578.875 202.781 580.555C203.822 584.156 204.103 587.933 203.605 591.648C203.14 595.04 203.921 598.649 202.551 601.78C201.988 602.935 201.367 604.061 200.691 605.153C199.816 606.76 199.035 608.416 198.353 610.114L194.527 619.142C193.768 620.842 193.099 622.58 192.525 624.351C190.931 629.534 190.925 635.059 191.148 640.472C191.175 640.641 191.137 640.814 191.043 640.956C190.925 641.08 190.658 641.043 190.652 640.876C190.602 641.186 190.404 641.725 190.361 642.035C193.616 643.449 197.622 641.31 200.865 642.754C201.807 643.176 202.607 643.877 203.556 644.286C204.864 644.76 206.269 644.907 207.648 644.714C212.379 644.323 217.234 642.854 221.773 644.255C223.094 644.658 224.328 645.29 225.649 645.675C227.487 646.133 229.379 646.341 231.273 646.295C233.691 646.332 236.109 646.326 238.521 646.146C243.711 645.768 249.162 644.633 253.942 646.692C255.486 645.557 255.604 643.796 255.666 641.886C255.782 638.29 255.898 634.695 256.013 631.103L257.297 591.45C257.478 588.718 257.376 585.975 256.993 583.265C256.119 578.354 253.434 573.964 250.792 569.754L238.459 549.911C237.641 548.597 238.459 547.127 239.024 545.683C239.811 543.609 240.344 541.448 240.611 539.246C240.809 537.628 240.797 535.805 239.699 534.602C239.079 533.926 238.205 533.548 237.498 532.965C236.469 532.122 235.849 530.925 235.229 529.796C233.508 526.693 231.01 524.09 227.98 522.244C224.936 520.477 221.624 520.229 218.127 520.644Z" fill="#3F3D56"/>
<path opacity="0.1" d="M230.851 538.639C226.467 539.848 223.751 544.3 222.548 548.684C220.861 554.816 221.271 561.37 222.759 567.546C224.247 573.722 226.789 579.594 229.363 585.404C229.965 586.825 230.644 588.212 231.396 589.559C233.482 593.206 236.668 596.099 240.499 597.824C244.353 599.526 248.706 599.718 252.696 598.364C253.429 598.129 254.12 597.777 254.742 597.322C256.937 595.635 257.278 592.51 257.439 589.745L257.991 580.053C258.047 579.542 258.022 579.025 257.917 578.522C257.668 577.834 257.287 577.202 256.794 576.661C254.978 574.311 253.631 571.633 252.826 568.774C252.262 566.771 251.964 564.682 251.096 562.79C250.575 561.649 249.856 560.608 249.292 559.485C248.051 557.067 247.611 554.357 247.028 551.716C246.52 549.409 245.912 547.125 245.205 544.864C244.879 543.612 244.345 542.423 243.624 541.348C241.919 539.042 238.893 538.211 236.09 537.628C234.765 537.238 233.367 537.17 232.01 537.43C230.485 537.845 229.301 539.023 228.197 540.152" fill="black"/>
<path d="M231.471 538.019C227.087 539.228 224.371 543.68 223.168 548.064C221.482 554.196 221.891 560.75 223.379 566.926C224.867 573.102 227.409 578.974 229.983 584.784C230.585 586.205 231.264 587.591 232.017 588.939C234.102 592.586 237.288 595.479 241.119 597.204C244.974 598.906 249.326 599.098 253.316 597.744C254.05 597.509 254.74 597.157 255.362 596.702C257.557 595.015 257.898 591.89 258.059 589.125L258.611 579.433C258.667 578.922 258.642 578.405 258.537 577.901C258.288 577.214 257.907 576.582 257.415 576.041C255.599 573.691 254.251 571.013 253.446 568.154C252.882 566.151 252.584 564.062 251.716 562.17C251.195 561.029 250.476 559.988 249.912 558.865C248.672 556.447 248.231 553.737 247.648 551.096C247.14 548.789 246.532 546.505 245.825 544.244C245.499 542.992 244.965 541.803 244.244 540.728C242.539 538.422 239.513 537.591 236.71 537.008C235.386 536.618 233.987 536.55 232.63 536.809C231.105 537.225 229.921 538.403 228.817 539.532" fill="#3F3D56"/>
<path d="M274.243 563.9C272.678 560.628 272.386 556.89 273.425 553.415C275.855 554.035 276.525 557.619 279.005 558.258C279.371 558.351 279.762 558.369 280.134 558.45C281.87 558.803 283.098 560.31 283.997 561.86C285.441 564.243 286.323 566.923 286.576 569.698C286.821 572.484 286.169 575.276 284.716 577.666C284.778 577.573 280.376 573.059 280.004 572.594C279.231 571.688 278.474 570.764 277.734 569.822C276.956 568.949 276.257 568.009 275.645 567.013C275.434 566.616 275.39 566.157 275.204 565.736C274.913 565.109 274.547 564.514 274.243 563.9Z" fill="#CB8C8E"/>
<path d="M262.939 600.373C262.183 606.325 259.472 611.858 255.232 616.104C254.283 617.04 253.099 617.964 251.772 617.834C250.34 617.685 249.354 616.383 248.331 615.354C246.47 613.493 243.99 612.383 241.925 610.759C240.858 609.879 239.847 608.933 238.899 607.925C235.861 604.825 232.804 601.725 230.38 598.11C229.009 596.076 227.837 593.893 226.213 592.058C224.929 590.6 223.385 589.398 222.034 588.009C220.682 586.62 219.491 584.958 219.169 583.048C218.828 581.027 216.689 579.712 215.343 578.162C213.684 576.198 212.486 573.888 211.837 571.401C211.188 568.914 211.104 566.313 211.592 563.789C211.809 562.71 212.261 561.501 213.303 561.129C213.717 561.002 214.154 560.975 214.58 561.048C217.197 561.414 219.138 563.584 220.831 565.618C221.991 566.948 223.058 568.357 224.024 569.834C226.089 573.189 227.037 577.095 227.955 580.927C228.495 583.166 230.727 584.821 232.333 586.471L236.363 590.607C237.324 591.593 238.286 592.585 239.34 593.471C242.223 595.914 245.683 597.551 249.137 599.052C249.441 597.935 249.901 596.867 250.501 595.877C250.808 595.39 251.214 594.973 251.693 594.653C252.171 594.333 252.712 594.116 253.279 594.017C254.879 593.812 256.342 594.873 257.619 595.877L262.363 599.598C262.629 599.815 262.977 600.05 262.939 600.373Z" fill="#F4F6FB"/>
<path opacity="0.1" d="M270.486 563.367C271.068 563.991 271.529 564.719 271.844 565.512C272.898 567.689 273.374 570.1 273.227 572.513C273.062 573.812 272.775 575.093 272.371 576.339L270.895 581.417C268.601 589.292 266.3 597.186 263.2 604.781C260.652 601.476 256.193 600.478 252.572 598.413C252.215 598.236 251.896 597.99 251.636 597.688C251.316 597.221 251.153 596.665 251.171 596.1C251.21 594.575 251.542 593.072 252.15 591.673C254.407 585.615 257.539 579.7 257.905 573.251C257.919 572.051 257.995 570.853 258.134 569.661C258.396 568.24 258.957 566.892 259.781 565.706C260.604 564.519 261.67 563.521 262.909 562.778C264.992 561.426 268.638 561.556 270.486 563.367Z" fill="black"/>
<path d="M269.866 561.928C270.447 562.554 270.907 563.281 271.224 564.074C272.278 566.25 272.754 568.661 272.606 571.074C272.445 572.391 272.159 573.688 271.751 574.95L270.275 580.028C267.981 587.903 265.68 595.797 262.58 603.392C260.031 600.094 255.573 599.089 251.952 597.024C251.595 596.85 251.277 596.605 251.016 596.305C250.698 595.838 250.535 595.282 250.551 594.718C250.589 593.191 250.921 591.685 251.53 590.284C253.787 584.226 256.919 578.317 257.284 571.862C257.299 570.664 257.375 569.468 257.514 568.278C257.775 566.856 258.336 565.507 259.159 564.319C259.982 563.131 261.049 562.132 262.288 561.389C264.372 560.006 268.018 560.136 269.866 561.928Z" fill="#F4F6FB"/>
<path d="M246 527.5C247.24 528.821 250.295 540.196 250.5 542C250.5 542 248.5 544.5 247.549 550.5C246.098 554.964 254 563.5 254.5 570C256 574.5 257 576.5 257 576.5C257.794 575.62 262.489 617.639 263.5 617C276.5 614.5 285.825 631.534 290.5 629.5C280 608 277 573.5 275 558.5C275 558.5 273 550.5 278 546.5C283 542.5 282.5 530 282.5 530C282.5 523 282.627 518.184 279 513C275.726 508.306 274.95 508.286 269.5 506.5C265.581 505.26 256.919 504.399 253.105 505.967C248.238 507.964 239.444 515.603 239.5 521.5C239.5 521.5 243 521 246 527.5Z" fill="#F4F6FB"/>
<path d="M259.194 577.381C259.89 577.408 260.586 577.318 261.253 577.114C262.307 576.723 263.113 575.744 264.248 575.582C264.818 575.502 265.55 575.582 265.798 575.043C265.872 574.792 265.899 574.529 265.878 574.268C265.965 572.761 267.856 572.24 269.134 571.434C269.939 570.869 270.653 570.183 271.248 569.4L275.651 564.198C276.055 563.603 276.643 563.157 277.325 562.927C278.104 562.84 278.885 563.063 279.501 563.547C282.064 565.25 284.116 567.617 285.44 570.395C286.763 573.173 287.308 576.258 287.017 579.321C287.006 579.744 286.896 580.159 286.694 580.531C286.006 581.609 284.388 581.349 283.166 581.733C280.828 582.465 280.115 585.497 278.112 586.905C277.213 587.525 276.103 587.792 275.229 588.436C274.355 589.081 273.685 590.21 272.891 591.084C271.651 592.485 269.884 593.347 268.185 594.184L262.995 596.714C261.974 597.246 260.91 597.69 259.814 598.041C257.922 598.484 255.975 598.649 254.035 598.531L250.234 598.482C249.806 598.52 249.375 598.434 248.994 598.233C248.77 598.066 248.583 597.855 248.442 597.613C246.489 594.68 246.092 590.892 246.787 587.438C247.363 584.573 248.721 580.617 250.761 578.441C252.535 576.568 256.739 577.43 259.194 577.381Z" fill="#3F3D56"/>
<path d="M244.015 497.038C243.902 496.449 243.98 495.839 244.238 495.297C244.495 494.755 244.919 494.309 245.447 494.025L250.16 490.484L249.193 489.077L251.009 487.52C250.86 487.313 250.654 487.154 250.417 487.062C250.179 486.969 249.92 486.948 249.67 486.999C249.955 485.083 248.318 483.465 246.762 482.324C243.593 480.005 239.941 478.077 236.059 477.816C234.156 477.692 232.246 477.965 230.342 477.816C227.775 477.655 225.283 476.787 222.709 476.688C220.136 476.588 217.247 477.599 216.168 479.912C215.709 480.916 215.647 482.051 215.3 483.099C214.524 485.418 212.478 487.024 210.736 488.742C208.993 490.459 207.375 492.76 207.859 495.153C208.049 495.925 208.348 496.666 208.745 497.354L218.357 515.913C218.678 515.311 219.139 514.795 219.701 514.407C220.263 514.02 220.91 513.773 221.587 513.687C223.168 513.501 224.687 514.208 226.287 514.406C227.474 514.536 228.674 514.378 229.786 513.947C230.899 513.515 231.892 512.822 232.68 511.926C234.801 509.483 235.315 503.245 238.999 502.625C240.301 502.402 242.384 504.045 243.519 503.394C244.852 502.662 244.04 498.415 244.015 497.038Z" fill="#3F3D56"/>
<g opacity="0.1">
<path opacity="0.1" d="M251.27 556.453C255.579 554.593 258.649 550.501 260.106 546.042C261.563 541.584 261.544 536.741 261.011 532.103C260.806 530.305 260.465 528.383 259.219 527.068C255.127 522.728 242.725 528.693 242.614 519.975C242.545 514.946 249.385 508.41 254.395 505.353C253.946 505.473 253.505 505.62 253.074 505.794C248.207 507.79 238.813 515.771 238.868 521.661C238.98 530.379 251.381 524.433 255.474 528.761C256.714 530.076 257.061 531.992 257.266 533.796C257.799 538.453 257.812 543.271 256.361 547.729C254.91 552.187 251.834 556.286 247.525 558.14C252.82 558.996 258.99 559.566 263.163 556.583C259.498 557.545 255.151 557.08 251.27 556.453Z" fill="black"/>
<path opacity="0.1" d="M270.92 550.922C270.47 551.221 270.067 551.585 269.723 552.001C273.524 552.249 277.846 556.676 281.653 555.021C282.319 554.729 282.9 554.272 283.34 553.694C279.173 553.533 274.622 548.591 270.92 550.922Z" fill="black"/>
</g>
<g opacity="0.1">
<path opacity="0.1" d="M249.224 484.6C249.131 484.463 249.031 484.327 248.932 484.197C248.931 484.34 248.92 484.483 248.901 484.624C249.007 484.604 249.115 484.595 249.224 484.6V484.6Z" fill="black"/>
<path opacity="0.1" d="M251.171 487.52C251.021 487.313 250.816 487.154 250.578 487.062C250.34 486.969 250.081 486.948 249.831 486.999C249.9 486.531 249.858 486.053 249.707 485.604L248.424 486.702L249.391 488.103L244.678 491.65C244.15 491.935 243.727 492.38 243.469 492.922C243.211 493.464 243.133 494.074 243.246 494.663C243.246 496.04 244.083 500.287 242.744 501.05C241.615 501.701 239.526 500.058 238.23 500.281C234.546 500.901 234.032 507.102 231.911 509.582C231.123 510.478 230.13 511.171 229.017 511.603C227.905 512.034 226.705 512.192 225.518 512.062C223.937 511.87 222.418 511.163 220.818 511.349C220.141 511.436 219.493 511.684 218.931 512.071C218.368 512.458 217.905 512.974 217.581 513.575C214.386 507.4 211.191 501.226 207.995 495.054V495.19C208.19 495.962 208.491 496.702 208.888 497.392L218.487 515.913C218.81 515.311 219.273 514.796 219.836 514.409C220.399 514.021 221.046 513.774 221.723 513.687C223.305 513.501 224.824 514.208 226.424 514.406C227.61 514.536 228.81 514.378 229.923 513.946C231.035 513.515 232.028 512.822 232.816 511.926C234.937 509.483 235.452 503.245 239.135 502.625C240.431 502.402 242.521 504.045 243.649 503.394C244.988 502.631 244.176 498.384 244.151 497.007C244.084 496.374 244.178 495.734 244.424 495.147C244.718 494.675 245.114 494.274 245.584 493.975L250.296 490.434L249.329 489.027L251.171 487.52Z" fill="black"/>
</g>
<path opacity="0.1" d="M196.821 622.143C196.201 624.791 195.811 627.494 194.961 630.08C194.589 631.246 194.13 632.381 193.764 633.546C193.436 634.607 193.188 635.679 192.934 636.758L191.923 641.099C192.229 641.083 192.527 640.997 192.794 640.846C193.061 640.695 193.289 640.485 193.461 640.231C193.8 639.72 194.057 639.159 194.223 638.569L195.916 633.534L197.156 629.814C198.917 624.574 200.684 619.322 202.024 613.952C202.359 612.625 202.644 611.298 202.935 609.959C203.047 609.444 203.859 606.573 203.028 606.815C202.439 606.983 201.441 609.599 201.168 610.17C200.548 611.311 200.04 612.476 199.537 613.661C198.389 616.405 197.481 619.243 196.821 622.143V622.143Z" fill="black"/>
<path d="M229.164 552.708C229.164 552.708 226.362 551.697 225.673 552.9C225.673 552.9 230.77 554.76 231.8 557.439C231.8 557.439 233.114 556.087 231.316 554.37L230.981 551.852L229.164 552.708Z" fill="#00A66C"/>
<path d="M233.815 548.907C233.815 548.907 233.97 547.63 233.325 547.493C232.68 547.357 228.315 547.611 229.016 552.454C229.716 557.297 234.764 555.48 234.764 555.48L236.977 552.9C236.977 552.9 237.449 549.484 234.348 548.659L233.815 548.907Z" fill="#FA86BE"/>
<path opacity="0.1" d="M230.299 546.278C230.299 546.278 226.492 548.2 228.34 553.03L229.772 552.199C229.772 552.199 231.564 548.008 230.299 546.278Z" fill="black"/>
<path d="M230.162 546.179C230.162 546.179 226.361 548.101 228.209 552.931L229.319 553.582C229.319 553.582 231.434 547.909 230.162 546.179Z" fill="#FA86BE"/>
<path opacity="0.1" d="M236.376 551.139C236.575 551.811 236.983 552.402 237.541 552.826C238.434 553.446 236.655 554.878 236.655 554.878C236.655 554.878 234.249 557.613 231.973 556.28C230.615 553.992 231.638 553.675 231.638 553.675C231.638 553.675 234.478 550.556 236.376 551.139Z" fill="black"/>
<path d="M236.469 551.269C236.668 551.941 237.077 552.532 237.634 552.956C238.521 553.576 236.742 555.008 236.742 555.008C236.742 555.008 234.342 557.743 232.06 556.41C229.778 555.077 231.725 553.812 231.725 553.812C231.725 553.812 234.54 550.687 236.469 551.269Z" fill="#FA86BE"/>
<path d="M227.837 546.241C227.837 546.241 225.022 547.22 225.246 548.591C225.246 548.591 230.38 546.83 232.866 548.262C232.866 548.262 233.034 546.402 230.56 546.179L228.699 544.43L227.837 546.241Z" fill="#5F3839"/>
<path d="M229.028 540.344C229.028 540.344 228.346 539.253 227.788 539.55C227.23 539.848 223.974 542.793 227.552 546.104C231.13 549.416 233.926 544.864 233.926 544.864L233.988 541.466C233.988 541.466 232.203 538.515 229.276 539.829L229.028 540.344Z" fill="#FA86BE"/>
<path opacity="0.1" d="M224.687 540.53C224.687 540.53 222.939 544.418 227.422 547.01L228.011 545.466C228.011 545.466 226.746 541.082 224.687 540.53Z" fill="black"/>
<path d="M224.501 540.536C224.501 540.536 222.759 544.424 227.236 547.016L228.507 546.824C228.507 546.824 226.579 541.082 224.501 540.536Z" fill="#FA86BE"/>
<path opacity="0.1" d="M232.451 540.48C233.03 540.878 233.72 541.082 234.423 541.063C235.514 540.995 235.043 543.215 235.043 543.215C235.043 543.215 234.894 546.855 232.283 547.251C229.803 546.327 230.386 545.441 230.386 545.441C230.386 545.441 230.609 541.224 232.451 540.48Z" fill="black"/>
<path d="M232.587 540.542C233.166 540.941 233.856 541.145 234.559 541.125C235.65 541.057 235.179 543.277 235.179 543.277C235.179 543.277 235.036 546.917 232.426 547.313C229.815 547.71 230.528 545.503 230.528 545.503C230.528 545.503 230.745 541.286 232.587 540.542Z" fill="#FA86BE"/>
<path d="M218.27 547.4C218.27 547.4 219.163 546.619 219.652 547.648L219.237 549.955L216.676 572.798L215.039 575.793L218.27 547.4Z" fill="#00A66C"/>
<path d="M225.86 542.086L215.132 576.934L216.106 577.474L226.746 542.316L225.86 542.086Z" fill="#00A66C"/>
<path d="M222.927 557.886C222.927 557.886 220.521 566.982 217.867 570.609C215.213 574.237 215.715 577.244 215.715 577.244L216.583 577.511L223.714 558.518L222.927 557.886Z" fill="#00A66C"/>
<path d="M231.694 549.88L216.391 576.531L217.123 576.928L232.903 550.073L231.694 549.88Z" fill="#00A66C"/>
<path d="M235.074 556.918L216.013 576.785L216.583 577.523L235.886 557.365L235.074 556.918Z" fill="#00A66C"/>
<path d="M236.295 558.394C236.295 558.394 236.041 557.278 235.185 557.489C234.329 557.699 217.482 576.407 217.482 576.407L218.195 576.965L236.295 558.394Z" fill="#00A66C"/>
<path d="M217.445 546.197C217.445 546.197 214.568 546.979 214.704 548.361C214.704 548.361 219.944 546.96 222.325 548.56C222.325 548.56 222.622 546.7 220.167 546.321L218.443 544.461L217.445 546.197Z" fill="#00A66C"/>
<path d="M219.057 540.393C219.057 540.393 218.437 539.259 217.848 539.519C217.259 539.78 213.818 542.489 217.154 546.036C220.49 549.583 223.602 545.218 223.602 545.218L223.931 541.832C223.931 541.832 222.356 538.769 219.342 539.873L219.057 540.393Z" fill="#FA86BE"/>
<path opacity="0.1" d="M214.686 540.282C214.686 540.282 212.67 544.039 216.961 546.935L217.656 545.435C217.656 545.435 216.713 540.97 214.686 540.282Z" fill="black"/>
<path d="M214.518 540.276C214.518 540.276 212.503 544.033 216.794 546.929L218.078 546.83C218.078 546.83 216.552 540.964 214.518 540.276Z" fill="#FA86BE"/>
<path opacity="0.1" d="M222.449 540.772C223.002 541.201 223.677 541.444 224.377 541.466C225.469 541.466 224.824 543.655 224.824 543.655C224.824 543.655 224.427 547.276 221.798 547.493C219.373 546.402 220.031 545.552 220.031 545.552C220.031 545.552 220.564 541.386 222.449 540.772Z" fill="black"/>
<path d="M222.579 540.846C223.13 541.282 223.805 541.534 224.507 541.565C225.599 541.565 224.954 543.754 224.954 543.754C224.954 543.754 224.557 547.369 221.928 547.586C219.299 547.803 220.161 545.652 220.161 545.652C220.161 545.652 220.694 541.466 222.579 540.846Z" fill="#FA86BE"/>
<path d="M262.012 515.913C262.012 515.913 261.392 514.778 260.802 515.039C260.213 515.299 256.772 518.009 260.108 521.556C263.444 525.103 266.557 520.737 266.557 520.737L266.885 517.352C266.885 517.352 265.31 514.289 262.297 515.392L262.012 515.913Z" fill="#FA86BE"/>
<path d="M257.473 515.795C257.473 515.795 255.458 519.553 259.748 522.449L261.032 522.349C261.032 522.349 259.507 516.484 257.473 515.795Z" fill="#FA86BE"/>
<path d="M265.533 516.366C266.085 516.802 266.759 517.054 267.462 517.085C268.553 517.085 267.908 519.274 267.908 519.274C267.908 519.274 267.511 522.889 264.882 523.106C262.253 523.323 263.115 521.171 263.115 521.171C263.115 521.171 263.648 516.986 265.533 516.366Z" fill="#FA86BE"/>
<path d="M269.012 513.913C269.012 513.913 268.392 512.778 267.802 513.039C267.213 513.299 263.772 516.009 267.108 519.556C270.444 523.103 273.557 518.737 273.557 518.737L273.885 515.352C273.885 515.352 272.31 512.289 269.297 513.392L269.012 513.913Z" fill="#FA86BE"/>
<path d="M264.473 513.795C264.473 513.795 262.458 517.553 266.748 520.449L268.032 520.349C268.032 520.349 266.507 514.484 264.473 513.795Z" fill="#FA86BE"/>
<path d="M272.533 514.366C273.085 514.802 273.759 515.054 274.462 515.085C275.553 515.085 274.908 517.274 274.908 517.274C274.908 517.274 274.511 520.889 271.882 521.106C269.253 521.323 270.115 519.171 270.115 519.171C270.115 519.171 270.648 514.986 272.533 514.366Z" fill="#FA86BE"/>
<path d="M275.012 511.913C275.012 511.913 274.392 510.778 273.802 511.039C273.213 511.299 269.772 514.009 273.108 517.556C276.444 521.103 279.557 516.737 279.557 516.737L279.885 513.352C279.885 513.352 278.31 510.289 275.297 511.392L275.012 511.913Z" fill="#FA86BE"/>
<path d="M270.473 511.795C270.473 511.795 268.458 515.553 272.748 518.449L274.032 518.349C274.032 518.349 272.507 512.484 270.473 511.795Z" fill="#FA86BE"/>
<path d="M278.533 512.366C279.085 512.802 279.759 513.054 280.462 513.085C281.553 513.085 280.908 515.274 280.908 515.274C280.908 515.274 280.511 518.889 277.882 519.106C275.253 519.323 276.115 517.171 276.115 517.171C276.115 517.171 276.648 512.986 278.533 512.366Z" fill="#FA86BE"/>
<path d="M277.253 505.275C277.253 505.275 273.429 507.16 275.236 512.011L276.338 512.677C276.338 512.677 278.508 507.017 277.253 505.275Z" fill="#FA86BE"/>
<path d="M273.253 507.275C273.253 507.275 269.429 509.16 271.236 514.011L272.338 514.677C272.338 514.677 274.508 509.017 273.253 507.275Z" fill="#FA86BE"/>
<path d="M269.253 508.275C269.253 508.275 265.429 510.16 267.236 515.011L268.338 515.677C268.338 515.677 270.508 510.017 269.253 508.275Z" fill="#FA86BE"/>
<path d="M265.253 510.275C265.253 510.275 261.429 512.16 263.236 517.011L264.338 517.677C264.338 517.677 266.508 512.017 265.253 510.275Z" fill="#FA86BE"/>
<path d="M260.253 511.275C260.253 511.275 256.429 513.16 258.236 518.011L259.338 518.677C259.338 518.677 261.508 513.017 260.253 511.275Z" fill="#FA86BE"/>
<path d="M254.253 512.275C254.253 512.275 250.429 514.16 252.236 519.011L253.338 519.677C253.338 519.677 255.508 514.017 254.253 512.275Z" fill="#FA86BE"/>
<path d="M247.253 513.275C247.253 513.275 243.429 515.16 245.236 520.011L246.338 520.677C246.338 520.677 248.508 515.017 247.253 513.275Z" fill="#FA86BE"/>
<path d="M277.963 509.092C278.515 509.528 279.189 509.78 279.892 509.811C280.983 509.811 280.338 512 280.338 512C280.338 512 279.941 515.615 277.312 515.832C274.683 516.049 275.545 513.897 275.545 513.897C275.545 513.897 276.078 509.712 277.963 509.092Z" fill="#FA86BE"/>
<path d="M253.012 517.913C253.012 517.913 252.392 516.778 251.802 517.039C251.213 517.299 247.772 520.009 251.108 523.556C254.444 527.103 257.557 522.737 257.557 522.737L257.885 519.352C257.885 519.352 256.31 516.289 253.297 517.392L253.012 517.913Z" fill="#FA86BE"/>
<path d="M248.473 517.795C248.473 517.795 246.458 521.553 250.748 524.449L252.032 524.349C252.032 524.349 250.507 518.484 248.473 517.795Z" fill="#FA86BE"/>
<path d="M256.533 518.366C257.085 518.802 257.759 519.054 258.462 519.085C259.553 519.085 258.908 521.274 258.908 521.274C258.908 521.274 258.511 524.889 255.882 525.106C253.253 525.323 254.115 523.171 254.115 523.171C254.115 523.171 254.648 518.986 256.533 518.366Z" fill="#FA86BE"/>
<path d="M244.012 517.913C244.012 517.913 243.392 516.778 242.802 517.039C242.213 517.299 238.772 520.009 242.108 523.556C245.444 527.103 248.557 522.737 248.557 522.737L248.885 519.352C248.885 519.352 247.31 516.289 244.297 517.392L244.012 517.913Z" fill="#FA86BE"/>
<path d="M239.473 517.795C239.473 517.795 237.458 521.553 241.748 524.449L243.032 524.349C243.032 524.349 241.507 518.484 239.473 517.795Z" fill="#FA86BE"/>
<path d="M247.533 518.366C248.085 518.802 248.759 519.054 249.462 519.085C250.553 519.085 249.908 521.274 249.908 521.274C249.908 521.274 249.511 524.889 246.882 525.106C244.253 525.323 245.115 523.171 245.115 523.171C245.115 523.171 245.648 518.986 247.533 518.366Z" fill="#FA86BE"/>
<path d="M224.78 540.846C224.78 540.846 221.903 541.627 222.034 543.01C222.034 543.01 227.273 541.609 229.654 543.202C229.654 543.202 229.958 541.342 227.496 540.97L225.773 539.11L224.78 540.846Z" fill="#00A66C"/>
<path d="M226.386 535.055C226.386 535.055 225.766 533.92 225.177 534.18C224.588 534.441 221.147 537.15 224.483 540.697C227.819 544.244 230.931 539.879 230.931 539.879L231.26 536.493C231.26 536.493 229.685 533.43 226.672 534.534L226.386 535.055Z" fill="#FA86BE"/>
<path opacity="0.1" d="M222.015 534.943C222.015 534.943 220 538.701 224.29 541.596L224.985 540.096C224.985 540.096 224.067 535.631 222.015 534.943Z" fill="black"/>
<path d="M221.847 534.937C221.847 534.937 219.838 538.694 224.123 541.59L225.407 541.485C225.407 541.485 223.881 535.625 221.847 534.937Z" fill="#FA86BE"/>
<path opacity="0.1" d="M229.785 535.433C230.333 535.869 231.006 536.119 231.707 536.146C232.798 536.146 232.153 538.335 232.153 538.335C232.153 538.335 231.756 541.956 229.127 542.173C226.709 541.076 227.36 540.232 227.36 540.232C227.36 540.232 227.893 536.047 229.785 535.433Z" fill="black"/>
<path d="M229.915 535.501C230.463 535.937 231.137 536.187 231.837 536.214C232.928 536.214 232.283 538.403 232.283 538.403C232.283 538.403 231.886 542.024 229.257 542.241C226.628 542.458 227.49 540.3 227.49 540.3C227.49 540.3 228.023 536.115 229.915 535.501Z" fill="#FA86BE"/>
<path d="M230.975 548.287C230.975 548.287 228.172 547.276 227.484 548.479C227.484 548.479 232.581 550.339 233.616 553.018C233.616 553.018 234.931 551.666 233.133 549.949L232.798 547.431L230.975 548.287Z" fill="#00A66C"/>
<path d="M235.625 544.467C235.625 544.467 235.78 543.19 235.136 543.054C234.491 542.917 230.132 543.171 230.795 548.014C231.459 552.857 236.549 551.04 236.549 551.04L238.763 548.461C238.763 548.461 239.228 545.044 236.128 544.219L235.625 544.467Z" fill="#FA86BE"/>
<path opacity="0.1" d="M232.128 541.863C232.128 541.863 228.321 543.785 230.175 548.616L231.601 547.785C231.601 547.785 233.368 543.593 232.128 541.863Z" fill="black"/>
<path d="M231.979 541.764C231.979 541.764 228.172 543.686 230.02 548.516L231.13 549.167C231.13 549.167 233.244 543.494 231.979 541.764Z" fill="#FA86BE"/>
<path opacity="0.1" d="M238.186 546.724C238.389 547.395 238.797 547.984 239.352 548.411C240.245 549.031 238.465 550.463 238.465 550.463C238.465 550.463 236.06 553.198 233.784 551.865C232.432 549.583 233.449 549.26 233.449 549.26C233.449 549.26 236.289 546.141 238.186 546.724Z" fill="black"/>
<path d="M238.255 546.855C238.455 547.528 238.863 548.12 239.42 548.547C240.313 549.167 238.534 550.594 238.534 550.594C238.534 550.594 236.128 553.328 233.852 552.001C231.576 550.674 233.517 549.397 233.517 549.397C233.517 549.397 236.357 546.272 238.255 546.855Z" fill="#FA86BE"/>
<path d="M235.47 555.883C235.47 555.883 232.668 554.872 231.986 556.081C231.986 556.081 237.076 557.941 238.112 560.62C238.112 560.62 239.426 559.262 237.628 557.551L237.293 555.027L235.47 555.883Z" fill="#00A66C"/>
<path d="M240.121 552.057C240.121 552.057 240.276 550.78 239.631 550.649C238.986 550.519 234.627 550.761 235.328 555.61C236.029 560.459 241.076 558.642 241.076 558.642L243.29 556.056C243.29 556.056 243.755 552.646 240.654 551.821L240.121 552.057Z" fill="#FA86BE"/>
<path opacity="0.1" d="M236.605 549.453C236.605 549.453 232.798 551.375 234.652 556.211L236.078 555.38C236.078 555.38 237.876 551.183 236.605 549.453Z" fill="black"/>
<path d="M236.469 549.353C236.469 549.353 232.661 551.276 234.509 556.106L235.619 556.757C235.619 556.757 237.74 551.083 236.469 549.353Z" fill="#FA86BE"/>
<path opacity="0.1" d="M242.67 554.314C242.869 554.986 243.275 555.578 243.829 556.007C244.722 556.627 242.942 558.053 242.942 558.053C242.942 558.053 240.537 560.788 238.261 559.461C236.909 557.173 237.926 556.856 237.926 556.856C237.926 556.856 240.809 553.731 242.67 554.314Z" fill="black"/>
<path d="M242.75 554.45C242.95 555.122 243.358 555.713 243.916 556.137C244.809 556.757 243.029 558.189 243.029 558.189C243.029 558.189 240.623 560.924 238.348 559.591C236.072 558.258 238.013 556.986 238.013 556.986C238.013 556.986 240.853 553.868 242.75 554.45Z" fill="#FA86BE"/>
<path d="M236.041 558.431C236.041 558.431 233.238 557.421 232.55 558.63C232.55 558.63 237.647 560.49 238.676 563.169C238.676 563.169 239.997 561.811 238.199 560.099L237.858 557.576L236.041 558.431Z" fill="#00A66C"/>
<path d="M240.691 554.605C240.691 554.605 240.846 553.334 240.202 553.198C239.557 553.062 235.198 553.31 235.892 558.158C236.587 563.007 241.64 561.191 241.64 561.191L243.854 558.611C243.854 558.611 244.325 555.195 241.225 554.37L240.691 554.605Z" fill="#FA86BE"/>
<path opacity="0.1" d="M237.176 552.007C237.176 552.007 233.368 553.923 235.229 558.76L236.661 557.929C236.661 557.929 238.44 553.731 237.176 552.007Z" fill="black"/>
<path d="M237.039 551.902C237.039 551.902 233.238 553.824 235.086 558.654L236.196 559.312C236.196 559.312 238.329 553.632 237.039 551.902Z" fill="#FA86BE"/>
<path opacity="0.1" d="M243.252 556.862C243.453 557.536 243.861 558.128 244.418 558.555C245.311 559.175 243.531 560.602 243.531 560.602C243.531 560.602 241.125 563.342 238.85 562.009C237.492 559.721 238.515 559.405 238.515 559.405C238.515 559.405 241.355 556.28 243.252 556.862Z" fill="black"/>
<path d="M243.321 556.999C243.52 557.671 243.928 558.261 244.486 558.685C245.379 559.306 243.593 560.738 243.593 560.738C243.593 560.738 241.194 563.472 238.918 562.139C236.642 560.806 238.577 559.535 238.577 559.535C238.577 559.535 241.429 556.416 243.321 556.999Z" fill="#FA86BE"/>
<path d="M222.387 556.769C222.387 556.769 219.584 555.753 218.896 556.962C218.896 556.962 223.993 558.822 225.022 561.501C225.022 561.501 226.337 560.149 224.539 558.431L224.204 555.908L222.387 556.769Z" fill="#00A66C"/>
<path d="M227.038 552.937C227.038 552.937 227.193 551.666 226.548 551.53C225.903 551.393 221.538 551.648 222.238 556.49C222.939 561.333 227.986 559.523 227.986 559.523L230.2 556.943C230.2 556.943 230.671 553.526 227.571 552.702L227.038 552.937Z" fill="#FA86BE"/>
<path opacity="0.1" d="M223.522 550.339C223.522 550.339 219.727 552.262 221.587 557.092L223.02 556.261C223.02 556.261 224.787 552.069 223.522 550.339Z" fill="black"/>
<path d="M223.385 550.24C223.385 550.24 219.584 552.156 221.432 556.993L222.542 557.613C222.542 557.613 224.687 551.97 223.385 550.24Z" fill="#FA86BE"/>
<path opacity="0.1" d="M229.598 555.195C229.797 555.868 230.206 556.461 230.764 556.887C231.657 557.507 229.877 558.94 229.877 558.94C229.877 558.94 227.472 561.674 225.196 560.341C223.838 558.053 224.861 557.737 224.861 557.737C224.861 557.737 227.701 554.612 229.598 555.195Z" fill="black"/>
<path d="M229.648 555.331C229.848 556.003 230.256 556.593 230.814 557.017C231.7 557.638 229.921 559.07 229.921 559.07C229.921 559.07 227.521 561.804 225.239 560.471C222.957 559.138 224.904 557.867 224.904 557.867C224.904 557.867 227.788 554.748 229.648 555.331Z" fill="#FA86BE"/>
<path d="M223.918 548.417C223.918 548.417 221.11 547.4 220.427 548.609C220.427 548.609 225.524 550.469 226.554 553.148C226.554 553.148 227.868 551.796 226.07 550.079L225.735 547.555L223.918 548.417Z" fill="#00A66C"/>
<path d="M228.569 544.567C228.569 544.567 228.724 543.326 228.079 543.159C227.434 542.992 223.069 543.277 223.739 548.12C224.408 552.962 229.487 551.152 229.487 551.152L231.7 548.572C231.7 548.572 232.165 545.156 229.065 544.331L228.569 544.567Z" fill="#FA86BE"/>
<path opacity="0.1" d="M225.047 541.987C225.047 541.987 221.246 543.903 223.094 548.739L224.526 547.909C224.526 547.909 226.318 543.717 225.047 541.987Z" fill="black"/>
<path d="M224.917 541.888C224.917 541.888 221.11 543.804 222.964 548.64L224.067 549.291C224.067 549.291 226.188 543.618 224.917 541.888Z" fill="#FA86BE"/>
<path opacity="0.1" d="M231.13 546.842C231.33 547.515 231.738 548.108 232.296 548.535C233.189 549.155 231.409 550.587 231.409 550.587C231.409 550.587 229.003 553.322 226.727 551.989C225.37 549.701 226.393 549.384 226.393 549.384C226.393 549.384 229.226 546.259 231.13 546.842Z" fill="black"/>
<path d="M231.192 546.979C231.391 547.65 231.8 548.241 232.357 548.665C233.25 549.285 231.471 550.718 231.471 550.718C231.471 550.718 229.065 553.452 226.789 552.119C224.514 550.786 226.454 549.515 226.454 549.515C226.454 549.515 229.294 546.427 231.192 546.979Z" fill="#FA86BE"/>
<path d="M214.58 561.048C214.58 561.048 222.263 561.897 226.436 575.26C230.609 588.622 217.482 578.627 217.482 578.627C217.482 578.627 214.022 579.321 213.483 572.346C212.943 565.37 214.58 561.048 214.58 561.048Z" fill="#FBBEBE"/>
<path d="M215.433 570.856L213.596 571.671C213.38 571.767 213.282 572.018 213.377 572.233C213.472 572.447 213.725 572.543 213.941 572.447L215.777 571.633C215.993 571.537 216.091 571.285 215.996 571.071C215.901 570.857 215.649 570.76 215.433 570.856Z" fill="#E3E8F4"/>
<path opacity="0.1" d="M182.951 521.326L181.71 520.198C177.258 516.105 174.313 513.451 174.313 510.14C174.302 509.511 174.418 508.885 174.653 508.301C174.888 507.717 175.238 507.186 175.682 506.74C176.126 506.294 176.655 505.941 177.238 505.703C177.821 505.465 178.446 505.346 179.075 505.353C179.818 505.357 180.551 505.523 181.224 505.839C181.896 506.155 182.492 506.613 182.969 507.183C183.446 506.612 184.041 506.153 184.714 505.837C185.386 505.521 186.12 505.356 186.863 505.353C187.492 505.347 188.116 505.466 188.698 505.705C189.28 505.943 189.809 506.296 190.252 506.742C190.695 507.189 191.045 507.719 191.28 508.303C191.514 508.887 191.63 509.511 191.619 510.14C191.619 513.451 188.68 516.105 184.222 520.198L182.951 521.326Z" fill="#FA86BE"/>
<path opacity="0.1" d="M165.644 450.973L164.404 449.839C159.946 445.752 157.001 443.092 157.001 439.787C156.99 439.158 157.105 438.532 157.341 437.948C157.576 437.364 157.926 436.833 158.37 436.387C158.814 435.941 159.343 435.588 159.926 435.35C160.509 435.112 161.133 434.993 161.763 435C162.506 435.004 163.239 435.17 163.911 435.486C164.584 435.802 165.18 436.26 165.657 436.83C166.134 436.26 166.729 435.801 167.402 435.485C168.074 435.169 168.808 435.004 169.551 435C170.18 434.994 170.804 435.113 171.386 435.352C171.968 435.59 172.496 435.943 172.94 436.389C173.383 436.836 173.733 437.366 173.967 437.95C174.202 438.534 174.318 439.158 174.307 439.787C174.307 443.092 171.368 445.752 166.909 449.839L165.644 450.973Z" fill="#FA86BE"/>
<path opacity="0.1" d="M295.512 484.699L294.271 483.564C289.813 479.478 286.874 476.818 286.874 473.513C286.863 472.884 286.979 472.259 287.213 471.675C287.448 471.092 287.798 470.561 288.241 470.115C288.684 469.669 289.213 469.316 289.795 469.077C290.377 468.839 291.001 468.719 291.63 468.726C292.373 468.729 293.106 468.895 293.779 469.211C294.451 469.527 295.047 469.985 295.524 470.555C296.001 469.986 296.597 469.527 297.269 469.211C297.942 468.895 298.675 468.73 299.418 468.726C300.048 468.718 300.672 468.837 301.255 469.075C301.838 469.314 302.367 469.666 302.811 470.113C303.255 470.559 303.605 471.09 303.84 471.674C304.075 472.258 304.191 472.883 304.18 473.513C304.18 476.818 301.235 479.478 296.783 483.564L295.512 484.699Z" fill="#FA86BE"/>
</g>
<defs>
<filter id="filter0_d_34_2567" x="-700" y="-470" width="1247" height="1247" filterUnits="userSpaceOnUse" color-interpolation-filters="sRGB">
<feFlood flood-opacity="0" result="BackgroundImageFix"/>
<feColorMatrix in="SourceAlpha" type="matrix" values="0 0 0 0 0 0 0 0 0 0 0 0 0 0 0 0 0 0 127 0" result="hardAlpha"/>
<feOffset dy="4"/>
<feGaussianBlur stdDeviation="50"/>
<feComposite in2="hardAlpha" operator="out"/>
<feColorMatrix type="matrix" values="0 0 0 0 0.960784 0 0 0 0 0.905882 0 0 0 0 0.933333 0 0 0 1 0"/>
<feBlend mode="normal" in2="BackgroundImageFix" result="effect1_dropShadow_34_2567"/>
<feBlend mode="normal" in="SourceGraphic" in2="effect1_dropShadow_34_2567" result="shape"/>
</filter>
<linearGradient id="paint0_linear_34_2567" x1="291.537" y1="798.187" x2="291.537" y2="474.592" gradientUnits="userSpaceOnUse">
<stop stop-color="#808080" stop-opacity="0.25"/>
<stop offset="0.54" stop-color="#808080" stop-opacity="0.12"/>
<stop offset="1" stop-color="#808080" stop-opacity="0.1"/>
</linearGradient>
<clipPath id="clip0_34_2567">
<rect width="375" height="812" fill="white"/>
</clipPath>
</defs>
</svg>
