<svg width="375" height="812" viewBox="0 0 375 812" fill="none" xmlns="http://www.w3.org/2000/svg">
<g clip-path="url(#clip0_34_597)">
<rect width="375" height="812" fill="#F5E7EE"/>
<g filter="url(#filter0_d_34_597)">
<circle cx="188" cy="610" r="375" fill="#FA86BE"/>
</g>
<path d="M51.95 103.55C51.95 103.983 50.9167 104.333 48.85 104.6C46.8167 104.867 44.7833 105 42.75 105C40.7167 105 39.4167 104.883 38.85 104.65C38.2833 104.417 38 104.05 38 103.55V72.85C38 72.0167 38.95 71.25 40.85 70.55C42.7833 69.85 44.9667 69.5 47.4 69.5C48.2667 69.5 48.9167 69.5333 49.35 69.6C50.4833 69.7667 51.2833 70.4833 51.75 71.75L56.55 84.65H56.75V72.85C56.75 72.0167 57.7 71.25 59.6 70.55C61.5 69.85 63.6667 69.5 66.1 69.5C68.2 69.5 69.5333 69.9 70.1 70.7C70.5 71.2667 70.7 71.7833 70.7 72.25V103.55C70.7 103.983 69.6667 104.333 67.6 104.6C65.5667 104.867 63.3167 105 60.85 105C58.4167 105 57.0833 104.683 56.85 104.05L52.2 91.75H51.95V103.55ZM88.6688 103.8C88.6688 104.167 87.6521 104.467 85.6188 104.7C83.5854 104.9 81.5354 105 79.4688 105C77.4354 105 76.1354 104.917 75.5688 104.75C75.0021 104.55 74.7188 104.233 74.7188 103.8V72.7C74.7188 71.9667 75.6854 71.25 77.6188 70.55C79.5521 69.8167 81.7188 69.45 84.1188 69.45C86.2521 69.45 87.6521 69.9 88.3188 70.8C88.5521 71.1333 88.6688 71.4667 88.6688 71.8V103.8ZM106.638 103.45C106.638 103.883 105.604 104.233 103.537 104.5C101.504 104.767 99.4708 104.9 97.4375 104.9C95.4042 104.9 94.1042 104.783 93.5375 104.55C92.9708 104.317 92.6875 103.95 92.6875 103.45V72.8C92.6875 71.9333 93.6208 71.1667 95.4875 70.5C97.3875 69.8333 99.5708 69.5 102.038 69.5C104.071 69.5 105.388 69.9 105.988 70.7C106.421 71.2667 106.638 71.7833 106.638 72.25V80.5H107.038C107.038 80.3333 107.538 78.95 108.538 76.35C110.438 71.45 111.821 69 112.688 69C114.321 69 116.621 69.4833 119.588 70.45C121.021 70.9167 122.254 71.6 123.288 72.5C124.321 73.3667 124.838 74.3333 124.838 75.4C124.838 76.0667 124.154 77.3667 122.788 79.3C121.454 81.2 119.421 83.75 116.688 86.95C117.321 87.6167 118.121 88.4667 119.088 89.5C120.054 90.5333 121.338 92.0833 122.938 94.15C124.571 96.1833 125.388 97.6333 125.388 98.5C125.388 99.3667 124.604 100.383 123.038 101.55C121.471 102.683 119.804 103.617 118.038 104.35C116.271 105.05 114.954 105.4 114.088 105.4C113.521 105.4 112.738 104.55 111.738 102.85C110.771 101.117 109.588 98.5333 108.188 95.1L106.638 96.95V103.45ZM160.437 91.05C160.437 95.85 159.053 99.45 156.287 101.85C153.553 104.217 149.57 105.4 144.337 105.4C139.137 105.4 135.137 104.217 132.337 101.85C129.537 99.45 128.137 95.85 128.137 91.05V72.7C128.137 71.8667 129.07 71.1167 130.937 70.45C132.837 69.7833 135.037 69.45 137.537 69.45C139.537 69.45 140.837 69.8333 141.437 70.6C141.87 71.2 142.087 71.7167 142.087 72.15V87.05C142.087 90.8167 142.22 93.3167 142.487 94.55C142.787 95.75 143.403 96.35 144.337 96.35C145.27 96.35 145.853 95.7667 146.087 94.6C146.353 93.4 146.487 90.8667 146.487 87V72.7C146.487 71.8667 147.42 71.1167 149.287 70.45C151.187 69.7833 153.37 69.45 155.837 69.45C157.937 69.45 159.27 69.8333 159.837 70.6C160.237 71.2 160.437 71.7167 160.437 72.15V91.05ZM186.766 103.55C186.766 103.983 185.749 104.333 183.716 104.6C181.683 104.867 179.649 105 177.616 105C175.616 105 174.316 104.9 173.716 104.7C173.116 104.467 172.816 104.083 172.816 103.55V94.85C166.216 81.35 162.916 74.0167 162.916 72.85C162.916 72.15 164.033 71.4167 166.266 70.65C168.499 69.8833 170.849 69.5 173.316 69.5C176.483 69.5 178.166 70.4333 178.366 72.3L179.716 85.75H180.266L181.216 72.65C181.283 71.7167 182.466 70.9667 184.766 70.4C187.066 69.8 189.249 69.5 191.316 69.5C193.383 69.5 194.816 69.8 195.616 70.4C196.416 71 196.816 71.6333 196.816 72.3C196.816 72.9333 193.466 80.45 186.766 94.85V103.55Z" fill="#40394A"/>
<path d="M36.984 126.06V117.168H40.272C41.28 117.168 42.052 117.38 42.588 117.804C43.132 118.228 43.404 118.832 43.404 119.616V119.796C43.404 120.196 43.328 120.536 43.176 120.816C43.032 121.088 42.828 121.312 42.564 121.488C42.932 121.656 43.224 121.896 43.44 122.208C43.656 122.52 43.764 122.92 43.764 123.408V123.576C43.764 124.368 43.496 124.98 42.96 125.412C42.424 125.844 41.644 126.06 40.62 126.06H36.984ZM40.392 118.704H38.904V120.84H40.392C40.76 120.84 41.028 120.744 41.196 120.552C41.372 120.36 41.46 120.104 41.46 119.784C41.46 119.448 41.372 119.184 41.196 118.992C41.028 118.8 40.76 118.704 40.392 118.704ZM40.716 122.328H38.904V124.524H40.716C41.084 124.524 41.36 124.432 41.544 124.248C41.728 124.056 41.82 123.78 41.82 123.42C41.82 122.692 41.452 122.328 40.716 122.328ZM47.4046 126.204C46.6446 126.204 46.0606 125.96 45.6526 125.472C45.2446 124.984 45.0406 124.24 45.0406 123.24V119.424H46.9606V123.336C46.9606 123.688 47.0606 123.968 47.2606 124.176C47.4606 124.384 47.7286 124.488 48.0646 124.488C48.4086 124.488 48.6886 124.38 48.9046 124.164C49.1206 123.948 49.2286 123.656 49.2286 123.288V119.424H51.1486V126H49.6246V124.464C49.3526 125.624 48.6406 126.204 47.4886 126.204H47.4046ZM54.791 126.168C54.079 126.168 53.503 125.984 53.063 125.616C52.631 125.248 52.415 124.728 52.415 124.056C52.415 123.576 52.539 123.184 52.787 122.88C53.035 122.568 53.383 122.34 53.831 122.196C54.279 122.044 54.795 121.968 55.379 121.968H56.567V121.944C56.567 121.272 56.231 120.936 55.559 120.936C55.383 120.936 55.151 120.944 54.863 120.96C54.575 120.968 54.275 120.98 53.963 120.996C53.659 121.004 53.387 121.016 53.147 121.032V119.412C53.427 119.388 53.771 119.368 54.179 119.352C54.587 119.328 54.963 119.316 55.307 119.316C56.315 119.316 57.083 119.532 57.611 119.964C58.147 120.388 58.415 121.056 58.415 121.968V126H56.891V124.764C56.747 125.22 56.499 125.568 56.147 125.808C55.795 126.048 55.343 126.168 54.791 126.168ZM55.367 124.836C55.679 124.836 55.951 124.748 56.183 124.572C56.415 124.396 56.543 124.06 56.567 123.564V123.036H55.367C55.031 123.036 54.771 123.12 54.587 123.288C54.411 123.456 54.323 123.676 54.323 123.948C54.323 124.212 54.411 124.428 54.587 124.596C54.771 124.756 55.031 124.836 55.367 124.836ZM63.032 126.084C62.368 126.084 61.832 126.004 61.424 125.844C61.016 125.676 60.716 125.4 60.524 125.016C60.34 124.624 60.248 124.096 60.248 123.432V120.828H59.252V119.424H60.248V117.648H62.036V119.424H63.956V120.828H62.036V123.504C62.036 123.816 62.116 124.056 62.276 124.224C62.444 124.384 62.68 124.464 62.984 124.464H63.956V126.084H63.032ZM69.9866 126.204C69.2266 126.204 68.6426 125.96 68.2346 125.472C67.8266 124.984 67.6226 124.24 67.6226 123.24V119.424H69.5426V123.336C69.5426 123.688 69.6426 123.968 69.8426 124.176C70.0426 124.384 70.3106 124.488 70.6466 124.488C70.9906 124.488 71.2706 124.38 71.4866 124.164C71.7026 123.948 71.8106 123.656 71.8106 123.288V119.424H73.7306V126H72.2066V124.464C71.9346 125.624 71.2226 126.204 70.0706 126.204H69.9866ZM75.501 126V119.424H77.025V121.104C77.289 119.848 78.029 119.22 79.245 119.22H79.329C80.089 119.22 80.673 119.472 81.081 119.976C81.489 120.472 81.693 121.228 81.693 122.244V126H79.773V122.136C79.773 121.784 79.669 121.496 79.461 121.272C79.253 121.048 78.973 120.936 78.621 120.936C78.261 120.936 77.969 121.052 77.745 121.284C77.529 121.508 77.421 121.804 77.421 122.172V126H75.501ZM86.0411 126.216C85.4251 126.216 84.8811 126.072 84.4091 125.784C83.9451 125.488 83.5811 125.088 83.3171 124.584C83.0531 124.08 82.9211 123.512 82.9211 122.88V122.604C82.9211 121.972 83.0451 121.4 83.2931 120.888C83.5411 120.376 83.8931 119.972 84.3491 119.676C84.8131 119.38 85.3531 119.232 85.9691 119.232C86.9291 119.232 87.6371 119.596 88.0931 120.324V117.24H90.0251V126H88.5011V124.62C88.2851 125.14 87.9651 125.536 87.5411 125.808C87.1171 126.08 86.6171 126.216 86.0411 126.216ZM86.5211 124.608C86.9611 124.608 87.3411 124.46 87.6611 124.164C87.9811 123.868 88.1411 123.448 88.1411 122.904V122.46C88.1411 122.116 88.0651 121.824 87.9131 121.584C87.7611 121.336 87.5611 121.148 87.3131 121.02C87.0651 120.892 86.7971 120.828 86.5091 120.828C86.0211 120.828 85.6211 121.004 85.3091 121.356C84.9971 121.708 84.8411 122.168 84.8411 122.736C84.8411 123.312 84.9971 123.768 85.3091 124.104C85.6291 124.44 86.0331 124.608 86.5211 124.608ZM93.6386 126.168C92.9266 126.168 92.3506 125.984 91.9106 125.616C91.4786 125.248 91.2626 124.728 91.2626 124.056C91.2626 123.576 91.3866 123.184 91.6346 122.88C91.8826 122.568 92.2306 122.34 92.6786 122.196C93.1266 122.044 93.6426 121.968 94.2266 121.968H95.4146V121.944C95.4146 121.272 95.0786 120.936 94.4066 120.936C94.2306 120.936 93.9986 120.944 93.7106 120.96C93.4226 120.968 93.1226 120.98 92.8106 120.996C92.5066 121.004 92.2346 121.016 91.9946 121.032V119.412C92.2746 119.388 92.6186 119.368 93.0266 119.352C93.4346 119.328 93.8106 119.316 94.1546 119.316C95.1626 119.316 95.9306 119.532 96.4586 119.964C96.9946 120.388 97.2626 121.056 97.2626 121.968V126H95.7386V124.764C95.5946 125.22 95.3466 125.568 94.9946 125.808C94.6426 126.048 94.1906 126.168 93.6386 126.168ZM94.2146 124.836C94.5266 124.836 94.7986 124.748 95.0306 124.572C95.2626 124.396 95.3906 124.06 95.4146 123.564V123.036H94.2146C93.8786 123.036 93.6186 123.12 93.4346 123.288C93.2586 123.456 93.1706 123.676 93.1706 123.948C93.1706 124.212 93.2586 124.428 93.4346 124.596C93.6186 124.756 93.8786 124.836 94.2146 124.836ZM98.8916 126V119.424H100.416V121.104C100.68 119.848 101.42 119.22 102.636 119.22H102.72C103.48 119.22 104.064 119.472 104.472 119.976C104.88 120.472 105.084 121.228 105.084 122.244V126H103.164V122.136C103.164 121.784 103.06 121.496 102.852 121.272C102.644 121.048 102.364 120.936 102.012 120.936C101.652 120.936 101.36 121.052 101.136 121.284C100.92 121.508 100.812 121.804 100.812 122.172V126H98.8916ZM109.312 128.616C108.984 128.616 108.652 128.604 108.316 128.58C107.98 128.556 107.676 128.524 107.404 128.484V126.864C107.684 126.904 107.992 126.936 108.328 126.96C108.664 126.992 108.976 127.008 109.264 127.008C110.04 127.008 110.6 126.872 110.944 126.6C111.296 126.336 111.472 125.916 111.472 125.34V124.764C111.264 125.18 110.968 125.5 110.584 125.724C110.208 125.94 109.764 126.048 109.252 126.048C108.652 126.048 108.132 125.908 107.692 125.628C107.252 125.34 106.912 124.948 106.672 124.452C106.432 123.956 106.312 123.4 106.312 122.784V122.508C106.312 121.884 106.44 121.328 106.696 120.84C106.952 120.344 107.308 119.952 107.764 119.664C108.228 119.376 108.764 119.232 109.372 119.232C109.94 119.232 110.428 119.368 110.836 119.64C111.244 119.912 111.552 120.304 111.76 120.816V119.424H113.284V125.22C113.284 126.436 112.956 127.304 112.3 127.824C111.652 128.352 110.656 128.616 109.312 128.616ZM109.852 124.428C110.292 124.428 110.664 124.284 110.968 123.996C111.28 123.7 111.436 123.288 111.436 122.76V122.412C111.436 122.068 111.36 121.78 111.208 121.548C111.064 121.308 110.872 121.128 110.632 121.008C110.392 120.88 110.136 120.816 109.864 120.816C109.376 120.816 108.98 120.984 108.676 121.32C108.38 121.648 108.232 122.088 108.232 122.64C108.232 123.2 108.384 123.64 108.688 123.96C108.992 124.272 109.38 124.428 109.852 124.428ZM116.818 126.168C116.106 126.168 115.53 125.984 115.09 125.616C114.658 125.248 114.442 124.728 114.442 124.056C114.442 123.576 114.566 123.184 114.814 122.88C115.062 122.568 115.41 122.34 115.858 122.196C116.306 122.044 116.822 121.968 117.406 121.968H118.594V121.944C118.594 121.272 118.258 120.936 117.586 120.936C117.41 120.936 117.178 120.944 116.89 120.96C116.602 120.968 116.302 120.98 115.99 120.996C115.686 121.004 115.414 121.016 115.174 121.032V119.412C115.454 119.388 115.798 119.368 116.206 119.352C116.614 119.328 116.99 119.316 117.334 119.316C118.342 119.316 119.11 119.532 119.638 119.964C120.174 120.388 120.442 121.056 120.442 121.968V126H118.918V124.764C118.774 125.22 118.526 125.568 118.174 125.808C117.822 126.048 117.37 126.168 116.818 126.168ZM117.394 124.836C117.706 124.836 117.978 124.748 118.21 124.572C118.442 124.396 118.57 124.06 118.594 123.564V123.036H117.394C117.058 123.036 116.798 123.12 116.614 123.288C116.438 123.456 116.35 123.676 116.35 123.948C116.35 124.212 116.438 124.428 116.614 124.596C116.798 124.756 117.058 124.836 117.394 124.836ZM122.071 126V119.424H123.595V121.104C123.859 119.848 124.599 119.22 125.815 119.22H125.899C126.659 119.22 127.243 119.472 127.651 119.976C128.059 120.472 128.263 121.228 128.263 122.244V126H126.343V122.136C126.343 121.784 126.239 121.496 126.031 121.272C125.823 121.048 125.543 120.936 125.191 120.936C124.831 120.936 124.539 121.052 124.315 121.284C124.099 121.508 123.991 121.804 123.991 122.172V126H122.071ZM132.419 126V119.424H133.943V121.104C134.207 119.848 134.947 119.22 136.163 119.22H136.247C137.007 119.22 137.591 119.472 137.999 119.976C138.407 120.472 138.611 121.228 138.611 122.244V126H136.691V122.136C136.691 121.784 136.587 121.496 136.379 121.272C136.171 121.048 135.891 120.936 135.539 120.936C135.179 120.936 134.887 121.052 134.663 121.284C134.447 121.508 134.339 121.804 134.339 122.172V126H132.419ZM141.303 118.776C140.943 118.776 140.675 118.684 140.499 118.5C140.331 118.308 140.247 118.068 140.247 117.78C140.247 117.484 140.331 117.244 140.499 117.06C140.675 116.868 140.943 116.772 141.303 116.772C141.663 116.772 141.927 116.868 142.095 117.06C142.271 117.244 142.359 117.484 142.359 117.78C142.359 118.068 142.271 118.308 142.095 118.5C141.927 118.684 141.663 118.776 141.303 118.776ZM140.559 126V120.84H139.683V119.424H142.479V126H140.559ZM144.255 126V117.24H146.175V122.544L148.563 119.424H150.579L148.419 122.232L151.047 126H148.887L146.811 122.928H146.175V126H144.255ZM153.674 126.168C152.962 126.168 152.386 125.984 151.946 125.616C151.514 125.248 151.298 124.728 151.298 124.056C151.298 123.576 151.422 123.184 151.67 122.88C151.918 122.568 152.266 122.34 152.714 122.196C153.162 122.044 153.678 121.968 154.262 121.968H155.45V121.944C155.45 121.272 155.114 120.936 154.442 120.936C154.266 120.936 154.034 120.944 153.746 120.96C153.458 120.968 153.158 120.98 152.846 120.996C152.542 121.004 152.27 121.016 152.03 121.032V119.412C152.31 119.388 152.654 119.368 153.062 119.352C153.47 119.328 153.846 119.316 154.19 119.316C155.198 119.316 155.966 119.532 156.494 119.964C157.03 120.388 157.298 121.056 157.298 121.968V126H155.774V124.764C155.63 125.22 155.382 125.568 155.03 125.808C154.678 126.048 154.226 126.168 153.674 126.168ZM154.25 124.836C154.562 124.836 154.834 124.748 155.066 124.572C155.298 124.396 155.426 124.06 155.45 123.564V123.036H154.25C153.914 123.036 153.654 123.12 153.47 123.288C153.294 123.456 153.206 123.676 153.206 123.948C153.206 124.212 153.294 124.428 153.47 124.596C153.654 124.756 153.914 124.836 154.25 124.836ZM158.927 126V117.24H160.847V120.504C161.199 119.648 161.847 119.22 162.791 119.22H162.875C163.603 119.22 164.159 119.48 164.543 120C164.927 120.512 165.119 121.264 165.119 122.256V126H163.199V122.136C163.199 121.776 163.091 121.488 162.875 121.272C162.667 121.048 162.391 120.936 162.047 120.936C161.687 120.936 161.395 121.056 161.171 121.296C160.955 121.528 160.847 121.832 160.847 122.208V126H158.927ZM171.986 126.216C171.37 126.216 170.826 126.072 170.354 125.784C169.89 125.488 169.526 125.088 169.262 124.584C168.998 124.08 168.866 123.512 168.866 122.88V122.604C168.866 121.972 168.99 121.4 169.238 120.888C169.486 120.376 169.838 119.972 170.294 119.676C170.758 119.38 171.298 119.232 171.914 119.232C172.874 119.232 173.582 119.596 174.038 120.324V117.24H175.97V126H174.446V124.62C174.23 125.14 173.91 125.536 173.486 125.808C173.062 126.08 172.562 126.216 171.986 126.216ZM172.466 124.608C172.906 124.608 173.286 124.46 173.606 124.164C173.926 123.868 174.086 123.448 174.086 122.904V122.46C174.086 122.116 174.01 121.824 173.858 121.584C173.706 121.336 173.506 121.148 173.258 121.02C173.01 120.892 172.742 120.828 172.454 120.828C171.966 120.828 171.566 121.004 171.254 121.356C170.942 121.708 170.786 122.168 170.786 122.736C170.786 123.312 170.942 123.768 171.254 124.104C171.574 124.44 171.978 124.608 172.466 124.608ZM178.768 118.776C178.408 118.776 178.14 118.684 177.964 118.5C177.796 118.308 177.712 118.068 177.712 117.78C177.712 117.484 177.796 117.244 177.964 117.06C178.14 116.868 178.408 116.772 178.768 116.772C179.128 116.772 179.392 116.868 179.56 117.06C179.736 117.244 179.824 117.484 179.824 117.78C179.824 118.068 179.736 118.308 179.56 118.5C179.392 118.684 179.128 118.776 178.768 118.776ZM178.024 126V120.84H177.148V119.424H179.944V126H178.024ZM184.312 128.616C183.984 128.616 183.652 128.604 183.316 128.58C182.98 128.556 182.676 128.524 182.404 128.484V126.864C182.684 126.904 182.992 126.936 183.328 126.96C183.664 126.992 183.976 127.008 184.264 127.008C185.04 127.008 185.6 126.872 185.944 126.6C186.296 126.336 186.472 125.916 186.472 125.34V124.764C186.264 125.18 185.968 125.5 185.584 125.724C185.208 125.94 184.764 126.048 184.252 126.048C183.652 126.048 183.132 125.908 182.692 125.628C182.252 125.34 181.912 124.948 181.672 124.452C181.432 123.956 181.312 123.4 181.312 122.784V122.508C181.312 121.884 181.44 121.328 181.696 120.84C181.952 120.344 182.308 119.952 182.764 119.664C183.228 119.376 183.764 119.232 184.372 119.232C184.94 119.232 185.428 119.368 185.836 119.64C186.244 119.912 186.552 120.304 186.76 120.816V119.424H188.284V125.22C188.284 126.436 187.956 127.304 187.3 127.824C186.652 128.352 185.656 128.616 184.312 128.616ZM184.852 124.428C185.292 124.428 185.664 124.284 185.968 123.996C186.28 123.7 186.436 123.288 186.436 122.76V122.412C186.436 122.068 186.36 121.78 186.208 121.548C186.064 121.308 185.872 121.128 185.632 121.008C185.392 120.88 185.136 120.816 184.864 120.816C184.376 120.816 183.98 120.984 183.676 121.32C183.38 121.648 183.232 122.088 183.232 122.64C183.232 123.2 183.384 123.64 183.688 123.96C183.992 124.272 184.38 124.428 184.852 124.428ZM191.002 118.776C190.642 118.776 190.374 118.684 190.198 118.5C190.03 118.308 189.946 118.068 189.946 117.78C189.946 117.484 190.03 117.244 190.198 117.06C190.374 116.868 190.642 116.772 191.002 116.772C191.362 116.772 191.626 116.868 191.794 117.06C191.97 117.244 192.058 117.484 192.058 117.78C192.058 118.068 191.97 118.308 191.794 118.5C191.626 118.684 191.362 118.776 191.002 118.776ZM190.258 126V120.84H189.382V119.424H192.178V126H190.258ZM196.942 126.084C196.278 126.084 195.742 126.004 195.334 125.844C194.926 125.676 194.626 125.4 194.434 125.016C194.25 124.624 194.158 124.096 194.158 123.432V120.828H193.162V119.424H194.158V117.648H195.946V119.424H197.866V120.828H195.946V123.504C195.946 123.816 196.026 124.056 196.186 124.224C196.354 124.384 196.59 124.464 196.894 124.464H197.866V126.084H196.942ZM201.006 126.168C200.294 126.168 199.718 125.984 199.278 125.616C198.846 125.248 198.63 124.728 198.63 124.056C198.63 123.576 198.754 123.184 199.002 122.88C199.25 122.568 199.598 122.34 200.046 122.196C200.494 122.044 201.01 121.968 201.594 121.968H202.782V121.944C202.782 121.272 202.446 120.936 201.774 120.936C201.598 120.936 201.366 120.944 201.078 120.96C200.79 120.968 200.49 120.98 200.178 120.996C199.874 121.004 199.602 121.016 199.362 121.032V119.412C199.642 119.388 199.986 119.368 200.394 119.352C200.802 119.328 201.178 119.316 201.522 119.316C202.53 119.316 203.298 119.532 203.826 119.964C204.362 120.388 204.63 121.056 204.63 121.968V126H203.106V124.764C202.962 125.22 202.714 125.568 202.362 125.808C202.01 126.048 201.558 126.168 201.006 126.168ZM201.582 124.836C201.894 124.836 202.166 124.748 202.398 124.572C202.63 124.396 202.758 124.06 202.782 123.564V123.036H201.582C201.246 123.036 200.986 123.12 200.802 123.288C200.626 123.456 200.538 123.676 200.538 123.948C200.538 124.212 200.626 124.428 200.802 124.596C200.986 124.756 201.246 124.836 201.582 124.836ZM206.343 126V118.656H205.563V117.24H208.275V126H206.343Z" fill="#40394A"/>
<path d="M294.582 489.808C294.585 489.752 294.585 489.696 294.582 489.641C294.621 488.85 294.47 488.061 294.142 487.34C293.138 485.306 290.719 484.972 288.667 484.618C285.287 484.038 282.048 482.82 279.124 481.028C277.183 479.844 275.193 478.101 274.951 475.652C274.951 475.15 274.988 474.647 274.951 474.189C274.951 473.854 274.951 473.525 274.951 473.209C274.951 471.901 274.877 470.698 273.903 470.462C268.087 469.023 263.058 464.069 261.055 457.788C260.627 456.448 260.33 455.053 259.778 453.77C258.023 449.702 254.117 447.495 251.165 444.419C247.283 440.37 245.033 434.74 243.402 429.091C241.771 423.442 240.643 417.595 238.503 412.157C234.938 403.085 231.72 393.425 225.674 386.176C224.763 385.079 223.758 383.956 222.698 382.822C217.322 374.971 213.67 365.689 209.013 357.219C208.124 355.483 207.04 353.854 205.782 352.364C204.17 350.578 202.173 349.301 200.313 347.843C191.353 340.849 185.624 329.861 177.904 321.224C176.558 319.717 174.463 317.596 173.47 315.78C173.465 314.719 173.556 313.661 173.743 312.617C174.239 310.044 175.573 307.601 175.343 304.978C175.263 304.467 175.219 303.951 175.213 303.434C175.276 302.838 175.435 302.256 175.684 301.71C176.084 300.528 176.612 299.392 177.259 298.325C178.383 296.598 179.123 294.651 179.429 292.614C180.973 291.151 181.643 288.472 183.571 287.796C184.644 287.424 186.052 287.678 186.672 286.618C186.851 286.254 186.95 285.857 186.963 285.452C187.158 283.358 186.98 281.246 186.436 279.214C186.592 278.141 186.634 277.054 186.56 275.971C186.349 273.273 185.578 270.648 184.297 268.264C183.509 266.763 182.437 265.263 180.905 264.915C180.57 264.841 180.229 264.822 179.907 264.723C177.935 264.147 177.253 261.102 175.473 260.159C177.761 261.4 180.099 262.801 182.251 261.759C184.954 260.439 191.705 252.286 191.5 249L193 241.5C192.616 235.299 189.865 225.109 186.672 220C183.795 215.387 177.29 208.311 169.607 210.17C166.358 208.998 160.97 211.937 157.752 213.133C157.944 212.997 158.13 212.861 158.316 212.737C157.92 212.855 157.533 213 157.156 213.171C155.469 214.028 153.901 215.104 152.494 216.37C153.274 214.396 153.674 212.292 153.672 210.17C153.69 206.994 152.79 203.88 151.08 201.203L154.713 198.146L153.864 196.764L155.464 195.238C155.363 195.075 155.223 194.941 155.056 194.847C154.888 194.754 154.7 194.705 154.509 194.705C154.434 194.699 154.36 194.699 154.286 194.705C154.343 194.25 154.305 193.787 154.174 193.347L154.062 193.453C153.966 193.073 153.815 192.71 153.616 192.374H153.746C153.669 192.234 153.585 192.1 153.492 191.971C153.492 192.033 153.492 192.101 153.492 192.163C152.969 191.392 152.328 190.708 151.594 190.135C148.817 187.853 145.636 185.962 142.194 185.708C140.52 185.584 138.84 185.85 137.165 185.708C134.908 185.553 132.72 184.697 130.456 184.604C128.193 184.511 125.645 185.435 124.708 187.704C124.305 188.697 124.249 189.813 123.946 190.836C123.27 193.118 121.465 194.699 119.934 196.385C118.402 198.072 116.982 200.335 117.404 202.692C117.572 203.441 117.834 204.166 118.185 204.849L126.041 221.814C126.074 223.056 126.036 224.298 125.93 225.535C125.88 226.068 125.812 226.608 125.725 227.153C125.688 227.383 125.645 227.618 125.589 227.854C124.661 228.01 123.821 228.494 123.22 229.218C122.996 229.5 122.854 229.84 122.811 230.198C122.856 230.766 122.955 231.329 123.109 231.878C123.121 232.61 122.948 233.333 122.606 233.98C121.819 235.809 120.982 237.67 119.642 239.04C119.097 239.604 118.477 240.075 117.925 240.634C117.295 241.303 116.721 242.023 116.207 242.785C115.06 244.397 113.876 246.084 113.454 248.093C112.76 251.379 111.358 254.504 110.354 257.71C110.211 257.969 110.033 258.206 109.827 258.417C109.207 259 108.413 259.248 107.805 259.818C106.441 261.108 106.565 263.464 106.9 265.43C108.103 272.734 110.211 279.847 111.048 287.213C111.383 290.103 111.519 293.042 112.164 295.863C112.402 297.082 112.853 298.249 113.497 299.311C113.404 302.082 113.69 304.891 112.704 307.446C112.245 308.599 111.606 309.653 111.048 310.757C110.276 312.347 109.59 313.978 108.996 315.643L105.629 324.51C105.009 326.191 104.351 327.883 103.868 329.632C102.473 334.723 102.466 340.173 102.665 345.475C102.69 345.639 102.655 345.806 102.566 345.946C102.466 346.07 102.231 346.033 102.225 345.865C102.181 346.175 102.008 346.702 101.97 347.006C103.471 347.738 105.158 347.502 106.832 347.323C106.832 347.484 106.832 347.651 106.832 347.812C106.829 347.852 106.829 347.891 106.832 347.93C106.847 348.436 106.899 348.939 106.987 349.437C106.987 349.437 106.987 349.437 106.987 349.474C107.03 349.728 107.086 349.976 107.142 350.225C107.142 350.293 107.142 350.355 107.191 350.423C107.247 350.646 107.309 350.876 107.377 351.093C107.415 351.21 107.446 351.316 107.483 351.427C107.52 351.539 107.576 351.7 107.625 351.83C107.675 351.961 107.681 351.998 107.712 352.078C108.121 353.145 108.611 354.174 109.076 355.216C109.875 356.827 110.409 358.557 110.658 360.338C110.695 360.747 110.707 361.156 110.726 361.578V362.006C110.738 362.448 110.775 362.889 110.837 363.327C110.949 364.033 111.16 364.709 111.327 365.404C111.426 365.813 111.501 366.235 111.575 366.644C111.65 367.053 111.718 367.593 111.78 368.064C112.247 371.569 112.592 375.083 112.815 378.605C112.871 379.455 112.921 380.31 112.964 381.16C113.256 387.36 113.181 393.561 113.107 399.799C113.066 401.834 112.858 403.862 112.487 405.863C111.451 411.735 109.312 417.44 107.898 423.269C107.749 423.889 107.613 424.509 107.483 425.129C107.168 426.443 106.961 427.781 106.863 429.128C106.853 430.925 107.015 432.719 107.346 434.486C107.652 436.631 107.888 438.787 108.053 440.953C106.91 442.971 106.165 445.19 105.858 447.488C105.108 454.39 99.2606 459.567 98.467 466.469C98.4142 466.907 98.3955 467.348 98.4111 467.79C98.3926 468.074 98.3926 468.36 98.4111 468.645C98.3284 469.378 98.3916 470.12 98.5972 470.828C98.8911 471.57 99.3841 472.217 100.022 472.697C100.66 473.178 101.418 473.473 102.212 473.55C103.731 473.742 105.251 473.358 106.763 473.104C107.446 472.986 108.128 472.911 108.81 472.843C108.828 473.078 108.828 473.315 108.81 473.55C108.489 474.126 108.215 474.728 107.991 475.348C107.609 476.075 107.371 476.869 107.291 477.686C107.264 478.651 107.506 479.604 107.991 480.439C109.517 483.223 112.561 484.531 115.475 484.779C118.39 485.027 121.285 484.389 124.2 484.234H124.696C124.796 484.508 124.919 484.773 125.062 485.027C126.581 487.812 129.632 489.12 132.54 489.368C135.448 489.616 138.356 488.983 141.27 488.828C142.138 488.785 143.013 488.785 143.881 488.723C145.662 488.588 147.425 488.266 149.139 487.762C150.373 489.516 151.788 491.135 153.362 492.592C158.471 496.933 165.534 496.685 171.92 495.835C178.307 494.986 185.506 493.411 191.328 496.455C195.793 495.965 198.453 503.053 202.936 503.233C204.995 503.313 206.843 501.869 208.331 500.281C208.842 499.615 209.5 499.076 210.253 498.706C210.876 498.521 211.536 498.5 212.169 498.644C215.643 499.273 218.764 501.158 220.937 503.939C222.065 505.353 223.219 507.133 224.911 507.17C226.431 507.17 227.776 505.738 229.283 505.93C230.306 506.066 231.143 506.941 232.03 507.48C234.808 509.123 238.23 507.604 240.897 505.793C243.563 503.983 246.415 501.794 249.54 502.123C251.568 502.334 253.373 503.598 255.264 504.423C261.092 506.965 268.242 505.043 272.421 499.859C273.085 499.029 273.767 498.067 274.746 497.85C275.401 497.77 276.065 497.868 276.669 498.136C280.172 499.301 283.855 500.374 287.439 499.58C291.023 498.787 294.433 495.544 294.508 491.464C294.513 491.215 294.503 490.967 294.477 490.72C294.477 490.565 294.508 490.403 294.508 490.242C294.542 490.099 294.567 489.954 294.582 489.808ZM153.827 256.836C153.578 257.489 153.148 258.057 152.587 258.473C152.537 258.206 152.487 257.94 152.432 257.667C152.208 256.513 151.954 255.366 151.681 254.225C152.508 254.756 153.392 255.193 154.317 255.528C154.137 255.962 153.988 256.427 153.808 256.836H153.827ZM144.736 228.846C144.736 228.889 144.736 228.933 144.736 228.976C144.736 231.159 145.493 232.405 146.597 233.118C145.366 235.507 144.727 238.157 144.736 240.844C144.315 240.516 143.862 240.224 143.496 239.858C142.817 239.16 142.265 238.347 141.866 237.459C142.043 237.489 142.226 237.461 142.386 237.378C142.703 237.161 142.69 236.653 142.647 236.243C142.228 232.35 142.753 228.413 144.178 224.766C144.903 224.511 145.603 224.189 146.268 223.805C145.346 225.301 144.823 227.009 144.749 228.765C144.749 228.765 144.718 228.815 144.718 228.846H144.736ZM175.083 259.967C174.761 261.17 174.584 262.406 174.556 263.65C173.432 261.927 171.774 260.621 169.837 259.93C169.609 259.862 169.377 259.806 169.142 259.763C169.287 259.619 169.443 259.486 169.607 259.366C171.387 258.126 173.39 258.994 175.436 260.079C175.315 260.034 175.19 259.996 175.064 259.967H175.083Z" fill="url(#paint0_linear_34_597)"/>
<path d="M101.412 484.978C101.387 485.972 101.666 486.95 102.212 487.781C103.942 490.614 107.414 491.941 110.719 492.189C114.024 492.437 117.336 491.792 120.641 491.637C121.633 491.594 122.625 491.588 123.611 491.532C128.745 491.222 133.65 489.405 138.492 487.607C139.286 487.316 140.21 486.844 140.253 486.007C140.233 485.718 140.149 485.437 140.008 485.184C139.866 484.931 139.671 484.712 139.435 484.544C138.802 483.99 138.089 483.534 137.32 483.192C134.629 482.008 131.405 482.318 128.85 480.861C128.286 480.538 127.771 480.141 127.182 479.875C126.493 479.598 125.765 479.43 125.024 479.379C121.827 479.015 118.593 479.122 115.426 479.695C113.014 480.135 110.639 480.848 108.19 481.022C107.262 481.102 106.327 481.041 105.418 480.842C104.798 480.699 104.01 480.141 103.421 480.513C102.832 480.885 102.504 482.07 102.224 482.597C101.79 483.325 101.513 484.136 101.412 484.978V484.978Z" fill="#3F3D56"/>
<path opacity="0.05" d="M101.412 484.978C101.387 485.972 101.666 486.95 102.212 487.781C103.942 490.614 107.414 491.941 110.719 492.189C114.024 492.437 117.336 491.792 120.641 491.637C121.633 491.594 122.625 491.588 123.611 491.532C128.745 491.222 133.65 489.405 138.492 487.607C139.286 487.316 140.21 486.844 140.253 486.007C140.233 485.718 140.149 485.437 140.008 485.184C139.866 484.931 139.671 484.712 139.435 484.544C138.802 483.99 138.089 483.534 137.32 483.192C134.629 482.008 131.405 482.318 128.85 480.861C128.286 480.538 127.771 480.141 127.182 479.875C126.493 479.598 125.765 479.43 125.024 479.379C121.827 479.015 118.593 479.122 115.426 479.695C113.014 480.135 110.639 480.848 108.19 481.022C107.262 481.102 106.327 481.041 105.418 480.842C104.798 480.699 104.01 480.141 103.421 480.513C102.832 480.885 102.504 482.07 102.224 482.597C101.79 483.325 101.513 484.136 101.412 484.978V484.978Z" fill="black"/>
<path d="M120.833 489.628C120.805 490.623 121.084 491.601 121.633 492.431C123.363 495.265 126.829 496.592 130.14 496.84C133.451 497.088 136.756 496.443 140.061 496.288C141.053 496.245 142.039 496.238 143.031 496.182C148.165 495.872 153.07 494.056 157.913 492.257C158.707 491.96 159.63 491.495 159.674 490.651C159.654 490.363 159.57 490.083 159.428 489.831C159.287 489.579 159.091 489.362 158.855 489.194C158.224 488.638 157.511 488.183 156.741 487.843C154.05 486.658 150.825 486.962 148.271 485.505C147.706 485.189 147.192 484.786 146.603 484.525C145.913 484.249 145.186 484.08 144.445 484.023C141.247 483.662 138.013 483.77 134.846 484.345C132.434 484.786 130.059 485.499 127.61 485.666C126.683 485.751 125.748 485.693 124.838 485.493C124.218 485.35 123.431 484.792 122.842 485.164C122.253 485.536 121.918 486.72 121.645 487.247C121.208 487.974 120.931 488.786 120.833 489.628V489.628Z" fill="#3F3D56"/>
<path d="M110.689 257.512C110.463 256.887 110.052 256.346 109.51 255.962C108.214 255.242 106.683 256.582 106.119 257.927C105.554 259.273 105.368 260.922 104.258 261.896C103.583 262.516 102.652 262.739 101.958 263.322C100.408 264.63 100.563 267.042 100.929 269.027C102.299 276.467 104.699 283.697 105.654 291.194C106.032 294.139 106.187 297.128 106.894 299.999C107.328 301.698 108.016 303.422 109.374 304.525C110.732 305.629 112.902 305.896 114.18 304.693C111.87 298.432 110.716 291.803 110.775 285.13C110.813 280.789 111.395 276.449 111.513 272.059C111.643 268.227 111.451 264.388 111.259 260.556C111.277 259.572 111.091 258.595 110.713 257.685C110.513 257.236 110.184 256.857 109.768 256.595C109.352 256.334 108.867 256.202 108.376 256.216" fill="#F4F6FB"/>
<path d="M138.53 228.325C147.149 228.325 154.137 221.338 154.137 212.718C154.137 204.098 147.149 197.111 138.53 197.111C129.91 197.111 122.922 204.098 122.922 212.718C122.922 221.338 129.91 228.325 138.53 228.325Z" fill="#CB8C8E"/>
<path d="M159.562 259.639C168.209 259.639 175.219 252.629 175.219 243.982C175.219 235.335 168.209 228.325 159.562 228.325C150.915 228.325 143.906 235.335 143.906 243.982C143.906 252.629 150.915 259.639 159.562 259.639Z" fill="#FBBEBE"/>
<path d="M166.005 259.143C166.141 260.383 166.625 261.828 167.809 262.144C168.359 262.209 168.912 262.24 169.465 262.237C169.906 262.318 170.32 262.504 170.675 262.778C171.03 263.052 171.314 263.406 171.505 263.812C171.879 264.632 172.027 265.538 171.933 266.435C171.831 267.798 171.392 269.115 170.655 270.267C169.26 272.265 167.24 273.744 164.914 274.471C162.604 275.183 160.219 275.622 157.808 275.779C156.738 275.951 155.646 275.918 154.589 275.68C153.925 275.463 153.297 275.145 152.729 274.737C150.964 273.554 149.418 272.072 148.159 270.36C147.234 269.168 146.565 267.798 146.194 266.335C145.837 264.867 146.043 263.319 146.77 261.995C146.994 261.556 147.362 261.208 147.812 261.009C149.139 260.532 150.342 262.175 151.749 262.212C152.866 262.212 153.746 261.257 154.23 260.253C154.713 259.248 154.968 258.113 155.687 257.264C156.524 256.266 157.839 255.825 159.097 255.49C161.168 254.945 163.884 254.12 166.042 254.349C167.226 254.467 166.451 255.174 166.178 256.03C165.904 257.044 165.845 258.104 166.005 259.143V259.143Z" fill="#FBBEBE"/>
<path d="M151.247 275.481C153.151 274.626 154.205 272.561 155.904 271.339C157.33 270.316 159.11 269.95 160.74 269.299C162.395 268.639 163.91 267.671 165.205 266.447C166.383 265.337 167.431 263.967 168.925 263.421C170.067 263.058 171.293 263.058 172.435 263.421C175.653 264.314 178.127 266.993 179.566 270C181.004 273.007 181.556 276.356 182.096 279.648L182.902 284.609C183.5 287.639 183.789 290.722 183.764 293.811C183.633 296.911 182.827 300.011 180.949 302.492C180.221 303.566 179.62 304.721 179.157 305.933C178.879 306.484 178.7 307.081 178.629 307.694C178.634 308.22 178.682 308.745 178.772 309.263C179.032 311.929 177.532 314.416 176.949 317.032C176.647 318.786 176.555 320.57 176.676 322.346C176.661 322.578 176.708 322.809 176.813 323.016C176.946 323.202 177.128 323.348 177.34 323.438C177.749 323.655 178.171 323.859 178.58 324.058C175.158 324.818 171.661 325.188 168.156 325.161C162.012 325.019 156.016 323.301 149.908 322.588C149.678 319.785 150.447 317.082 150.621 314.279C150.656 312.45 150.542 310.621 150.28 308.81C149.769 303.86 149.817 298.868 150.423 293.928C150.633 292.192 150.919 290.462 150.999 288.714C151.092 286.643 150.906 284.565 151.055 282.513C151.198 280.547 151.675 278.6 151.725 276.629C151.783 276.411 151.768 276.181 151.682 275.974C151.595 275.766 151.442 275.593 151.247 275.481V275.481Z" fill="#F4F6FB"/>
<path d="M158.167 319.543C164.591 319.581 170.252 319.767 176.658 320.207C177.786 322.067 175.083 327.084 176.614 328.621C185.394 337.42 187.348 349.245 197.542 356.369C199.656 357.845 205.602 359.042 207.463 360.865C208.92 362.31 206.694 361.28 207.773 363.035C213.973 373.155 227.956 383.144 236.06 391.844C242.931 399.216 246.601 409.05 250.657 418.283C253.087 423.808 254.377 429.767 256.237 435.515C258.097 441.263 260.658 446.986 265.073 451.103C268.434 454.241 272.88 456.486 274.87 460.622C275.431 461.958 275.917 463.324 276.327 464.714C277.5 467.909 279.451 470.762 282.004 473.012C284.558 475.263 287.632 476.842 290.949 477.605C292.753 478.002 291.928 481.009 292.114 482.851C292.369 485.368 294.644 487.154 296.864 488.363C300.241 490.198 303.91 491.434 307.709 492.016C310.041 492.369 312.794 492.716 313.91 494.781C314.28 495.505 314.453 496.313 314.412 497.125C314.331 501.279 310.444 504.566 306.351 505.384C302.259 506.203 298.08 505.099 294.099 503.915C293.403 503.642 292.652 503.542 291.91 503.623C290.794 503.84 290.05 504.82 289.262 505.67C286.832 508.284 283.681 510.12 280.209 510.947C276.736 511.773 273.096 511.553 269.749 510.314C267.591 509.471 265.544 508.187 263.238 507.97C259.679 507.635 256.46 509.867 253.397 511.69C250.334 513.513 246.465 515.076 243.309 513.402C242.267 512.856 241.349 511.969 240.208 511.827C238.491 511.628 236.959 513.117 235.248 513.067C233.326 513.03 232.005 511.207 230.721 509.781C228.111 506.903 224.582 505.02 220.738 504.454C220.018 504.304 219.272 504.325 218.562 504.516C217.722 504.879 216.974 505.426 216.373 506.116C214.68 507.734 212.578 509.216 210.241 509.117C205.137 508.937 202.105 501.726 197.027 502.222C190.405 499.122 182.207 500.721 174.946 501.602C167.685 502.482 159.643 502.737 153.827 498.303C150.764 495.959 148.686 492.555 145.828 489.957C141.314 485.852 135.225 484.06 129.353 482.386C120.052 479.732 110.391 477.053 100.829 478.498C99.1056 478.759 97.3756 479.118 95.6456 478.951C93.9156 478.783 92.1422 477.81 91.5346 476.185C91.2692 475.352 91.2096 474.467 91.361 473.606C92.2601 466.587 98.9134 461.316 99.7629 454.291C100.191 450.806 102.063 447.755 104.06 444.872C105.759 442.294 107.31 439.621 108.704 436.867C112.009 430.666 115.327 424.465 117.819 417.917C120.442 411.028 122.123 403.823 123.797 396.643C125.409 389.717 126.178 382.623 127.337 375.604C128.181 370.501 129.501 365.491 130.822 360.487C134.729 345.704 138.66 330.835 145.084 316.97C149.263 318.148 153.87 319.519 158.167 319.543Z" fill="#E3E8F4"/>
<path d="M158.167 321.404C164.591 321.441 170.252 321.007 176.658 321.447C177.786 323.307 180.173 325.453 181.705 326.984C190.485 335.796 197.008 346.957 207.196 354.075C209.31 355.557 211.58 356.859 213.397 358.676C214.816 360.176 216.051 361.842 217.074 363.637C223.274 373.762 227.931 385.029 236.035 393.729C242.906 401.101 246.577 410.935 250.632 420.168C253.062 425.693 254.352 431.652 256.212 437.4C258.073 443.148 260.634 448.871 265.048 452.989C268.409 456.126 272.855 458.371 274.845 462.507C275.406 463.843 275.892 465.209 276.303 466.599C277.475 469.794 279.427 472.647 281.98 474.898C284.533 477.148 287.607 478.727 290.924 479.49C292.728 479.887 291.904 482.894 292.09 484.736C292.344 487.254 294.62 489.039 296.839 490.248C300.216 492.083 303.886 493.319 307.684 493.901C310.016 494.254 312.769 494.601 313.885 496.666C314.255 497.39 314.428 498.198 314.387 499.01C314.307 503.164 310.419 506.451 306.326 507.269C302.234 508.088 298.055 506.984 294.074 505.8C293.379 505.527 292.627 505.427 291.885 505.508C290.769 505.725 290.025 506.705 289.237 507.555C286.807 510.169 283.657 512.005 280.184 512.832C276.711 513.658 273.071 513.438 269.724 512.199C267.566 511.356 265.52 510.072 263.213 509.855C259.654 509.52 256.436 511.752 253.373 513.575C250.309 515.398 246.44 516.961 243.284 515.287C242.242 514.741 241.325 513.854 240.184 513.712C238.466 513.513 236.935 515.002 235.223 514.952C233.301 514.915 231.98 513.092 230.697 511.666C228.096 508.784 224.577 506.893 220.738 506.314C220.018 506.164 219.272 506.185 218.562 506.376C217.722 506.74 216.974 507.286 216.373 507.976C214.68 509.595 212.578 511.077 210.241 510.977C205.137 510.798 202.105 503.586 197.027 504.082C190.405 500.982 182.207 502.582 174.946 503.462C167.685 504.343 159.643 504.597 153.827 500.163C150.764 497.82 148.686 494.415 145.828 491.817C141.314 487.712 135.225 485.92 129.353 484.246C120.052 481.592 110.391 478.914 100.829 480.358C99.1056 480.619 97.3756 480.978 95.6456 480.811C93.9156 480.644 92.1422 479.67 91.5346 478.045C91.2692 477.212 91.2096 476.327 91.361 475.466C92.2601 468.447 98.9134 463.176 99.7629 456.151C100.191 452.666 102.063 449.615 104.06 446.732C105.759 444.154 107.31 441.481 108.704 438.727C112.009 432.526 115.327 426.326 117.819 419.778C120.442 412.889 122.123 405.683 123.797 398.503C125.409 391.577 126.178 384.483 127.337 377.464C128.181 372.361 129.501 367.351 130.822 362.347C134.729 347.564 138.66 332.695 145.084 318.83C149.263 320.009 153.87 321.379 158.167 321.404Z" fill="#E3E8F4"/>
<path d="M158.167 320.164C164.591 320.201 170.252 319.767 176.658 320.207C177.786 322.067 180.173 324.213 181.705 325.744C190.485 334.555 197.008 345.717 207.196 352.835C209.31 354.317 211.58 355.619 213.397 357.436C214.816 358.936 216.051 360.602 217.074 362.397C223.274 372.522 227.931 383.789 236.035 392.488C242.906 399.861 246.577 409.695 250.632 418.928C253.062 424.453 254.352 430.412 256.212 436.16C258.073 441.908 260.634 447.631 265.048 451.748C268.409 454.886 272.855 457.131 274.845 461.266C275.406 462.603 275.892 463.969 276.303 465.359C277.475 468.554 279.427 471.406 281.98 473.657C284.533 475.908 287.607 477.487 290.924 478.25C292.728 478.647 291.904 481.654 292.09 483.496C292.344 486.013 294.62 487.799 296.839 489.008C300.216 490.843 303.886 492.078 307.684 492.661C310.016 493.014 312.769 493.361 313.885 495.426C314.255 496.15 314.428 496.958 314.387 497.77C314.307 501.924 310.419 505.211 306.326 506.029C302.234 506.848 298.055 505.744 294.074 504.56C293.379 504.287 292.627 504.187 291.885 504.268C290.769 504.485 290.025 505.465 289.237 506.314C286.807 508.929 283.657 510.765 280.184 511.592C276.711 512.418 273.071 512.198 269.724 510.959C267.566 510.115 265.52 508.832 263.213 508.615C259.654 508.28 256.436 510.512 253.373 512.335C250.309 514.158 246.44 515.721 243.284 514.047C242.242 513.501 241.325 512.614 240.184 512.472C238.466 512.273 236.935 513.761 235.223 513.712C233.301 513.675 231.98 511.852 230.697 510.426C228.096 507.544 224.577 505.652 220.738 505.074C220.018 504.924 219.272 504.945 218.562 505.136C217.722 505.499 216.974 506.046 216.373 506.736C214.68 508.354 212.578 509.836 210.241 509.737C205.137 509.557 202.105 502.346 197.027 502.842C190.405 499.742 182.207 501.342 174.946 502.222C167.685 503.103 159.643 503.357 153.827 498.923C150.764 496.579 148.686 493.175 145.828 490.577C141.314 486.472 135.225 484.68 129.353 483.006C120.052 480.352 110.391 477.673 100.829 479.118C99.1056 479.379 97.3756 479.738 95.6456 479.571C93.9156 479.403 92.1422 478.43 91.5346 476.805C91.2692 475.972 91.2096 475.087 91.361 474.226C92.2601 467.207 98.9134 461.936 99.7629 454.911C100.191 451.426 102.063 448.375 104.06 445.492C105.759 442.914 107.31 440.241 108.704 437.487C112.009 431.286 115.327 425.085 117.819 418.538C120.442 411.649 122.123 404.443 123.797 397.263C125.409 390.337 126.178 383.243 127.337 376.224C128.181 371.121 129.501 366.111 130.822 361.107C134.729 346.324 138.66 331.455 145.084 317.59C149.263 318.768 153.87 320.139 158.167 320.164Z" fill="#F4F6FB"/>
<path d="M102.243 348.619C100.197 350.857 100.662 354.416 101.859 357.2C103.055 359.984 104.872 362.595 105.207 365.608C105.319 366.613 105.257 367.63 105.43 368.628C105.56 369.347 105.802 370.036 105.988 370.743C106.214 371.637 106.388 372.544 106.509 373.458C107.166 377.873 107.613 382.325 107.849 386.79C108.19 393.102 108.103 399.433 108.016 405.758C107.892 414.606 103.675 422.89 101.623 431.497C101.262 432.828 101.025 434.19 100.916 435.565C100.907 437.395 101.088 439.222 101.456 441.015C103.268 452.303 102.899 463.833 100.37 474.982C102.231 476.446 103.527 478.901 103.08 481.22C107.08 481.921 111.265 482.609 115.116 481.338C117.441 480.575 119.531 479.124 121.936 478.672C123.797 478.331 125.948 478.504 127.263 477.153C127.797 476.521 128.187 475.78 128.404 474.982C132.943 461.775 131.672 447.395 131.417 433.438C131.281 425.935 131.417 418.426 131.132 410.929C130.572 397.563 128.475 384.305 124.882 371.418C123.146 365.218 121.471 359.017 118.061 353.517C117.374 352.245 116.402 351.15 115.221 350.318C113.925 349.524 112.356 349.332 110.843 349.158C107.681 348.817 105.405 348.978 102.243 348.619Z" fill="#3F3D56"/>
<path opacity="0.05" d="M128.404 474.989C128.185 475.784 127.796 476.523 127.263 477.153C125.948 478.511 123.79 478.331 121.936 478.678C121.701 478.721 121.465 478.777 121.236 478.839C119.121 479.403 117.212 480.65 115.122 481.319C111.265 482.56 107.061 481.902 103.08 481.202C103.527 478.883 102.231 476.421 100.37 474.958C102.901 463.811 103.272 452.283 101.462 440.996C101.089 439.204 100.906 437.377 100.916 435.546C101.028 434.171 101.264 432.81 101.623 431.478C103.663 422.866 107.892 414.581 108.016 405.733C108.103 399.408 108.19 393.078 107.855 386.765C107.611 382.301 107.162 377.857 106.509 373.434C106.387 372.52 106.216 371.613 105.995 370.718C105.802 370.017 105.56 369.323 105.436 368.603C105.257 367.611 105.319 366.588 105.207 365.584C104.872 362.57 103.062 359.966 101.859 357.182C101.356 356.034 101.03 354.818 100.891 353.573C100.749 352.697 100.796 351.802 101.029 350.946C101.262 350.09 101.676 349.294 102.243 348.612C104.37 348.848 106.088 348.842 107.948 348.922C108.859 348.96 109.808 349.022 110.843 349.139C112.356 349.307 113.944 349.499 115.227 350.299C116.407 351.131 117.378 352.226 118.061 353.499C118.396 354.038 118.712 354.584 119.016 355.136C121.8 360.201 123.319 365.782 124.882 371.394C128.474 384.281 130.571 397.538 131.132 410.904C131.448 418.401 131.281 425.91 131.417 433.419C131.678 447.408 132.943 461.775 128.404 474.989Z" fill="black"/>
<path d="M151.266 353.48C151.266 354.565 151.266 355.656 151.266 356.741C151.237 367.217 151.21 377.689 151.185 388.16C151.185 392.47 151.185 396.792 150.739 401.076C149.641 412.238 145.561 423.045 145.995 434.219C146.305 442.336 146.615 450.545 144.985 458.507C144.364 461.558 143.459 464.559 143.013 467.641C142.566 470.723 142.616 473.972 143.837 476.843C144.718 478.895 146.2 480.836 146.119 483.043C146.028 483.992 145.715 484.906 145.206 485.712C144.696 486.518 144.004 487.192 143.186 487.681C141.538 488.64 139.71 489.25 137.817 489.473C135.454 489.865 133.062 490.049 130.667 490.025C127.238 489.988 123.332 489.238 121.558 486.305C120.368 484.333 120.461 481.828 121.031 479.59C121.099 479.329 121.168 479.075 121.242 478.821C121.825 476.867 122.656 474.989 123.102 473.004C123.819 469.873 123.588 466.598 122.439 463.598C122.228 463.04 121.565 461.986 120.969 462.054C120.021 459.605 119.878 456.926 119.729 454.297L118.855 436.501C118.669 432.625 118.483 428.7 119.276 424.906C119.897 421.805 121.217 418.854 121.589 415.71C121.756 413.822 121.745 411.922 121.558 410.036C120.863 400.313 119.605 390.638 117.788 381.061C117.728 380.573 117.566 380.104 117.311 379.684C116.902 379.114 116.189 378.847 115.686 378.351C114.632 377.322 114.731 375.641 114.483 374.184C114.037 371.555 112.294 369.372 110.949 367.078C108.807 363.381 107.609 359.213 107.458 354.943C107.382 352.924 107.546 350.903 107.948 348.922C107.997 348.656 108.059 348.389 108.121 348.123C121.636 347.26 135.205 348.093 148.513 350.603C149.486 350.783 150.578 351.062 151.03 351.942C151.228 352.429 151.309 352.956 151.266 353.48V353.48Z" fill="#3F3D56"/>
<path d="M227.398 402.286C234.07 414.03 240.767 425.799 246.074 438.219C250.384 448.295 253.918 459.028 261.148 467.263C267.919 474.97 277.27 479.782 286.453 484.414L278.231 477.171C269.978 469.885 261.551 462.395 256.312 452.716C253.459 447.445 251.649 441.685 249.491 436.073C243.992 421.64 236.333 408.126 226.778 395.992C224.121 392.505 221.264 389.176 218.221 386.021C220.323 391.602 224.434 397.077 227.398 402.286Z" fill="#E3E8F4"/>
<path d="M193.362 482.752C195.371 486.882 197.418 491.073 200.481 494.496C200.741 492.45 199.34 490.614 198.23 488.878C196.221 485.722 194.999 482.169 193.778 478.653C192.649 475.398 191.601 470.909 189.202 468.335C187.974 472.75 191.502 478.957 193.362 482.752Z" fill="#E3E8F4"/>
<path d="M170.104 405.404C170.686 408.505 171.027 411.605 171.809 414.637C172.576 417.361 173.519 420.033 174.63 422.636L187.701 455.215C187.59 450.787 185.221 446.782 183.714 442.627C181.854 437.524 181.184 432.086 179.665 426.84C178.425 422.587 176.627 418.525 175.325 414.29C173.514 408.319 172.751 402.081 171.331 396.004C170.049 390.745 168.448 385.568 166.538 380.502C165.67 378.109 164.678 375.623 162.762 373.967C160.846 372.311 157.634 371.84 155.823 373.632C153.275 376.156 157.138 377.737 158.409 379.38C164.287 387.028 168.288 395.948 170.091 405.423L170.104 405.404Z" fill="#E3E8F4"/>
<path d="M187.645 338.102C188.339 338.802 188.943 339.585 189.443 340.434C190.144 341.723 190.423 343.23 191.304 344.427C189.753 342.25 187.983 340.239 186.021 338.425C184.83 337.402 183.54 336.521 182.344 335.498C181.432 334.717 177.439 331.331 178.233 330.178C181.73 331.957 184.985 335.231 187.645 338.102Z" fill="#E3E8F4"/>
<path d="M146.15 221.604C146.008 222.887 145.22 223.997 144.544 225.101C142.573 228.376 141.474 232.101 141.351 235.921C141.314 237.041 141.364 238.163 141.5 239.276C141.549 239.691 141.562 240.212 141.202 240.429C141.009 240.519 140.792 240.547 140.582 240.51C140.16 240.472 139.751 240.423 139.342 240.355C132.713 239.294 126.909 234.774 120.238 233.633C120.649 233.438 121.014 233.158 121.309 232.81C121.603 232.463 121.819 232.056 121.943 231.618C122.122 231.118 122.257 230.603 122.346 230.08C122.445 229.528 122.519 228.976 122.575 228.437C122.997 224.444 122.389 220.773 122.166 216.717C121.912 211.993 127.747 213.549 131.169 213.487C133.916 213.437 136.713 213.394 139.367 214.138C142.021 214.882 144.544 216.525 145.685 219.03C146.068 219.831 146.228 220.72 146.15 221.604Z" fill="#CB8C8E"/>
<path d="M141.202 240.429C141.009 240.519 140.792 240.547 140.582 240.51C140.16 240.472 139.751 240.423 139.342 240.355C138.771 239.821 138.22 239.263 137.692 238.68C136.452 237.304 135.336 235.791 133.898 234.619C131.676 232.893 128.96 231.924 126.147 231.853C124.741 231.891 123.335 231.812 121.943 231.618C122.122 231.118 122.257 230.603 122.346 230.08C122.445 229.528 122.519 228.976 122.575 228.437C123.353 228.337 124.135 228.281 124.919 228.269C125.839 228.136 126.772 228.118 127.697 228.214C129.229 228.443 130.58 229.299 131.957 230.012C133.86 230.998 135.9 231.742 137.668 232.963C138.213 233.348 138.734 233.769 139.255 234.203C139.962 234.78 140.663 235.363 141.369 235.933C141.332 237.054 141.382 238.175 141.518 239.288C141.549 239.685 141.562 240.212 141.202 240.429Z" fill="#E3E8F4"/>
<path opacity="0.1" d="M151.266 353.48C151.266 354.565 151.266 355.656 151.266 356.742C148.686 356.816 146.051 357.194 143.484 357.362C141.072 357.535 138.654 357.541 136.235 357.51C134.343 357.557 132.454 357.349 130.618 356.89C129.297 356.506 128.057 355.873 126.742 355.477C124.262 354.714 121.645 354.807 119.022 355.117C116.889 355.365 114.738 355.737 112.611 355.929C111.233 356.122 109.828 355.977 108.518 355.508C108.152 355.341 107.8 355.147 107.464 354.925C106.94 354.573 106.393 354.256 105.827 353.976C104.302 353.294 102.603 353.406 100.898 353.567C100.755 352.691 100.802 351.796 101.035 350.94C101.268 350.084 101.682 349.288 102.249 348.606C104.376 348.842 106.094 348.836 107.954 348.916C108.004 348.65 108.066 348.383 108.128 348.116C121.642 347.253 135.212 348.087 148.519 350.597C149.492 350.776 150.584 351.055 151.036 351.936C151.233 352.425 151.312 352.954 151.266 353.48V353.48Z" fill="black"/>
<path d="M123.127 230.644C121.782 230.805 120.343 231.147 119.475 232.182C119.223 232.46 119.061 232.808 119.01 233.18C119.061 233.761 119.174 234.334 119.345 234.892C119.358 235.642 119.161 236.381 118.774 237.025C117.875 238.885 116.914 240.782 115.401 242.178C114.781 242.754 114.074 243.232 113.448 243.796C112.736 244.471 112.082 245.205 111.495 245.991C110.186 247.628 108.841 249.346 108.363 251.386C107.526 254.926 105.784 258.268 104.643 261.728C103.502 265.188 102.783 268.871 103.403 272.455C103.694 274.154 104.283 275.785 104.693 277.459C105.35 280.144 105.536 282.922 106.23 285.595C106.671 287.263 107.303 288.875 107.78 290.555C108.822 294.156 109.103 297.933 108.605 301.648C108.14 305.04 108.921 308.649 107.551 311.78C106.988 312.935 106.367 314.061 105.691 315.153C104.816 316.76 104.035 318.416 103.353 320.114L99.5273 329.142C98.7677 330.842 98.0992 332.58 97.5245 334.351C95.9309 339.535 95.9247 345.059 96.148 350.473C96.1746 350.641 96.137 350.814 96.0425 350.956C95.9247 351.08 95.6581 351.043 95.6519 350.876C95.6023 351.186 95.4039 351.725 95.3605 352.035C98.6158 353.449 102.621 351.31 105.864 352.754C106.807 353.176 107.607 353.877 108.556 354.286C109.864 354.76 111.269 354.907 112.648 354.714C117.379 354.323 122.234 352.854 126.773 354.255C128.094 354.658 129.328 355.29 130.649 355.675C132.487 356.133 134.379 356.342 136.273 356.295C138.691 356.332 141.109 356.326 143.521 356.146C148.711 355.768 154.162 354.633 158.942 356.692C160.486 355.557 160.604 353.796 160.666 351.886C160.782 348.29 160.898 344.696 161.013 341.103L162.297 301.45C162.478 298.718 162.376 295.976 161.993 293.265C161.119 288.354 158.434 283.964 155.792 279.754L143.459 259.911C142.641 258.597 143.459 257.127 144.023 255.683C144.811 253.609 145.344 251.448 145.611 249.246C145.809 247.628 145.797 245.805 144.699 244.602C144.079 243.926 143.205 243.548 142.498 242.965C141.469 242.122 140.849 240.925 140.229 239.796C138.508 236.693 136.01 234.09 132.98 232.244C129.935 230.477 126.624 230.229 123.127 230.644Z" fill="#3F3D56"/>
<path opacity="0.1" d="M135.851 248.639C131.467 249.848 128.751 254.3 127.548 258.684C125.862 264.816 126.271 271.37 127.759 277.546C129.247 283.722 131.789 289.594 134.363 295.404C134.965 296.825 135.644 298.211 136.397 299.559C138.482 303.206 141.668 306.099 145.499 307.824C149.354 309.526 153.706 309.718 157.696 308.364C158.43 308.129 159.12 307.777 159.742 307.322C161.937 305.635 162.278 302.51 162.439 299.745L162.991 290.053C163.047 289.542 163.022 289.025 162.917 288.521C162.668 287.834 162.287 287.202 161.795 286.661C159.979 284.311 158.631 281.633 157.826 278.774C157.262 276.771 156.964 274.682 156.096 272.79C155.575 271.649 154.856 270.608 154.292 269.485C153.052 267.067 152.611 264.357 152.028 261.716C151.52 259.409 150.912 257.125 150.205 254.864C149.879 253.612 149.345 252.423 148.624 251.348C146.919 249.042 143.893 248.211 141.09 247.628C139.766 247.238 138.367 247.17 137.01 247.43C135.485 247.845 134.301 249.023 133.197 250.152" fill="black"/>
<path d="M136.471 248.019C132.087 249.228 129.371 253.68 128.168 258.064C126.482 264.196 126.891 270.75 128.379 276.926C129.867 283.102 132.409 288.974 134.983 294.784C135.585 296.205 136.264 297.591 137.017 298.939C139.102 302.586 142.288 305.479 146.119 307.204C149.974 308.906 154.326 309.098 158.316 307.744C159.05 307.509 159.74 307.157 160.362 306.702C162.557 305.015 162.898 301.89 163.059 299.125L163.611 289.433C163.667 288.922 163.642 288.405 163.537 287.901C163.288 287.214 162.907 286.582 162.415 286.041C160.599 283.691 159.251 281.013 158.446 278.154C157.882 276.151 157.584 274.062 156.716 272.17C156.195 271.029 155.476 269.988 154.912 268.865C153.672 266.447 153.231 263.737 152.648 261.096C152.14 258.789 151.532 256.505 150.825 254.244C150.499 252.992 149.965 251.803 149.244 250.728C147.539 248.422 144.513 247.591 141.71 247.008C140.386 246.618 138.987 246.55 137.63 246.809C136.105 247.225 134.921 248.403 133.817 249.532" fill="#3F3D56"/>
<path d="M179.243 273.9C177.678 270.628 177.386 266.89 178.425 263.415C180.855 264.035 181.525 267.619 184.005 268.258C184.371 268.351 184.762 268.369 185.134 268.45C186.87 268.803 188.098 270.31 188.997 271.86C190.441 274.243 191.323 276.923 191.576 279.698C191.821 282.484 191.169 285.276 189.716 287.666C189.778 287.573 185.376 283.059 185.004 282.594C184.231 281.688 183.474 280.764 182.734 279.822C181.956 278.949 181.257 278.009 180.645 277.013C180.434 276.616 180.39 276.157 180.204 275.736C179.913 275.109 179.547 274.514 179.243 273.9Z" fill="#CB8C8E"/>
<path d="M167.939 310.373C167.183 316.325 164.472 321.858 160.232 326.104C159.283 327.04 158.099 327.964 156.772 327.834C155.34 327.685 154.354 326.383 153.331 325.354C151.47 323.493 148.99 322.383 146.925 320.759C145.858 319.879 144.847 318.933 143.899 317.925C140.861 314.825 137.804 311.724 135.38 308.109C134.009 306.076 132.837 303.893 131.213 302.058C129.929 300.6 128.385 299.397 127.034 298.009C125.682 296.62 124.491 294.958 124.169 293.048C123.828 291.027 121.689 289.712 120.343 288.162C118.684 286.198 117.486 283.888 116.837 281.401C116.188 278.914 116.104 276.313 116.592 273.789C116.809 272.71 117.261 271.501 118.303 271.129C118.717 271.002 119.154 270.975 119.58 271.048C122.197 271.414 124.138 273.584 125.831 275.618C126.991 276.948 128.058 278.357 129.024 279.834C131.089 283.189 132.037 287.095 132.955 290.927C133.495 293.166 135.727 294.821 137.333 296.471L141.363 300.607C142.324 301.593 143.286 302.585 144.34 303.471C147.223 305.914 150.683 307.551 154.137 309.052C154.441 307.935 154.901 306.867 155.501 305.877C155.808 305.39 156.214 304.973 156.693 304.653C157.171 304.333 157.712 304.116 158.279 304.017C159.879 303.812 161.342 304.873 162.619 305.877L167.363 309.598C167.629 309.815 167.977 310.05 167.939 310.373Z" fill="#F4F6FB"/>
<path opacity="0.1" d="M175.486 273.367C176.068 273.991 176.528 274.719 176.844 275.512C177.898 277.689 178.374 280.1 178.226 282.513C178.062 283.812 177.775 285.093 177.371 286.339L175.895 291.417C173.601 299.292 171.3 307.186 168.2 314.781C165.651 311.476 161.193 310.478 157.572 308.413C157.215 308.236 156.896 307.99 156.636 307.688C156.316 307.221 156.153 306.665 156.171 306.1C156.209 304.575 156.542 303.072 157.15 301.673C159.407 295.615 162.539 289.7 162.905 283.251C162.919 282.051 162.995 280.853 163.134 279.661C163.396 278.24 163.957 276.892 164.781 275.706C165.604 274.519 166.67 273.521 167.908 272.778C169.992 271.426 173.638 271.556 175.486 273.367Z" fill="black"/>
<path d="M174.866 271.928C175.447 272.554 175.907 273.281 176.224 274.074C177.278 276.25 177.754 278.661 177.606 281.074C177.445 282.391 177.159 283.688 176.751 284.95L175.275 290.028C172.981 297.903 170.68 305.797 167.58 313.392C165.031 310.094 160.573 309.089 156.952 307.024C156.595 306.85 156.277 306.605 156.016 306.305C155.698 305.838 155.535 305.282 155.551 304.718C155.589 303.191 155.921 301.685 156.53 300.284C158.787 294.226 161.919 288.317 162.284 281.862C162.299 280.664 162.375 279.468 162.514 278.278C162.775 276.856 163.336 275.507 164.159 274.319C164.982 273.131 166.049 272.132 167.288 271.389C169.372 270.006 173.018 270.136 174.866 271.928Z" fill="#F4F6FB"/>
<path d="M151 237.5C152.24 238.821 155.295 250.196 155.5 252C155.5 252 153.5 254.5 152.549 260.5C151.098 264.964 159 273.5 159.5 280C161 284.5 162 286.5 162 286.5C162.794 285.62 167.489 327.639 168.5 327C181.5 324.5 190.825 341.534 195.5 339.5C185 318 182 283.5 180 268.5C180 268.5 178 260.5 183 256.5C188 252.5 187.5 240 187.5 240C187.5 233 187.627 228.184 184 223C180.726 218.306 179.95 218.286 174.5 216.5C170.581 215.26 161.919 214.399 158.105 215.967C153.238 217.964 144.444 225.603 144.5 231.5C144.5 231.5 148 231 151 237.5Z" fill="#F4F6FB"/>
<path d="M164.194 287.381C164.891 287.408 165.587 287.318 166.253 287.114C167.307 286.723 168.113 285.744 169.248 285.582C169.818 285.502 170.55 285.582 170.798 285.043C170.872 284.792 170.899 284.529 170.879 284.268C170.965 282.761 172.857 282.24 174.134 281.434C174.94 280.869 175.653 280.183 176.248 279.4L180.651 274.198C181.055 273.603 181.643 273.157 182.325 272.927C183.104 272.84 183.885 273.063 184.502 273.547C187.064 275.25 189.116 277.617 190.44 280.395C191.763 283.173 192.308 286.258 192.017 289.321C192.006 289.744 191.896 290.159 191.694 290.53C191.006 291.609 189.388 291.349 188.166 291.733C185.828 292.465 185.115 295.497 183.113 296.905C182.213 297.525 181.104 297.791 180.229 298.436C179.355 299.081 178.685 300.21 177.892 301.084C176.651 302.485 174.884 303.347 173.185 304.184L167.995 306.714C166.974 307.246 165.91 307.689 164.814 308.041C162.922 308.484 160.975 308.649 159.035 308.531L155.234 308.481C154.806 308.52 154.375 308.434 153.994 308.233C153.77 308.066 153.583 307.855 153.442 307.613C151.489 304.68 151.092 300.892 151.787 297.438C152.363 294.573 153.721 290.617 155.761 288.441C157.535 286.568 161.739 287.43 164.194 287.381Z" fill="#3F3D56"/>
<path d="M149.015 207.038C148.902 206.449 148.98 205.839 149.238 205.297C149.496 204.755 149.919 204.309 150.447 204.025L155.16 200.484L154.193 199.077L156.009 197.52C155.86 197.313 155.654 197.154 155.417 197.062C155.179 196.969 154.92 196.948 154.67 196.999C154.955 195.083 153.318 193.465 151.762 192.324C148.593 190.005 144.941 188.077 141.06 187.816C139.156 187.692 137.246 187.965 135.343 187.816C132.775 187.655 130.283 186.787 127.709 186.688C125.136 186.588 122.247 187.599 121.168 189.912C120.709 190.916 120.647 192.051 120.3 193.099C119.525 195.418 117.478 197.024 115.736 198.742C113.994 200.459 112.375 202.76 112.859 205.153C113.049 205.925 113.348 206.666 113.746 207.354L123.357 225.913C123.678 225.311 124.139 224.795 124.701 224.407C125.263 224.02 125.91 223.773 126.587 223.687C128.168 223.501 129.688 224.208 131.287 224.406C132.474 224.536 133.674 224.378 134.786 223.947C135.899 223.515 136.892 222.822 137.68 221.926C139.801 219.483 140.315 213.245 143.999 212.625C145.301 212.402 147.384 214.045 148.519 213.394C149.852 212.662 149.04 208.415 149.015 207.038Z" fill="#3F3D56"/>
<g opacity="0.1">
<path opacity="0.1" d="M156.27 266.453C160.579 264.593 163.649 260.501 165.106 256.042C166.563 251.584 166.544 246.741 166.011 242.103C165.806 240.305 165.465 238.383 164.219 237.068C160.127 232.728 147.725 238.693 147.614 229.975C147.545 224.946 154.385 218.41 159.395 215.353C158.946 215.473 158.505 215.62 158.074 215.794C153.207 217.79 143.813 225.771 143.868 231.661C143.98 240.379 156.381 234.433 160.474 238.761C161.714 240.076 162.061 241.992 162.266 243.796C162.799 248.453 162.812 253.271 161.361 257.729C159.91 262.187 156.834 266.286 152.525 268.14C157.82 268.996 163.99 269.566 168.163 266.583C164.498 267.545 160.151 267.08 156.27 266.453Z" fill="black"/>
<path opacity="0.1" d="M175.92 260.922C175.47 261.221 175.067 261.585 174.723 262.001C178.524 262.249 182.846 266.676 186.653 265.021C187.319 264.729 187.899 264.272 188.34 263.694C184.173 263.533 179.622 258.591 175.92 260.922Z" fill="black"/>
</g>
<g opacity="0.1">
<path opacity="0.1" d="M154.224 194.6C154.131 194.463 154.031 194.327 153.932 194.197C153.931 194.34 153.92 194.483 153.901 194.624C154.007 194.604 154.116 194.595 154.224 194.6V194.6Z" fill="black"/>
<path opacity="0.1" d="M156.171 197.52C156.022 197.313 155.816 197.154 155.578 197.062C155.34 196.969 155.081 196.948 154.831 196.999C154.9 196.531 154.858 196.053 154.707 195.604L153.424 196.702L154.391 198.103L149.679 201.65C149.15 201.935 148.727 202.38 148.469 202.922C148.212 203.464 148.134 204.074 148.246 204.663C148.246 206.04 149.083 210.287 147.744 211.05C146.615 211.701 144.526 210.058 143.23 210.281C139.547 210.901 139.032 217.102 136.911 219.582C136.123 220.478 135.13 221.171 134.018 221.603C132.905 222.034 131.705 222.192 130.519 222.062C128.937 221.87 127.418 221.163 125.818 221.349C125.141 221.436 124.494 221.684 123.931 222.071C123.368 222.458 122.905 222.974 122.582 223.575C119.386 217.4 116.191 211.226 112.995 205.054V205.19C113.191 205.962 113.491 206.702 113.888 207.392L123.487 225.913C123.811 225.311 124.273 224.796 124.836 224.409C125.399 224.021 126.046 223.774 126.724 223.687C128.305 223.501 129.824 224.208 131.424 224.406C132.61 224.536 133.81 224.378 134.923 223.946C136.036 223.515 137.028 222.822 137.817 221.926C139.937 219.483 140.452 213.245 144.135 212.625C145.431 212.402 147.521 214.045 148.649 213.394C149.989 212.631 149.176 208.384 149.152 207.007C149.084 206.374 149.178 205.734 149.424 205.147C149.718 204.675 150.115 204.274 150.584 203.975L155.296 200.434L154.329 199.027L156.171 197.52Z" fill="black"/>
</g>
<path opacity="0.1" d="M101.822 332.143C101.201 334.791 100.811 337.495 99.9613 340.08C99.5893 341.246 99.1304 342.381 98.7646 343.546C98.4359 344.607 98.1879 345.679 97.9337 346.758L96.923 351.099C97.229 351.083 97.5272 350.997 97.7941 350.846C98.061 350.695 98.2892 350.485 98.4608 350.231C98.8002 349.72 99.0575 349.159 99.2234 348.569L100.916 343.534L102.156 339.814C103.917 334.574 105.685 329.322 107.024 323.952C107.359 322.625 107.644 321.298 107.935 319.959C108.047 319.444 108.859 316.573 108.028 316.815C107.439 316.983 106.441 319.599 106.168 320.17C105.548 321.311 105.04 322.476 104.537 323.661C103.39 326.405 102.481 329.243 101.822 332.143V332.143Z" fill="black"/>
<path d="M134.164 262.708C134.164 262.708 131.362 261.697 130.673 262.9C130.673 262.9 135.77 264.76 136.8 267.439C136.8 267.439 138.114 266.087 136.316 264.37L135.981 261.852L134.164 262.708Z" fill="#00A66C"/>
<path d="M138.815 258.907C138.815 258.907 138.97 257.63 138.325 257.493C137.68 257.357 133.315 257.611 134.016 262.454C134.716 267.297 139.764 265.48 139.764 265.48L141.977 262.9C141.977 262.9 142.449 259.484 139.348 258.659L138.815 258.907Z" fill="#FA86BE"/>
<path opacity="0.1" d="M135.299 256.278C135.299 256.278 131.492 258.2 133.34 263.03L134.772 262.2C134.772 262.2 136.564 258.008 135.299 256.278Z" fill="black"/>
<path d="M135.162 256.179C135.162 256.179 131.361 258.101 133.209 262.931L134.319 263.582C134.319 263.582 136.434 257.909 135.162 256.179Z" fill="#FA86BE"/>
<path opacity="0.1" d="M141.376 261.139C141.575 261.811 141.984 262.402 142.541 262.826C143.434 263.446 141.655 264.878 141.655 264.878C141.655 264.878 139.249 267.613 136.973 266.28C135.615 263.992 136.638 263.675 136.638 263.675C136.638 263.675 139.478 260.556 141.376 261.139Z" fill="black"/>
<path d="M141.469 261.269C141.668 261.941 142.076 262.532 142.634 262.956C143.521 263.576 141.741 265.008 141.741 265.008C141.741 265.008 139.342 267.743 137.06 266.41C134.778 265.077 136.725 263.812 136.725 263.812C136.725 263.812 139.54 260.687 141.469 261.269Z" fill="#FA86BE"/>
<path d="M132.837 256.241C132.837 256.241 130.022 257.22 130.245 258.591C130.245 258.591 135.38 256.83 137.866 258.262C137.866 258.262 138.033 256.402 135.559 256.179L133.699 254.43L132.837 256.241Z" fill="#5F3839"/>
<path d="M134.028 250.344C134.028 250.344 133.346 249.253 132.788 249.55C132.23 249.848 128.974 252.793 132.552 256.104C136.13 259.415 138.926 254.864 138.926 254.864L138.988 251.466C138.988 251.466 137.203 248.515 134.276 249.829L134.028 250.344Z" fill="#FA86BE"/>
<path opacity="0.1" d="M129.687 250.53C129.687 250.53 127.939 254.418 132.422 257.01L133.011 255.466C133.011 255.466 131.746 251.082 129.687 250.53Z" fill="black"/>
<path d="M129.501 250.536C129.501 250.536 127.759 254.424 132.236 257.016L133.507 256.824C133.507 256.824 131.579 251.082 129.501 250.536Z" fill="#FA86BE"/>
<path opacity="0.1" d="M137.451 250.48C138.03 250.878 138.72 251.082 139.423 251.063C140.514 250.995 140.043 253.215 140.043 253.215C140.043 253.215 139.894 256.855 137.283 257.251C134.803 256.328 135.386 255.441 135.386 255.441C135.386 255.441 135.609 251.224 137.451 250.48Z" fill="black"/>
<path d="M137.587 250.542C138.166 250.941 138.856 251.145 139.559 251.125C140.65 251.057 140.179 253.277 140.179 253.277C140.179 253.277 140.036 256.917 137.426 257.313C134.815 257.71 135.528 255.503 135.528 255.503C135.528 255.503 135.745 251.286 137.587 250.542Z" fill="#FA86BE"/>
<path d="M123.27 257.4C123.27 257.4 124.163 256.619 124.652 257.648L124.237 259.955L121.676 282.798L120.039 285.793L123.27 257.4Z" fill="#00A66C"/>
<path d="M130.859 252.086L120.132 286.934L121.106 287.474L131.746 252.316L130.859 252.086Z" fill="#00A66C"/>
<path d="M127.927 267.886C127.927 267.886 125.521 276.982 122.867 280.609C120.213 284.237 120.715 287.244 120.715 287.244L121.583 287.511L128.714 268.518L127.927 267.886Z" fill="#00A66C"/>
<path d="M136.694 259.88L121.391 286.531L122.123 286.928L137.903 260.073L136.694 259.88Z" fill="#00A66C"/>
<path d="M140.074 266.918L121.013 286.785L121.583 287.523L140.886 267.365L140.074 266.918Z" fill="#00A66C"/>
<path d="M141.295 268.394C141.295 268.394 141.041 267.278 140.185 267.489C139.329 267.7 122.482 286.407 122.482 286.407L123.195 286.965L141.295 268.394Z" fill="#00A66C"/>
<path d="M122.445 256.197C122.445 256.197 119.568 256.979 119.704 258.361C119.704 258.361 124.944 256.96 127.325 258.56C127.325 258.56 127.623 256.7 125.167 256.321L123.443 254.461L122.445 256.197Z" fill="#00A66C"/>
<path d="M124.057 250.393C124.057 250.393 123.437 249.259 122.848 249.519C122.259 249.78 118.818 252.489 122.154 256.036C125.49 259.583 128.602 255.218 128.602 255.218L128.931 251.832C128.931 251.832 127.356 248.769 124.342 249.873L124.057 250.393Z" fill="#FA86BE"/>
<path opacity="0.1" d="M119.686 250.282C119.686 250.282 117.671 254.039 121.961 256.935L122.656 255.435C122.656 255.435 121.713 250.97 119.686 250.282Z" fill="black"/>
<path d="M119.518 250.276C119.518 250.276 117.503 254.033 121.794 256.929L123.077 256.83C123.077 256.83 121.552 250.964 119.518 250.276Z" fill="#FA86BE"/>
<path opacity="0.1" d="M127.449 250.772C128.002 251.201 128.677 251.444 129.377 251.466C130.469 251.466 129.824 253.655 129.824 253.655C129.824 253.655 129.427 257.276 126.798 257.493C124.373 256.402 125.031 255.552 125.031 255.552C125.031 255.552 125.564 251.386 127.449 250.772Z" fill="black"/>
<path d="M127.579 250.846C128.13 251.282 128.805 251.534 129.507 251.565C130.599 251.565 129.954 253.754 129.954 253.754C129.954 253.754 129.557 257.369 126.928 257.586C124.299 257.803 125.161 255.652 125.161 255.652C125.161 255.652 125.694 251.466 127.579 250.846Z" fill="#FA86BE"/>
<path d="M167.012 225.913C167.012 225.913 166.392 224.778 165.802 225.039C165.213 225.299 161.772 228.009 165.108 231.556C168.444 235.103 171.557 230.737 171.557 230.737L171.885 227.352C171.885 227.352 170.31 224.289 167.297 225.392L167.012 225.913Z" fill="#FA86BE"/>
<path d="M162.473 225.795C162.473 225.795 160.458 229.553 164.748 232.449L166.032 232.349C166.032 232.349 164.507 226.484 162.473 225.795Z" fill="#FA86BE"/>
<path d="M170.534 226.366C171.085 226.802 171.76 227.054 172.462 227.085C173.553 227.085 172.908 229.274 172.908 229.274C172.908 229.274 172.512 232.889 169.882 233.106C167.253 233.323 168.115 231.171 168.115 231.171C168.115 231.171 168.649 226.986 170.534 226.366Z" fill="#FA86BE"/>
<path d="M174.012 223.913C174.012 223.913 173.392 222.778 172.802 223.039C172.213 223.299 168.772 226.009 172.108 229.556C175.444 233.103 178.557 228.737 178.557 228.737L178.885 225.352C178.885 225.352 177.31 222.289 174.297 223.392L174.012 223.913Z" fill="#FA86BE"/>
<path d="M169.473 223.795C169.473 223.795 167.458 227.553 171.748 230.449L173.032 230.349C173.032 230.349 171.507 224.484 169.473 223.795Z" fill="#FA86BE"/>
<path d="M177.534 224.366C178.085 224.802 178.76 225.054 179.462 225.085C180.553 225.085 179.908 227.274 179.908 227.274C179.908 227.274 179.512 230.889 176.882 231.106C174.253 231.323 175.115 229.171 175.115 229.171C175.115 229.171 175.649 224.986 177.534 224.366Z" fill="#FA86BE"/>
<path d="M180.012 221.913C180.012 221.913 179.392 220.778 178.802 221.039C178.213 221.299 174.772 224.009 178.108 227.556C181.444 231.103 184.557 226.737 184.557 226.737L184.885 223.352C184.885 223.352 183.31 220.289 180.297 221.392L180.012 221.913Z" fill="#FA86BE"/>
<path d="M175.473 221.795C175.473 221.795 173.458 225.553 177.748 228.449L179.032 228.349C179.032 228.349 177.507 222.484 175.473 221.795Z" fill="#FA86BE"/>
<path d="M183.534 222.366C184.085 222.802 184.76 223.054 185.462 223.085C186.553 223.085 185.908 225.274 185.908 225.274C185.908 225.274 185.512 228.889 182.882 229.106C180.253 229.323 181.115 227.171 181.115 227.171C181.115 227.171 181.649 222.986 183.534 222.366Z" fill="#FA86BE"/>
<path d="M182.253 215.275C182.253 215.275 178.429 217.16 180.236 222.011L181.338 222.677C181.338 222.677 183.508 217.017 182.253 215.275Z" fill="#FA86BE"/>
<path d="M178.253 217.275C178.253 217.275 174.429 219.16 176.236 224.011L177.338 224.677C177.338 224.677 179.508 219.017 178.253 217.275Z" fill="#FA86BE"/>
<path d="M174.253 218.275C174.253 218.275 170.429 220.16 172.236 225.011L173.338 225.677C173.338 225.677 175.508 220.017 174.253 218.275Z" fill="#FA86BE"/>
<path d="M170.253 220.275C170.253 220.275 166.429 222.16 168.236 227.011L169.338 227.677C169.338 227.677 171.508 222.017 170.253 220.275Z" fill="#FA86BE"/>
<path d="M165.253 221.275C165.253 221.275 161.429 223.16 163.236 228.011L164.338 228.677C164.338 228.677 166.508 223.017 165.253 221.275Z" fill="#FA86BE"/>
<path d="M159.253 222.275C159.253 222.275 155.429 224.16 157.236 229.011L158.338 229.677C158.338 229.677 160.508 224.017 159.253 222.275Z" fill="#FA86BE"/>
<path d="M152.253 223.275C152.253 223.275 148.429 225.16 150.236 230.011L151.338 230.677C151.338 230.677 153.508 225.017 152.253 223.275Z" fill="#FA86BE"/>
<path d="M182.963 219.092C183.515 219.528 184.189 219.78 184.892 219.811C185.983 219.811 185.338 222 185.338 222C185.338 222 184.941 225.615 182.312 225.832C179.683 226.049 180.545 223.897 180.545 223.897C180.545 223.897 181.078 219.712 182.963 219.092Z" fill="#FA86BE"/>
<path d="M158.012 227.913C158.012 227.913 157.392 226.778 156.802 227.039C156.213 227.299 152.772 230.009 156.108 233.556C159.444 237.103 162.557 232.737 162.557 232.737L162.885 229.352C162.885 229.352 161.31 226.289 158.297 227.392L158.012 227.913Z" fill="#FA86BE"/>
<path d="M153.473 227.795C153.473 227.795 151.458 231.553 155.748 234.449L157.032 234.349C157.032 234.349 155.507 228.484 153.473 227.795Z" fill="#FA86BE"/>
<path d="M161.534 228.366C162.085 228.802 162.76 229.054 163.462 229.085C164.553 229.085 163.908 231.274 163.908 231.274C163.908 231.274 163.512 234.889 160.882 235.106C158.253 235.323 159.115 233.171 159.115 233.171C159.115 233.171 159.649 228.986 161.534 228.366Z" fill="#FA86BE"/>
<path d="M149.012 227.913C149.012 227.913 148.392 226.778 147.802 227.039C147.213 227.299 143.772 230.009 147.108 233.556C150.444 237.103 153.557 232.737 153.557 232.737L153.885 229.352C153.885 229.352 152.31 226.289 149.297 227.392L149.012 227.913Z" fill="#FA86BE"/>
<path d="M144.473 227.795C144.473 227.795 142.458 231.553 146.748 234.449L148.032 234.349C148.032 234.349 146.507 228.484 144.473 227.795Z" fill="#FA86BE"/>
<path d="M152.534 228.366C153.085 228.802 153.76 229.054 154.462 229.085C155.553 229.085 154.908 231.274 154.908 231.274C154.908 231.274 154.512 234.889 151.882 235.106C149.253 235.323 150.115 233.171 150.115 233.171C150.115 233.171 150.649 228.986 152.534 228.366Z" fill="#FA86BE"/>
<path d="M129.78 250.846C129.78 250.846 126.903 251.627 127.034 253.01C127.034 253.01 132.273 251.609 134.654 253.202C134.654 253.202 134.958 251.342 132.496 250.97L130.773 249.11L129.78 250.846Z" fill="#00A66C"/>
<path d="M131.386 245.055C131.386 245.055 130.766 243.92 130.177 244.18C129.588 244.441 126.147 247.151 129.483 250.697C132.819 254.244 135.932 249.879 135.932 249.879L136.26 246.493C136.26 246.493 134.685 243.43 131.672 244.534L131.386 245.055Z" fill="#FA86BE"/>
<path opacity="0.1" d="M127.015 244.943C127.015 244.943 125 248.701 129.291 251.596L129.985 250.096C129.985 250.096 129.067 245.631 127.015 244.943Z" fill="black"/>
<path d="M126.847 244.937C126.847 244.937 124.838 248.694 129.123 251.59L130.407 251.485C130.407 251.485 128.881 245.625 126.847 244.937Z" fill="#FA86BE"/>
<path opacity="0.1" d="M134.784 245.433C135.333 245.869 136.006 246.119 136.707 246.146C137.798 246.146 137.153 248.335 137.153 248.335C137.153 248.335 136.756 251.956 134.127 252.173C131.709 251.076 132.36 250.232 132.36 250.232C132.36 250.232 132.893 246.047 134.784 245.433Z" fill="black"/>
<path d="M134.915 245.501C135.463 245.937 136.137 246.187 136.837 246.214C137.928 246.214 137.283 248.403 137.283 248.403C137.283 248.403 136.886 252.024 134.257 252.241C131.628 252.458 132.49 250.3 132.49 250.3C132.49 250.3 133.023 246.115 134.915 245.501Z" fill="#FA86BE"/>
<path d="M135.975 258.287C135.975 258.287 133.172 257.276 132.484 258.479C132.484 258.479 137.581 260.339 138.616 263.018C138.616 263.018 139.931 261.666 138.133 259.949L137.798 257.431L135.975 258.287Z" fill="#00A66C"/>
<path d="M140.625 254.467C140.625 254.467 140.78 253.19 140.136 253.054C139.491 252.917 135.132 253.171 135.795 258.014C136.459 262.857 141.549 261.04 141.549 261.04L143.763 258.461C143.763 258.461 144.228 255.044 141.128 254.219L140.625 254.467Z" fill="#FA86BE"/>
<path opacity="0.1" d="M137.128 251.863C137.128 251.863 133.321 253.785 135.175 258.616L136.601 257.785C136.601 257.785 138.368 253.593 137.128 251.863Z" fill="black"/>
<path d="M136.979 251.764C136.979 251.764 133.172 253.686 135.02 258.516L136.13 259.167C136.13 259.167 138.244 253.494 136.979 251.764Z" fill="#FA86BE"/>
<path opacity="0.1" d="M143.186 256.724C143.389 257.395 143.797 257.984 144.352 258.411C145.245 259.031 143.465 260.463 143.465 260.463C143.465 260.463 141.059 263.198 138.784 261.865C137.432 259.583 138.449 259.26 138.449 259.26C138.449 259.26 141.289 256.141 143.186 256.724Z" fill="black"/>
<path d="M143.255 256.855C143.455 257.528 143.863 258.12 144.42 258.547C145.313 259.167 143.534 260.594 143.534 260.594C143.534 260.594 141.128 263.328 138.852 262.001C136.576 260.674 138.517 259.397 138.517 259.397C138.517 259.397 141.357 256.272 143.255 256.855Z" fill="#FA86BE"/>
<path d="M140.47 265.883C140.47 265.883 137.668 264.872 136.986 266.081C136.986 266.081 142.076 267.941 143.112 270.62C143.112 270.62 144.426 269.262 142.628 267.551L142.293 265.027L140.47 265.883Z" fill="#00A66C"/>
<path d="M145.121 262.057C145.121 262.057 145.276 260.78 144.631 260.649C143.986 260.519 139.627 260.761 140.328 265.61C141.029 270.459 146.076 268.642 146.076 268.642L148.29 266.056C148.29 266.056 148.755 262.646 145.654 261.821L145.121 262.057Z" fill="#FA86BE"/>
<path opacity="0.1" d="M141.605 259.453C141.605 259.453 137.798 261.375 139.652 266.211L141.078 265.38C141.078 265.38 142.876 261.183 141.605 259.453Z" fill="black"/>
<path d="M141.469 259.353C141.469 259.353 137.662 261.276 139.509 266.106L140.619 266.757C140.619 266.757 142.74 261.083 141.469 259.353Z" fill="#FA86BE"/>
<path opacity="0.1" d="M147.669 264.314C147.869 264.986 148.275 265.578 148.829 266.007C149.722 266.627 147.942 268.053 147.942 268.053C147.942 268.053 145.536 270.787 143.261 269.461C141.909 267.172 142.926 266.856 142.926 266.856C142.926 266.856 145.809 263.731 147.669 264.314Z" fill="black"/>
<path d="M147.75 264.45C147.95 265.122 148.358 265.713 148.916 266.137C149.809 266.757 148.029 268.189 148.029 268.189C148.029 268.189 145.623 270.924 143.347 269.591C141.072 268.258 143.013 266.986 143.013 266.986C143.013 266.986 145.853 263.867 147.75 264.45Z" fill="#FA86BE"/>
<path d="M141.041 268.431C141.041 268.431 138.238 267.421 137.55 268.63C137.55 268.63 142.647 270.49 143.676 273.169C143.676 273.169 144.997 271.811 143.199 270.099L142.858 267.576L141.041 268.431Z" fill="#00A66C"/>
<path d="M145.691 264.605C145.691 264.605 145.846 263.334 145.201 263.198C144.557 263.061 140.197 263.309 140.892 268.158C141.586 273.007 146.64 271.191 146.64 271.191L148.854 268.611C148.854 268.611 149.325 265.194 146.225 264.37L145.691 264.605Z" fill="#FA86BE"/>
<path opacity="0.1" d="M142.176 262.007C142.176 262.007 138.368 263.923 140.229 268.76L141.661 267.929C141.661 267.929 143.44 263.731 142.176 262.007Z" fill="black"/>
<path d="M142.039 261.902C142.039 261.902 138.238 263.824 140.086 268.654L141.196 269.312C141.196 269.312 143.329 263.632 142.039 261.902Z" fill="#FA86BE"/>
<path opacity="0.1" d="M148.252 266.862C148.453 267.536 148.861 268.128 149.418 268.555C150.311 269.175 148.531 270.601 148.531 270.601C148.531 270.601 146.125 273.342 143.85 272.009C142.492 269.721 143.515 269.405 143.515 269.405C143.515 269.405 146.355 266.28 148.252 266.862Z" fill="black"/>
<path d="M148.32 266.999C148.52 267.671 148.928 268.261 149.486 268.686C150.379 269.306 148.593 270.738 148.593 270.738C148.593 270.738 146.194 273.472 143.918 272.139C141.642 270.806 143.577 269.535 143.577 269.535C143.577 269.535 146.429 266.416 148.32 266.999Z" fill="#FA86BE"/>
<path d="M127.387 266.769C127.387 266.769 124.584 265.753 123.896 266.962C123.896 266.962 128.993 268.822 130.022 271.501C130.022 271.501 131.337 270.149 129.539 268.431L129.204 265.908L127.387 266.769Z" fill="#00A66C"/>
<path d="M132.038 262.937C132.038 262.937 132.193 261.666 131.548 261.53C130.903 261.393 126.538 261.648 127.238 266.49C127.939 271.333 132.986 269.523 132.986 269.523L135.2 266.943C135.2 266.943 135.671 263.526 132.571 262.702L132.038 262.937Z" fill="#FA86BE"/>
<path opacity="0.1" d="M128.522 260.339C128.522 260.339 124.727 262.262 126.587 267.092L128.019 266.261C128.019 266.261 129.787 262.069 128.522 260.339Z" fill="black"/>
<path d="M128.385 260.24C128.385 260.24 124.584 262.156 126.432 266.993L127.542 267.613C127.542 267.613 129.687 261.97 128.385 260.24Z" fill="#FA86BE"/>
<path opacity="0.1" d="M134.598 265.195C134.797 265.868 135.205 266.461 135.764 266.887C136.657 267.507 134.877 268.94 134.877 268.94C134.877 268.94 132.471 271.674 130.196 270.341C128.838 268.053 129.861 267.737 129.861 267.737C129.861 267.737 132.701 264.612 134.598 265.195Z" fill="black"/>
<path d="M134.648 265.331C134.848 266.003 135.256 266.593 135.814 267.017C136.7 267.638 134.921 269.07 134.921 269.07C134.921 269.07 132.521 271.804 130.239 270.471C127.957 269.138 129.904 267.867 129.904 267.867C129.904 267.867 132.788 264.748 134.648 265.331Z" fill="#FA86BE"/>
<path d="M128.918 258.417C128.918 258.417 126.11 257.4 125.427 258.609C125.427 258.609 130.524 260.469 131.554 263.148C131.554 263.148 132.868 261.796 131.07 260.079L130.735 257.555L128.918 258.417Z" fill="#00A66C"/>
<path d="M133.569 254.566C133.569 254.566 133.724 253.326 133.079 253.159C132.434 252.992 128.069 253.277 128.739 258.119C129.408 262.962 134.487 261.152 134.487 261.152L136.7 258.572C136.7 258.572 137.165 255.156 134.065 254.331L133.569 254.566Z" fill="#FA86BE"/>
<path opacity="0.1" d="M130.047 251.987C130.047 251.987 126.246 253.903 128.094 258.74L129.526 257.909C129.526 257.909 131.318 253.717 130.047 251.987Z" fill="black"/>
<path d="M129.917 251.888C129.917 251.888 126.11 253.804 127.964 258.64L129.067 259.291C129.067 259.291 131.188 253.618 129.917 251.888Z" fill="#FA86BE"/>
<path opacity="0.1" d="M136.13 256.842C136.33 257.515 136.738 258.108 137.296 258.535C138.189 259.155 136.409 260.587 136.409 260.587C136.409 260.587 134.003 263.322 131.727 261.989C130.37 259.701 131.393 259.384 131.393 259.384C131.393 259.384 134.226 256.259 136.13 256.842Z" fill="black"/>
<path d="M136.192 256.979C136.391 257.65 136.8 258.241 137.358 258.665C138.25 259.285 136.471 260.718 136.471 260.718C136.471 260.718 134.065 263.452 131.789 262.119C129.514 260.786 131.455 259.515 131.455 259.515C131.455 259.515 134.294 256.427 136.192 256.979Z" fill="#FA86BE"/>
<path d="M119.58 271.048C119.58 271.048 127.263 271.897 131.436 285.26C135.609 298.622 122.482 288.627 122.482 288.627C122.482 288.627 119.022 289.321 118.483 282.346C117.943 275.37 119.58 271.048 119.58 271.048Z" fill="#FBBEBE"/>
<path d="M120.433 280.856L118.596 281.671C118.38 281.767 118.282 282.018 118.377 282.233C118.472 282.447 118.725 282.543 118.941 282.447L120.777 281.633C120.993 281.537 121.091 281.285 120.996 281.071C120.901 280.857 120.649 280.76 120.433 280.856Z" fill="#E3E8F4"/>
<path opacity="0.1" d="M87.9505 231.326L86.7104 230.198C82.2583 226.105 79.313 223.451 79.313 220.14C79.3021 219.511 79.4177 218.885 79.6529 218.301C79.8881 217.717 80.238 217.186 80.6821 216.74C81.1261 216.294 81.6552 215.941 82.238 215.703C82.8208 215.465 83.4455 215.346 84.0751 215.353C84.8181 215.357 85.5513 215.523 86.2237 215.839C86.8962 216.155 87.4918 216.613 87.9691 217.182C88.4456 216.612 89.041 216.153 89.7137 215.837C90.3863 215.521 91.12 215.356 91.8631 215.353C92.4922 215.347 93.1162 215.466 93.6983 215.705C94.2804 215.943 94.8087 216.296 95.2521 216.742C95.6955 217.189 96.0449 217.719 96.2797 218.303C96.5145 218.886 96.6299 219.511 96.6191 220.14C96.6191 223.451 93.6799 226.105 89.2216 230.198L87.9505 231.326Z" fill="#FA86BE"/>
<path opacity="0.1" d="M70.6445 160.973L69.4043 159.839C64.946 155.752 62.0007 153.092 62.0007 149.787C61.9899 149.158 62.1055 148.532 62.3406 147.948C62.5758 147.364 62.9258 146.833 63.3698 146.387C63.8139 145.941 64.343 145.588 64.9258 145.35C65.5086 145.112 66.1333 144.993 66.7628 145C67.5058 145.004 68.239 145.17 68.9115 145.486C69.584 145.802 70.1796 146.26 70.6569 146.83C71.1339 146.26 71.7294 145.801 72.402 145.485C73.0745 145.169 73.8079 145.004 74.5509 145C75.1799 144.994 75.8039 145.113 76.386 145.352C76.9681 145.59 77.4965 145.943 77.9399 146.389C78.3832 146.836 78.7327 147.366 78.9674 147.95C79.2022 148.534 79.3176 149.158 79.3068 149.787C79.3068 153.092 76.3677 155.752 71.9094 159.839L70.6445 160.973Z" fill="#FA86BE"/>
<path opacity="0.1" d="M200.512 194.699L199.272 193.564C194.813 189.478 191.874 186.818 191.874 183.513C191.863 182.884 191.979 182.259 192.213 181.675C192.448 181.092 192.798 180.561 193.241 180.115C193.684 179.669 194.213 179.316 194.795 179.077C195.377 178.839 196.001 178.719 196.63 178.726C197.373 178.729 198.106 178.895 198.779 179.211C199.451 179.527 200.047 179.985 200.524 180.555C201.001 179.986 201.597 179.527 202.269 179.211C202.942 178.895 203.675 178.73 204.418 178.726C205.048 178.718 205.672 178.837 206.255 179.075C206.838 179.314 207.367 179.666 207.811 180.113C208.255 180.559 208.605 181.09 208.84 181.674C209.075 182.258 209.191 182.883 209.18 183.513C209.18 186.818 206.235 189.478 201.783 193.564L200.512 194.699Z" fill="#FA86BE"/>
</g>
<defs>
<filter id="filter0_d_34_597" x="-287" y="139" width="950" height="950" filterUnits="userSpaceOnUse" color-interpolation-filters="sRGB">
<feFlood flood-opacity="0" result="BackgroundImageFix"/>
<feColorMatrix in="SourceAlpha" type="matrix" values="0 0 0 0 0 0 0 0 0 0 0 0 0 0 0 0 0 0 127 0" result="hardAlpha"/>
<feOffset dy="4"/>
<feGaussianBlur stdDeviation="50"/>
<feComposite in2="hardAlpha" operator="out"/>
<feColorMatrix type="matrix" values="0 0 0 0 0.980392 0 0 0 0 0.52549 0 0 0 0 0.745098 0 0 0 1 0"/>
<feBlend mode="normal" in2="BackgroundImageFix" result="effect1_dropShadow_34_597"/>
<feBlend mode="normal" in="SourceGraphic" in2="effect1_dropShadow_34_597" result="shape"/>
</filter>
<linearGradient id="paint0_linear_34_597" x1="196.537" y1="508.187" x2="196.537" y2="184.592" gradientUnits="userSpaceOnUse">
<stop stop-color="#808080" stop-opacity="0.25"/>
<stop offset="0.54" stop-color="#808080" stop-opacity="0.12"/>
<stop offset="1" stop-color="#808080" stop-opacity="0.1"/>
</linearGradient>
<clipPath id="clip0_34_597">
<rect width="375" height="812" fill="white"/>
</clipPath>
</defs>
</svg>
