<svg width="100" height="100" viewBox="0 0 100 100" fill="none" xmlns="http://www.w3.org/2000/svg">
<rect width="100" height="100" fill="#DDDDDD"/>
<path d="M58.9584 29.1667C66.0125 29.1667 70.75 34.1063 70.75 41.4563V58.4376C70.75 65.7876 66.0125 70.7272 58.9584 70.7272H52.0417C51.1792 70.7272 50.4792 70.0272 50.4792 69.1647C50.4792 68.3022 51.1792 67.6022 52.0417 67.6022H58.9584C64.2229 67.6022 67.625 64.0042 67.625 58.4376V41.4563C67.625 35.8876 64.2229 32.2917 58.9584 32.2917H40.9375C35.6854 32.2917 32.2917 35.8876 32.2917 41.4563V58.4376C32.2917 64.0042 35.6854 67.6022 40.9375 67.6022H42.4396C43.3021 67.6022 44.0021 68.3022 44.0021 69.1647C44.0021 70.0272 43.3021 70.7272 42.4396 70.7272H40.9375C33.8979 70.7272 29.1667 65.7876 29.1667 58.4376V41.4563C29.1667 34.1063 33.8979 29.1667 40.9375 29.1667H58.9584ZM56.8573 49.0488C58.2969 49.0051 59.7052 49.553 60.7094 50.5884L65.0365 55.0488C65.6365 55.6697 65.6219 56.6592 65.0011 57.2592C64.3823 57.8613 63.3927 57.8426 62.7927 57.2259L58.4656 52.7655C58.074 52.3613 57.5615 52.1342 56.9844 52.1717C56.4219 52.1947 55.9156 52.4488 55.5573 52.8842L50.9136 58.5342C50.0948 59.5301 48.8865 60.1342 47.599 60.1905C46.3094 60.2176 45.0552 59.7509 44.1511 58.8322L42.3052 56.9488C42.0344 56.6697 41.6906 56.4238 41.3073 56.5197C40.9302 56.5217 40.5823 56.6738 40.324 56.9447L37.1365 60.3092C36.8302 60.6342 36.4177 60.7967 36.0031 60.7967C35.6177 60.7967 35.2302 60.6551 34.9281 60.3697C34.3031 59.7759 34.2761 58.7863 34.8698 58.1592L38.0552 54.7967C38.9052 53.8967 40.0552 53.3988 41.2948 53.3947C42.4906 53.4738 43.6886 53.8801 44.5469 54.7717L46.3823 56.6426C46.6677 56.9342 47.0427 57.0967 47.4615 57.0676C47.8698 57.0488 48.2386 56.8655 48.499 56.5488L53.1427 50.8988C54.0594 49.7842 55.4136 49.1092 56.8573 49.0488ZM42.834 38.8117C45.709 38.8117 48.0486 41.1513 48.0486 44.0284C48.0486 46.9055 45.709 49.2451 42.834 49.2451C39.9569 49.2451 37.6173 46.9055 37.6173 44.0284C37.6173 41.1513 39.9569 38.8117 42.834 38.8117ZM42.834 41.9367C41.6798 41.9367 40.7423 42.8742 40.7423 44.0284C40.7423 45.1826 41.6798 46.1201 42.834 46.1201C43.9861 46.1201 44.9236 45.1826 44.9236 44.0284C44.9236 42.8742 43.9861 41.9367 42.834 41.9367Z" fill="black" fill-opacity="0.3"/>
</svg>
