<svg width="279" height="211" viewBox="0 0 279 211" fill="none" xmlns="http://www.w3.org/2000/svg">
<path d="M204.402 142.875C204.402 142.875 227.371 82.9599 215.472 73.8226C203.572 64.6854 153.666 68.3751 150.932 71.6394C148.198 74.9037 132.1 147.025 132.1 147.025L204.402 142.875Z" fill="#231F20"/>
<path d="M132.065 147.388C132.015 147.388 131.965 147.377 131.92 147.356C131.874 147.336 131.833 147.306 131.8 147.269C131.765 147.229 131.74 147.18 131.728 147.128C131.716 147.076 131.717 147.021 131.73 146.969C132.385 144.019 147.905 74.7224 150.667 71.4302C152.181 69.6237 165.503 67.9427 179.76 67.7544C188.13 67.6428 208.42 67.9845 215.688 73.5576C220.745 77.4357 220.424 90.2976 214.739 111.864C210.554 127.816 204.786 142.847 204.73 142.994C204.707 143.057 204.665 143.112 204.611 143.152C204.556 143.192 204.491 143.214 204.423 143.217L132.086 147.402L132.065 147.388ZM182.396 68.4309H179.774C165.126 68.6262 152.397 70.4328 151.176 71.8626C149.084 74.3806 138.091 121.615 132.483 146.656L204.137 142.526C205.609 138.627 226.457 82.6948 215.242 74.0946C210.519 70.4746 198.613 68.4309 182.396 68.4309Z" fill="#231F20"/>
<path d="M111.14 91.1066L100.789 125.849C100.789 125.849 122.139 128.604 122.139 127.816C122.139 127.028 126.324 89.5861 126.324 89.5861L111.14 91.1066Z" fill="white"/>
<path d="M121.065 128.269C117.459 128.269 107.227 127.028 100.747 126.177C100.697 126.17 100.649 126.152 100.606 126.125C100.564 126.098 100.527 126.062 100.5 126.02C100.472 125.978 100.453 125.93 100.446 125.88C100.438 125.83 100.441 125.779 100.454 125.731L110.805 90.9881C110.824 90.921 110.863 90.8613 110.916 90.8165C110.97 90.7718 111.035 90.7441 111.105 90.737L126.296 89.2164C126.348 89.2117 126.4 89.2186 126.448 89.2367C126.496 89.2548 126.54 89.2837 126.575 89.321C126.613 89.3563 126.641 89.4001 126.658 89.4486C126.675 89.4972 126.68 89.5491 126.673 89.6C125.229 102.504 122.488 127.091 122.488 127.795C122.482 127.909 122.432 128.017 122.349 128.095C121.939 128.25 121.501 128.309 121.065 128.269ZM101.214 125.556C108.636 126.505 120.158 127.823 121.777 127.593C122.042 124.58 125.438 94.1687 125.906 89.9767L111.384 91.4345L101.214 125.556Z" fill="#231F20"/>
<path d="M91.5189 82.4786C91.6096 82.5763 95.2854 81.5928 97.1826 83.8736C99.0798 86.1544 96.6177 88.1911 90.6261 87.0124C84.6346 85.8336 91.5189 82.4786 91.5189 82.4786Z" fill="white"/>
<path d="M93.7859 87.7029C92.701 87.692 91.6196 87.5776 90.5565 87.3611C88.8267 87.0193 87.9339 86.4613 87.8293 85.6452C87.627 84.0689 90.7378 82.4716 91.3656 82.1577C91.438 82.1333 91.5164 82.1333 91.5888 82.1577H91.819C92.7955 82.0392 95.7668 81.6625 97.4548 83.6853C98.2081 84.5781 98.3685 85.4918 97.9221 86.259C97.3432 87.1728 95.8435 87.7029 93.7859 87.7029ZM91.5958 82.8204C90.2356 83.5179 88.4431 84.7455 88.5407 85.5197C88.5407 85.7778 88.9034 86.266 90.696 86.6217C94.7485 87.4169 96.7852 86.6775 97.3013 85.8057C97.4246 85.5098 97.4525 85.1828 97.3813 84.8702C97.31 84.5577 97.1431 84.2752 96.9037 84.0619C95.4669 82.3461 92.8792 82.6669 91.9096 82.7925C91.7771 82.8204 91.6795 82.8204 91.5958 82.8204V82.8204Z" fill="#231F20"/>
<path d="M82.305 75.1897C82.305 75.1897 81.5517 74.3248 82.026 73.718C82.1327 73.5948 82.2672 73.4988 82.4184 73.438C82.5696 73.3771 82.7332 73.3532 82.8955 73.3682C83.0577 73.3832 83.2141 73.4367 83.3516 73.5242C83.4891 73.6117 83.6038 73.7308 83.6861 73.8714C83.6861 73.8714 82.5003 74.2969 82.305 75.1897Z" fill="white"/>
<path d="M82.305 75.5455C82.2539 75.546 82.2032 75.5357 82.1563 75.5153C82.1094 75.4948 82.0674 75.4647 82.033 75.4269C81.6842 75.0223 81.2239 74.1574 81.747 73.5018C81.8639 73.3481 82.0148 73.2234 82.1878 73.1375C82.3608 73.0516 82.5513 73.0068 82.7444 73.0066C82.9822 73.0106 83.2157 73.0701 83.4264 73.1803C83.6371 73.2905 83.8191 73.4483 83.9581 73.6413C83.9963 73.6857 84.0227 73.739 84.0349 73.7963C84.0471 73.8536 84.0447 73.913 84.0278 73.9691C84.0132 74.0248 83.9852 74.0762 83.9463 74.1187C83.9074 74.1612 83.8588 74.1937 83.8046 74.2132C83.5256 74.3109 82.7793 74.7015 82.6537 75.2665C82.6403 75.3313 82.6091 75.3912 82.5635 75.4392C82.5179 75.4873 82.4597 75.5217 82.3957 75.5385L82.305 75.5455ZM82.7584 73.725C82.6737 73.7262 82.5903 73.7463 82.5143 73.7837C82.4383 73.8211 82.3716 73.8749 82.3189 73.9412C82.2792 74.0177 82.2585 74.1026 82.2585 74.1888C82.2585 74.275 82.2792 74.36 82.3189 74.4364C82.529 74.1786 82.7843 73.9612 83.0722 73.7947C82.9758 73.7525 82.8695 73.738 82.7653 73.7529L82.7584 73.725Z" fill="#231F20"/>
<path d="M83.9512 73.8365C83.5362 73.8702 83.1442 74.0405 82.8362 74.3206C82.5283 74.6008 82.3219 74.9751 82.2493 75.385L97.2106 94.8522C97.3029 93.9193 97.7058 93.0444 98.3546 92.3678C99.0034 91.6912 99.8606 91.252 100.789 91.1206L83.9512 73.8365Z" fill="white"/>
<path d="M97.2036 95.208C97.1496 95.2074 97.0963 95.1946 97.048 95.1704C96.9996 95.1463 96.9575 95.1114 96.9246 95.0685L81.9632 75.6013C81.9295 75.5572 81.9062 75.506 81.8953 75.4516C81.8845 75.3972 81.8862 75.341 81.9005 75.2874C81.9989 74.8034 82.2523 74.3646 82.6223 74.0375C82.9923 73.7103 83.4587 73.5124 83.9511 73.4739C83.9994 73.4744 84.0471 73.4845 84.0914 73.5037C84.1357 73.5228 84.1758 73.5506 84.2092 73.5855L101.047 90.8695C101.094 90.9159 101.126 90.9746 101.141 91.0388C101.156 91.103 101.152 91.17 101.131 91.2322C101.111 91.2946 101.075 91.3504 101.025 91.3935C100.976 91.4366 100.916 91.4652 100.852 91.4764C100.001 91.5926 99.215 91.9916 98.6191 92.609C98.0232 93.2264 97.6523 94.0264 97.5663 94.8802C97.5605 94.9526 97.5326 95.0215 97.4865 95.0776C97.4404 95.1337 97.3781 95.1743 97.3082 95.194L97.2036 95.208ZM82.6468 75.3153L97.0223 94.0153C97.2247 93.2793 97.6125 92.6075 98.1485 92.0641C98.6846 91.5206 99.3511 91.1238 100.084 90.9114L83.8186 74.2132C83.5404 74.2705 83.2836 74.4038 83.0767 74.5984C82.8698 74.793 82.721 75.0411 82.6468 75.3153V75.3153Z" fill="#231F20"/>
<path d="M97.2106 94.8522L102.316 97.5027L102.951 96.9099L100.789 91.1206C100.789 91.1206 96.813 90.7231 97.2106 94.8522Z" fill="white"/>
<path d="M102.316 97.8585C102.258 97.8594 102.2 97.845 102.149 97.8166L97.0432 95.1661C96.989 95.1391 96.9425 95.0986 96.9084 95.0485C96.8742 94.9985 96.8534 94.9405 96.8479 94.8802C96.7508 94.3252 96.7813 93.7554 96.9372 93.214C97.0931 92.6725 97.3703 92.1737 97.7476 91.7554C98.1686 91.3934 98.6573 91.1188 99.1854 90.9476C99.7135 90.7763 100.27 90.7119 100.824 90.7579C100.892 90.7644 100.957 90.7901 101.011 90.832C101.066 90.874 101.107 90.9306 101.131 90.9951L103.286 96.7843C103.312 96.851 103.317 96.924 103.301 96.9936C103.285 97.0633 103.248 97.1265 103.195 97.1749L102.56 97.7678C102.493 97.8266 102.406 97.8589 102.316 97.8585V97.8585ZM97.5523 94.6221L102.253 97.0633L102.532 96.8122L100.538 91.4694C99.7034 91.4456 98.8895 91.7285 98.2498 92.2645C97.9697 92.5835 97.7622 92.9595 97.6418 93.3666C97.5214 93.7737 97.4908 94.2021 97.5523 94.6221V94.6221Z" fill="#231F20"/>
<path d="M102.316 97.5027L103.293 98.549L103.753 98.0259L102.951 96.9099L102.316 97.5027Z" fill="white"/>
<path d="M103.293 98.9117C103.244 98.9121 103.195 98.9016 103.151 98.8811C103.106 98.8606 103.066 98.8306 103.035 98.7931L102.051 97.7469C101.988 97.6759 101.953 97.584 101.954 97.4888C101.959 97.3929 102.002 97.3028 102.072 97.2377L102.707 96.6448C102.745 96.6106 102.789 96.5848 102.838 96.5689C102.886 96.5531 102.937 96.5476 102.988 96.5529C103.039 96.5581 103.088 96.574 103.132 96.5995C103.176 96.6249 103.214 96.6594 103.244 96.7006L104.046 97.8166C104.097 97.8799 104.125 97.9586 104.125 98.0398C104.125 98.121 104.097 98.1998 104.046 98.263L103.586 98.7861C103.554 98.8254 103.513 98.8571 103.467 98.8788C103.422 98.9005 103.371 98.9118 103.321 98.9117H103.293ZM102.825 97.5167L103.286 98.0119L102.888 97.4609L102.825 97.5167Z" fill="#231F20"/>
<path d="M92.4676 96.3798C93.2907 94.7127 95.3553 91.1764 95.8296 89.6419C97.1409 85.4569 89.4614 81.537 86.9783 81.537C84.4952 81.537 79.3058 90.2139 79.3058 94.8522C79.3058 99.4906 96.4992 135.007 96.4992 135.007L112.995 127.46L92.4676 96.3798Z" fill="white"/>
<path d="M96.5201 135.37C96.453 135.37 96.3872 135.351 96.3304 135.315C96.2737 135.279 96.2282 135.228 96.1992 135.168C95.5017 133.717 78.964 99.5115 78.964 94.8522C78.964 90.1929 84.2092 81.1743 86.9783 81.1743C88.8894 81.1743 93.3325 83.211 95.3483 85.9173C95.7945 86.4375 96.1061 87.0595 96.2557 87.7284C96.4053 88.3973 96.3883 89.0927 96.2062 89.7535C95.5412 91.3981 94.7627 92.9946 93.8765 94.5314C93.5069 95.2289 93.179 95.8566 92.914 96.3518L113.344 127.251C113.372 127.295 113.391 127.344 113.4 127.396C113.408 127.448 113.406 127.5 113.393 127.551C113.378 127.6 113.352 127.645 113.319 127.683C113.285 127.722 113.244 127.753 113.197 127.774L96.6944 135.335C96.6421 135.366 96.5805 135.379 96.5201 135.37ZM86.9783 81.8927C84.7951 81.8927 79.6894 90.2627 79.6894 94.8522C79.6894 99.1209 94.9856 130.99 96.6875 134.54L112.486 127.3L92.1677 96.6099C92.1371 96.5544 92.1211 96.492 92.1211 96.4286C92.1211 96.3652 92.1371 96.3028 92.1677 96.2472C92.4327 95.7171 92.8163 94.9987 93.2348 94.2175C94.0974 92.7201 94.8571 91.1657 95.5087 89.5652C95.6559 89.0123 95.6648 88.4318 95.5346 87.8747C95.4045 87.3176 95.1392 86.801 94.7624 86.3706C92.8163 83.7271 88.5825 81.8927 86.9783 81.8927Z" fill="#231F20"/>
<path d="M180.234 103.411L200.566 98.2281C199.869 97.2447 191.666 71.207 183.017 66.9453C175.449 61.9233 157.503 58.5753 141.648 59.7122C141.648 59.7122 137.463 59.5587 130.126 62.4673C112.256 69.5679 108.81 94.2942 108.81 94.2942L122.76 99.114C122.76 99.114 120.096 131.094 117.578 147.813C117.578 147.813 148.421 153.847 193.326 146.418C193.361 146.404 180.318 108.14 180.234 103.411Z" fill="#FA86BE"/>
<path d="M178.56 67.6637C175.868 70.4537 173.768 73.8017 170.797 76.4312C164.394 82.0949 156.017 86.5799 147.235 86.0358C136.884 85.3941 127.936 78.3215 125.69 68.0194C124.295 61.5605 125.745 55.562 130.739 51.0004C134.192 47.8477 138.614 45.9226 143.134 44.7229C155.138 41.5074 168.607 43.2163 178.853 50.261C180.527 51.2915 181.94 52.6952 182.982 54.3623C185.542 59.0007 182.599 63.7716 179.278 66.9592C179.055 67.1754 178.818 67.4195 178.56 67.6637Z" fill="#FA86BE"/>
<path d="M143.246 74.9735C143.141 74.9735 141.216 77.3171 141.118 77.352C142.213 81.4812 143.371 86.8589 148.044 87.389C157.523 88.4701 158.96 75.8314 160.746 69.8678C154.182 71.7092 149.551 72.4485 143.246 74.9735Z" fill="#231F20"/>
<path d="M149.153 87.8075C148.771 87.8045 148.389 87.7812 148.01 87.7377C143.343 87.2076 142.025 82.1577 140.958 78.1192L140.776 77.4217C140.76 77.3532 140.764 77.2812 140.789 77.2152C140.814 77.1492 140.858 77.0923 140.916 77.052C141.028 76.9474 141.537 76.3545 141.906 75.9221C142.988 74.6805 143.001 74.6736 143.113 74.6247C146.974 73.1322 150.936 71.9177 154.971 70.9908C156.749 70.5444 158.584 70.084 160.62 69.5121C160.68 69.4953 160.744 69.4949 160.804 69.5109C160.864 69.5268 160.918 69.5585 160.962 69.6027C161.004 69.6479 161.034 69.703 161.048 69.7628C161.063 69.8226 161.062 69.8851 161.046 69.9445C160.781 70.8303 160.523 71.8766 160.244 72.9856C158.8 78.9562 156.589 87.8005 149.153 87.8075ZM141.481 77.4636L141.606 77.9448C142.674 81.9903 143.873 86.5729 148.065 87.0123C155.829 87.8982 157.998 79.1724 159.588 72.7973C159.804 71.9254 160.014 71.0884 160.223 70.3351C158.416 70.8303 156.735 71.2488 155.152 71.6534C151.155 72.5608 147.229 73.7591 143.406 75.2385C143.267 75.378 142.778 75.936 142.416 76.3615C141.927 76.9893 141.655 77.2962 141.502 77.4636H141.481Z" fill="#231F20"/>
<path d="M152.425 26.3229C151.03 26.2671 150.137 26.8739 148.937 27.3064C146.601 28.1294 145.512 26.1764 143.504 25.1371C140.341 23.4929 136.707 22.994 133.218 23.725C129.729 24.4561 126.601 26.3721 124.364 29.1478C122.972 30.7961 122.071 32.8019 121.763 34.937C121.47 37.3504 122.146 39.8195 121.728 42.205C121.472 43.575 120.872 44.8573 119.983 45.9311C119.095 47.005 117.948 47.835 116.65 48.343C118.883 48.5153 121.129 48.303 123.29 47.7152C122.669 48.4535 121.897 49.0503 121.026 49.4654C120.155 49.8804 119.205 50.1042 118.24 50.1216C120.465 51.8319 123.198 52.7479 126.003 52.7233L121.086 53.8742C125.271 56.5595 130.37 57.3617 135.301 57.1385C145.122 56.6293 161.569 52.6117 161.283 39.8893C161.123 35.0137 158.444 26.6019 152.425 26.3229Z" fill="white"/>
<path d="M133.613 57.5499C129.854 57.5499 125.041 56.8524 120.87 54.188C120.813 54.1499 120.768 54.096 120.74 54.0329C120.713 53.9697 120.705 53.9001 120.716 53.8323C120.731 53.7659 120.763 53.7048 120.81 53.6556C120.856 53.6063 120.916 53.571 120.981 53.5533L123.716 52.9185C121.634 52.564 119.671 51.7068 117.996 50.4215C117.938 50.3776 117.894 50.3163 117.872 50.2465C117.851 50.1766 117.851 50.1016 117.874 50.0322C117.898 49.9628 117.942 49.9024 118.001 49.8596C118.061 49.8168 118.132 49.7937 118.205 49.7937C119.638 49.7703 121.02 49.2667 122.132 48.3639C120.312 48.7413 118.447 48.8588 116.594 48.7126C116.516 48.7055 116.442 48.6719 116.385 48.6174C116.328 48.563 116.291 48.4908 116.28 48.4127C116.267 48.3337 116.283 48.2528 116.324 48.1839C116.364 48.1151 116.428 48.0628 116.503 48.036C117.75 47.5563 118.854 46.7654 119.708 45.7386C120.563 44.7118 121.14 43.4833 121.386 42.1701C121.554 40.9163 121.568 39.6468 121.428 38.3896C121.319 37.2297 121.319 36.0621 121.428 34.9021C121.745 32.7007 122.673 30.6323 124.106 28.9315C126.393 26.0932 129.593 24.1344 133.161 23.388C136.729 22.6416 140.445 23.1537 143.678 24.8372C144.272 25.1617 144.837 25.5374 145.366 25.9602C146.496 26.8181 147.389 27.4947 148.854 26.9855C149.167 26.8739 149.46 26.7483 149.746 26.6298C150.598 26.1974 151.54 25.975 152.494 25.9811V25.9811C158.535 26.2461 161.562 34.4348 161.66 39.8892C161.785 45.6715 158.625 50.2262 152.264 53.4138C145.903 56.6013 138.314 57.3407 135.35 57.4941C134.764 57.536 134.199 57.5499 133.613 57.5499ZM121.965 54.0624C126.471 56.6781 131.639 57.0268 135.259 56.8524C138.161 56.699 145.582 56.0085 151.895 52.8418C157.998 49.7868 161.025 45.4553 160.906 39.959C160.788 34.7696 158.005 26.9785 152.411 26.7065C151.56 26.7124 150.722 26.9154 149.963 27.2994C149.663 27.4249 149.356 27.5574 149.028 27.669C147.221 28.3038 146.091 27.4458 144.899 26.5391C144.403 26.142 143.873 25.7895 143.315 25.4859C140.226 23.874 136.673 23.383 133.262 24.0965C129.851 24.81 126.793 26.6838 124.608 29.3988C123.263 30.9876 122.386 32.9198 122.076 34.9788C121.972 36.0901 121.972 37.2087 122.076 38.3199C122.218 39.6332 122.2 40.9589 122.021 42.2677C121.8 43.4625 121.327 44.5965 120.633 45.5937C119.939 46.5909 119.04 47.4284 117.996 48.05C119.735 48.0477 121.467 47.8132 123.144 47.3525C123.216 47.3316 123.293 47.3345 123.363 47.3609C123.434 47.3873 123.494 47.4357 123.534 47.499C123.577 47.5591 123.6 47.631 123.6 47.7047C123.6 47.7785 123.577 47.8504 123.534 47.9105C122.43 49.2239 120.89 50.0955 119.196 50.3657C121.213 51.681 123.574 52.3702 125.982 52.3466C126.069 52.3444 126.152 52.3748 126.217 52.4317C126.282 52.4886 126.322 52.5678 126.331 52.6535C126.342 52.7389 126.321 52.8253 126.272 52.8961C126.223 52.9669 126.15 53.0172 126.066 53.0371L121.965 54.0624Z" fill="#231F20"/>
<path d="M140.421 65.341L141.118 77.352C141.118 77.352 146.608 83.6295 153.673 79.7723C160.739 75.9151 160.467 69.798 160.467 69.798L155.828 47.2479C155.828 47.2479 149.418 45.7692 147.786 33.1444C142.318 37.4739 135.783 40.2475 128.87 41.1726C128.87 41.1726 128.996 55.297 131.486 60.9119C133.976 66.5268 140.421 65.341 140.421 65.341Z" fill="white"/>
<path d="M149.035 81.3696C144.236 81.3696 140.895 77.638 140.853 77.5822C140.801 77.5245 140.772 77.4504 140.77 77.3729L140.072 65.7316C138.6 65.8781 133.355 66.0176 131.144 61.0305C128.654 55.4505 128.507 41.7307 128.5 41.1517C128.501 41.0675 128.532 40.9862 128.587 40.9224C128.641 40.8585 128.717 40.8162 128.8 40.803C135.64 39.8704 142.107 37.1304 147.535 32.8654C147.583 32.8235 147.642 32.7955 147.704 32.7844C147.767 32.7733 147.832 32.7797 147.891 32.8027C147.949 32.8253 148.001 32.8631 148.04 32.9121C148.079 32.9611 148.105 33.0196 148.114 33.0817C148.937 39.4708 151.016 42.8815 152.613 44.6253C153.476 45.6669 154.611 46.4491 155.891 46.8852C155.955 46.902 156.014 46.9364 156.059 46.9844C156.105 47.0325 156.136 47.0923 156.149 47.1572L160.795 69.7283C160.795 69.8469 161.004 76.1593 153.82 80.0792C152.36 80.9079 150.713 81.3519 149.035 81.3696ZM141.453 77.1846C142.151 77.9449 147.145 82.925 153.513 79.4445C160.293 75.7338 160.125 69.8399 160.125 69.7841L155.529 47.4641C154.371 47.0805 149.126 44.7648 147.528 33.7443C142.166 37.7944 135.873 40.4326 129.226 41.4168C129.226 43.5093 129.575 55.6876 131.8 60.7166C134.15 66.0037 140.107 65.0062 140.358 64.9644C140.406 64.955 140.456 64.9557 140.504 64.9665C140.552 64.9773 140.597 64.998 140.637 65.0272C140.675 65.0593 140.706 65.0986 140.729 65.1429C140.752 65.1872 140.766 65.2356 140.77 65.2852L141.453 77.1846Z" fill="#231F20"/>
<path d="M153.213 53.5672C154.852 53.8141 156.521 53.4029 157.858 52.4233C158.761 51.7086 159.464 50.7737 159.902 49.7087C160.339 48.6436 160.495 47.484 160.355 46.3411C160.312 45.487 160.074 44.6541 159.658 43.9069C159.454 43.5332 159.172 43.2076 158.832 42.9525C158.491 42.6973 158.1 42.5185 157.684 42.4282C156.654 42.3641 155.631 42.6358 154.768 43.2024C153.415 43.8999 153.373 44.6741 152.634 45.818C152.718 45.7134 152.78 45.4205 152.864 45.3158" fill="white"/>
<path d="M154.147 53.9927C153.816 53.9914 153.485 53.9657 153.157 53.9159C153.065 53.9005 152.982 53.8494 152.928 53.7737C152.873 53.698 152.85 53.6038 152.864 53.5114C152.871 53.4662 152.887 53.4229 152.91 53.3839C152.934 53.345 152.965 53.3112 153.003 53.2845C153.04 53.2578 153.082 53.2389 153.126 53.2287C153.171 53.2186 153.217 53.2175 153.262 53.2254C154.807 53.4528 156.379 53.0591 157.635 52.1303C158.49 51.4504 159.155 50.5619 159.566 49.5504C159.978 48.5389 160.122 47.4385 159.986 46.355C159.958 45.5548 159.745 44.7718 159.365 44.0672C159.185 43.7407 158.938 43.4562 158.639 43.2325C158.341 43.0089 157.999 42.8512 157.635 42.7699C156.77 42.6164 155.905 43.014 154.943 43.5092C154.281 43.831 153.764 44.3882 153.492 45.0716C153.345 45.3367 153.185 45.6366 152.969 45.9644C152.954 45.9928 152.935 46.0186 152.913 46.0412C152.857 46.1105 152.776 46.1552 152.687 46.1656C152.599 46.1761 152.509 46.1514 152.439 46.097C152.365 46.045 152.315 45.9659 152.299 45.8771C152.283 45.7882 152.303 45.6968 152.355 45.6227V45.6227C152.355 45.6227 152.355 45.532 152.404 45.4832C152.445 45.3569 152.503 45.2371 152.578 45.1274C152.614 45.0852 152.66 45.0518 152.711 45.0298L152.843 44.7787C153.188 43.9696 153.812 43.3111 154.601 42.9233C155.424 42.4979 156.561 41.912 157.726 42.1142C158.199 42.2082 158.647 42.4041 159.037 42.6884C159.427 42.9726 159.751 43.3384 159.986 43.7603C160.413 44.5581 160.652 45.4434 160.683 46.3481C160.83 47.5489 160.665 48.7674 160.203 49.8855C159.741 51.0036 158.998 51.9835 158.047 52.7302C156.914 53.5546 155.548 53.9968 154.147 53.9927V53.9927Z" fill="#231F20"/>
<path d="M140.783 71.6604C142.157 71.5616 143.486 71.1286 144.654 70.3993C145.822 69.6699 146.794 68.6662 147.486 67.4754C149.949 63.3671 148.965 60.7375 148.965 60.7375C148.965 60.7375 145.645 64.9713 140.421 65.3131L140.783 71.6604Z" fill="#231F20"/>
<path d="M140.783 72.0021C140.695 72.0022 140.61 71.9681 140.547 71.907C140.483 71.8459 140.445 71.7625 140.442 71.6743L140.072 65.3968C140.069 65.351 140.075 65.3051 140.09 65.2617C140.105 65.2183 140.129 65.1782 140.159 65.1439C140.19 65.1096 140.226 65.0816 140.268 65.0615C140.309 65.0415 140.354 65.0298 140.4 65.0271C145.401 64.7063 148.658 60.6329 148.693 60.591C148.731 60.5417 148.781 60.5034 148.839 60.4801C148.897 60.4568 148.959 60.4494 149.021 60.4585C149.082 60.4689 149.139 60.495 149.186 60.5341C149.234 60.5733 149.271 60.6241 149.293 60.6817C149.335 60.7933 150.304 63.5136 147.779 67.7195C147.061 68.9565 146.048 69.9976 144.832 70.7506C143.615 71.5036 142.232 71.9454 140.804 72.037L140.783 72.0021ZM140.783 65.6549L141.111 71.2837C142.357 71.1302 143.551 70.6933 144.602 70.0065C145.653 69.3198 146.532 68.4014 147.173 67.3219C148.84 64.5319 148.881 62.4952 148.756 61.5187C146.667 63.792 143.845 65.2565 140.783 65.6549V65.6549Z" fill="#231F20"/>
<path d="M139.5 46.2504C139.5 46.2504 136.884 53.1417 138.07 53.9648C139.256 54.7878 141.76 53.4765 141.76 53.4765" fill="white"/>
<path d="M139.102 54.5856C138.666 54.6056 138.234 54.4885 137.868 54.2508C136.557 53.344 138.565 47.8059 139.165 46.1249C139.198 46.0393 139.263 45.97 139.347 45.9321C139.43 45.8943 139.526 45.8909 139.612 45.9226C139.655 45.9389 139.694 45.9635 139.728 45.9952C139.762 46.0268 139.789 46.0649 139.808 46.107C139.826 46.1492 139.837 46.1947 139.838 46.2409C139.839 46.2871 139.831 46.333 139.814 46.376C138.6 49.5775 137.721 53.2813 138.265 53.6719C139.095 54.2438 140.951 53.5045 141.592 53.1697C141.675 53.1274 141.771 53.1191 141.859 53.1465C141.948 53.1738 142.022 53.2347 142.067 53.3161C142.108 53.3985 142.115 53.4939 142.086 53.5815C142.058 53.669 141.995 53.7416 141.913 53.7835C141.045 54.2488 140.086 54.5223 139.102 54.5856V54.5856Z" fill="#231F20"/>
<path d="M144.645 46.076C145.176 45.9042 145.41 45.1558 145.168 44.4044C144.925 43.653 144.297 43.1831 143.765 43.3548C143.234 43.5266 143 44.275 143.243 45.0264C143.486 45.7779 144.113 46.2478 144.645 46.076Z" fill="#231F20"/>
<path d="M134.887 48.3579C135.445 48.3503 135.889 47.704 135.878 46.9144C135.868 46.1248 135.406 45.4908 134.848 45.4984C134.289 45.506 133.845 46.1523 133.856 46.9419C133.867 47.7315 134.328 48.3655 134.887 48.3579Z" fill="#231F20"/>
<path d="M140.33 62.8161C139.66 62.8336 139.002 62.6409 138.447 62.2651C136.25 60.6608 136.089 57.1175 136.082 56.9641C136.08 56.8816 136.107 56.8011 136.158 56.7362C136.209 56.6713 136.281 56.6261 136.361 56.6083C145.387 54.6344 145.485 54.7042 145.645 54.8227C145.685 54.8528 145.718 54.8905 145.743 54.9336C145.769 54.9767 145.785 55.0244 145.791 55.0738C145.931 56.4801 145.738 57.8995 145.226 59.217C144.919 60.0247 144.432 60.752 143.803 61.3441C143.173 61.9361 142.417 62.3775 141.592 62.6347C141.182 62.7534 140.757 62.8144 140.33 62.8161V62.8161ZM136.808 57.2361C136.891 58.0801 137.268 60.5492 138.844 61.6931C139.22 61.9235 139.641 62.068 140.079 62.1162C140.517 62.1645 140.96 62.1152 141.376 61.9721C142.103 61.7458 142.77 61.3577 143.325 60.8371C143.881 60.3164 144.312 59.6767 144.585 58.9659C145.016 57.8567 145.198 56.6658 145.115 55.4784C143.915 55.6946 139.681 56.6014 136.808 57.2291V57.2361Z" fill="#231F20"/>
<path d="M144.906 59.1054C143.566 62.3418 140.212 63.116 138.628 61.993C138.984 60.7584 139.633 59.475 140.839 59.0077C142.163 58.5561 143.605 58.5907 144.906 59.1054V59.1054Z" fill="#231F20"/>
<path d="M140.33 62.8091C139.661 62.8277 139.003 62.6376 138.447 62.265C138.389 62.2232 138.346 62.1643 138.324 62.0968C138.301 62.0293 138.3 61.9564 138.321 61.8884C138.796 60.1865 139.612 59.0984 140.735 58.6729C142.131 58.1984 143.649 58.2305 145.024 58.7636C145.069 58.7799 145.11 58.805 145.144 58.8373C145.179 58.8697 145.207 58.9086 145.226 58.9519C145.261 59.0393 145.261 59.1366 145.226 59.224C144.917 60.0298 144.43 60.7553 143.801 61.346C143.171 61.9367 142.416 62.3772 141.592 62.6347C141.182 62.7507 140.757 62.8094 140.33 62.8091V62.8091ZM139.061 61.8256C139.786 62.1683 140.615 62.2182 141.376 61.9651C142.044 61.7608 142.662 61.4179 143.188 60.9588C143.714 60.4997 144.138 59.9347 144.431 59.3007C143.313 58.9289 142.104 58.9289 140.986 59.3007C140.128 59.6494 139.5 60.5004 139.061 61.8256Z" fill="#231F20"/>
<path d="M128.542 51.8165C128.065 51.8163 127.602 51.653 127.23 51.3536C126.859 51.0542 126.6 50.6367 126.499 50.1704L125.766 46.8433C125.648 46.3013 125.75 45.7345 126.049 45.2676C126.349 44.8007 126.822 44.4718 127.363 44.3532L135.141 42.6443C135.409 42.5848 135.687 42.5789 135.959 42.627C136.23 42.6751 136.489 42.7762 136.721 42.9246C136.953 43.073 137.153 43.2657 137.31 43.4917C137.468 43.7177 137.579 43.9726 137.638 44.2416L138.335 47.5687C138.448 48.1037 138.347 48.6617 138.054 49.1231C137.76 49.5846 137.298 49.9129 136.766 50.0378V50.0378L128.989 51.7398C128.843 51.7826 128.694 51.8084 128.542 51.8165V51.8165ZM135.594 43.3209C135.494 43.3106 135.394 43.3106 135.294 43.3209L127.524 45.0228C127.169 45.1046 126.861 45.3218 126.664 45.6281C126.467 45.9343 126.398 46.3053 126.471 46.6619L127.203 50.0378C127.286 50.3898 127.503 50.6956 127.808 50.8908C128.112 51.086 128.481 51.1553 128.835 51.0841L136.612 49.3403C136.964 49.257 137.27 49.0402 137.465 48.7357C137.661 48.4312 137.73 48.0628 137.659 47.7082L136.961 44.3811C136.891 44.0771 136.721 43.8054 136.478 43.6094C136.235 43.4134 135.934 43.3045 135.622 43.3L135.594 43.3209Z" fill="#231F20"/>
<path d="M142.402 48.7824C142.001 48.7813 141.608 48.6651 141.272 48.4476C140.806 48.1486 140.477 47.677 140.358 47.1363L139.66 43.8092C139.541 43.2675 139.641 42.7005 139.939 42.2328C140.088 42 140.28 41.7988 140.507 41.6408C140.733 41.4828 140.988 41.3711 141.258 41.3121L149.028 39.6102C149.297 39.5507 149.575 39.5448 149.846 39.5929C150.117 39.6409 150.376 39.7421 150.608 39.8905C150.84 40.0389 151.04 40.2316 151.198 40.4576C151.355 40.6836 151.466 40.9384 151.525 41.2075L152.222 44.5346C152.344 45.0727 152.248 45.6369 151.955 46.1046C151.662 46.5722 151.197 46.9054 150.66 47.0316L142.89 48.7335C142.729 48.7653 142.566 48.7817 142.402 48.7824ZM149.453 40.2729C149.352 40.2741 149.252 40.2858 149.153 40.3077L141.383 42.0166C141.206 42.0537 141.039 42.126 140.89 42.229C140.742 42.332 140.615 42.4638 140.518 42.6165C140.322 42.9248 140.254 43.298 140.33 43.6557L141.062 46.9828C141.146 47.3348 141.363 47.6406 141.667 47.8358C141.972 48.031 142.34 48.1003 142.695 48.0291L150.472 46.3272C150.827 46.2478 151.138 46.0325 151.337 45.7273C151.531 45.418 151.596 45.0448 151.518 44.688L150.82 41.361C150.751 41.051 150.577 40.7742 150.328 40.5764C150.08 40.3785 149.771 40.2714 149.453 40.2729Z" fill="#231F20"/>
<path d="M137.282 44.681C137.218 44.6824 137.155 44.6655 137.101 44.6322C137.019 44.5841 136.96 44.5062 136.935 44.415C136.91 44.3238 136.922 44.2266 136.968 44.144C137.296 43.579 138.363 42.6932 140.114 43.3976C140.206 43.4328 140.281 43.5032 140.322 43.5935C140.362 43.6838 140.365 43.7864 140.33 43.8789C140.295 43.9714 140.224 44.0462 140.134 44.0867C140.044 44.1273 139.941 44.1303 139.849 44.0951C138.286 43.4674 137.659 44.423 137.596 44.5346C137.559 44.5828 137.512 44.6213 137.457 44.6468C137.402 44.6724 137.342 44.6841 137.282 44.681V44.681Z" fill="#231F20"/>
<path d="M67.797 137.532H211.203L234.214 179.557H44.7865L67.797 137.532Z" fill="white"/>
<path d="M234.213 179.905H44.7865C44.7264 179.905 44.6674 179.89 44.615 179.86C44.5625 179.831 44.5184 179.789 44.4866 179.738C44.4573 179.685 44.4419 179.625 44.4419 179.564C44.4419 179.503 44.4573 179.443 44.4866 179.389L67.5041 137.365C67.5336 137.309 67.5778 137.263 67.632 137.231C67.6861 137.199 67.7481 137.183 67.811 137.184H211.196C211.259 137.183 211.321 137.199 211.375 137.231C211.429 137.263 211.473 137.309 211.503 137.365L234.52 179.389C234.55 179.443 234.565 179.503 234.565 179.564C234.565 179.625 234.55 179.685 234.52 179.738C234.488 179.79 234.443 179.833 234.389 179.862C234.335 179.891 234.275 179.906 234.213 179.905ZM45.3794 179.208H233.621L210.994 137.881H68.0063L45.3794 179.208Z" fill="#D1D3D4"/>
<path d="M70.0221 110.42L70.329 109.095C71.0265 107.77 71.8007 106.877 73.6003 106.877H141.865C142.69 106.879 143.492 107.147 144.153 107.642C144.813 108.138 145.295 108.833 145.526 109.625L156.624 147.751C156.91 148.568 156.874 149.464 156.523 150.256C156.172 151.048 155.532 151.676 154.733 152.012L153.527 152.298L70.0221 110.42Z" fill="white"/>
<path d="M153.527 152.647C153.474 152.645 153.422 152.634 153.373 152.612L69.8686 110.72C69.7981 110.686 69.7417 110.628 69.7087 110.557C69.6756 110.486 69.6681 110.406 69.6872 110.33L69.9941 109.005C69.9911 108.974 69.9911 108.944 69.9941 108.914C70.6916 107.651 71.4938 106.514 73.5723 106.514H141.837C142.737 106.518 143.612 106.812 144.332 107.352C145.052 107.892 145.578 108.65 145.833 109.514L156.938 147.688C157.249 148.589 157.207 149.575 156.818 150.445C156.429 151.316 155.724 152.006 154.845 152.375L153.596 152.675L153.527 152.647ZM70.4475 110.232L153.596 151.929L154.678 151.678C156.359 151.022 156.707 149.229 156.31 147.848L145.213 109.723C145 109.005 144.561 108.374 143.962 107.924C143.363 107.474 142.635 107.23 141.885 107.226H73.6002C72.0587 107.226 71.3961 107.923 70.6568 109.221L70.4475 110.232Z" fill="#231F20"/>
<path d="M153.527 152.298H83.8675C83.3942 152.293 82.9351 152.136 82.5583 151.849C82.1814 151.563 81.9068 151.163 81.775 150.708L70.05 110.42C70.0058 110.266 69.998 110.103 70.0273 109.945C70.0566 109.787 70.1221 109.638 70.2188 109.51C70.3155 109.381 70.4406 109.277 70.5844 109.205C70.7282 109.133 70.8867 109.095 71.0474 109.095H142.569L154.685 150.757C154.738 150.937 154.749 151.126 154.715 151.311C154.682 151.495 154.606 151.669 154.494 151.819C154.381 151.969 154.235 152.09 154.067 152.174C153.899 152.257 153.714 152.3 153.527 152.298V152.298Z" fill="#231F20"/>
<path d="M153.527 152.647H83.8674C83.3147 152.644 82.7775 152.464 82.3353 152.132C81.8931 151.801 81.5695 151.336 81.4122 150.806L69.6872 110.518C69.6306 110.312 69.622 110.096 69.6622 109.886C69.7024 109.676 69.7902 109.478 69.919 109.308C70.0477 109.137 70.2139 108.999 70.4047 108.903C70.5955 108.806 70.8058 108.755 71.0194 108.753H142.569C142.643 108.752 142.715 108.775 142.774 108.82C142.834 108.864 142.877 108.926 142.897 108.998L155.019 150.659C155.086 150.891 155.099 151.135 155.055 151.372C155.012 151.609 154.914 151.833 154.769 152.026C154.624 152.218 154.437 152.375 154.221 152.483C154.006 152.591 153.768 152.647 153.527 152.647V152.647ZM71.0194 109.444C70.9133 109.446 70.8089 109.471 70.7143 109.52C70.6197 109.568 70.5373 109.637 70.4734 109.721C70.4095 109.806 70.3657 109.904 70.3455 110.009C70.3253 110.113 70.3292 110.22 70.3568 110.323L82.0748 150.61C82.1902 150.997 82.4268 151.335 82.7496 151.576C83.0725 151.818 83.4644 151.948 83.8674 151.95H153.527C153.661 151.95 153.795 151.92 153.916 151.861C154.037 151.801 154.142 151.715 154.224 151.608C154.303 151.501 154.356 151.377 154.379 151.247C154.402 151.116 154.394 150.982 154.357 150.855L142.29 109.444H71.0194Z" fill="#231F20"/>
<path d="M141.844 135.133L137.61 153.135C137.386 154.099 136.842 154.958 136.066 155.572C135.291 156.187 134.33 156.52 133.341 156.518H89.28C88.6187 156.518 87.9659 156.368 87.3706 156.08C86.7753 155.792 86.2529 155.373 85.8424 154.854C85.4318 154.336 85.1439 153.731 84.9999 153.086C84.856 152.44 84.8599 151.77 85.0113 151.127L88.743 135.133H85.095L81.5238 150.304C81.2543 151.472 81.2516 152.686 81.5161 153.855C81.7806 155.024 82.3055 156.119 83.0515 157.057C83.7976 157.996 84.7457 158.754 85.8253 159.275C86.9049 159.797 88.0881 160.068 89.287 160.069H133.376C135.163 160.067 136.897 159.465 138.299 158.357C139.701 157.25 140.689 155.703 141.104 153.965L145.526 135.133H141.844Z" fill="white"/>
<path d="M133.341 160.466H89.28C88.0255 160.466 86.7874 160.182 85.6582 159.635C84.529 159.089 83.5379 158.294 82.7591 157.311C81.9803 156.328 81.4339 155.181 81.1608 153.956C80.8877 152.732 80.8949 151.462 81.182 150.241L84.7462 135.063C84.765 134.987 84.809 134.919 84.871 134.871C84.9331 134.823 85.0095 134.797 85.088 134.798H88.7708C88.8231 134.799 88.8746 134.811 88.9216 134.834C88.9686 134.857 89.01 134.89 89.0428 134.931C89.0748 134.971 89.0971 135.019 89.108 135.07C89.1189 135.121 89.1181 135.173 89.1056 135.224L85.3461 151.217C85.2074 151.81 85.2045 152.427 85.3375 153.021C85.4706 153.616 85.7361 154.172 86.1143 154.65C86.4925 155.127 86.9736 155.513 87.5217 155.779C88.0699 156.044 88.6709 156.183 89.28 156.183H133.369C134.281 156.185 135.166 155.878 135.88 155.311C136.595 154.745 137.096 153.954 137.303 153.066L141.537 135.063C141.554 134.987 141.597 134.92 141.658 134.872C141.718 134.824 141.794 134.798 141.871 134.798H145.554C145.606 134.799 145.657 134.812 145.704 134.834C145.751 134.857 145.792 134.89 145.825 134.931C145.857 134.972 145.88 135.019 145.893 135.069C145.905 135.12 145.906 135.172 145.896 135.224L141.467 154.056C141.041 155.888 140.005 157.521 138.528 158.686C137.051 159.851 135.222 160.478 133.341 160.466V160.466ZM85.3321 135.496L81.8446 150.401C81.58 151.521 81.5728 152.687 81.8234 153.81C82.074 154.934 82.576 155.986 83.2916 156.887C84.0072 157.789 84.9178 158.516 85.9549 159.015C86.9921 159.514 88.129 159.772 89.28 159.769H133.369C135.089 159.774 136.76 159.195 138.108 158.126C139.456 157.058 140.402 155.564 140.79 153.889L145.115 135.496H142.15L137.965 153.226C137.726 154.268 137.139 155.198 136.301 155.862C135.463 156.527 134.424 156.886 133.355 156.881H89.28C88.5654 156.881 87.8601 156.72 87.2168 156.408C86.5735 156.097 86.009 155.645 85.5655 155.084C85.122 154.524 84.811 153.871 84.6558 153.173C84.5006 152.476 84.5053 151.752 84.6695 151.057L88.3244 135.496H85.3321Z" fill="#231F20"/>
<path d="M198.662 98.4234C198.662 98.4234 204.898 126.114 199.792 133.187C194.686 140.259 159.03 139.143 159.03 139.143C159.03 139.143 153.248 146.084 148.226 145.623C143.204 145.163 146.133 135.663 152.041 131.708L151.225 128.409L182.661 123.366L178.476 103.466" fill="white"/>
<path d="M148.686 145.993C148.514 145.993 148.34 145.993 148.163 145.993C147.513 145.96 146.892 145.714 146.397 145.291C145.903 144.868 145.562 144.293 145.429 143.656C144.641 140.566 147.165 134.672 151.609 131.576L150.855 128.514C150.843 128.468 150.84 128.42 150.848 128.373C150.855 128.326 150.872 128.282 150.897 128.242C150.923 128.201 150.958 128.166 150.999 128.139C151.04 128.113 151.086 128.095 151.134 128.088L182.208 123.101L178.093 103.571C178.083 103.526 178.083 103.48 178.092 103.435C178.101 103.39 178.118 103.347 178.143 103.309C178.169 103.271 178.201 103.238 178.239 103.212C178.277 103.187 178.32 103.169 178.365 103.159C178.409 103.149 178.455 103.148 178.5 103.156C178.545 103.164 178.588 103.18 178.626 103.205C178.665 103.23 178.698 103.262 178.723 103.3C178.749 103.337 178.767 103.38 178.776 103.424L182.961 123.324C182.971 123.371 182.972 123.419 182.962 123.466C182.953 123.513 182.933 123.557 182.905 123.596C182.879 123.635 182.845 123.668 182.806 123.693C182.766 123.719 182.722 123.735 182.675 123.743L151.616 128.73L152.313 131.659C152.331 131.728 152.327 131.8 152.302 131.866C152.277 131.933 152.232 131.989 152.174 132.029C147.905 134.889 145.345 140.643 146.077 143.503C146.171 143.996 146.429 144.443 146.809 144.771C147.189 145.098 147.668 145.288 148.17 145.309C152.948 145.756 158.632 139.032 158.674 138.955C158.708 138.914 158.751 138.882 158.799 138.86C158.848 138.838 158.9 138.828 158.953 138.83C159.309 138.83 194.526 139.855 199.45 133.012C204.374 126.17 198.334 98.8349 198.271 98.535C198.261 98.4892 198.26 98.4419 198.268 98.3957C198.277 98.3496 198.294 98.3055 198.319 98.2659C198.344 98.2264 198.377 98.1923 198.416 98.1655C198.454 98.1386 198.498 98.1196 198.543 98.1095C198.589 98.0995 198.636 98.0985 198.683 98.1067C198.729 98.115 198.773 98.1322 198.812 98.1574C198.852 98.1827 198.886 98.2155 198.913 98.254C198.94 98.2924 198.959 98.3358 198.969 98.3816C199.227 99.5185 205.177 126.282 200.036 133.424C195.014 140.399 162.099 139.618 159.121 139.527C158.332 140.448 153.359 145.993 148.686 145.993Z" fill="#231F20"/>
<path d="M161.255 84.7106C161.201 84.7098 161.148 84.6954 161.102 84.6688C161.059 84.6493 161.02 84.6215 160.989 84.5869C160.957 84.5522 160.932 84.5115 160.917 84.4673C160.901 84.423 160.895 84.376 160.898 84.3291C160.901 84.2822 160.913 84.2364 160.934 84.1945C165.998 73.732 178.999 66.6942 179.132 66.6244C179.173 66.6015 179.218 66.5871 179.265 66.582C179.312 66.577 179.359 66.5815 179.404 66.5951C179.449 66.6088 179.49 66.6314 179.526 66.6616C179.562 66.6918 179.592 66.729 179.613 66.7709C179.636 66.8124 179.651 66.8582 179.656 66.9054C179.661 66.9526 179.657 67.0004 179.643 67.0459C179.629 67.0914 179.607 67.1338 179.576 67.1704C179.546 67.207 179.509 67.2372 179.467 67.2592C179.341 67.3289 166.542 74.2342 161.583 84.5083C161.552 84.5689 161.505 84.6199 161.447 84.6555C161.39 84.6912 161.323 84.7103 161.255 84.7106V84.7106Z" fill="#231F20"/>
<path d="M139.758 84.2154C139.707 84.2259 139.655 84.2259 139.605 84.2154C127.454 78.6354 125.982 66.3733 125.968 66.2547C125.959 66.1595 125.987 66.0643 126.047 65.9899C126.107 65.9154 126.194 65.8677 126.289 65.8572C126.336 65.8513 126.384 65.8549 126.429 65.8675C126.474 65.8802 126.517 65.9017 126.554 65.931C126.591 65.9602 126.622 65.9964 126.644 66.0376C126.667 66.0788 126.682 66.1242 126.687 66.171C126.687 66.2896 128.138 78.1541 139.939 83.4969C140.026 83.5365 140.093 83.6084 140.127 83.6971C140.161 83.7857 140.159 83.8842 140.121 83.9712C140.094 84.0452 140.045 84.1088 139.979 84.1527C139.914 84.1966 139.837 84.2185 139.758 84.2154V84.2154Z" fill="#231F20"/>
<path d="M84.3975 100.028C84.3217 100.006 84.255 99.9603 84.2075 99.8974C84.1601 99.8344 84.1344 99.7578 84.1344 99.6789C84.1344 99.6001 84.1601 99.5234 84.2075 99.4605C84.255 99.3976 84.3217 99.3518 84.3975 99.3302C89.6566 99.1698 92.2095 96.1984 92.2374 96.1705C92.2671 96.1342 92.3036 96.1041 92.345 96.082C92.3863 96.0599 92.4316 96.0462 92.4783 96.0417C92.525 96.0371 92.5721 96.0419 92.6169 96.0556C92.6618 96.0693 92.7035 96.0918 92.7396 96.1217C92.8133 96.1829 92.8599 96.2708 92.869 96.3662C92.8782 96.4616 92.8492 96.5568 92.7884 96.6309C92.6768 96.7634 89.9984 99.8812 84.4184 100.049L84.3975 100.028Z" fill="#231F20"/>
<path d="M178.434 103.822C178.354 103.823 178.276 103.796 178.213 103.747C178.149 103.697 178.105 103.628 178.086 103.55C178.086 103.425 174.8 90.5696 174.347 82.8622C174.344 82.8155 174.351 82.7686 174.366 82.7244C174.381 82.6801 174.405 82.6394 174.436 82.6044C174.467 82.5694 174.505 82.5409 174.547 82.5205C174.589 82.5001 174.635 82.4882 174.682 82.4855C174.777 82.4798 174.871 82.5117 174.942 82.5743C175.014 82.637 175.058 82.7253 175.066 82.8203C175.519 90.458 178.755 103.243 178.783 103.376C178.807 103.468 178.793 103.566 178.744 103.648C178.696 103.731 178.617 103.791 178.525 103.815L178.434 103.822Z" fill="#231F20"/>
<path d="M122.216 106.117C122.169 106.114 122.122 106.102 122.08 106.081C122.037 106.06 121.999 106.031 121.968 105.996C121.937 105.96 121.913 105.918 121.898 105.873C121.883 105.828 121.877 105.781 121.881 105.733L123.611 78.6354C123.614 78.588 123.626 78.5416 123.647 78.499C123.667 78.4564 123.696 78.4183 123.732 78.3871C123.768 78.3559 123.81 78.3322 123.855 78.3173C123.9 78.3025 123.947 78.2968 123.995 78.3006C124.042 78.3023 124.088 78.3135 124.13 78.3336C124.173 78.3537 124.211 78.3822 124.242 78.4174C124.274 78.4526 124.298 78.4937 124.312 78.5384C124.327 78.5831 124.333 78.6303 124.329 78.6772L122.572 105.775C122.568 105.867 122.529 105.954 122.463 106.018C122.396 106.081 122.308 106.117 122.216 106.117Z" fill="#231F20"/>
<path d="M183.973 90.9602C183.908 90.961 183.844 90.9438 183.789 90.9105C183.734 90.8773 183.688 90.8292 183.659 90.7719L180.283 84.4944C180.245 84.4027 180.245 84.3 180.283 84.2084C180.315 84.1147 180.383 84.0372 180.471 83.9922L190.934 79.0469C190.976 79.0257 191.022 79.0131 191.07 79.0101C191.117 79.007 191.165 79.0135 191.21 79.0291C191.254 79.0447 191.296 79.0691 191.331 79.1009C191.366 79.1327 191.395 79.1713 191.415 79.2143C191.456 79.3004 191.461 79.3992 191.43 79.4893C191.399 79.5794 191.333 79.6535 191.248 79.6956L181.106 84.4804L184.161 90.1441L194.435 87.0054C194.481 86.9916 194.529 86.987 194.577 86.9919C194.624 86.9967 194.67 87.0109 194.712 87.0335C194.754 87.0562 194.792 87.0869 194.822 87.124C194.852 87.161 194.875 87.2037 194.889 87.2495C194.902 87.2953 194.907 87.3433 194.902 87.3909C194.897 87.4385 194.883 87.4846 194.86 87.5267C194.838 87.5688 194.807 87.6061 194.77 87.6363C194.733 87.6665 194.69 87.6891 194.644 87.7029L184.077 90.9672L183.973 90.9602Z" fill="#231F20"/>
<path d="M193.033 170.552C202.544 170.552 210.254 168.232 210.254 165.369C210.254 162.507 202.544 160.187 193.033 160.187C183.522 160.187 175.812 162.507 175.812 165.369C175.812 168.232 183.522 170.552 193.033 170.552Z" fill="white"/>
<path d="M193.033 170.901C183.184 170.901 175.463 168.473 175.463 165.37C175.463 162.266 183.184 159.838 193.033 159.838C202.882 159.838 210.603 162.266 210.603 165.37C210.603 168.473 202.882 170.901 193.033 170.901ZM193.033 160.536C182.94 160.536 176.161 163.033 176.161 165.37C176.161 167.706 182.94 170.203 193.033 170.203C203.126 170.203 209.906 167.706 209.906 165.37C209.906 163.033 203.126 160.536 193.033 160.536V160.536Z" fill="#D1D3D4"/>
<path d="M180.053 150.569L179.641 150.645C178.396 150.831 177.264 151.469 176.461 152.438C176.01 153.126 175.762 153.927 175.743 154.749C175.725 155.571 175.937 156.382 176.356 157.09C178.183 160.382 182.633 161.275 186.065 161.617C186.551 161.696 187.048 161.658 187.516 161.505C187.747 161.426 187.948 161.278 188.091 161.081C188.235 160.884 188.314 160.647 188.318 160.403C188.288 160.203 188.209 160.013 188.087 159.851C187.966 159.689 187.805 159.56 187.621 159.476C187.261 159.309 186.877 159.201 186.484 159.155C184.349 158.806 182.103 158.548 180.15 157.564C179.013 156.986 177.423 155.667 178.253 154.244C178.544 153.794 178.961 153.44 179.453 153.226C181.413 152.291 183.275 153.003 185.207 153.575C185.348 153.626 185.497 153.648 185.647 153.638C185.831 153.587 185.991 153.47 186.095 153.309C186.199 153.148 186.241 152.955 186.212 152.766C186.149 151.922 185.305 151.371 184.51 151.057C183.09 150.518 181.556 150.35 180.053 150.569V150.569Z" fill="white"/>
<path d="M186.644 162.001C186.441 162 186.239 161.988 186.037 161.966C180.799 161.47 177.535 159.936 176.049 157.258C175.597 156.492 175.369 155.613 175.392 154.724C175.416 153.835 175.689 152.97 176.182 152.229C177.037 151.193 178.244 150.508 179.571 150.303L180.004 150.227C181.575 149.992 183.18 150.168 184.663 150.736C185.361 150.994 186.498 151.601 186.588 152.738C186.623 153.016 186.555 153.297 186.395 153.528C186.235 153.758 185.996 153.921 185.723 153.986C185.525 153.999 185.326 153.973 185.137 153.91L184.635 153.756C182.919 153.233 181.301 152.745 179.634 153.54C179.202 153.723 178.835 154.031 178.581 154.426C178.49 154.569 178.431 154.731 178.408 154.9C178.386 155.068 178.399 155.239 178.448 155.402C178.831 156.226 179.501 156.883 180.332 157.251C182.064 158.004 183.901 158.489 185.779 158.687L186.567 158.813C187.001 158.861 187.423 158.981 187.816 159.169C188.096 159.274 188.335 159.467 188.497 159.718C188.66 159.97 188.737 160.267 188.717 160.566C188.698 160.864 188.582 161.149 188.389 161.377C188.195 161.605 187.933 161.765 187.641 161.833C187.322 161.949 186.984 162.006 186.644 162.001V162.001ZM180.109 150.917L179.711 150.987C178.553 151.159 177.497 151.747 176.74 152.64C176.328 153.276 176.103 154.014 176.089 154.77C176.076 155.527 176.274 156.273 176.663 156.923C178.023 159.378 181.113 160.801 186.1 161.268C186.529 161.339 186.968 161.31 187.383 161.185C187.545 161.13 187.687 161.028 187.792 160.893C187.896 160.758 187.958 160.595 187.969 160.424C187.947 160.285 187.89 160.154 187.805 160.042C187.72 159.931 187.609 159.841 187.481 159.783C187.157 159.634 186.81 159.54 186.456 159.504L185.668 159.378C183.718 159.171 181.812 158.662 180.018 157.871C179.013 157.424 178.214 156.614 177.779 155.605C177.702 155.349 177.681 155.08 177.716 154.816C177.751 154.551 177.841 154.297 177.981 154.07C178.304 153.556 178.776 153.152 179.334 152.912C181.245 151.998 183.073 152.549 184.838 153.087L185.34 153.24C185.434 153.274 185.533 153.291 185.633 153.289C185.8 153.289 185.905 153.003 185.891 152.794C185.835 152.012 184.838 151.552 184.412 151.399C183.042 150.875 181.559 150.714 180.109 150.931V150.917Z" fill="#231F20"/>
<path d="M181.664 147.039C181.664 147.039 184.886 163.124 185.151 164.093C185.416 165.063 193.033 169.045 199.101 165.132L204.409 148.692L181.664 147.039Z" fill="white"/>
<path d="M193.166 167.176C191.342 167.161 189.537 166.816 187.837 166.158C186.498 165.642 184.977 164.805 184.81 164.184C184.552 163.214 181.455 147.772 181.322 147.109C181.309 147.057 181.31 147.002 181.323 146.95C181.335 146.898 181.361 146.849 181.396 146.809C181.432 146.768 181.477 146.737 181.527 146.718C181.577 146.698 181.631 146.691 181.685 146.697L204.43 148.385C204.483 148.388 204.535 148.403 204.582 148.429C204.628 148.455 204.668 148.491 204.697 148.535C204.727 148.579 204.746 148.63 204.753 148.682C204.76 148.735 204.755 148.789 204.737 148.839L199.429 165.279C199.403 165.355 199.351 165.419 199.283 165.46C197.455 166.617 195.328 167.213 193.166 167.176V167.176ZM182.096 147.423C182.62 150.038 185.256 163.144 185.486 164.002C185.584 164.233 186.839 165.167 189.064 165.844C191.157 166.479 195.161 167.197 198.829 164.909L203.963 149.013L182.096 147.423Z" fill="#231F20"/>
<path d="M204.464 147.977C204.576 145.252 199.565 142.834 193.272 142.575C186.979 142.317 181.787 144.317 181.675 147.042C181.563 149.767 186.574 152.185 192.867 152.444C199.16 152.702 204.352 150.702 204.464 147.977Z" fill="#231F20"/>
<path d="M193.954 152.815C193.584 152.815 193.215 152.815 192.845 152.815C186.253 152.549 181.19 150.025 181.315 147.053C181.441 144.082 186.693 141.989 193.277 142.261C199.862 142.533 204.926 145.051 204.8 148.023C204.744 149.487 203.405 150.813 201.096 151.678C198.803 152.483 196.384 152.868 193.954 152.815V152.815ZM192.203 142.903C186.672 142.903 182.103 144.717 182.006 147.088C181.908 149.571 186.888 151.88 192.873 152.124C195.59 152.282 198.311 151.901 200.88 151.001C202.903 150.227 204.089 149.118 204.137 147.967C204.242 145.477 199.255 143.168 193.277 142.924L192.203 142.903Z" fill="#231F20"/>
<path d="M165.775 102.35H128.87C128.778 102.35 128.689 102.314 128.624 102.248C128.558 102.183 128.521 102.094 128.521 102.002V91.1067C128.523 91.0147 128.56 90.9271 128.625 90.8621C128.691 90.797 128.778 90.7597 128.87 90.7579H165.775C165.867 90.7579 165.956 90.7947 166.021 90.8601C166.087 90.9255 166.124 91.0142 166.124 91.1067V102.023C166.118 102.111 166.079 102.195 166.014 102.256C165.949 102.317 165.864 102.351 165.775 102.35V102.35ZM129.219 101.653H165.426V91.4554H129.219V101.653Z" fill="white"/>
<path d="M234.207 179.557H44.7865V186.859H234.207V179.557Z" fill="white"/>
<path d="M234.214 187.208H44.7865C44.694 187.208 44.6053 187.171 44.5399 187.106C44.4745 187.041 44.4377 186.952 44.4377 186.859V179.557C44.4395 179.465 44.4768 179.377 44.5419 179.312C44.6069 179.247 44.6946 179.21 44.7865 179.208H234.214C234.305 179.21 234.393 179.247 234.458 179.312C234.523 179.377 234.561 179.465 234.562 179.557V186.859C234.562 186.952 234.526 187.041 234.46 187.106C234.395 187.171 234.306 187.208 234.214 187.208ZM45.1352 186.511H233.865V179.905H45.1352V186.511Z" fill="#D1D3D4"/>
<path d="M204.402 111.355C204.311 111.351 204.224 111.312 204.16 111.246C204.096 111.18 204.061 111.091 204.061 110.999C204.061 110.197 204.57 91.288 206.655 84.7385C208.741 78.1889 212.654 75.4617 212.814 75.3571C212.891 75.3053 212.985 75.2861 213.076 75.3038C213.167 75.3214 213.247 75.3745 213.299 75.4512C213.351 75.528 213.37 75.6222 213.352 75.7131C213.335 75.804 213.282 75.8842 213.205 75.936C213.163 75.936 209.348 78.5795 207.318 84.9477C205.288 91.3159 204.765 110.818 204.758 111.013C204.757 111.059 204.747 111.104 204.729 111.146C204.711 111.188 204.684 111.226 204.651 111.258C204.618 111.29 204.579 111.315 204.536 111.331C204.494 111.348 204.448 111.356 204.402 111.355Z" fill="white"/>
</svg>
