<svg width="100" height="102" viewBox="0 0 100 102" fill="none" xmlns="http://www.w3.org/2000/svg">
<rect width="100" height="102" fill="#FA86BE"/>
<rect x="20" y="20" width="60" height="63" fill="white"/>
<path d="M20 37H80V79C80 88.9411 71.9411 97 62 97H38C28.0589 97 20 88.9411 20 79V37Z" fill="white"/>
<path d="M88.4525 82.8922C93.5852 76.7218 97.155 69.407 98.8599 61.5666C100.565 53.7261 100.355 45.5907 98.2476 37.8485C96.1403 30.1063 92.1978 22.9851 86.7536 17.0873C81.3093 11.1896 74.5235 6.68872 66.9702 3.96555C59.4169 1.24237 51.3183 0.376981 43.3594 1.44258C35.4006 2.50818 27.8157 5.47343 21.2463 10.0875C14.677 14.7015 9.31647 20.8286 5.61827 27.9505C1.92008 35.0723 -0.00701427 42.9794 1.91839e-05 51.0027C0.00271816 62.6665 4.11633 73.9567 11.619 82.8922L11.5476 82.9529C11.7977 83.2529 12.0837 83.51 12.341 83.8064C12.6626 84.1742 13.0093 84.5206 13.3417 84.8777C14.3424 85.9633 15.3717 87.0061 16.4511 87.9845C16.7799 88.2845 17.1194 88.563 17.4518 88.8487C18.5954 89.8343 19.7713 90.7699 20.99 91.6413C21.1473 91.7484 21.2902 91.8877 21.4475 91.9984V91.9555C29.8181 97.8412 39.8038 101 50.0393 101C60.2748 101 70.2605 97.8412 78.6312 91.9555V91.9984C78.7884 91.8877 78.9278 91.7484 79.0887 91.6413C80.3038 90.7664 81.4832 89.8343 82.6269 88.8487C82.9593 88.563 83.2988 88.2809 83.6276 87.9845C84.707 87.0025 85.7363 85.9633 86.737 84.8777C87.0693 84.5206 87.4125 84.1742 87.7377 83.8064C87.9914 83.51 88.2809 83.2529 88.5311 82.9493L88.4525 82.8922ZM50.0358 22.4344C53.2167 22.4344 56.3261 23.3768 58.971 25.1426C61.6158 26.9084 63.6772 29.4181 64.8944 32.3545C66.1117 35.2908 66.4302 38.5219 65.8096 41.6391C65.1891 44.7563 63.6573 47.6197 61.4081 49.8671C59.1589 52.1145 56.2932 53.645 53.1734 54.265C50.0536 54.8851 46.8199 54.5668 43.8811 53.3506C40.9423 52.1343 38.4305 50.0746 36.6633 47.4319C34.8961 44.7893 33.9528 41.6824 33.9528 38.5041C33.9528 34.2421 35.6473 30.1547 38.6634 27.1411C41.6796 24.1274 45.7703 22.4344 50.0358 22.4344V22.4344ZM21.4689 82.8922C21.5309 78.2033 23.438 73.7273 26.7776 70.4326C30.1171 67.1379 34.6207 65.2893 39.3138 65.2869H60.7577C65.4509 65.2893 69.9544 67.1379 73.294 70.4326C76.6335 73.7273 78.5406 78.2033 78.6026 82.8922C70.7643 89.9498 60.5871 93.8556 50.0358 93.8556C39.4844 93.8556 29.3072 89.9498 21.4689 82.8922V82.8922Z" fill="#FA86BE"/>
</svg>
