<svg width="375" height="812" viewBox="0 0 375 812" fill="none" xmlns="http://www.w3.org/2000/svg">
<g clip-path="url(#clip0_34_2567)">
<rect width="375" height="812" fill="#FA86BE"/>
<g filter="url(#filter0_d_34_2567)">
<circle cx="-76.5" cy="149.5" r="523.5" fill="#F5E7EE"/>
</g>
<path d="M420.582 777.808C420.586 777.752 420.586 777.696 420.582 777.641C420.621 776.85 420.47 776.061 420.142 775.34C419.138 773.306 416.719 772.972 414.667 772.618C411.287 772.038 408.048 770.82 405.124 769.028C403.183 767.844 401.193 766.101 400.951 763.652C400.951 763.15 400.988 762.647 400.951 762.189C400.951 761.854 400.951 761.525 400.951 761.209C400.951 759.901 400.877 758.698 399.903 758.462C394.087 757.023 389.058 752.069 387.055 745.788C386.627 744.448 386.33 743.053 385.778 741.77C384.023 737.702 380.117 735.495 377.165 732.419C373.284 728.37 371.033 722.74 369.402 717.091C367.771 711.442 366.643 705.595 364.503 700.157C360.938 691.085 357.72 681.425 351.674 674.176C350.763 673.079 349.758 671.956 348.698 670.822C343.322 662.971 339.67 653.689 335.013 645.219C334.124 643.483 333.04 641.854 331.782 640.364C330.17 638.578 328.174 637.301 326.313 635.843C317.353 628.849 311.624 617.861 303.904 609.224C302.559 607.717 300.463 605.596 299.471 603.78C299.465 602.719 299.556 601.661 299.743 600.617C300.239 598.044 301.573 595.601 301.343 592.978C301.263 592.467 301.219 591.951 301.213 591.434C301.276 590.838 301.436 590.256 301.684 589.71C302.084 588.528 302.612 587.392 303.259 586.325C304.383 584.598 305.123 582.651 305.429 580.614C306.973 579.151 307.643 576.472 309.572 575.796C310.644 575.424 312.052 575.678 312.672 574.618C312.851 574.254 312.95 573.857 312.963 573.452C313.158 571.358 312.98 569.246 312.436 567.214C312.592 566.141 312.634 565.054 312.56 563.971C312.349 561.273 311.578 558.648 310.297 556.264C309.51 554.763 308.437 553.263 306.905 552.915C306.57 552.841 306.229 552.822 305.907 552.723C303.935 552.147 303.253 549.102 301.473 548.159C303.761 549.4 306.099 550.801 308.251 549.759C310.954 548.439 311.177 544.321 310.973 541.035L310.254 528.863C309.869 522.662 309.386 516.083 306.192 510.974C303.315 506.361 298.603 503.589 293.791 501.859C290.542 500.687 286.97 499.937 283.752 501.133C283.944 500.997 284.13 500.861 284.316 500.737C283.92 500.855 283.533 501 283.157 501.171C281.469 502.028 279.901 503.104 278.494 504.37C279.274 502.396 279.674 500.292 279.672 498.17C279.69 494.994 278.79 491.88 277.08 489.203L280.714 486.146L279.864 484.764L281.464 483.238C281.363 483.075 281.223 482.941 281.056 482.847C280.889 482.754 280.7 482.705 280.509 482.705C280.435 482.699 280.36 482.699 280.286 482.705C280.343 482.25 280.305 481.787 280.174 481.347L280.062 481.453C279.966 481.073 279.816 480.71 279.616 480.374H279.746C279.67 480.234 279.585 480.1 279.492 479.971C279.492 480.033 279.492 480.101 279.492 480.163C278.969 479.392 278.329 478.708 277.595 478.135C274.817 475.853 271.636 473.962 268.194 473.708C266.52 473.584 264.84 473.85 263.166 473.708C260.909 473.553 258.72 472.697 256.456 472.604C254.193 472.511 251.645 473.435 250.708 475.704C250.305 476.697 250.25 477.813 249.946 478.836C249.27 481.118 247.465 482.699 245.934 484.385C244.402 486.072 242.982 488.335 243.404 490.692C243.572 491.441 243.834 492.166 244.185 492.849L252.042 509.814C252.074 511.056 252.037 512.298 251.93 513.535C251.88 514.068 251.812 514.608 251.725 515.153C251.688 515.383 251.645 515.618 251.589 515.854C250.661 516.01 249.821 516.494 249.22 517.218C248.996 517.5 248.854 517.84 248.811 518.198C248.856 518.766 248.956 519.329 249.109 519.878C249.121 520.61 248.948 521.333 248.606 521.98C247.819 523.809 246.982 525.67 245.642 527.04C245.097 527.604 244.477 528.075 243.925 528.634C243.295 529.303 242.721 530.023 242.207 530.785C241.06 532.397 239.876 534.084 239.454 536.093C238.76 539.379 237.358 542.504 236.354 545.71C236.211 545.968 236.033 546.206 235.827 546.417C235.207 547 234.413 547.248 233.805 547.818C232.441 549.108 232.565 551.464 232.9 553.43C234.103 560.734 236.211 567.847 237.048 575.213C237.383 578.103 237.52 581.042 238.164 583.863C238.402 585.082 238.854 586.249 239.498 587.311C239.405 590.082 239.69 592.891 238.704 595.446C238.245 596.599 237.606 597.653 237.048 598.757C236.276 600.347 235.591 601.978 234.996 603.643L231.629 612.51C231.009 614.191 230.352 615.883 229.868 617.632C228.473 622.723 228.467 628.173 228.665 633.475C228.69 633.639 228.655 633.806 228.566 633.946C228.467 634.07 228.231 634.033 228.225 633.865C228.181 634.175 228.008 634.703 227.97 635.006C229.471 635.738 231.158 635.502 232.832 635.323C232.832 635.484 232.832 635.651 232.832 635.812C232.829 635.852 232.829 635.891 232.832 635.93C232.847 636.436 232.899 636.939 232.987 637.437C232.987 637.437 232.987 637.437 232.987 637.474C233.03 637.728 233.086 637.976 233.142 638.224C233.142 638.293 233.142 638.355 233.191 638.423C233.247 638.646 233.309 638.876 233.377 639.093C233.415 639.21 233.446 639.316 233.483 639.427C233.52 639.539 233.576 639.7 233.626 639.83C233.675 639.961 233.681 639.998 233.712 640.078C234.122 641.145 234.611 642.174 235.076 643.216C235.875 644.827 236.409 646.557 236.658 648.338C236.695 648.747 236.707 649.156 236.726 649.578V650.006C236.738 650.448 236.775 650.889 236.837 651.327C236.949 652.033 237.16 652.709 237.327 653.404C237.427 653.813 237.501 654.235 237.575 654.644C237.65 655.053 237.718 655.593 237.78 656.064C238.247 659.569 238.592 663.083 238.815 666.605C238.871 667.455 238.921 668.31 238.964 669.16C239.256 675.36 239.181 681.561 239.107 687.799C239.066 689.834 238.858 691.862 238.487 693.863C237.451 699.735 235.312 705.44 233.898 711.269C233.749 711.889 233.613 712.509 233.483 713.129C233.168 714.443 232.961 715.781 232.863 717.128C232.853 718.925 233.015 720.719 233.346 722.486C233.652 724.631 233.888 726.787 234.053 728.953C232.91 730.971 232.165 733.19 231.858 735.488C231.108 742.39 225.261 747.567 224.467 754.469C224.414 754.907 224.396 755.348 224.411 755.79C224.393 756.074 224.393 756.36 224.411 756.645C224.328 757.378 224.392 758.12 224.597 758.828C224.891 759.57 225.384 760.217 226.022 760.697C226.66 761.178 227.418 761.473 228.212 761.55C229.731 761.742 231.251 761.358 232.764 761.104C233.446 760.986 234.128 760.911 234.81 760.843C234.828 761.078 234.828 761.315 234.81 761.55C234.489 762.126 234.215 762.728 233.991 763.348C233.609 764.075 233.371 764.869 233.291 765.686C233.264 766.651 233.507 767.604 233.991 768.439C235.517 771.223 238.561 772.531 241.476 772.779C244.39 773.027 247.286 772.389 250.2 772.234H250.696C250.796 772.508 250.919 772.773 251.062 773.027C252.581 775.812 255.632 777.12 258.54 777.368C261.448 777.616 264.356 776.983 267.27 776.828C268.139 776.785 269.013 776.785 269.881 776.723C271.663 776.588 273.425 776.266 275.139 775.762C276.373 777.516 277.788 779.135 279.362 780.592C284.471 784.933 291.534 784.685 297.92 783.835C304.307 782.986 311.506 781.411 317.329 784.455C321.793 783.965 324.453 791.053 328.936 791.233C330.995 791.313 332.843 789.869 334.331 788.281C334.842 787.615 335.5 787.076 336.253 786.706C336.876 786.521 337.536 786.5 338.169 786.644C341.643 787.273 344.764 789.158 346.937 791.939C348.065 793.353 349.219 795.133 350.912 795.17C352.431 795.17 353.776 793.738 355.283 793.93C356.306 794.066 357.143 794.941 358.03 795.48C360.808 797.123 364.231 795.604 366.897 793.793C369.563 791.983 372.415 789.794 375.541 790.123C377.568 790.334 379.373 791.598 381.264 792.423C387.093 794.965 394.242 793.043 398.421 787.859C399.085 787.029 399.767 786.067 400.746 785.85C401.401 785.77 402.065 785.868 402.669 786.136C406.172 787.301 409.855 788.374 413.439 787.58C417.023 786.787 420.434 783.544 420.508 779.464C420.513 779.215 420.503 778.967 420.477 778.72C420.477 778.565 420.508 778.403 420.508 778.242C420.542 778.099 420.567 777.954 420.582 777.808ZM279.827 544.836C279.578 545.489 279.148 546.057 278.587 546.473C278.537 546.206 278.487 545.94 278.432 545.667C278.208 544.513 277.954 543.366 277.681 542.225C278.509 542.756 279.392 543.193 280.317 543.528C280.137 543.962 279.988 544.427 279.808 544.836H279.827ZM270.737 516.846C270.737 516.889 270.737 516.933 270.737 516.976C270.737 519.159 271.493 520.405 272.597 521.118C271.366 523.507 270.728 526.157 270.737 528.844C270.315 528.516 269.862 528.224 269.496 527.858C268.817 527.16 268.265 526.347 267.866 525.459C268.043 525.489 268.226 525.461 268.387 525.378C268.703 525.161 268.69 524.653 268.647 524.243C268.228 520.35 268.753 516.413 270.179 512.766C270.903 512.511 271.603 512.189 272.268 511.805C271.346 513.301 270.823 515.009 270.749 516.765C270.749 516.765 270.718 516.815 270.718 516.846H270.737ZM301.083 547.967C300.761 549.17 300.584 550.406 300.556 551.65C299.432 549.927 297.775 548.621 295.837 547.93C295.609 547.862 295.377 547.806 295.143 547.763C295.287 547.619 295.443 547.486 295.608 547.366C297.387 546.126 299.39 546.994 301.436 548.079C301.315 548.034 301.19 547.996 301.064 547.967H301.083Z" fill="url(#paint0_linear_34_2567)"/>
<path d="M227.412 772.978C227.387 773.972 227.666 774.95 228.212 775.781C229.942 778.614 233.414 779.941 236.719 780.189C240.024 780.437 243.336 779.792 246.641 779.637C247.633 779.594 248.625 779.588 249.611 779.532C254.745 779.222 259.65 777.405 264.492 775.607C265.286 775.316 266.21 774.844 266.253 774.007C266.233 773.718 266.149 773.437 266.008 773.184C265.866 772.931 265.671 772.712 265.435 772.544C264.802 771.99 264.089 771.534 263.32 771.192C260.629 770.008 257.405 770.318 254.85 768.861C254.286 768.538 253.771 768.141 253.182 767.875C252.493 767.598 251.765 767.43 251.024 767.379C247.827 767.015 244.593 767.122 241.426 767.695C239.014 768.135 236.639 768.848 234.19 769.022C233.262 769.102 232.327 769.041 231.418 768.842C230.798 768.699 230.01 768.141 229.421 768.513C228.832 768.885 228.504 770.07 228.224 770.597C227.79 771.325 227.513 772.136 227.412 772.978V772.978Z" fill="#3F3D56"/>
<path opacity="0.05" d="M227.412 772.978C227.387 773.972 227.666 774.95 228.212 775.781C229.942 778.614 233.414 779.941 236.719 780.189C240.024 780.437 243.336 779.792 246.641 779.637C247.633 779.594 248.625 779.588 249.611 779.532C254.745 779.222 259.65 777.405 264.492 775.607C265.286 775.316 266.21 774.844 266.253 774.007C266.233 773.718 266.149 773.437 266.008 773.184C265.866 772.931 265.671 772.712 265.435 772.544C264.802 771.99 264.089 771.534 263.32 771.192C260.629 770.008 257.405 770.318 254.85 768.861C254.286 768.538 253.771 768.141 253.182 767.875C252.493 767.598 251.765 767.43 251.024 767.379C247.827 767.015 244.593 767.122 241.426 767.695C239.014 768.135 236.639 768.848 234.19 769.022C233.262 769.102 232.327 769.041 231.418 768.842C230.798 768.699 230.01 768.141 229.421 768.513C228.832 768.885 228.504 770.07 228.224 770.597C227.79 771.325 227.513 772.136 227.412 772.978V772.978Z" fill="black"/>
<path d="M246.833 777.628C246.805 778.623 247.084 779.601 247.633 780.431C249.363 783.265 252.829 784.592 256.14 784.84C259.451 785.088 262.756 784.443 266.061 784.288C267.053 784.245 268.039 784.238 269.031 784.182C274.165 783.872 279.07 782.056 283.913 780.257C284.707 779.96 285.63 779.495 285.674 778.651C285.654 778.363 285.57 778.083 285.428 777.831C285.287 777.579 285.091 777.362 284.855 777.194C284.224 776.638 283.511 776.183 282.741 775.843C280.05 774.658 276.825 774.962 274.271 773.505C273.706 773.189 273.192 772.786 272.603 772.525C271.913 772.249 271.186 772.08 270.445 772.023C267.247 771.662 264.013 771.77 260.846 772.345C258.434 772.786 256.059 773.499 253.61 773.666C252.683 773.751 251.748 773.693 250.838 773.493C250.218 773.35 249.431 772.792 248.842 773.164C248.253 773.536 247.918 774.72 247.645 775.247C247.208 775.974 246.931 776.786 246.833 777.628V777.628Z" fill="#3F3D56"/>
<path d="M236.689 545.512C236.463 544.887 236.052 544.346 235.51 543.962C234.214 543.242 232.683 544.582 232.119 545.927C231.554 547.273 231.368 548.922 230.258 549.896C229.583 550.516 228.652 550.739 227.958 551.322C226.408 552.63 226.563 555.042 226.929 557.027C228.299 564.467 230.699 571.697 231.654 579.194C232.032 582.139 232.187 585.128 232.894 587.999C233.328 589.698 234.016 591.422 235.374 592.525C236.732 593.629 238.902 593.896 240.18 592.693C237.87 586.432 236.716 579.803 236.775 573.13C236.813 568.789 237.395 564.449 237.513 560.059C237.643 556.227 237.451 552.388 237.259 548.556C237.277 547.572 237.091 546.595 236.713 545.685C236.513 545.236 236.184 544.857 235.768 544.595C235.352 544.334 234.867 544.202 234.376 544.216" fill="#FBBEBE"/>
<path d="M264.53 516.325C273.149 516.325 280.137 509.338 280.137 500.718C280.137 492.099 273.149 485.111 264.53 485.111C255.91 485.111 248.923 492.099 248.923 500.718C248.923 509.338 255.91 516.325 264.53 516.325Z" fill="#CB8C8E"/>
<path d="M285.562 547.639C294.209 547.639 301.219 540.629 301.219 531.982C301.219 523.335 294.209 516.325 285.562 516.325C276.915 516.325 269.906 523.335 269.906 531.982C269.906 540.629 276.915 547.639 285.562 547.639Z" fill="#FBBEBE"/>
<path d="M292.005 547.143C292.141 548.383 292.625 549.828 293.809 550.144C294.359 550.209 294.912 550.24 295.465 550.237C295.906 550.318 296.32 550.504 296.675 550.778C297.03 551.052 297.314 551.406 297.505 551.812C297.879 552.632 298.027 553.538 297.933 554.435C297.831 555.798 297.392 557.115 296.655 558.267C295.26 560.265 293.24 561.744 290.914 562.471C288.604 563.183 286.219 563.622 283.808 563.779C282.738 563.952 281.646 563.918 280.589 563.68C279.925 563.463 279.297 563.145 278.729 562.737C276.964 561.554 275.418 560.072 274.159 558.36C273.234 557.168 272.565 555.798 272.194 554.335C271.837 552.867 272.043 551.319 272.77 549.995C272.994 549.556 273.362 549.208 273.812 549.009C275.139 548.532 276.342 550.175 277.749 550.212C278.866 550.212 279.746 549.257 280.23 548.253C280.713 547.248 280.968 546.113 281.687 545.264C282.524 544.266 283.839 543.825 285.097 543.49C287.168 542.945 289.884 542.12 292.042 542.35C293.226 542.467 292.451 543.174 292.178 544.03C291.904 545.044 291.845 546.104 292.005 547.143V547.143Z" fill="#FBBEBE"/>
<path d="M277.247 563.481C279.151 562.626 280.205 560.561 281.904 559.339C283.33 558.316 285.11 557.95 286.74 557.299C288.395 556.639 289.91 555.671 291.205 554.447C292.383 553.337 293.431 551.967 294.925 551.421C296.067 551.058 297.293 551.058 298.435 551.421C301.653 552.314 304.127 554.993 305.566 558C307.004 561.007 307.556 564.356 308.096 567.648L308.902 572.609C309.5 575.639 309.789 578.722 309.764 581.811C309.633 584.911 308.827 588.011 306.949 590.492C306.221 591.566 305.62 592.721 305.157 593.933C304.879 594.484 304.7 595.081 304.629 595.694C304.634 596.22 304.682 596.745 304.772 597.263C305.032 599.929 303.532 602.416 302.949 605.032C302.647 606.786 302.555 608.57 302.676 610.346C302.661 610.578 302.708 610.809 302.813 611.016C302.946 611.202 303.128 611.348 303.34 611.438C303.749 611.655 304.171 611.859 304.58 612.058C301.158 612.818 297.661 613.188 294.156 613.161C288.012 613.019 282.016 611.301 275.908 610.588C275.678 607.785 276.447 605.082 276.621 602.279C276.656 600.45 276.542 598.621 276.28 596.81C275.769 591.86 275.817 586.868 276.423 581.928C276.633 580.192 276.919 578.462 276.999 576.714C277.092 574.643 276.906 572.565 277.055 570.513C277.198 568.547 277.675 566.6 277.725 564.629C277.783 564.411 277.768 564.181 277.682 563.974C277.595 563.766 277.442 563.593 277.247 563.481V563.481Z" fill="#F4F6FB"/>
<path d="M284.167 607.543C290.591 607.581 296.252 607.767 302.658 608.207C303.786 610.067 301.083 615.084 302.614 616.621C311.394 625.42 313.348 637.245 323.542 644.369C325.656 645.845 331.602 647.042 333.463 648.865C334.92 650.31 332.694 649.28 333.773 651.035C339.973 661.155 353.956 671.144 362.06 679.844C368.931 687.216 372.601 697.05 376.657 706.283C379.087 711.808 380.377 717.767 382.237 723.515C384.097 729.263 386.658 734.986 391.073 739.103C394.434 742.241 398.88 744.486 400.87 748.622C401.431 749.958 401.917 751.324 402.327 752.714C403.5 755.909 405.451 758.762 408.004 761.012C410.558 763.263 413.632 764.842 416.949 765.605C418.753 766.002 417.928 769.009 418.114 770.851C418.369 773.368 420.644 775.154 422.864 776.363C426.241 778.198 429.91 779.434 433.709 780.016C436.041 780.369 438.794 780.716 439.91 782.781C440.28 783.505 440.453 784.313 440.412 785.125C440.331 789.279 436.444 792.566 432.351 793.384C428.259 794.203 424.08 793.099 420.099 791.915C419.403 791.642 418.652 791.542 417.91 791.623C416.794 791.84 416.05 792.82 415.262 793.67C412.832 796.284 409.681 798.12 406.209 798.947C402.736 799.773 399.096 799.553 395.749 798.314C393.591 797.471 391.544 796.187 389.238 795.97C385.679 795.635 382.46 797.867 379.397 799.69C376.334 801.513 372.465 803.076 369.309 801.402C368.267 800.856 367.349 799.969 366.208 799.827C364.491 799.628 362.959 801.117 361.248 801.067C359.326 801.03 358.005 799.207 356.721 797.781C354.111 794.903 350.582 793.02 346.738 792.454C346.018 792.304 345.272 792.325 344.562 792.516C343.722 792.879 342.974 793.426 342.373 794.116C340.68 795.734 338.578 797.216 336.241 797.117C331.137 796.937 328.105 789.726 323.027 790.222C316.405 787.122 308.207 788.721 300.946 789.602C293.685 790.482 285.643 790.737 279.827 786.303C276.764 783.959 274.686 780.555 271.828 777.957C267.314 773.852 261.225 772.06 255.353 770.386C246.052 767.732 236.391 765.053 226.829 766.498C225.106 766.759 223.376 767.118 221.646 766.951C219.916 766.783 218.142 765.81 217.535 764.185C217.269 763.352 217.21 762.467 217.361 761.606C218.26 754.587 224.913 749.316 225.763 742.291C226.191 738.806 228.063 735.755 230.06 732.872C231.759 730.294 233.31 727.621 234.704 724.867C238.009 718.666 241.327 712.465 243.819 705.917C246.442 699.028 248.123 691.823 249.797 684.643C251.409 677.717 252.178 670.623 253.337 663.604C254.181 658.501 255.501 653.491 256.822 648.487C260.729 633.704 264.66 618.835 271.084 604.97C275.263 606.148 279.87 607.519 284.167 607.543Z" fill="#E3E8F4"/>
<path d="M284.167 609.404C290.591 609.441 296.252 609.007 302.658 609.447C303.786 611.307 306.173 613.453 307.705 614.984C316.485 623.796 323.008 634.957 333.196 642.075C335.31 643.557 337.58 644.859 339.397 646.676C340.816 648.176 342.051 649.842 343.074 651.637C349.274 661.762 353.931 673.029 362.035 681.729C368.906 689.101 372.577 698.935 376.632 708.168C379.062 713.693 380.352 719.652 382.212 725.4C384.073 731.148 386.634 736.871 391.048 740.989C394.409 744.126 398.855 746.371 400.845 750.507C401.406 751.843 401.892 753.209 402.303 754.599C403.475 757.794 405.427 760.647 407.98 762.898C410.533 765.148 413.607 766.727 416.924 767.49C418.728 767.887 417.904 770.894 418.09 772.736C418.344 775.254 420.62 777.039 422.839 778.248C426.216 780.083 429.886 781.319 433.684 781.901C436.016 782.254 438.769 782.601 439.885 784.666C440.255 785.39 440.428 786.198 440.387 787.01C440.307 791.164 436.419 794.451 432.326 795.269C428.234 796.088 424.055 794.984 420.074 793.8C419.379 793.527 418.627 793.427 417.885 793.508C416.769 793.725 416.025 794.705 415.237 795.555C412.807 798.169 409.657 800.005 406.184 800.832C402.711 801.658 399.071 801.438 395.724 800.199C393.566 799.356 391.52 798.072 389.213 797.855C385.654 797.52 382.436 799.752 379.373 801.575C376.309 803.398 372.44 804.961 369.284 803.287C368.242 802.741 367.325 801.854 366.184 801.712C364.466 801.513 362.935 803.002 361.223 802.952C359.301 802.915 357.98 801.092 356.697 799.666C354.096 796.784 350.577 794.893 346.738 794.314C346.018 794.164 345.272 794.185 344.562 794.376C343.722 794.74 342.974 795.286 342.373 795.976C340.68 797.595 338.578 799.077 336.241 798.977C331.137 798.798 328.105 791.586 323.027 792.082C316.405 788.982 308.207 790.582 300.946 791.462C293.685 792.343 285.643 792.597 279.827 788.163C276.764 785.82 274.686 782.415 271.828 779.817C267.314 775.712 261.225 773.92 255.353 772.246C246.052 769.592 236.391 766.914 226.829 768.358C225.106 768.619 223.376 768.978 221.646 768.811C219.916 768.644 218.142 767.67 217.535 766.045C217.269 765.212 217.21 764.327 217.361 763.466C218.26 756.447 224.913 751.176 225.763 744.151C226.191 740.666 228.063 737.615 230.06 734.732C231.759 732.154 233.31 729.481 234.704 726.727C238.009 720.526 241.327 714.326 243.819 707.778C246.442 700.889 248.123 693.683 249.797 686.503C251.409 679.577 252.178 672.483 253.337 665.464C254.181 660.361 255.501 655.351 256.822 650.347C260.729 635.564 264.66 620.695 271.084 606.83C275.263 608.009 279.87 609.379 284.167 609.404Z" fill="#E3E8F4"/>
<path d="M284.167 608.164C290.591 608.201 296.252 607.767 302.658 608.207C303.786 610.067 306.173 612.213 307.705 613.744C316.485 622.555 323.008 633.717 333.196 640.835C335.31 642.317 337.58 643.619 339.397 645.436C340.816 646.936 342.051 648.602 343.074 650.397C349.274 660.522 353.931 671.789 362.035 680.488C368.906 687.861 372.577 697.695 376.632 706.928C379.062 712.453 380.352 718.412 382.212 724.16C384.073 729.908 386.634 735.631 391.048 739.748C394.409 742.886 398.855 745.131 400.845 749.266C401.406 750.603 401.892 751.969 402.303 753.359C403.475 756.554 405.427 759.406 407.98 761.657C410.533 763.908 413.607 765.487 416.924 766.25C418.728 766.647 417.904 769.654 418.09 771.496C418.344 774.013 420.62 775.799 422.839 777.008C426.216 778.843 429.886 780.078 433.684 780.661C436.016 781.014 438.769 781.361 439.885 783.426C440.255 784.15 440.428 784.958 440.387 785.77C440.307 789.924 436.419 793.211 432.326 794.029C428.234 794.848 424.055 793.744 420.074 792.56C419.379 792.287 418.627 792.187 417.885 792.268C416.769 792.485 416.025 793.465 415.237 794.314C412.807 796.929 409.657 798.765 406.184 799.592C402.711 800.418 399.071 800.198 395.724 798.959C393.566 798.115 391.52 796.832 389.213 796.615C385.654 796.28 382.436 798.512 379.373 800.335C376.309 802.158 372.44 803.721 369.284 802.047C368.242 801.501 367.325 800.614 366.184 800.472C364.466 800.273 362.935 801.761 361.223 801.712C359.301 801.675 357.98 799.852 356.697 798.426C354.096 795.544 350.577 793.652 346.738 793.074C346.018 792.924 345.272 792.945 344.562 793.136C343.722 793.499 342.974 794.046 342.373 794.736C340.68 796.354 338.578 797.836 336.241 797.737C331.137 797.557 328.105 790.346 323.027 790.842C316.405 787.742 308.207 789.342 300.946 790.222C293.685 791.103 285.643 791.357 279.827 786.923C276.764 784.579 274.686 781.175 271.828 778.577C267.314 774.472 261.225 772.68 255.353 771.006C246.052 768.352 236.391 765.673 226.829 767.118C225.106 767.379 223.376 767.738 221.646 767.571C219.916 767.403 218.142 766.43 217.535 764.805C217.269 763.972 217.21 763.087 217.361 762.226C218.26 755.207 224.913 749.936 225.763 742.911C226.191 739.426 228.063 736.375 230.06 733.492C231.759 730.914 233.31 728.241 234.704 725.487C238.009 719.286 241.327 713.085 243.819 706.538C246.442 699.649 248.123 692.443 249.797 685.263C251.409 678.337 252.178 671.243 253.337 664.224C254.181 659.121 255.501 654.111 256.822 649.107C260.729 634.324 264.66 619.455 271.084 605.59C275.263 606.768 279.87 608.139 284.167 608.164Z" fill="#F4F6FB"/>
<path d="M228.243 636.619C226.197 638.857 226.662 642.416 227.859 645.2C229.055 647.985 230.872 650.595 231.207 653.609C231.319 654.613 231.257 655.63 231.43 656.628C231.561 657.348 231.802 658.036 231.988 658.743C232.214 659.637 232.388 660.544 232.509 661.459C233.167 665.873 233.613 670.326 233.849 674.79C234.19 681.102 234.103 687.433 234.016 693.758C233.892 702.606 229.676 710.891 227.623 719.497C227.262 720.828 227.025 722.19 226.916 723.565C226.907 725.395 227.088 727.222 227.456 729.015C229.268 740.303 228.899 751.833 226.371 762.982C228.231 764.446 229.527 766.901 229.08 769.22C233.08 769.921 237.265 770.609 241.116 769.338C243.441 768.575 245.531 767.125 247.937 766.672C249.797 766.331 251.948 766.504 253.263 765.153C253.797 764.521 254.187 763.781 254.404 762.982C258.943 749.775 257.672 735.396 257.417 721.438C257.281 713.935 257.417 706.426 257.132 698.929C256.572 685.563 254.475 672.305 250.882 659.419C249.146 653.218 247.472 647.017 244.061 641.517C243.375 640.246 242.402 639.15 241.221 638.318C239.925 637.524 238.357 637.332 236.844 637.158C233.681 636.817 231.406 636.978 228.243 636.619Z" fill="#3F3D56"/>
<path opacity="0.05" d="M254.404 762.989C254.185 763.784 253.796 764.523 253.263 765.153C251.948 766.51 249.791 766.331 247.937 766.678C247.701 766.721 247.465 766.777 247.236 766.839C245.121 767.403 243.212 768.65 241.122 769.319C237.265 770.56 233.061 769.902 229.08 769.202C229.527 766.883 228.231 764.421 226.371 762.958C228.901 751.811 229.272 740.282 227.462 728.996C227.089 727.204 226.906 725.377 226.916 723.546C227.028 722.171 227.264 720.81 227.623 719.478C229.663 710.866 233.892 702.581 234.016 693.733C234.103 687.408 234.19 681.077 233.855 674.765C233.611 670.301 233.162 665.857 232.509 661.434C232.387 660.52 232.216 659.613 231.995 658.718C231.802 658.017 231.561 657.323 231.437 656.603C231.257 655.611 231.319 654.588 231.207 653.584C230.872 650.57 229.062 647.966 227.859 645.182C227.356 644.034 227.03 642.818 226.891 641.573C226.749 640.697 226.796 639.802 227.029 638.946C227.262 638.09 227.676 637.294 228.243 636.612C230.37 636.848 232.088 636.842 233.948 636.922C234.859 636.96 235.808 637.022 236.844 637.139C238.357 637.307 239.944 637.499 241.227 638.299C242.408 639.131 243.378 640.226 244.061 641.498C244.396 642.038 244.712 642.584 245.016 643.135C247.8 648.201 249.319 653.782 250.882 659.394C254.474 672.28 256.572 685.538 257.132 698.904C257.448 706.401 257.281 713.91 257.417 721.419C257.678 735.408 258.943 749.775 254.404 762.989Z" fill="black"/>
<path d="M277.266 641.48C277.266 642.565 277.266 643.656 277.266 644.742C277.237 655.217 277.21 665.69 277.185 676.16C277.185 680.47 277.185 684.792 276.739 689.076C275.641 700.238 271.561 711.045 271.995 722.219C272.305 730.336 272.615 738.546 270.985 746.507C270.365 749.558 269.459 752.559 269.013 755.641C268.566 758.723 268.616 761.972 269.838 764.843C270.718 766.895 272.2 768.836 272.119 771.043C272.028 771.992 271.715 772.906 271.206 773.712C270.696 774.518 270.005 775.192 269.186 775.681C267.538 776.64 265.71 777.25 263.817 777.473C261.454 777.865 259.062 778.049 256.667 778.025C253.238 777.988 249.332 777.238 247.558 774.305C246.368 772.333 246.461 769.828 247.031 767.59C247.1 767.329 247.168 767.075 247.242 766.821C247.825 764.867 248.656 762.989 249.102 761.004C249.82 757.873 249.589 754.598 248.439 751.598C248.228 751.04 247.565 749.986 246.969 750.054C246.021 747.605 245.878 744.926 245.729 742.297L244.855 724.501C244.669 720.626 244.483 716.701 245.277 712.906C245.897 709.805 247.217 706.854 247.589 703.71C247.756 701.822 247.745 699.923 247.558 698.036C246.863 688.313 245.605 678.638 243.788 669.061C243.728 668.573 243.566 668.104 243.311 667.684C242.902 667.114 242.189 666.847 241.686 666.351C240.632 665.322 240.731 663.641 240.483 662.184C240.037 659.555 238.295 657.372 236.949 655.078C234.808 651.381 233.609 647.213 233.458 642.943C233.382 640.924 233.546 638.903 233.948 636.922C233.998 636.656 234.06 636.389 234.122 636.123C247.636 635.26 261.205 636.093 274.513 638.603C275.486 638.783 276.578 639.062 277.03 639.942C277.228 640.429 277.309 640.956 277.266 641.48V641.48Z" fill="#3F3D56"/>
<path d="M353.398 690.286C360.07 702.03 366.767 713.799 372.074 726.219C376.384 736.295 379.918 747.028 387.148 755.263C393.919 762.97 403.27 767.782 412.453 772.414L404.231 765.171C395.978 757.886 387.551 750.395 382.312 740.716C379.459 735.445 377.649 729.685 375.491 724.073C369.992 709.64 362.333 696.126 352.778 683.992C350.121 680.505 347.264 677.176 344.221 674.021C346.323 679.602 350.434 685.077 353.398 690.286Z" fill="#E3E8F4"/>
<path d="M319.362 770.752C321.371 774.881 323.417 779.073 326.481 782.496C326.741 780.45 325.34 778.614 324.23 776.878C322.221 773.722 320.999 770.169 319.778 766.653C318.649 763.398 317.601 758.908 315.201 756.335C313.974 760.75 317.502 766.957 319.362 770.752Z" fill="#E3E8F4"/>
<path d="M296.104 693.404C296.686 696.505 297.027 699.605 297.809 702.637C298.576 705.361 299.519 708.033 300.63 710.636L313.701 743.215C313.59 738.787 311.221 734.782 309.714 730.627C307.854 725.524 307.184 720.086 305.665 714.84C304.425 710.587 302.627 706.525 301.325 702.29C299.514 696.319 298.751 690.081 297.331 684.004C296.049 678.745 294.448 673.568 292.538 668.502C291.67 666.109 290.678 663.623 288.762 661.967C286.846 660.311 283.634 659.84 281.823 661.632C279.275 664.156 283.138 665.737 284.409 667.38C290.287 675.028 294.288 683.948 296.091 693.423L296.104 693.404Z" fill="#E3E8F4"/>
<path d="M313.645 626.102C314.339 626.802 314.943 627.585 315.443 628.434C316.144 629.723 316.423 631.23 317.304 632.427C315.753 630.25 313.983 628.239 312.021 626.425C310.83 625.402 309.54 624.521 308.344 623.498C307.432 622.717 303.439 619.331 304.233 618.178C307.73 619.957 310.985 623.231 313.645 626.102Z" fill="#E3E8F4"/>
<path d="M272.15 509.604C272.008 510.887 271.22 511.997 270.544 513.101C268.573 516.376 267.474 520.101 267.351 523.921C267.314 525.041 267.364 526.163 267.5 527.276C267.549 527.691 267.562 528.212 267.202 528.429C267.009 528.519 266.792 528.547 266.582 528.509C266.16 528.472 265.751 528.423 265.342 528.354C258.713 527.294 252.909 522.774 246.238 521.633C246.649 521.438 247.014 521.158 247.309 520.81C247.603 520.463 247.819 520.056 247.943 519.618C248.122 519.118 248.257 518.603 248.346 518.08C248.445 517.528 248.519 516.976 248.575 516.437C248.997 512.443 248.389 508.773 248.166 504.717C247.912 499.992 253.747 501.549 257.169 501.487C259.916 501.437 262.713 501.394 265.367 502.138C268.021 502.882 270.544 504.525 271.685 507.03C272.068 507.831 272.228 508.72 272.15 509.604Z" fill="#CB8C8E"/>
<path d="M267.202 528.429C267.009 528.519 266.792 528.547 266.582 528.509C266.16 528.472 265.751 528.423 265.342 528.354C264.772 527.821 264.22 527.263 263.693 526.68C262.452 525.304 261.336 523.791 259.898 522.619C257.676 520.893 254.96 519.924 252.147 519.853C250.741 519.891 249.335 519.812 247.943 519.618C248.122 519.118 248.257 518.603 248.346 518.08C248.445 517.528 248.52 516.976 248.575 516.437C249.353 516.337 250.135 516.281 250.919 516.269C251.839 516.136 252.772 516.117 253.697 516.214C255.229 516.443 256.58 517.299 257.957 518.012C259.861 518.998 261.901 519.742 263.668 520.963C264.213 521.348 264.734 521.769 265.255 522.203C265.962 522.78 266.663 523.363 267.37 523.933C267.333 525.054 267.382 526.175 267.518 527.288C267.549 527.685 267.562 528.212 267.202 528.429Z" fill="#E3E8F4"/>
<path opacity="0.1" d="M277.266 641.48C277.266 642.565 277.266 643.656 277.266 644.741C274.686 644.816 272.051 645.194 269.484 645.361C267.072 645.535 264.654 645.541 262.235 645.51C260.343 645.557 258.454 645.349 256.617 644.89C255.297 644.506 254.057 643.873 252.742 643.476C250.262 642.714 247.645 642.807 245.022 643.117C242.889 643.365 240.737 643.737 238.611 643.929C237.232 644.121 235.828 643.977 234.518 643.507C234.152 643.341 233.799 643.146 233.464 642.925C232.94 642.573 232.393 642.256 231.827 641.976C230.302 641.294 228.603 641.405 226.898 641.567C226.755 640.691 226.802 639.795 227.035 638.94C227.268 638.084 227.682 637.288 228.249 636.606C230.376 636.842 232.094 636.835 233.954 636.916C234.004 636.649 234.066 636.383 234.128 636.116C247.642 635.253 261.211 636.087 274.519 638.596C275.492 638.776 276.584 639.055 277.036 639.936C277.233 640.425 277.312 640.954 277.266 641.48V641.48Z" fill="black"/>
<path d="M249.127 518.644C247.782 518.805 246.343 519.146 245.475 520.182C245.223 520.46 245.061 520.808 245.01 521.18C245.062 521.761 245.174 522.334 245.345 522.892C245.359 523.642 245.161 524.381 244.774 525.025C243.875 526.885 242.914 528.782 241.401 530.177C240.781 530.754 240.074 531.232 239.448 531.796C238.736 532.471 238.082 533.205 237.495 533.991C236.186 535.628 234.841 537.345 234.363 539.385C233.526 542.926 231.784 546.268 230.643 549.728C229.502 553.188 228.783 556.871 229.403 560.455C229.694 562.154 230.283 563.785 230.693 565.459C231.35 568.144 231.536 570.922 232.23 573.595C232.671 575.263 233.303 576.875 233.781 578.555C234.822 582.156 235.103 585.933 234.605 589.648C234.14 593.04 234.921 596.649 233.551 599.78C232.988 600.935 232.367 602.061 231.691 603.153C230.816 604.76 230.035 606.416 229.353 608.114L225.527 617.142C224.768 618.842 224.099 620.58 223.525 622.351C221.931 627.534 221.925 633.059 222.148 638.472C222.175 638.641 222.137 638.814 222.043 638.956C221.925 639.08 221.658 639.043 221.652 638.876C221.602 639.186 221.404 639.725 221.361 640.035C224.616 641.449 228.622 639.31 231.865 640.754C232.807 641.176 233.607 641.877 234.556 642.286C235.864 642.76 237.269 642.907 238.648 642.714C243.379 642.323 248.234 640.854 252.773 642.255C254.094 642.658 255.328 643.29 256.649 643.675C258.487 644.133 260.379 644.341 262.273 644.295C264.691 644.332 267.109 644.326 269.521 644.146C274.711 643.768 280.162 642.633 284.942 644.692C286.486 643.557 286.604 641.796 286.666 639.886C286.782 636.29 286.898 632.695 287.013 629.103L288.297 589.45C288.478 586.718 288.376 583.975 287.993 581.265C287.119 576.354 284.434 571.964 281.792 567.754L269.459 547.911C268.641 546.597 269.459 545.127 270.024 543.683C270.811 541.609 271.344 539.448 271.611 537.246C271.809 535.628 271.797 533.805 270.699 532.602C270.079 531.926 269.205 531.548 268.498 530.965C267.469 530.122 266.849 528.925 266.229 527.796C264.508 524.693 262.01 522.09 258.98 520.244C255.936 518.477 252.624 518.229 249.127 518.644Z" fill="#3F3D56"/>
<path opacity="0.1" d="M261.851 536.639C257.467 537.848 254.751 542.3 253.548 546.684C251.861 552.816 252.271 559.37 253.759 565.546C255.247 571.722 257.789 577.594 260.363 583.404C260.965 584.825 261.644 586.212 262.396 587.559C264.482 591.206 267.668 594.099 271.499 595.824C275.353 597.526 279.706 597.718 283.696 596.364C284.429 596.129 285.12 595.777 285.742 595.322C287.937 593.635 288.278 590.51 288.439 587.745L288.991 578.053C289.047 577.542 289.022 577.025 288.917 576.522C288.668 575.834 288.287 575.202 287.794 574.661C285.978 572.311 284.631 569.633 283.826 566.774C283.262 564.771 282.964 562.682 282.096 560.79C281.575 559.649 280.856 558.608 280.292 557.485C279.051 555.067 278.611 552.357 278.028 549.716C277.52 547.409 276.912 545.125 276.205 542.864C275.879 541.612 275.345 540.423 274.624 539.348C272.919 537.042 269.893 536.211 267.09 535.628C265.765 535.238 264.367 535.17 263.01 535.43C261.485 535.845 260.301 537.023 259.197 538.152" fill="black"/>
<path d="M262.471 536.019C258.087 537.228 255.371 541.68 254.168 546.064C252.482 552.196 252.891 558.75 254.379 564.926C255.867 571.102 258.409 576.974 260.983 582.784C261.585 584.205 262.264 585.591 263.017 586.939C265.102 590.586 268.288 593.479 272.119 595.204C275.974 596.906 280.326 597.098 284.316 595.744C285.05 595.509 285.74 595.157 286.362 594.702C288.557 593.015 288.898 589.89 289.059 587.125L289.611 577.433C289.667 576.922 289.642 576.405 289.537 575.901C289.288 575.214 288.907 574.582 288.415 574.041C286.599 571.691 285.251 569.013 284.446 566.154C283.882 564.151 283.584 562.062 282.716 560.17C282.195 559.029 281.476 557.988 280.912 556.865C279.672 554.447 279.231 551.737 278.648 549.096C278.14 546.789 277.532 544.505 276.825 542.244C276.499 540.992 275.965 539.803 275.244 538.728C273.539 536.422 270.513 535.591 267.71 535.008C266.386 534.618 264.987 534.55 263.63 534.809C262.105 535.225 260.921 536.403 259.817 537.532" fill="#3F3D56"/>
<path d="M305.243 561.9C303.678 558.628 303.386 554.89 304.425 551.415C306.855 552.035 307.525 555.619 310.005 556.258C310.371 556.351 310.762 556.369 311.134 556.45C312.87 556.803 314.098 558.31 314.997 559.86C316.441 562.243 317.323 564.923 317.576 567.698C317.821 570.484 317.169 573.276 315.716 575.666C315.778 575.573 311.376 571.059 311.004 570.594C310.231 569.688 309.474 568.764 308.734 567.822C307.956 566.949 307.257 566.009 306.645 565.013C306.434 564.616 306.39 564.157 306.204 563.736C305.913 563.109 305.547 562.514 305.243 561.9Z" fill="#CB8C8E"/>
<path d="M293.939 598.373C293.183 604.325 290.472 609.858 286.232 614.104C285.283 615.04 284.099 615.964 282.772 615.834C281.34 615.685 280.354 614.383 279.331 613.354C277.47 611.493 274.99 610.383 272.925 608.759C271.858 607.879 270.847 606.933 269.899 605.925C266.861 602.825 263.804 599.725 261.38 596.11C260.009 594.076 258.837 591.893 257.213 590.058C255.929 588.6 254.385 587.398 253.034 586.009C251.682 584.62 250.491 582.958 250.169 581.048C249.828 579.027 247.689 577.712 246.343 576.162C244.684 574.198 243.486 571.888 242.837 569.401C242.188 566.914 242.104 564.313 242.592 561.789C242.809 560.71 243.261 559.501 244.303 559.129C244.717 559.002 245.154 558.975 245.58 559.048C248.197 559.414 250.138 561.584 251.831 563.618C252.991 564.948 254.058 566.357 255.024 567.834C257.089 571.189 258.037 575.095 258.955 578.927C259.495 581.166 261.727 582.821 263.333 584.471L267.363 588.607C268.324 589.593 269.286 590.585 270.34 591.471C273.223 593.914 276.683 595.551 280.137 597.052C280.441 595.935 280.901 594.867 281.501 593.877C281.808 593.39 282.214 592.973 282.693 592.653C283.171 592.333 283.712 592.116 284.279 592.017C285.879 591.812 287.342 592.873 288.619 593.877L293.363 597.598C293.629 597.815 293.977 598.05 293.939 598.373Z" fill="#FBBEBE"/>
<path opacity="0.1" d="M301.486 561.367C302.068 561.991 302.529 562.719 302.844 563.512C303.898 565.689 304.374 568.1 304.227 570.513C304.062 571.812 303.775 573.093 303.371 574.339L301.895 579.417C299.601 587.292 297.3 595.186 294.2 602.781C291.652 599.476 287.193 598.478 283.572 596.413C283.215 596.236 282.896 595.99 282.636 595.688C282.316 595.221 282.153 594.665 282.171 594.1C282.21 592.575 282.542 591.072 283.15 589.673C285.407 583.615 288.539 577.7 288.905 571.251C288.919 570.051 288.995 568.853 289.134 567.661C289.396 566.24 289.957 564.892 290.781 563.706C291.604 562.519 292.67 561.521 293.909 560.778C295.992 559.426 299.638 559.556 301.486 561.367Z" fill="black"/>
<path d="M300.866 559.928C301.447 560.554 301.907 561.281 302.224 562.074C303.278 564.25 303.754 566.661 303.606 569.074C303.445 570.391 303.159 571.688 302.751 572.95L301.275 578.028C298.981 585.903 296.68 593.797 293.58 601.392C291.031 598.094 286.573 597.089 282.952 595.024C282.595 594.85 282.277 594.605 282.016 594.305C281.698 593.838 281.535 593.282 281.551 592.718C281.589 591.191 281.921 589.685 282.53 588.284C284.787 582.226 287.919 576.317 288.284 569.862C288.299 568.664 288.375 567.468 288.514 566.278C288.775 564.856 289.336 563.507 290.159 562.319C290.982 561.131 292.049 560.132 293.288 559.389C295.372 558.006 299.018 558.136 300.866 559.928Z" fill="#F4F6FB"/>
<path d="M286.499 526.972C287.739 528.293 288.086 530.202 288.291 532.007C288.824 536.67 288.836 541.481 287.385 545.946C285.934 550.41 282.859 554.497 278.549 556.351C284.552 557.324 291.682 557.932 295.75 553.405C296.544 552.525 297.189 551.465 298.199 550.826C302.509 548.11 307.978 555.272 312.653 553.238C315.753 551.899 315.977 547.707 315.753 544.359L314.904 531.957C314.47 525.626 313.918 518.936 310.291 513.752C307.017 509.058 301.653 506.237 296.203 504.451C292.284 503.211 287.919 502.399 284.105 503.967C279.238 505.964 269.844 513.938 269.899 519.835C270.005 528.596 282.406 522.644 286.499 526.972Z" fill="#3F3D56"/>
<path d="M290.194 575.381C290.89 575.408 291.586 575.318 292.253 575.114C293.307 574.723 294.113 573.744 295.248 573.582C295.818 573.502 296.55 573.582 296.798 573.043C296.872 572.792 296.899 572.529 296.878 572.268C296.965 570.761 298.856 570.24 300.134 569.434C300.939 568.869 301.653 568.183 302.248 567.4L306.651 562.198C307.055 561.603 307.643 561.157 308.325 560.927C309.104 560.84 309.885 561.063 310.501 561.547C313.064 563.25 315.116 565.617 316.44 568.395C317.763 571.173 318.308 574.258 318.017 577.321C318.006 577.744 317.896 578.159 317.694 578.531C317.006 579.609 315.388 579.349 314.166 579.733C311.828 580.465 311.115 583.497 309.112 584.905C308.213 585.525 307.103 585.792 306.229 586.436C305.355 587.081 304.685 588.21 303.891 589.084C302.651 590.485 300.884 591.347 299.185 592.184L293.995 594.714C292.974 595.246 291.91 595.69 290.814 596.041C288.922 596.484 286.975 596.649 285.035 596.531L281.234 596.482C280.806 596.52 280.375 596.434 279.994 596.233C279.77 596.066 279.583 595.855 279.442 595.613C277.489 592.68 277.092 588.892 277.787 585.438C278.363 582.573 279.721 578.617 281.761 576.441C283.535 574.568 287.739 575.43 290.194 575.381Z" fill="#3F3D56"/>
<path d="M275.015 495.038C274.902 494.449 274.98 493.839 275.238 493.297C275.495 492.755 275.919 492.309 276.447 492.025L281.16 488.484L280.193 487.077L282.009 485.52C281.86 485.313 281.654 485.154 281.417 485.062C281.179 484.969 280.92 484.948 280.67 484.999C280.955 483.083 279.318 481.465 277.762 480.324C274.593 478.005 270.941 476.077 267.059 475.816C265.156 475.692 263.246 475.965 261.342 475.816C258.775 475.655 256.283 474.787 253.709 474.688C251.136 474.588 248.247 475.599 247.168 477.912C246.709 478.916 246.647 480.051 246.3 481.099C245.524 483.418 243.478 485.024 241.736 486.742C239.993 488.459 238.375 490.76 238.859 493.153C239.049 493.925 239.348 494.666 239.745 495.354L249.357 513.913C249.678 513.311 250.139 512.795 250.701 512.407C251.263 512.02 251.91 511.773 252.587 511.687C254.168 511.501 255.687 512.208 257.287 512.406C258.474 512.536 259.674 512.378 260.786 511.947C261.899 511.515 262.892 510.822 263.68 509.926C265.801 507.483 266.315 501.245 269.999 500.625C271.301 500.402 273.384 502.045 274.519 501.394C275.852 500.662 275.04 496.415 275.015 495.038Z" fill="#3F3D56"/>
<g opacity="0.1">
<path opacity="0.1" d="M282.27 554.453C286.579 552.593 289.649 548.501 291.106 544.042C292.563 539.584 292.544 534.741 292.011 530.103C291.806 528.305 291.465 526.383 290.219 525.068C286.127 520.728 273.725 526.693 273.614 517.975C273.545 512.946 280.385 506.41 285.395 503.353C284.946 503.473 284.505 503.62 284.074 503.794C279.207 505.79 269.813 513.771 269.868 519.661C269.98 528.379 282.381 522.433 286.474 526.761C287.714 528.076 288.061 529.992 288.266 531.796C288.799 536.453 288.812 541.271 287.361 545.729C285.91 550.187 282.834 554.286 278.525 556.14C283.82 556.996 289.99 557.566 294.163 554.583C290.498 555.545 286.151 555.08 282.27 554.453Z" fill="black"/>
<path opacity="0.1" d="M301.92 548.922C301.47 549.221 301.067 549.585 300.723 550.001C304.524 550.249 308.846 554.676 312.653 553.021C313.319 552.729 313.9 552.272 314.34 551.694C310.173 551.533 305.622 546.591 301.92 548.922Z" fill="black"/>
</g>
<g opacity="0.1">
<path opacity="0.1" d="M280.224 482.6C280.131 482.463 280.031 482.327 279.932 482.197C279.931 482.34 279.92 482.483 279.901 482.624C280.007 482.604 280.115 482.595 280.224 482.6V482.6Z" fill="black"/>
<path opacity="0.1" d="M282.171 485.52C282.021 485.313 281.816 485.154 281.578 485.062C281.34 484.969 281.081 484.948 280.831 484.999C280.9 484.531 280.858 484.053 280.707 483.604L279.424 484.702L280.391 486.103L275.678 489.65C275.15 489.935 274.727 490.38 274.469 490.922C274.211 491.464 274.133 492.074 274.246 492.663C274.246 494.04 275.083 498.287 273.744 499.05C272.615 499.701 270.526 498.058 269.23 498.281C265.546 498.901 265.032 505.102 262.911 507.582C262.123 508.478 261.13 509.171 260.017 509.603C258.905 510.034 257.705 510.192 256.518 510.062C254.937 509.87 253.418 509.163 251.818 509.349C251.141 509.436 250.493 509.684 249.931 510.071C249.368 510.458 248.905 510.974 248.581 511.575C245.386 505.4 242.191 499.226 238.995 493.054V493.19C239.19 493.962 239.491 494.702 239.888 495.392L249.487 513.913C249.81 513.311 250.273 512.796 250.836 512.409C251.399 512.021 252.046 511.774 252.723 511.687C254.305 511.501 255.824 512.208 257.424 512.406C258.61 512.536 259.81 512.378 260.923 511.946C262.035 511.515 263.028 510.822 263.816 509.926C265.937 507.483 266.452 501.245 270.135 500.625C271.431 500.402 273.521 502.045 274.649 501.394C275.988 500.631 275.176 496.384 275.151 495.007C275.084 494.374 275.178 493.734 275.424 493.147C275.718 492.675 276.114 492.274 276.584 491.975L281.296 488.434L280.329 487.027L282.171 485.52Z" fill="black"/>
</g>
<path opacity="0.1" d="M227.821 620.143C227.201 622.791 226.811 625.494 225.961 628.08C225.589 629.246 225.13 630.381 224.764 631.546C224.436 632.607 224.188 633.679 223.934 634.758L222.923 639.099C223.229 639.083 223.527 638.997 223.794 638.846C224.061 638.695 224.289 638.485 224.461 638.231C224.8 637.72 225.057 637.159 225.223 636.569L226.916 631.534L228.156 627.814C229.917 622.574 231.684 617.322 233.024 611.952C233.359 610.625 233.644 609.298 233.935 607.959C234.047 607.444 234.859 604.573 234.028 604.815C233.439 604.983 232.441 607.599 232.168 608.17C231.548 609.311 231.04 610.476 230.537 611.661C229.389 614.405 228.481 617.243 227.821 620.143V620.143Z" fill="black"/>
<path d="M260.164 550.708C260.164 550.708 257.362 549.697 256.673 550.9C256.673 550.9 261.77 552.76 262.8 555.439C262.8 555.439 264.114 554.087 262.316 552.37L261.981 549.852L260.164 550.708Z" fill="#00A66C"/>
<path d="M264.815 546.907C264.815 546.907 264.97 545.63 264.325 545.493C263.68 545.357 259.315 545.611 260.016 550.454C260.716 555.297 265.764 553.48 265.764 553.48L267.977 550.9C267.977 550.9 268.449 547.484 265.348 546.659L264.815 546.907Z" fill="#FA86BE"/>
<path opacity="0.1" d="M261.299 544.278C261.299 544.278 257.492 546.2 259.34 551.03L260.772 550.199C260.772 550.199 262.564 546.008 261.299 544.278Z" fill="black"/>
<path d="M261.162 544.179C261.162 544.179 257.361 546.101 259.209 550.931L260.319 551.582C260.319 551.582 262.434 545.909 261.162 544.179Z" fill="#FA86BE"/>
<path opacity="0.1" d="M267.376 549.139C267.575 549.811 267.983 550.402 268.541 550.826C269.434 551.446 267.655 552.878 267.655 552.878C267.655 552.878 265.249 555.613 262.973 554.28C261.615 551.992 262.638 551.675 262.638 551.675C262.638 551.675 265.478 548.556 267.376 549.139Z" fill="black"/>
<path d="M267.469 549.269C267.668 549.941 268.077 550.532 268.634 550.956C269.521 551.576 267.742 553.008 267.742 553.008C267.742 553.008 265.342 555.743 263.06 554.41C260.778 553.077 262.725 551.812 262.725 551.812C262.725 551.812 265.54 548.687 267.469 549.269Z" fill="#FA86BE"/>
<path d="M258.837 544.241C258.837 544.241 256.022 545.22 256.246 546.591C256.246 546.591 261.38 544.83 263.866 546.262C263.866 546.262 264.034 544.402 261.56 544.179L259.699 542.43L258.837 544.241Z" fill="#5F3839"/>
<path d="M260.028 538.344C260.028 538.344 259.346 537.253 258.788 537.55C258.23 537.848 254.974 540.793 258.552 544.104C262.13 547.416 264.926 542.864 264.926 542.864L264.988 539.466C264.988 539.466 263.203 536.515 260.276 537.829L260.028 538.344Z" fill="#FA86BE"/>
<path opacity="0.1" d="M255.687 538.53C255.687 538.53 253.939 542.418 258.422 545.01L259.011 543.466C259.011 543.466 257.746 539.082 255.687 538.53Z" fill="black"/>
<path d="M255.501 538.536C255.501 538.536 253.759 542.424 258.236 545.016L259.507 544.824C259.507 544.824 257.579 539.082 255.501 538.536Z" fill="#FA86BE"/>
<path opacity="0.1" d="M263.451 538.48C264.03 538.878 264.72 539.082 265.423 539.063C266.514 538.995 266.043 541.215 266.043 541.215C266.043 541.215 265.894 544.855 263.283 545.251C260.803 544.327 261.386 543.441 261.386 543.441C261.386 543.441 261.609 539.224 263.451 538.48Z" fill="black"/>
<path d="M263.587 538.542C264.166 538.941 264.856 539.145 265.559 539.125C266.65 539.057 266.179 541.277 266.179 541.277C266.179 541.277 266.036 544.917 263.426 545.313C260.815 545.71 261.528 543.503 261.528 543.503C261.528 543.503 261.745 539.286 263.587 538.542Z" fill="#FA86BE"/>
<path d="M249.27 545.4C249.27 545.4 250.163 544.619 250.652 545.648L250.237 547.955L247.676 570.798L246.039 573.793L249.27 545.4Z" fill="#00A66C"/>
<path d="M256.86 540.086L246.132 574.934L247.106 575.474L257.746 540.316L256.86 540.086Z" fill="#00A66C"/>
<path d="M253.927 555.886C253.927 555.886 251.521 564.982 248.867 568.609C246.213 572.237 246.715 575.244 246.715 575.244L247.583 575.511L254.714 556.518L253.927 555.886Z" fill="#00A66C"/>
<path d="M262.694 547.88L247.391 574.531L248.123 574.928L263.903 548.073L262.694 547.88Z" fill="#00A66C"/>
<path d="M266.074 554.918L247.013 574.785L247.583 575.523L266.886 555.365L266.074 554.918Z" fill="#00A66C"/>
<path d="M267.295 556.394C267.295 556.394 267.041 555.278 266.185 555.489C265.329 555.699 248.482 574.407 248.482 574.407L249.195 574.965L267.295 556.394Z" fill="#00A66C"/>
<path d="M248.445 544.197C248.445 544.197 245.568 544.979 245.704 546.361C245.704 546.361 250.944 544.96 253.325 546.56C253.325 546.56 253.622 544.7 251.167 544.321L249.443 542.461L248.445 544.197Z" fill="#00A66C"/>
<path d="M250.057 538.393C250.057 538.393 249.437 537.259 248.848 537.519C248.259 537.78 244.818 540.489 248.154 544.036C251.49 547.583 254.602 543.218 254.602 543.218L254.931 539.832C254.931 539.832 253.356 536.769 250.342 537.873L250.057 538.393Z" fill="#FA86BE"/>
<path opacity="0.1" d="M245.686 538.282C245.686 538.282 243.67 542.039 247.961 544.935L248.656 543.435C248.656 543.435 247.713 538.97 245.686 538.282Z" fill="black"/>
<path d="M245.518 538.276C245.518 538.276 243.503 542.033 247.794 544.929L249.078 544.83C249.078 544.83 247.552 538.964 245.518 538.276Z" fill="#FA86BE"/>
<path opacity="0.1" d="M253.449 538.772C254.002 539.201 254.677 539.444 255.377 539.466C256.469 539.466 255.824 541.655 255.824 541.655C255.824 541.655 255.427 545.276 252.798 545.493C250.373 544.402 251.031 543.552 251.031 543.552C251.031 543.552 251.564 539.386 253.449 538.772Z" fill="black"/>
<path d="M253.579 538.846C254.13 539.282 254.805 539.534 255.507 539.565C256.599 539.565 255.954 541.754 255.954 541.754C255.954 541.754 255.557 545.369 252.928 545.586C250.299 545.803 251.161 543.652 251.161 543.652C251.161 543.652 251.694 539.466 253.579 538.846Z" fill="#FA86BE"/>
<path d="M255.78 538.846C255.78 538.846 252.903 539.627 253.034 541.01C253.034 541.01 258.273 539.609 260.654 541.202C260.654 541.202 260.958 539.342 258.496 538.97L256.773 537.11L255.78 538.846Z" fill="#00A66C"/>
<path d="M257.386 533.055C257.386 533.055 256.766 531.92 256.177 532.18C255.588 532.441 252.147 535.15 255.483 538.697C258.819 542.244 261.931 537.879 261.931 537.879L262.26 534.493C262.26 534.493 260.685 531.43 257.672 532.534L257.386 533.055Z" fill="#FA86BE"/>
<path opacity="0.1" d="M253.015 532.943C253.015 532.943 251 536.701 255.29 539.596L255.985 538.096C255.985 538.096 255.067 533.631 253.015 532.943Z" fill="black"/>
<path d="M252.847 532.937C252.847 532.937 250.838 536.694 255.123 539.59L256.407 539.485C256.407 539.485 254.881 533.625 252.847 532.937Z" fill="#FA86BE"/>
<path opacity="0.1" d="M260.785 533.433C261.333 533.869 262.006 534.119 262.707 534.146C263.798 534.146 263.153 536.335 263.153 536.335C263.153 536.335 262.756 539.956 260.127 540.173C257.709 539.076 258.36 538.232 258.36 538.232C258.36 538.232 258.893 534.047 260.785 533.433Z" fill="black"/>
<path d="M260.915 533.501C261.463 533.937 262.137 534.187 262.837 534.214C263.928 534.214 263.283 536.403 263.283 536.403C263.283 536.403 262.886 540.024 260.257 540.241C257.628 540.458 258.49 538.3 258.49 538.3C258.49 538.3 259.023 534.115 260.915 533.501Z" fill="#FA86BE"/>
<path d="M261.975 546.287C261.975 546.287 259.172 545.276 258.484 546.479C258.484 546.479 263.581 548.339 264.616 551.018C264.616 551.018 265.931 549.666 264.133 547.949L263.798 545.431L261.975 546.287Z" fill="#00A66C"/>
<path d="M266.625 542.467C266.625 542.467 266.78 541.19 266.136 541.054C265.491 540.917 261.132 541.171 261.795 546.014C262.459 550.857 267.549 549.04 267.549 549.04L269.763 546.461C269.763 546.461 270.228 543.044 267.128 542.219L266.625 542.467Z" fill="#FA86BE"/>
<path opacity="0.1" d="M263.128 539.863C263.128 539.863 259.321 541.785 261.175 546.616L262.601 545.785C262.601 545.785 264.368 541.593 263.128 539.863Z" fill="black"/>
<path d="M262.979 539.764C262.979 539.764 259.172 541.686 261.02 546.516L262.13 547.167C262.13 547.167 264.244 541.494 262.979 539.764Z" fill="#FA86BE"/>
<path opacity="0.1" d="M269.186 544.724C269.389 545.395 269.797 545.984 270.352 546.411C271.245 547.031 269.465 548.463 269.465 548.463C269.465 548.463 267.06 551.198 264.784 549.865C263.432 547.583 264.449 547.26 264.449 547.26C264.449 547.26 267.289 544.141 269.186 544.724Z" fill="black"/>
<path d="M269.255 544.855C269.455 545.528 269.863 546.12 270.42 546.547C271.313 547.167 269.534 548.594 269.534 548.594C269.534 548.594 267.128 551.328 264.852 550.001C262.576 548.674 264.517 547.397 264.517 547.397C264.517 547.397 267.357 544.272 269.255 544.855Z" fill="#FA86BE"/>
<path d="M266.47 553.883C266.47 553.883 263.668 552.872 262.986 554.081C262.986 554.081 268.076 555.941 269.112 558.62C269.112 558.62 270.426 557.262 268.628 555.551L268.293 553.027L266.47 553.883Z" fill="#00A66C"/>
<path d="M271.121 550.057C271.121 550.057 271.276 548.78 270.631 548.649C269.986 548.519 265.627 548.761 266.328 553.61C267.029 558.459 272.076 556.642 272.076 556.642L274.29 554.056C274.29 554.056 274.755 550.646 271.654 549.821L271.121 550.057Z" fill="#FA86BE"/>
<path opacity="0.1" d="M267.605 547.453C267.605 547.453 263.798 549.375 265.652 554.211L267.078 553.38C267.078 553.38 268.876 549.183 267.605 547.453Z" fill="black"/>
<path d="M267.469 547.353C267.469 547.353 263.661 549.276 265.509 554.106L266.619 554.757C266.619 554.757 268.74 549.083 267.469 547.353Z" fill="#FA86BE"/>
<path opacity="0.1" d="M273.67 552.314C273.869 552.986 274.275 553.578 274.829 554.007C275.722 554.627 273.942 556.053 273.942 556.053C273.942 556.053 271.537 558.788 269.261 557.461C267.909 555.173 268.926 554.856 268.926 554.856C268.926 554.856 271.809 551.731 273.67 552.314Z" fill="black"/>
<path d="M273.75 552.45C273.95 553.122 274.358 553.713 274.916 554.137C275.809 554.757 274.029 556.189 274.029 556.189C274.029 556.189 271.623 558.924 269.348 557.591C267.072 556.258 269.013 554.986 269.013 554.986C269.013 554.986 271.853 551.868 273.75 552.45Z" fill="#FA86BE"/>
<path d="M267.041 556.431C267.041 556.431 264.238 555.421 263.55 556.63C263.55 556.63 268.647 558.49 269.676 561.169C269.676 561.169 270.997 559.811 269.199 558.099L268.858 555.576L267.041 556.431Z" fill="#00A66C"/>
<path d="M271.691 552.605C271.691 552.605 271.846 551.334 271.202 551.198C270.557 551.062 266.198 551.31 266.892 556.158C267.587 561.007 272.64 559.191 272.64 559.191L274.854 556.611C274.854 556.611 275.325 553.195 272.225 552.37L271.691 552.605Z" fill="#FA86BE"/>
<path opacity="0.1" d="M268.176 550.007C268.176 550.007 264.368 551.923 266.229 556.76L267.661 555.929C267.661 555.929 269.44 551.731 268.176 550.007Z" fill="black"/>
<path d="M268.039 549.902C268.039 549.902 264.238 551.824 266.086 556.654L267.196 557.312C267.196 557.312 269.329 551.632 268.039 549.902Z" fill="#FA86BE"/>
<path opacity="0.1" d="M274.252 554.862C274.453 555.536 274.861 556.128 275.418 556.555C276.311 557.175 274.531 558.602 274.531 558.602C274.531 558.602 272.125 561.342 269.85 560.009C268.492 557.721 269.515 557.405 269.515 557.405C269.515 557.405 272.355 554.28 274.252 554.862Z" fill="black"/>
<path d="M274.321 554.999C274.52 555.671 274.928 556.261 275.486 556.685C276.379 557.306 274.593 558.738 274.593 558.738C274.593 558.738 272.194 561.472 269.918 560.139C267.642 558.806 269.577 557.535 269.577 557.535C269.577 557.535 272.429 554.416 274.321 554.999Z" fill="#FA86BE"/>
<path d="M253.387 554.769C253.387 554.769 250.584 553.753 249.896 554.962C249.896 554.962 254.993 556.822 256.022 559.501C256.022 559.501 257.337 558.149 255.539 556.431L255.204 553.908L253.387 554.769Z" fill="#00A66C"/>
<path d="M258.038 550.937C258.038 550.937 258.193 549.666 257.548 549.53C256.903 549.393 252.538 549.648 253.238 554.49C253.939 559.333 258.986 557.523 258.986 557.523L261.2 554.943C261.2 554.943 261.671 551.526 258.571 550.702L258.038 550.937Z" fill="#FA86BE"/>
<path opacity="0.1" d="M254.522 548.339C254.522 548.339 250.727 550.262 252.587 555.092L254.02 554.261C254.02 554.261 255.787 550.069 254.522 548.339Z" fill="black"/>
<path d="M254.385 548.24C254.385 548.24 250.584 550.156 252.432 554.993L253.542 555.613C253.542 555.613 255.687 549.97 254.385 548.24Z" fill="#FA86BE"/>
<path opacity="0.1" d="M260.598 553.195C260.797 553.868 261.206 554.461 261.764 554.887C262.657 555.507 260.877 556.94 260.877 556.94C260.877 556.94 258.472 559.674 256.196 558.341C254.838 556.053 255.861 555.737 255.861 555.737C255.861 555.737 258.701 552.612 260.598 553.195Z" fill="black"/>
<path d="M260.648 553.331C260.848 554.003 261.256 554.593 261.814 555.017C262.7 555.638 260.921 557.07 260.921 557.07C260.921 557.07 258.521 559.804 256.239 558.471C253.957 557.138 255.904 555.867 255.904 555.867C255.904 555.867 258.788 552.748 260.648 553.331Z" fill="#FA86BE"/>
<path d="M254.918 546.417C254.918 546.417 252.11 545.4 251.427 546.609C251.427 546.609 256.524 548.469 257.554 551.148C257.554 551.148 258.868 549.796 257.07 548.079L256.735 545.555L254.918 546.417Z" fill="#00A66C"/>
<path d="M259.569 542.567C259.569 542.567 259.724 541.326 259.079 541.159C258.434 540.992 254.069 541.277 254.739 546.12C255.408 550.962 260.487 549.152 260.487 549.152L262.7 546.572C262.7 546.572 263.165 543.156 260.065 542.331L259.569 542.567Z" fill="#FA86BE"/>
<path opacity="0.1" d="M256.047 539.987C256.047 539.987 252.246 541.903 254.094 546.739L255.526 545.909C255.526 545.909 257.318 541.717 256.047 539.987Z" fill="black"/>
<path d="M255.917 539.888C255.917 539.888 252.11 541.804 253.964 546.64L255.067 547.291C255.067 547.291 257.188 541.618 255.917 539.888Z" fill="#FA86BE"/>
<path opacity="0.1" d="M262.13 544.842C262.33 545.515 262.738 546.108 263.296 546.535C264.189 547.155 262.409 548.587 262.409 548.587C262.409 548.587 260.003 551.322 257.727 549.989C256.37 547.701 257.393 547.384 257.393 547.384C257.393 547.384 260.226 544.259 262.13 544.842Z" fill="black"/>
<path d="M262.192 544.979C262.391 545.65 262.8 546.241 263.357 546.665C264.25 547.285 262.471 548.718 262.471 548.718C262.471 548.718 260.065 551.452 257.789 550.119C255.514 548.786 257.454 547.515 257.454 547.515C257.454 547.515 260.294 544.427 262.192 544.979Z" fill="#FA86BE"/>
<path d="M245.58 559.048C245.58 559.048 253.263 559.897 257.436 573.26C261.609 586.622 248.482 576.627 248.482 576.627C248.482 576.627 245.022 577.321 244.483 570.346C243.943 563.37 245.58 559.048 245.58 559.048Z" fill="#FBBEBE"/>
<path d="M246.433 568.856L244.596 569.671C244.38 569.767 244.282 570.018 244.377 570.233C244.472 570.447 244.725 570.543 244.941 570.447L246.777 569.633C246.993 569.537 247.091 569.285 246.996 569.071C246.901 568.857 246.649 568.76 246.433 568.856Z" fill="#E3E8F4"/>
<path opacity="0.1" d="M213.951 519.326L212.71 518.198C208.258 514.105 205.313 511.451 205.313 508.14C205.302 507.511 205.418 506.885 205.653 506.301C205.888 505.717 206.238 505.186 206.682 504.74C207.126 504.294 207.655 503.941 208.238 503.703C208.821 503.465 209.446 503.346 210.075 503.353C210.818 503.357 211.551 503.523 212.224 503.839C212.896 504.155 213.492 504.613 213.969 505.183C214.446 504.612 215.041 504.153 215.714 503.837C216.386 503.521 217.12 503.356 217.863 503.353C218.492 503.347 219.116 503.466 219.698 503.705C220.28 503.943 220.809 504.296 221.252 504.742C221.695 505.189 222.045 505.719 222.28 506.303C222.514 506.887 222.63 507.511 222.619 508.14C222.619 511.451 219.68 514.105 215.222 518.198L213.951 519.326Z" fill="#FA86BE"/>
<path opacity="0.1" d="M196.644 448.973L195.404 447.839C190.946 443.752 188.001 441.092 188.001 437.787C187.99 437.158 188.105 436.532 188.341 435.948C188.576 435.364 188.926 434.833 189.37 434.387C189.814 433.941 190.343 433.588 190.926 433.35C191.509 433.112 192.133 432.993 192.763 433C193.506 433.004 194.239 433.17 194.911 433.486C195.584 433.802 196.18 434.26 196.657 434.83C197.134 434.26 197.729 433.801 198.402 433.485C199.074 433.169 199.808 433.004 200.551 433C201.18 432.994 201.804 433.113 202.386 433.352C202.968 433.59 203.496 433.943 203.94 434.389C204.383 434.836 204.733 435.366 204.967 435.95C205.202 436.534 205.318 437.158 205.307 437.787C205.307 441.092 202.368 443.752 197.909 447.839L196.644 448.973Z" fill="#FA86BE"/>
<path opacity="0.1" d="M326.512 482.699L325.271 481.564C320.813 477.478 317.874 474.818 317.874 471.513C317.863 470.884 317.979 470.259 318.213 469.675C318.448 469.092 318.798 468.561 319.241 468.115C319.684 467.669 320.213 467.316 320.795 467.077C321.377 466.839 322.001 466.719 322.63 466.726C323.373 466.729 324.106 466.895 324.779 467.211C325.451 467.527 326.047 467.985 326.524 468.555C327.001 467.986 327.597 467.527 328.269 467.211C328.942 466.895 329.675 466.73 330.418 466.726C331.048 466.718 331.672 466.837 332.255 467.075C332.838 467.314 333.367 467.666 333.811 468.113C334.255 468.559 334.605 469.09 334.84 469.674C335.075 470.258 335.191 470.883 335.18 471.513C335.18 474.818 332.235 477.478 327.783 481.564L326.512 482.699Z" fill="#FA86BE"/>
</g>
<defs>
<filter id="filter0_d_34_2567" x="-700" y="-470" width="1247" height="1247" filterUnits="userSpaceOnUse" color-interpolation-filters="sRGB">
<feFlood flood-opacity="0" result="BackgroundImageFix"/>
<feColorMatrix in="SourceAlpha" type="matrix" values="0 0 0 0 0 0 0 0 0 0 0 0 0 0 0 0 0 0 127 0" result="hardAlpha"/>
<feOffset dy="4"/>
<feGaussianBlur stdDeviation="50"/>
<feComposite in2="hardAlpha" operator="out"/>
<feColorMatrix type="matrix" values="0 0 0 0 0.960784 0 0 0 0 0.905882 0 0 0 0 0.933333 0 0 0 1 0"/>
<feBlend mode="normal" in2="BackgroundImageFix" result="effect1_dropShadow_34_2567"/>
<feBlend mode="normal" in="SourceGraphic" in2="effect1_dropShadow_34_2567" result="shape"/>
</filter>
<linearGradient id="paint0_linear_34_2567" x1="322.537" y1="796.187" x2="322.537" y2="472.592" gradientUnits="userSpaceOnUse">
<stop stop-color="#808080" stop-opacity="0.25"/>
<stop offset="0.54" stop-color="#808080" stop-opacity="0.12"/>
<stop offset="1" stop-color="#808080" stop-opacity="0.1"/>
</linearGradient>
<clipPath id="clip0_34_2567">
<rect width="375" height="812" fill="white"/>
</clipPath>
</defs>
</svg>
