<svg width="375" height="812" viewBox="0 0 375 812" fill="none" xmlns="http://www.w3.org/2000/svg">
<g clip-path="url(#clip0_34_597)">
<rect width="375" height="812" fill="#F5E7EE"/>
<g filter="url(#filter0_d_34_597)">
<circle cx="188" cy="610" r="375" fill="#FA86BE"/>
</g>
<path d="M294.582 483.808C294.585 483.752 294.585 483.696 294.582 483.641C294.621 482.85 294.47 482.061 294.142 481.34C293.138 479.306 290.719 478.972 288.667 478.618C285.287 478.038 282.048 476.82 279.124 475.028C277.183 473.844 275.193 472.101 274.951 469.652C274.951 469.15 274.988 468.647 274.951 468.189C274.951 467.854 274.951 467.525 274.951 467.209C274.951 465.901 274.877 464.698 273.903 464.462C268.087 463.023 263.058 458.069 261.055 451.788C260.627 450.448 260.33 449.053 259.778 447.77C258.023 443.702 254.117 441.495 251.165 438.419C247.283 434.37 245.033 428.74 243.402 423.091C241.771 417.442 240.643 411.595 238.503 406.157C234.938 397.085 231.72 387.425 225.674 380.176C224.763 379.079 223.758 377.956 222.698 376.822C217.322 368.971 213.67 359.689 209.013 351.219C208.124 349.483 207.04 347.854 205.782 346.364C204.17 344.578 202.173 343.301 200.313 341.843C191.353 334.849 185.624 323.861 177.904 315.224C176.558 313.717 174.463 311.596 173.47 309.78C173.465 308.719 173.556 307.661 173.743 306.617C174.239 304.044 175.573 301.601 175.343 298.978C175.263 298.467 175.219 297.951 175.213 297.434C175.276 296.838 175.435 296.256 175.684 295.71C176.084 294.528 176.612 293.392 177.259 292.325C178.383 290.598 179.123 288.651 179.429 286.614C180.973 285.151 181.643 282.472 183.571 281.796C184.644 281.424 186.052 281.678 186.672 280.618C186.851 280.254 186.95 279.857 186.963 279.452C187.158 277.358 186.98 275.246 186.436 273.214C186.592 272.141 186.634 271.054 186.56 269.971C186.349 267.273 185.578 264.648 184.297 262.264C183.509 260.763 182.437 259.263 180.905 258.915C180.57 258.841 180.229 258.822 179.907 258.723C177.935 258.147 177.253 255.102 175.473 254.159C177.761 255.4 180.099 256.801 182.251 255.759C184.954 254.439 185.177 250.321 184.973 247.035L184.253 234.863C183.869 228.662 183.385 222.083 180.192 216.974C177.315 212.361 172.602 209.589 167.791 207.859C164.541 206.687 160.97 205.937 157.752 207.133C157.944 206.997 158.13 206.861 158.316 206.737C157.92 206.855 157.533 207 157.156 207.171C155.469 208.028 153.901 209.104 152.494 210.37C153.274 208.396 153.674 206.292 153.672 204.17C153.69 200.994 152.79 197.88 151.08 195.203L154.713 192.146L153.864 190.764L155.464 189.238C155.363 189.075 155.223 188.941 155.056 188.847C154.888 188.754 154.7 188.705 154.509 188.705C154.434 188.699 154.36 188.699 154.286 188.705C154.343 188.25 154.305 187.787 154.174 187.347L154.062 187.453C153.966 187.073 153.815 186.71 153.616 186.374H153.746C153.669 186.234 153.585 186.1 153.492 185.971C153.492 186.033 153.492 186.101 153.492 186.163C152.969 185.392 152.328 184.708 151.594 184.135C148.817 181.853 145.636 179.962 142.194 179.708C140.52 179.584 138.84 179.85 137.165 179.708C134.908 179.553 132.72 178.697 130.456 178.604C128.193 178.511 125.645 179.435 124.708 181.704C124.305 182.697 124.249 183.813 123.946 184.836C123.27 187.118 121.465 188.699 119.934 190.385C118.402 192.072 116.982 194.335 117.404 196.692C117.572 197.441 117.834 198.166 118.185 198.849L126.041 215.814C126.074 217.056 126.036 218.298 125.93 219.535C125.88 220.068 125.812 220.608 125.725 221.153C125.688 221.383 125.645 221.618 125.589 221.854C124.661 222.01 123.821 222.494 123.22 223.218C122.996 223.5 122.854 223.84 122.811 224.198C122.856 224.766 122.955 225.329 123.109 225.878C123.121 226.61 122.948 227.333 122.606 227.98C121.819 229.809 120.982 231.67 119.642 233.04C119.097 233.604 118.477 234.075 117.925 234.634C117.295 235.303 116.721 236.023 116.207 236.785C115.06 238.397 113.876 240.084 113.454 242.093C112.76 245.379 111.358 248.504 110.354 251.71C110.211 251.968 110.033 252.206 109.827 252.417C109.207 253 108.413 253.248 107.805 253.818C106.441 255.108 106.565 257.464 106.9 259.43C108.103 266.734 110.211 273.847 111.048 281.213C111.383 284.103 111.519 287.042 112.164 289.863C112.402 291.082 112.853 292.249 113.497 293.311C113.404 296.082 113.69 298.891 112.704 301.446C112.245 302.599 111.606 303.653 111.048 304.757C110.276 306.347 109.59 307.978 108.996 309.643L105.629 318.51C105.009 320.191 104.351 321.883 103.868 323.632C102.473 328.723 102.466 334.173 102.665 339.475C102.69 339.639 102.655 339.806 102.566 339.946C102.466 340.07 102.231 340.033 102.225 339.865C102.181 340.175 102.008 340.703 101.97 341.006C103.471 341.738 105.158 341.502 106.832 341.323C106.832 341.484 106.832 341.651 106.832 341.812C106.829 341.852 106.829 341.891 106.832 341.93C106.847 342.436 106.899 342.939 106.987 343.437C106.987 343.437 106.987 343.437 106.987 343.474C107.03 343.728 107.086 343.976 107.142 344.224C107.142 344.293 107.142 344.355 107.191 344.423C107.247 344.646 107.309 344.876 107.377 345.093C107.415 345.21 107.446 345.316 107.483 345.427C107.52 345.539 107.576 345.7 107.625 345.83C107.675 345.961 107.681 345.998 107.712 346.078C108.121 347.145 108.611 348.174 109.076 349.216C109.875 350.827 110.409 352.557 110.658 354.338C110.695 354.747 110.707 355.156 110.726 355.578V356.006C110.738 356.448 110.775 356.889 110.837 357.327C110.949 358.033 111.16 358.709 111.327 359.404C111.426 359.813 111.501 360.235 111.575 360.644C111.65 361.053 111.718 361.593 111.78 362.064C112.247 365.569 112.592 369.083 112.815 372.605C112.871 373.455 112.921 374.31 112.964 375.16C113.256 381.36 113.181 387.561 113.107 393.799C113.066 395.834 112.858 397.862 112.487 399.863C111.451 405.735 109.312 411.44 107.898 417.269C107.749 417.889 107.613 418.509 107.483 419.129C107.168 420.443 106.961 421.781 106.863 423.128C106.853 424.925 107.015 426.719 107.346 428.486C107.652 430.631 107.888 432.787 108.053 434.953C106.91 436.971 106.165 439.19 105.858 441.488C105.108 448.39 99.2606 453.567 98.467 460.469C98.4142 460.907 98.3955 461.348 98.4111 461.79C98.3926 462.074 98.3926 462.36 98.4111 462.645C98.3284 463.378 98.3916 464.12 98.5972 464.828C98.8911 465.57 99.3841 466.217 100.022 466.697C100.66 467.178 101.418 467.473 102.212 467.55C103.731 467.742 105.251 467.358 106.763 467.104C107.446 466.986 108.128 466.911 108.81 466.843C108.828 467.078 108.828 467.315 108.81 467.55C108.489 468.126 108.215 468.728 107.991 469.348C107.609 470.075 107.371 470.869 107.291 471.686C107.264 472.651 107.506 473.604 107.991 474.439C109.517 477.223 112.561 478.531 115.475 478.779C118.39 479.027 121.285 478.389 124.2 478.234H124.696C124.796 478.508 124.919 478.773 125.062 479.027C126.581 481.812 129.632 483.12 132.54 483.368C135.448 483.616 138.356 482.983 141.27 482.828C142.138 482.785 143.013 482.785 143.881 482.723C145.662 482.588 147.425 482.266 149.139 481.762C150.373 483.516 151.788 485.135 153.362 486.592C158.471 490.933 165.534 490.685 171.92 489.835C178.307 488.986 185.506 487.411 191.328 490.455C195.793 489.965 198.453 497.053 202.936 497.233C204.995 497.313 206.843 495.869 208.331 494.281C208.842 493.615 209.5 493.076 210.253 492.706C210.876 492.521 211.536 492.5 212.169 492.644C215.643 493.273 218.764 495.158 220.937 497.939C222.065 499.353 223.219 501.133 224.911 501.17C226.431 501.17 227.776 499.738 229.283 499.93C230.306 500.066 231.143 500.941 232.03 501.48C234.808 503.123 238.23 501.604 240.897 499.793C243.563 497.983 246.415 495.794 249.54 496.123C251.568 496.334 253.373 497.598 255.264 498.423C261.092 500.965 268.242 499.043 272.421 493.859C273.085 493.029 273.767 492.067 274.746 491.85C275.401 491.77 276.065 491.868 276.669 492.136C280.172 493.301 283.855 494.374 287.439 493.58C291.023 492.787 294.433 489.544 294.508 485.464C294.513 485.215 294.503 484.967 294.477 484.72C294.477 484.565 294.508 484.403 294.508 484.242C294.542 484.099 294.567 483.954 294.582 483.808ZM153.827 250.836C153.578 251.489 153.148 252.057 152.587 252.473C152.537 252.206 152.487 251.94 152.432 251.667C152.208 250.513 151.954 249.366 151.681 248.225C152.508 248.756 153.392 249.193 154.317 249.528C154.137 249.962 153.988 250.427 153.808 250.836H153.827ZM144.736 222.846C144.736 222.889 144.736 222.933 144.736 222.976C144.736 225.159 145.493 226.405 146.597 227.118C145.366 229.507 144.727 232.157 144.736 234.844C144.315 234.516 143.862 234.224 143.496 233.858C142.817 233.16 142.265 232.347 141.866 231.459C142.043 231.489 142.226 231.461 142.386 231.378C142.703 231.161 142.69 230.653 142.647 230.243C142.228 226.35 142.753 222.413 144.178 218.766C144.903 218.511 145.603 218.189 146.268 217.805C145.346 219.301 144.823 221.009 144.749 222.765C144.749 222.765 144.718 222.815 144.718 222.846H144.736ZM175.083 253.967C174.761 255.17 174.584 256.406 174.556 257.65C173.432 255.927 171.774 254.621 169.837 253.93C169.609 253.862 169.377 253.806 169.142 253.763C169.287 253.619 169.443 253.486 169.607 253.366C171.387 252.126 173.39 252.994 175.436 254.079C175.315 254.034 175.19 253.996 175.064 253.967H175.083Z" fill="url(#paint0_linear_34_597)"/>
<path d="M101.412 478.978C101.387 479.972 101.666 480.95 102.212 481.781C103.942 484.614 107.414 485.941 110.719 486.189C114.024 486.437 117.336 485.792 120.641 485.637C121.633 485.594 122.625 485.588 123.611 485.532C128.745 485.222 133.65 483.405 138.492 481.607C139.286 481.316 140.21 480.844 140.253 480.007C140.233 479.718 140.149 479.437 140.008 479.184C139.866 478.931 139.671 478.712 139.435 478.544C138.802 477.99 138.089 477.534 137.32 477.192C134.629 476.008 131.405 476.318 128.85 474.861C128.286 474.538 127.771 474.141 127.182 473.875C126.493 473.598 125.765 473.43 125.024 473.379C121.827 473.015 118.593 473.122 115.426 473.695C113.014 474.135 110.639 474.848 108.19 475.022C107.262 475.102 106.327 475.041 105.418 474.842C104.798 474.699 104.01 474.141 103.421 474.513C102.832 474.885 102.504 476.07 102.224 476.597C101.79 477.325 101.513 478.136 101.412 478.978V478.978Z" fill="#3F3D56"/>
<path opacity="0.05" d="M101.412 478.978C101.387 479.972 101.666 480.95 102.212 481.781C103.942 484.614 107.414 485.941 110.719 486.189C114.024 486.437 117.336 485.792 120.641 485.637C121.633 485.594 122.625 485.588 123.611 485.532C128.745 485.222 133.65 483.405 138.492 481.607C139.286 481.316 140.21 480.844 140.253 480.007C140.233 479.718 140.149 479.437 140.008 479.184C139.866 478.931 139.671 478.712 139.435 478.544C138.802 477.99 138.089 477.534 137.32 477.192C134.629 476.008 131.405 476.318 128.85 474.861C128.286 474.538 127.771 474.141 127.182 473.875C126.493 473.598 125.765 473.43 125.024 473.379C121.827 473.015 118.593 473.122 115.426 473.695C113.014 474.135 110.639 474.848 108.19 475.022C107.262 475.102 106.327 475.041 105.418 474.842C104.798 474.699 104.01 474.141 103.421 474.513C102.832 474.885 102.504 476.07 102.224 476.597C101.79 477.325 101.513 478.136 101.412 478.978V478.978Z" fill="black"/>
<path d="M120.833 483.628C120.805 484.623 121.084 485.601 121.633 486.431C123.363 489.265 126.829 490.592 130.14 490.84C133.451 491.088 136.756 490.443 140.061 490.288C141.053 490.245 142.039 490.238 143.031 490.182C148.165 489.872 153.07 488.056 157.913 486.257C158.707 485.96 159.63 485.495 159.674 484.651C159.654 484.363 159.57 484.083 159.428 483.831C159.287 483.579 159.091 483.362 158.855 483.194C158.224 482.638 157.511 482.183 156.741 481.843C154.05 480.658 150.825 480.962 148.271 479.505C147.706 479.189 147.192 478.786 146.603 478.525C145.913 478.249 145.186 478.08 144.445 478.023C141.247 477.662 138.013 477.77 134.846 478.345C132.434 478.786 130.059 479.499 127.61 479.666C126.683 479.751 125.748 479.693 124.838 479.493C124.218 479.35 123.431 478.792 122.842 479.164C122.253 479.536 121.918 480.72 121.645 481.247C121.208 481.974 120.931 482.786 120.833 483.628V483.628Z" fill="#3F3D56"/>
<path d="M110.689 251.512C110.463 250.887 110.052 250.346 109.51 249.962C108.214 249.242 106.683 250.582 106.119 251.927C105.554 253.273 105.368 254.922 104.258 255.896C103.583 256.516 102.652 256.739 101.958 257.322C100.408 258.63 100.563 261.042 100.929 263.027C102.299 270.467 104.699 277.697 105.654 285.194C106.032 288.139 106.187 291.128 106.894 293.999C107.328 295.698 108.016 297.422 109.374 298.525C110.732 299.629 112.902 299.896 114.18 298.693C111.87 292.432 110.716 285.803 110.775 279.13C110.813 274.789 111.395 270.449 111.513 266.059C111.643 262.227 111.451 258.388 111.259 254.556C111.277 253.572 111.091 252.595 110.713 251.685C110.513 251.236 110.184 250.857 109.768 250.595C109.352 250.334 108.867 250.202 108.376 250.216" fill="#FBBEBE"/>
<path d="M138.53 222.325C147.149 222.325 154.137 215.338 154.137 206.718C154.137 198.098 147.149 191.111 138.53 191.111C129.91 191.111 122.922 198.098 122.922 206.718C122.922 215.338 129.91 222.325 138.53 222.325Z" fill="#CB8C8E"/>
<path d="M159.562 253.639C168.209 253.639 175.219 246.629 175.219 237.982C175.219 229.335 168.209 222.325 159.562 222.325C150.915 222.325 143.906 229.335 143.906 237.982C143.906 246.629 150.915 253.639 159.562 253.639Z" fill="#FBBEBE"/>
<path d="M166.005 253.143C166.141 254.383 166.625 255.828 167.809 256.144C168.359 256.209 168.912 256.24 169.465 256.237C169.906 256.318 170.32 256.504 170.675 256.778C171.03 257.052 171.314 257.406 171.505 257.812C171.879 258.632 172.027 259.538 171.933 260.435C171.831 261.798 171.392 263.115 170.655 264.267C169.26 266.265 167.24 267.744 164.914 268.471C162.604 269.183 160.219 269.622 157.808 269.779C156.738 269.951 155.646 269.918 154.589 269.68C153.925 269.463 153.297 269.145 152.729 268.737C150.964 267.554 149.418 266.072 148.159 264.36C147.234 263.168 146.565 261.798 146.194 260.335C145.837 258.867 146.043 257.319 146.77 255.995C146.994 255.556 147.362 255.208 147.812 255.009C149.139 254.532 150.342 256.175 151.749 256.212C152.866 256.212 153.746 255.257 154.23 254.253C154.713 253.248 154.968 252.113 155.687 251.264C156.524 250.266 157.839 249.825 159.097 249.49C161.168 248.945 163.884 248.12 166.042 248.349C167.226 248.467 166.451 249.174 166.178 250.03C165.904 251.044 165.845 252.104 166.005 253.143V253.143Z" fill="#FBBEBE"/>
<path d="M151.247 269.481C153.151 268.626 154.205 266.561 155.904 265.339C157.33 264.316 159.11 263.95 160.74 263.299C162.395 262.639 163.91 261.671 165.205 260.447C166.383 259.337 167.431 257.967 168.925 257.421C170.067 257.058 171.293 257.058 172.435 257.421C175.653 258.314 178.127 260.993 179.566 264C181.004 267.007 181.556 270.356 182.096 273.648L182.902 278.609C183.5 281.639 183.789 284.722 183.764 287.811C183.633 290.911 182.827 294.011 180.949 296.492C180.221 297.566 179.62 298.721 179.157 299.933C178.879 300.484 178.7 301.081 178.629 301.694C178.634 302.22 178.682 302.745 178.772 303.263C179.032 305.929 177.532 308.416 176.949 311.032C176.647 312.786 176.555 314.57 176.676 316.346C176.661 316.578 176.708 316.809 176.813 317.016C176.946 317.202 177.128 317.348 177.34 317.438C177.749 317.655 178.171 317.859 178.58 318.058C175.158 318.818 171.661 319.188 168.156 319.161C162.012 319.019 156.016 317.301 149.908 316.588C149.678 313.785 150.447 311.082 150.621 308.279C150.656 306.45 150.542 304.621 150.28 302.81C149.769 297.86 149.817 292.868 150.423 287.928C150.633 286.192 150.919 284.462 150.999 282.714C151.092 280.643 150.906 278.565 151.055 276.513C151.198 274.547 151.675 272.6 151.725 270.629C151.783 270.411 151.768 270.181 151.682 269.974C151.595 269.766 151.442 269.593 151.247 269.481V269.481Z" fill="#F4F6FB"/>
<path d="M158.167 313.543C164.591 313.581 170.252 313.767 176.658 314.207C177.786 316.067 175.083 321.084 176.614 322.621C185.394 331.42 187.348 343.245 197.542 350.369C199.656 351.845 205.602 353.042 207.463 354.865C208.92 356.31 206.694 355.28 207.773 357.035C213.973 367.155 227.956 377.144 236.06 385.844C242.931 393.216 246.601 403.05 250.657 412.283C253.087 417.808 254.377 423.767 256.237 429.515C258.097 435.263 260.658 440.986 265.073 445.103C268.434 448.241 272.88 450.486 274.87 454.622C275.431 455.958 275.917 457.324 276.327 458.714C277.5 461.909 279.451 464.762 282.004 467.012C284.558 469.263 287.632 470.842 290.949 471.605C292.753 472.002 291.928 475.009 292.114 476.851C292.369 479.368 294.644 481.154 296.864 482.363C300.241 484.198 303.91 485.434 307.709 486.016C310.041 486.369 312.794 486.716 313.91 488.781C314.28 489.505 314.453 490.313 314.412 491.125C314.331 495.279 310.444 498.566 306.351 499.384C302.259 500.203 298.08 499.099 294.099 497.915C293.403 497.642 292.652 497.542 291.91 497.623C290.794 497.84 290.05 498.82 289.262 499.67C286.832 502.284 283.681 504.12 280.209 504.947C276.736 505.773 273.096 505.553 269.749 504.314C267.591 503.471 265.544 502.187 263.238 501.97C259.679 501.635 256.46 503.867 253.397 505.69C250.334 507.513 246.465 509.076 243.309 507.402C242.267 506.856 241.349 505.969 240.208 505.827C238.491 505.628 236.959 507.117 235.248 507.067C233.326 507.03 232.005 505.207 230.721 503.781C228.111 500.903 224.582 499.02 220.738 498.454C220.018 498.304 219.272 498.325 218.562 498.516C217.722 498.879 216.974 499.426 216.373 500.116C214.68 501.734 212.578 503.216 210.241 503.117C205.137 502.937 202.105 495.726 197.027 496.222C190.405 493.122 182.207 494.721 174.946 495.602C167.685 496.482 159.643 496.737 153.827 492.303C150.764 489.959 148.686 486.555 145.828 483.957C141.314 479.852 135.225 478.06 129.353 476.386C120.052 473.732 110.391 471.053 100.829 472.498C99.1056 472.759 97.3756 473.118 95.6456 472.951C93.9156 472.783 92.1422 471.81 91.5346 470.185C91.2692 469.352 91.2096 468.467 91.361 467.606C92.2601 460.587 98.9134 455.316 99.7629 448.291C100.191 444.806 102.063 441.755 104.06 438.872C105.759 436.294 107.31 433.621 108.704 430.867C112.009 424.666 115.327 418.465 117.819 411.917C120.442 405.028 122.123 397.823 123.797 390.643C125.409 383.717 126.178 376.623 127.337 369.604C128.181 364.501 129.501 359.491 130.822 354.487C134.729 339.704 138.66 324.835 145.084 310.97C149.263 312.148 153.87 313.519 158.167 313.543Z" fill="#E3E8F4"/>
<path d="M158.167 315.404C164.591 315.441 170.252 315.007 176.658 315.447C177.786 317.307 180.173 319.453 181.705 320.984C190.485 329.796 197.008 340.957 207.196 348.075C209.31 349.557 211.58 350.859 213.397 352.676C214.816 354.176 216.051 355.842 217.074 357.637C223.274 367.762 227.931 379.029 236.035 387.729C242.906 395.101 246.577 404.935 250.632 414.168C253.062 419.693 254.352 425.652 256.212 431.4C258.073 437.148 260.634 442.871 265.048 446.989C268.409 450.126 272.855 452.371 274.845 456.507C275.406 457.843 275.892 459.209 276.303 460.599C277.475 463.794 279.427 466.647 281.98 468.898C284.533 471.148 287.607 472.727 290.924 473.49C292.728 473.887 291.904 476.894 292.09 478.736C292.344 481.254 294.62 483.039 296.839 484.248C300.216 486.083 303.886 487.319 307.684 487.901C310.016 488.254 312.769 488.601 313.885 490.666C314.255 491.39 314.428 492.198 314.387 493.01C314.307 497.164 310.419 500.451 306.326 501.269C302.234 502.088 298.055 500.984 294.074 499.8C293.379 499.527 292.627 499.427 291.885 499.508C290.769 499.725 290.025 500.705 289.237 501.555C286.807 504.169 283.657 506.005 280.184 506.832C276.711 507.658 273.071 507.438 269.724 506.199C267.566 505.356 265.52 504.072 263.213 503.855C259.654 503.52 256.436 505.752 253.373 507.575C250.309 509.398 246.44 510.961 243.284 509.287C242.242 508.741 241.325 507.854 240.184 507.712C238.466 507.513 236.935 509.002 235.223 508.952C233.301 508.915 231.98 507.092 230.697 505.666C228.096 502.784 224.577 500.893 220.738 500.314C220.018 500.164 219.272 500.185 218.562 500.376C217.722 500.74 216.974 501.286 216.373 501.976C214.68 503.595 212.578 505.077 210.241 504.977C205.137 504.798 202.105 497.586 197.027 498.082C190.405 494.982 182.207 496.582 174.946 497.462C167.685 498.343 159.643 498.597 153.827 494.163C150.764 491.82 148.686 488.415 145.828 485.817C141.314 481.712 135.225 479.92 129.353 478.246C120.052 475.592 110.391 472.914 100.829 474.358C99.1056 474.619 97.3756 474.978 95.6456 474.811C93.9156 474.644 92.1422 473.67 91.5346 472.045C91.2692 471.212 91.2096 470.327 91.361 469.466C92.2601 462.447 98.9134 457.176 99.7629 450.151C100.191 446.666 102.063 443.615 104.06 440.732C105.759 438.154 107.31 435.481 108.704 432.727C112.009 426.526 115.327 420.326 117.819 413.778C120.442 406.889 122.123 399.683 123.797 392.503C125.409 385.577 126.178 378.483 127.337 371.464C128.181 366.361 129.501 361.351 130.822 356.347C134.729 341.564 138.66 326.695 145.084 312.83C149.263 314.009 153.87 315.379 158.167 315.404Z" fill="#E3E8F4"/>
<path d="M158.167 314.164C164.591 314.201 170.252 313.767 176.658 314.207C177.786 316.067 180.173 318.213 181.705 319.744C190.485 328.555 197.008 339.717 207.196 346.835C209.31 348.317 211.58 349.619 213.397 351.436C214.816 352.936 216.051 354.602 217.074 356.397C223.274 366.522 227.931 377.789 236.035 386.488C242.906 393.861 246.577 403.695 250.632 412.928C253.062 418.453 254.352 424.412 256.212 430.16C258.073 435.908 260.634 441.631 265.048 445.748C268.409 448.886 272.855 451.131 274.845 455.266C275.406 456.603 275.892 457.969 276.303 459.359C277.475 462.554 279.427 465.406 281.98 467.657C284.533 469.908 287.607 471.487 290.924 472.25C292.728 472.647 291.904 475.654 292.09 477.496C292.344 480.013 294.62 481.799 296.839 483.008C300.216 484.843 303.886 486.078 307.684 486.661C310.016 487.014 312.769 487.361 313.885 489.426C314.255 490.15 314.428 490.958 314.387 491.77C314.307 495.924 310.419 499.211 306.326 500.029C302.234 500.848 298.055 499.744 294.074 498.56C293.379 498.287 292.627 498.187 291.885 498.268C290.769 498.485 290.025 499.465 289.237 500.314C286.807 502.929 283.657 504.765 280.184 505.592C276.711 506.418 273.071 506.198 269.724 504.959C267.566 504.115 265.52 502.832 263.213 502.615C259.654 502.28 256.436 504.512 253.373 506.335C250.309 508.158 246.44 509.721 243.284 508.047C242.242 507.501 241.325 506.614 240.184 506.472C238.466 506.273 236.935 507.761 235.223 507.712C233.301 507.675 231.98 505.852 230.697 504.426C228.096 501.544 224.577 499.652 220.738 499.074C220.018 498.924 219.272 498.945 218.562 499.136C217.722 499.499 216.974 500.046 216.373 500.736C214.68 502.354 212.578 503.836 210.241 503.737C205.137 503.557 202.105 496.346 197.027 496.842C190.405 493.742 182.207 495.342 174.946 496.222C167.685 497.103 159.643 497.357 153.827 492.923C150.764 490.579 148.686 487.175 145.828 484.577C141.314 480.472 135.225 478.68 129.353 477.006C120.052 474.352 110.391 471.673 100.829 473.118C99.1056 473.379 97.3756 473.738 95.6456 473.571C93.9156 473.403 92.1422 472.43 91.5346 470.805C91.2692 469.972 91.2096 469.087 91.361 468.226C92.2601 461.207 98.9134 455.936 99.7629 448.911C100.191 445.426 102.063 442.375 104.06 439.492C105.759 436.914 107.31 434.241 108.704 431.487C112.009 425.286 115.327 419.085 117.819 412.538C120.442 405.649 122.123 398.443 123.797 391.263C125.409 384.337 126.178 377.243 127.337 370.224C128.181 365.121 129.501 360.111 130.822 355.107C134.729 340.324 138.66 325.455 145.084 311.59C149.263 312.768 153.87 314.139 158.167 314.164Z" fill="#F4F6FB"/>
<path d="M102.243 342.619C100.197 344.857 100.662 348.416 101.859 351.2C103.055 353.984 104.872 356.595 105.207 359.608C105.319 360.613 105.257 361.63 105.43 362.628C105.56 363.347 105.802 364.036 105.988 364.743C106.214 365.637 106.388 366.544 106.509 367.458C107.166 371.873 107.613 376.325 107.849 380.79C108.19 387.102 108.103 393.433 108.016 399.758C107.892 408.606 103.675 416.89 101.623 425.497C101.262 426.828 101.025 428.19 100.916 429.565C100.907 431.395 101.088 433.222 101.456 435.015C103.268 446.303 102.899 457.833 100.37 468.982C102.231 470.446 103.527 472.901 103.08 475.22C107.08 475.921 111.265 476.609 115.116 475.338C117.441 474.575 119.531 473.124 121.936 472.672C123.797 472.331 125.948 472.504 127.263 471.153C127.797 470.521 128.187 469.78 128.404 468.982C132.943 455.775 131.672 441.395 131.417 427.438C131.281 419.935 131.417 412.426 131.132 404.929C130.572 391.563 128.475 378.305 124.882 365.418C123.146 359.218 121.471 353.017 118.061 347.517C117.374 346.245 116.402 345.15 115.221 344.318C113.925 343.524 112.356 343.332 110.843 343.158C107.681 342.817 105.405 342.978 102.243 342.619Z" fill="#3F3D56"/>
<path opacity="0.05" d="M128.404 468.989C128.185 469.784 127.796 470.523 127.263 471.153C125.948 472.511 123.79 472.331 121.936 472.678C121.701 472.721 121.465 472.777 121.236 472.839C119.121 473.403 117.212 474.65 115.122 475.319C111.265 476.56 107.061 475.902 103.08 475.202C103.527 472.883 102.231 470.421 100.37 468.958C102.901 457.811 103.272 446.283 101.462 434.996C101.089 433.204 100.906 431.377 100.916 429.546C101.028 428.171 101.264 426.81 101.623 425.478C103.663 416.866 107.892 408.581 108.016 399.733C108.103 393.408 108.19 387.078 107.855 380.765C107.611 376.301 107.162 371.857 106.509 367.434C106.387 366.52 106.216 365.613 105.995 364.718C105.802 364.017 105.56 363.323 105.436 362.603C105.257 361.611 105.319 360.588 105.207 359.584C104.872 356.57 103.062 353.966 101.859 351.182C101.356 350.034 101.03 348.818 100.891 347.573C100.749 346.697 100.796 345.802 101.029 344.946C101.262 344.09 101.676 343.294 102.243 342.612C104.37 342.848 106.088 342.842 107.948 342.922C108.859 342.96 109.808 343.022 110.843 343.139C112.356 343.307 113.944 343.499 115.227 344.299C116.407 345.131 117.378 346.226 118.061 347.499C118.396 348.038 118.712 348.584 119.016 349.136C121.8 354.201 123.319 359.782 124.882 365.394C128.474 378.281 130.571 391.538 131.132 404.904C131.448 412.401 131.281 419.91 131.417 427.419C131.678 441.408 132.943 455.775 128.404 468.989Z" fill="black"/>
<path d="M151.266 347.48C151.266 348.565 151.266 349.656 151.266 350.741C151.237 361.217 151.21 371.689 151.185 382.16C151.185 386.47 151.185 390.792 150.739 395.076C149.641 406.238 145.561 417.045 145.995 428.219C146.305 436.336 146.615 444.545 144.985 452.507C144.364 455.558 143.459 458.559 143.013 461.641C142.566 464.723 142.616 467.972 143.837 470.843C144.718 472.895 146.2 474.836 146.119 477.043C146.028 477.992 145.715 478.906 145.206 479.712C144.696 480.518 144.004 481.192 143.186 481.681C141.538 482.64 139.71 483.25 137.817 483.473C135.454 483.865 133.062 484.049 130.667 484.025C127.238 483.988 123.332 483.238 121.558 480.305C120.368 478.333 120.461 475.828 121.031 473.59C121.099 473.329 121.168 473.075 121.242 472.821C121.825 470.867 122.656 468.989 123.102 467.004C123.819 463.873 123.588 460.598 122.439 457.598C122.228 457.04 121.565 455.986 120.969 456.054C120.021 453.605 119.878 450.926 119.729 448.297L118.855 430.501C118.669 426.625 118.483 422.7 119.276 418.906C119.897 415.805 121.217 412.854 121.589 409.71C121.756 407.822 121.745 405.922 121.558 404.036C120.863 394.313 119.605 384.638 117.788 375.061C117.728 374.573 117.566 374.104 117.311 373.684C116.902 373.114 116.189 372.847 115.686 372.351C114.632 371.322 114.731 369.641 114.483 368.184C114.037 365.555 112.294 363.372 110.949 361.078C108.807 357.381 107.609 353.213 107.458 348.943C107.382 346.924 107.546 344.903 107.948 342.922C107.997 342.656 108.059 342.389 108.121 342.123C121.636 341.26 135.205 342.093 148.513 344.603C149.486 344.783 150.578 345.062 151.03 345.942C151.228 346.429 151.309 346.956 151.266 347.48V347.48Z" fill="#3F3D56"/>
<path d="M227.398 396.286C234.07 408.03 240.767 419.799 246.074 432.219C250.384 442.295 253.918 453.028 261.148 461.263C267.919 468.97 277.27 473.782 286.453 478.414L278.231 471.171C269.978 463.885 261.551 456.395 256.312 446.716C253.459 441.445 251.649 435.685 249.491 430.073C243.992 415.64 236.333 402.126 226.778 389.992C224.121 386.505 221.264 383.176 218.221 380.021C220.323 385.602 224.434 391.077 227.398 396.286Z" fill="#E3E8F4"/>
<path d="M193.362 476.752C195.371 480.882 197.418 485.073 200.481 488.496C200.741 486.45 199.34 484.614 198.23 482.878C196.221 479.722 194.999 476.169 193.778 472.653C192.649 469.398 191.601 464.909 189.202 462.335C187.974 466.75 191.502 472.957 193.362 476.752Z" fill="#E3E8F4"/>
<path d="M170.104 399.404C170.686 402.505 171.027 405.605 171.809 408.637C172.576 411.361 173.519 414.033 174.63 416.636L187.701 449.215C187.59 444.787 185.221 440.782 183.714 436.627C181.854 431.524 181.184 426.086 179.665 420.84C178.425 416.587 176.627 412.525 175.325 408.29C173.514 402.319 172.751 396.081 171.331 390.004C170.049 384.745 168.448 379.568 166.538 374.502C165.67 372.109 164.678 369.623 162.762 367.967C160.846 366.311 157.634 365.84 155.823 367.632C153.275 370.156 157.138 371.737 158.409 373.38C164.287 381.028 168.288 389.948 170.091 399.423L170.104 399.404Z" fill="#E3E8F4"/>
<path d="M187.645 332.102C188.339 332.802 188.943 333.585 189.443 334.434C190.144 335.723 190.423 337.23 191.304 338.427C189.753 336.25 187.983 334.239 186.021 332.425C184.83 331.402 183.54 330.521 182.344 329.498C181.432 328.717 177.439 325.331 178.233 324.178C181.73 325.957 184.985 329.231 187.645 332.102Z" fill="#E3E8F4"/>
<path d="M146.15 215.604C146.008 216.887 145.22 217.997 144.544 219.101C142.573 222.376 141.474 226.101 141.351 229.921C141.314 231.041 141.364 232.163 141.5 233.276C141.549 233.691 141.562 234.212 141.202 234.429C141.009 234.519 140.792 234.547 140.582 234.51C140.16 234.472 139.751 234.423 139.342 234.355C132.713 233.294 126.909 228.774 120.238 227.633C120.649 227.438 121.014 227.158 121.309 226.81C121.603 226.463 121.819 226.056 121.943 225.618C122.122 225.118 122.257 224.603 122.346 224.08C122.445 223.528 122.519 222.976 122.575 222.437C122.997 218.444 122.389 214.773 122.166 210.717C121.912 205.993 127.747 207.549 131.169 207.487C133.916 207.437 136.713 207.394 139.367 208.138C142.021 208.882 144.544 210.525 145.685 213.03C146.068 213.831 146.228 214.72 146.15 215.604Z" fill="#CB8C8E"/>
<path d="M141.202 234.429C141.009 234.519 140.792 234.547 140.582 234.51C140.16 234.472 139.751 234.423 139.342 234.355C138.771 233.821 138.22 233.263 137.692 232.68C136.452 231.304 135.336 229.791 133.898 228.619C131.676 226.893 128.96 225.924 126.147 225.853C124.741 225.891 123.335 225.812 121.943 225.618C122.122 225.118 122.257 224.603 122.346 224.08C122.445 223.528 122.519 222.976 122.575 222.437C123.353 222.337 124.135 222.281 124.919 222.269C125.839 222.136 126.772 222.118 127.697 222.214C129.229 222.443 130.58 223.299 131.957 224.012C133.86 224.998 135.9 225.742 137.668 226.963C138.213 227.348 138.734 227.769 139.255 228.203C139.962 228.78 140.663 229.363 141.369 229.933C141.332 231.054 141.382 232.175 141.518 233.288C141.549 233.685 141.562 234.212 141.202 234.429Z" fill="#E3E8F4"/>
<path opacity="0.1" d="M151.266 347.48C151.266 348.565 151.266 349.656 151.266 350.742C148.686 350.816 146.051 351.194 143.484 351.362C141.072 351.535 138.654 351.541 136.235 351.51C134.343 351.557 132.454 351.349 130.618 350.89C129.297 350.506 128.057 349.873 126.742 349.477C124.262 348.714 121.645 348.807 119.022 349.117C116.889 349.365 114.738 349.737 112.611 349.929C111.233 350.122 109.828 349.977 108.518 349.508C108.152 349.341 107.8 349.147 107.464 348.925C106.94 348.573 106.393 348.256 105.827 347.976C104.302 347.294 102.603 347.406 100.898 347.567C100.755 346.691 100.802 345.796 101.035 344.94C101.268 344.084 101.682 343.288 102.249 342.606C104.376 342.842 106.094 342.836 107.954 342.916C108.004 342.65 108.066 342.383 108.128 342.116C121.642 341.253 135.212 342.087 148.519 344.597C149.492 344.776 150.584 345.055 151.036 345.936C151.233 346.425 151.312 346.954 151.266 347.48V347.48Z" fill="black"/>
<path d="M123.127 224.644C121.782 224.805 120.343 225.147 119.475 226.182C119.223 226.46 119.061 226.808 119.01 227.18C119.061 227.761 119.174 228.334 119.345 228.892C119.358 229.642 119.161 230.381 118.774 231.025C117.875 232.885 116.914 234.782 115.401 236.178C114.781 236.754 114.074 237.232 113.448 237.796C112.736 238.471 112.082 239.205 111.495 239.991C110.186 241.628 108.841 243.346 108.363 245.386C107.526 248.926 105.784 252.268 104.643 255.728C103.502 259.188 102.783 262.871 103.403 266.455C103.694 268.154 104.283 269.785 104.693 271.459C105.35 274.144 105.536 276.922 106.23 279.595C106.671 281.263 107.303 282.875 107.78 284.555C108.822 288.156 109.103 291.933 108.605 295.648C108.14 299.04 108.921 302.649 107.551 305.78C106.988 306.935 106.367 308.061 105.691 309.153C104.816 310.76 104.035 312.416 103.353 314.114L99.5273 323.142C98.7677 324.842 98.0992 326.58 97.5245 328.351C95.9309 333.535 95.9247 339.059 96.148 344.473C96.1746 344.641 96.137 344.814 96.0425 344.956C95.9247 345.08 95.6581 345.043 95.6519 344.876C95.6023 345.186 95.4039 345.725 95.3605 346.035C98.6158 347.449 102.621 345.31 105.864 346.754C106.807 347.176 107.607 347.877 108.556 348.286C109.864 348.76 111.269 348.907 112.648 348.714C117.379 348.323 122.234 346.854 126.773 348.255C128.094 348.658 129.328 349.29 130.649 349.675C132.487 350.133 134.379 350.342 136.273 350.295C138.691 350.332 141.109 350.326 143.521 350.146C148.711 349.768 154.162 348.633 158.942 350.692C160.486 349.557 160.604 347.796 160.666 345.886C160.782 342.29 160.898 338.696 161.013 335.103L162.297 295.45C162.478 292.718 162.376 289.976 161.993 287.265C161.119 282.354 158.434 277.964 155.792 273.754L143.459 253.911C142.641 252.597 143.459 251.127 144.023 249.683C144.811 247.609 145.344 245.448 145.611 243.246C145.809 241.628 145.797 239.805 144.699 238.602C144.079 237.926 143.205 237.548 142.498 236.965C141.469 236.122 140.849 234.925 140.229 233.796C138.508 230.693 136.01 228.09 132.98 226.244C129.935 224.477 126.624 224.229 123.127 224.644Z" fill="#3F3D56"/>
<path opacity="0.1" d="M135.851 242.639C131.467 243.848 128.751 248.3 127.548 252.684C125.862 258.816 126.271 265.37 127.759 271.546C129.247 277.722 131.789 283.594 134.363 289.404C134.965 290.825 135.644 292.211 136.397 293.559C138.482 297.206 141.668 300.099 145.499 301.824C149.354 303.526 153.706 303.718 157.696 302.364C158.43 302.129 159.12 301.777 159.742 301.322C161.937 299.635 162.278 296.51 162.439 293.745L162.991 284.053C163.047 283.542 163.022 283.025 162.917 282.521C162.668 281.834 162.287 281.202 161.795 280.661C159.979 278.311 158.631 275.633 157.826 272.774C157.262 270.771 156.964 268.682 156.096 266.79C155.575 265.649 154.856 264.608 154.292 263.485C153.052 261.067 152.611 258.357 152.028 255.716C151.52 253.409 150.912 251.125 150.205 248.864C149.879 247.612 149.345 246.423 148.624 245.348C146.919 243.042 143.893 242.211 141.09 241.628C139.766 241.238 138.367 241.17 137.01 241.43C135.485 241.845 134.301 243.023 133.197 244.152" fill="black"/>
<path d="M136.471 242.019C132.087 243.228 129.371 247.68 128.168 252.064C126.482 258.196 126.891 264.75 128.379 270.926C129.867 277.102 132.409 282.974 134.983 288.784C135.585 290.205 136.264 291.591 137.017 292.939C139.102 296.586 142.288 299.479 146.119 301.204C149.974 302.906 154.326 303.098 158.316 301.744C159.05 301.509 159.74 301.157 160.362 300.702C162.557 299.015 162.898 295.89 163.059 293.125L163.611 283.433C163.667 282.922 163.642 282.405 163.537 281.901C163.288 281.214 162.907 280.582 162.415 280.041C160.599 277.691 159.251 275.013 158.446 272.154C157.882 270.151 157.584 268.062 156.716 266.17C156.195 265.029 155.476 263.988 154.912 262.865C153.672 260.447 153.231 257.737 152.648 255.096C152.14 252.789 151.532 250.505 150.825 248.244C150.499 246.992 149.965 245.803 149.244 244.728C147.539 242.422 144.513 241.591 141.71 241.008C140.386 240.618 138.987 240.55 137.63 240.809C136.105 241.225 134.921 242.403 133.817 243.532" fill="#3F3D56"/>
<path d="M179.243 267.9C177.678 264.628 177.386 260.89 178.425 257.415C180.855 258.035 181.525 261.619 184.005 262.258C184.371 262.351 184.762 262.369 185.134 262.45C186.87 262.803 188.098 264.31 188.997 265.86C190.441 268.243 191.323 270.923 191.576 273.698C191.821 276.484 191.169 279.276 189.716 281.666C189.778 281.573 185.376 277.059 185.004 276.594C184.231 275.688 183.474 274.764 182.734 273.822C181.956 272.949 181.257 272.009 180.645 271.013C180.434 270.616 180.39 270.157 180.204 269.736C179.913 269.109 179.547 268.514 179.243 267.9Z" fill="#CB8C8E"/>
<path d="M167.939 304.373C167.183 310.325 164.472 315.858 160.232 320.104C159.283 321.04 158.099 321.964 156.772 321.834C155.34 321.685 154.354 320.383 153.331 319.354C151.47 317.493 148.99 316.383 146.925 314.759C145.858 313.879 144.847 312.933 143.899 311.925C140.861 308.825 137.804 305.724 135.38 302.109C134.009 300.076 132.837 297.893 131.213 296.058C129.929 294.6 128.385 293.397 127.034 292.009C125.682 290.62 124.491 288.958 124.169 287.048C123.828 285.027 121.689 283.712 120.343 282.162C118.684 280.198 117.486 277.888 116.837 275.401C116.188 272.914 116.104 270.313 116.592 267.789C116.809 266.71 117.261 265.501 118.303 265.129C118.717 265.002 119.154 264.975 119.58 265.048C122.197 265.414 124.138 267.584 125.831 269.618C126.991 270.948 128.058 272.357 129.024 273.834C131.089 277.189 132.037 281.095 132.955 284.927C133.495 287.166 135.727 288.821 137.333 290.471L141.363 294.607C142.324 295.593 143.286 296.585 144.34 297.471C147.223 299.914 150.683 301.551 154.137 303.052C154.441 301.935 154.901 300.867 155.501 299.877C155.808 299.39 156.214 298.973 156.693 298.653C157.171 298.333 157.712 298.116 158.279 298.017C159.879 297.812 161.342 298.873 162.619 299.877L167.363 303.598C167.629 303.815 167.977 304.05 167.939 304.373Z" fill="#FBBEBE"/>
<path opacity="0.1" d="M175.486 267.367C176.068 267.991 176.528 268.719 176.844 269.512C177.898 271.689 178.374 274.1 178.226 276.513C178.062 277.812 177.775 279.093 177.371 280.339L175.895 285.417C173.601 293.292 171.3 301.186 168.2 308.781C165.651 305.476 161.193 304.478 157.572 302.413C157.215 302.236 156.896 301.99 156.636 301.688C156.316 301.221 156.153 300.665 156.171 300.1C156.209 298.575 156.542 297.072 157.15 295.673C159.407 289.615 162.539 283.7 162.905 277.251C162.919 276.051 162.995 274.853 163.134 273.661C163.396 272.24 163.957 270.892 164.781 269.706C165.604 268.519 166.67 267.521 167.908 266.778C169.992 265.426 173.638 265.556 175.486 267.367Z" fill="black"/>
<path d="M174.866 265.928C175.447 266.554 175.907 267.281 176.224 268.074C177.278 270.25 177.754 272.661 177.606 275.074C177.445 276.391 177.159 277.688 176.751 278.95L175.275 284.028C172.981 291.903 170.68 299.797 167.58 307.392C165.031 304.094 160.573 303.089 156.952 301.024C156.595 300.85 156.277 300.605 156.016 300.305C155.698 299.838 155.535 299.282 155.551 298.718C155.589 297.191 155.921 295.685 156.53 294.284C158.787 288.226 161.919 282.317 162.284 275.862C162.299 274.664 162.375 273.468 162.514 272.278C162.775 270.856 163.336 269.507 164.159 268.319C164.982 267.131 166.049 266.132 167.288 265.389C169.372 264.006 173.018 264.136 174.866 265.928Z" fill="#F4F6FB"/>
<path d="M160.499 232.972C161.739 234.293 162.086 236.202 162.291 238.007C162.824 242.67 162.836 247.481 161.385 251.946C159.934 256.41 156.859 260.497 152.549 262.351C158.552 263.324 165.682 263.932 169.75 259.405C170.544 258.525 171.189 257.465 172.199 256.826C176.509 254.11 181.978 261.272 186.653 259.238C189.753 257.899 189.977 253.707 189.753 250.359L188.904 237.957C188.47 231.626 187.918 224.936 184.291 219.752C181.017 215.058 175.653 212.237 170.203 210.451C166.284 209.211 161.919 208.398 158.105 209.967C153.238 211.964 143.844 219.938 143.899 225.835C144.005 234.596 156.406 228.644 160.499 232.972Z" fill="#3F3D56"/>
<path d="M164.194 281.381C164.891 281.408 165.587 281.318 166.253 281.114C167.307 280.723 168.113 279.744 169.248 279.582C169.818 279.502 170.55 279.582 170.798 279.043C170.872 278.792 170.899 278.529 170.879 278.268C170.965 276.761 172.857 276.24 174.134 275.434C174.94 274.869 175.653 274.183 176.248 273.4L180.651 268.198C181.055 267.603 181.643 267.157 182.325 266.927C183.104 266.84 183.885 267.063 184.502 267.547C187.064 269.25 189.116 271.617 190.44 274.395C191.763 277.173 192.308 280.258 192.017 283.321C192.006 283.744 191.896 284.159 191.694 284.53C191.006 285.609 189.388 285.349 188.166 285.733C185.828 286.465 185.115 289.497 183.113 290.905C182.213 291.525 181.104 291.791 180.229 292.436C179.355 293.081 178.685 294.21 177.892 295.084C176.651 296.485 174.884 297.347 173.185 298.184L167.995 300.714C166.974 301.246 165.91 301.689 164.814 302.041C162.922 302.484 160.975 302.649 159.035 302.531L155.234 302.481C154.806 302.52 154.375 302.434 153.994 302.233C153.77 302.066 153.583 301.855 153.442 301.613C151.489 298.68 151.092 294.892 151.787 291.438C152.363 288.573 153.721 284.617 155.761 282.441C157.535 280.568 161.739 281.43 164.194 281.381Z" fill="#3F3D56"/>
<path d="M149.015 201.038C148.902 200.449 148.98 199.839 149.238 199.297C149.496 198.755 149.919 198.309 150.447 198.025L155.16 194.484L154.193 193.077L156.009 191.52C155.86 191.313 155.654 191.154 155.417 191.062C155.179 190.969 154.92 190.948 154.67 190.999C154.955 189.083 153.318 187.465 151.762 186.324C148.593 184.005 144.941 182.077 141.06 181.816C139.156 181.692 137.246 181.965 135.343 181.816C132.775 181.655 130.283 180.787 127.709 180.688C125.136 180.588 122.247 181.599 121.168 183.912C120.709 184.916 120.647 186.051 120.3 187.099C119.525 189.418 117.478 191.024 115.736 192.742C113.994 194.459 112.375 196.76 112.859 199.153C113.049 199.925 113.348 200.666 113.746 201.354L123.357 219.913C123.678 219.311 124.139 218.795 124.701 218.407C125.263 218.02 125.91 217.773 126.587 217.687C128.168 217.501 129.688 218.208 131.287 218.406C132.474 218.536 133.674 218.378 134.786 217.947C135.899 217.515 136.892 216.822 137.68 215.926C139.801 213.483 140.315 207.245 143.999 206.625C145.301 206.402 147.384 208.045 148.519 207.394C149.852 206.662 149.04 202.415 149.015 201.038Z" fill="#3F3D56"/>
<g opacity="0.1">
<path opacity="0.1" d="M156.27 260.453C160.579 258.593 163.649 254.501 165.106 250.042C166.563 245.584 166.544 240.741 166.011 236.103C165.806 234.305 165.465 232.383 164.219 231.068C160.127 226.728 147.725 232.693 147.614 223.975C147.545 218.946 154.385 212.41 159.395 209.353C158.946 209.473 158.505 209.62 158.074 209.794C153.207 211.79 143.813 219.77 143.868 225.661C143.98 234.379 156.381 228.433 160.474 232.761C161.714 234.075 162.061 235.991 162.266 237.796C162.799 242.453 162.812 247.271 161.361 251.729C159.91 256.187 156.834 260.286 152.525 262.14C157.82 262.995 163.99 263.566 168.163 260.583C164.498 261.545 160.151 261.079 156.27 260.453Z" fill="black"/>
<path opacity="0.1" d="M175.92 254.922C175.47 255.221 175.067 255.585 174.723 256.001C178.524 256.249 182.846 260.676 186.653 259.021C187.319 258.729 187.899 258.272 188.34 257.694C184.173 257.533 179.622 252.591 175.92 254.922Z" fill="black"/>
</g>
<g opacity="0.1">
<path opacity="0.1" d="M154.224 188.6C154.131 188.463 154.031 188.327 153.932 188.197C153.931 188.34 153.92 188.483 153.901 188.624C154.007 188.604 154.116 188.595 154.224 188.6V188.6Z" fill="black"/>
<path opacity="0.1" d="M156.171 191.52C156.022 191.313 155.816 191.154 155.578 191.062C155.34 190.969 155.081 190.948 154.831 190.999C154.9 190.531 154.858 190.053 154.707 189.604L153.424 190.702L154.391 192.103L149.679 195.65C149.15 195.935 148.727 196.38 148.469 196.922C148.212 197.464 148.134 198.074 148.246 198.663C148.246 200.04 149.083 204.287 147.744 205.05C146.615 205.701 144.526 204.058 143.23 204.281C139.547 204.901 139.032 211.102 136.911 213.582C136.123 214.478 135.13 215.171 134.018 215.603C132.905 216.034 131.705 216.192 130.519 216.062C128.937 215.87 127.418 215.163 125.818 215.349C125.141 215.436 124.494 215.684 123.931 216.071C123.368 216.458 122.905 216.974 122.582 217.575C119.386 211.4 116.191 205.226 112.995 199.054V199.19C113.191 199.962 113.491 200.702 113.888 201.392L123.487 219.913C123.811 219.311 124.273 218.796 124.836 218.409C125.399 218.021 126.046 217.774 126.724 217.687C128.305 217.501 129.824 218.208 131.424 218.406C132.61 218.536 133.81 218.378 134.923 217.946C136.036 217.515 137.028 216.822 137.817 215.926C139.937 213.483 140.452 207.245 144.135 206.625C145.431 206.402 147.521 208.045 148.649 207.394C149.989 206.631 149.176 202.384 149.152 201.007C149.084 200.374 149.178 199.734 149.424 199.147C149.718 198.675 150.115 198.274 150.584 197.975L155.296 194.434L154.329 193.027L156.171 191.52Z" fill="black"/>
</g>
<path opacity="0.1" d="M101.822 326.143C101.201 328.791 100.811 331.495 99.9613 334.08C99.5893 335.246 99.1304 336.381 98.7646 337.546C98.4359 338.607 98.1879 339.679 97.9337 340.758L96.923 345.099C97.229 345.083 97.5272 344.997 97.7941 344.846C98.061 344.695 98.2892 344.485 98.4608 344.231C98.8002 343.72 99.0575 343.159 99.2234 342.569L100.916 337.534L102.156 333.814C103.917 328.574 105.685 323.322 107.024 317.952C107.359 316.625 107.644 315.298 107.935 313.959C108.047 313.444 108.859 310.573 108.028 310.815C107.439 310.983 106.441 313.599 106.168 314.17C105.548 315.311 105.04 316.476 104.537 317.661C103.39 320.405 102.481 323.243 101.822 326.143V326.143Z" fill="black"/>
<path d="M134.164 256.708C134.164 256.708 131.362 255.697 130.673 256.9C130.673 256.9 135.77 258.76 136.8 261.439C136.8 261.439 138.114 260.087 136.316 258.37L135.981 255.852L134.164 256.708Z" fill="#00A66C"/>
<path d="M138.815 252.907C138.815 252.907 138.97 251.63 138.325 251.493C137.68 251.357 133.315 251.611 134.016 256.454C134.716 261.297 139.764 259.48 139.764 259.48L141.977 256.9C141.977 256.9 142.449 253.484 139.348 252.659L138.815 252.907Z" fill="#FA86BE"/>
<path opacity="0.1" d="M135.299 250.278C135.299 250.278 131.492 252.2 133.34 257.03L134.772 256.2C134.772 256.2 136.564 252.008 135.299 250.278Z" fill="black"/>
<path d="M135.162 250.179C135.162 250.179 131.361 252.101 133.209 256.931L134.319 257.582C134.319 257.582 136.434 251.909 135.162 250.179Z" fill="#FA86BE"/>
<path opacity="0.1" d="M141.376 255.139C141.575 255.811 141.984 256.402 142.541 256.826C143.434 257.446 141.655 258.878 141.655 258.878C141.655 258.878 139.249 261.613 136.973 260.28C135.615 257.992 136.638 257.675 136.638 257.675C136.638 257.675 139.478 254.556 141.376 255.139Z" fill="black"/>
<path d="M141.469 255.269C141.668 255.941 142.076 256.532 142.634 256.956C143.521 257.576 141.741 259.008 141.741 259.008C141.741 259.008 139.342 261.743 137.06 260.41C134.778 259.077 136.725 257.812 136.725 257.812C136.725 257.812 139.54 254.687 141.469 255.269Z" fill="#FA86BE"/>
<path d="M132.837 250.241C132.837 250.241 130.022 251.22 130.245 252.591C130.245 252.591 135.38 250.83 137.866 252.262C137.866 252.262 138.033 250.402 135.559 250.179L133.699 248.43L132.837 250.241Z" fill="#5F3839"/>
<path d="M134.028 244.344C134.028 244.344 133.346 243.253 132.788 243.55C132.23 243.848 128.974 246.793 132.552 250.104C136.13 253.415 138.926 248.864 138.926 248.864L138.988 245.466C138.988 245.466 137.203 242.515 134.276 243.829L134.028 244.344Z" fill="#FA86BE"/>
<path opacity="0.1" d="M129.687 244.53C129.687 244.53 127.939 248.418 132.422 251.01L133.011 249.466C133.011 249.466 131.746 245.082 129.687 244.53Z" fill="black"/>
<path d="M129.501 244.536C129.501 244.536 127.759 248.424 132.236 251.016L133.507 250.824C133.507 250.824 131.579 245.082 129.501 244.536Z" fill="#FA86BE"/>
<path opacity="0.1" d="M137.451 244.48C138.03 244.878 138.72 245.082 139.423 245.063C140.514 244.995 140.043 247.215 140.043 247.215C140.043 247.215 139.894 250.855 137.283 251.251C134.803 250.328 135.386 249.441 135.386 249.441C135.386 249.441 135.609 245.224 137.451 244.48Z" fill="black"/>
<path d="M137.587 244.542C138.166 244.941 138.856 245.145 139.559 245.125C140.65 245.057 140.179 247.277 140.179 247.277C140.179 247.277 140.036 250.917 137.426 251.313C134.815 251.71 135.528 249.503 135.528 249.503C135.528 249.503 135.745 245.286 137.587 244.542Z" fill="#FA86BE"/>
<path d="M123.27 251.4C123.27 251.4 124.163 250.619 124.652 251.648L124.237 253.955L121.676 276.798L120.039 279.793L123.27 251.4Z" fill="#00A66C"/>
<path d="M130.859 246.086L120.132 280.934L121.106 281.474L131.746 246.316L130.859 246.086Z" fill="#00A66C"/>
<path d="M127.927 261.886C127.927 261.886 125.521 270.982 122.867 274.609C120.213 278.237 120.715 281.244 120.715 281.244L121.583 281.511L128.714 262.518L127.927 261.886Z" fill="#00A66C"/>
<path d="M136.694 253.88L121.391 280.531L122.123 280.928L137.903 254.073L136.694 253.88Z" fill="#00A66C"/>
<path d="M140.074 260.918L121.013 280.785L121.583 281.523L140.886 261.365L140.074 260.918Z" fill="#00A66C"/>
<path d="M141.295 262.394C141.295 262.394 141.041 261.278 140.185 261.489C139.329 261.7 122.482 280.407 122.482 280.407L123.195 280.965L141.295 262.394Z" fill="#00A66C"/>
<path d="M122.445 250.197C122.445 250.197 119.568 250.979 119.704 252.361C119.704 252.361 124.944 250.96 127.325 252.56C127.325 252.56 127.623 250.7 125.167 250.321L123.443 248.461L122.445 250.197Z" fill="#00A66C"/>
<path d="M124.057 244.393C124.057 244.393 123.437 243.259 122.848 243.519C122.259 243.78 118.818 246.489 122.154 250.036C125.49 253.583 128.602 249.218 128.602 249.218L128.931 245.832C128.931 245.832 127.356 242.769 124.342 243.873L124.057 244.393Z" fill="#FA86BE"/>
<path opacity="0.1" d="M119.686 244.282C119.686 244.282 117.671 248.039 121.961 250.935L122.656 249.435C122.656 249.435 121.713 244.97 119.686 244.282Z" fill="black"/>
<path d="M119.518 244.276C119.518 244.276 117.503 248.033 121.794 250.929L123.077 250.83C123.077 250.83 121.552 244.964 119.518 244.276Z" fill="#FA86BE"/>
<path opacity="0.1" d="M127.449 244.772C128.002 245.201 128.677 245.444 129.377 245.466C130.469 245.466 129.824 247.655 129.824 247.655C129.824 247.655 129.427 251.276 126.798 251.493C124.373 250.402 125.031 249.552 125.031 249.552C125.031 249.552 125.564 245.386 127.449 244.772Z" fill="black"/>
<path d="M127.579 244.846C128.13 245.282 128.805 245.534 129.507 245.565C130.599 245.565 129.954 247.754 129.954 247.754C129.954 247.754 129.557 251.369 126.928 251.586C124.299 251.803 125.161 249.652 125.161 249.652C125.161 249.652 125.694 245.466 127.579 244.846Z" fill="#FA86BE"/>
<path d="M129.78 244.846C129.78 244.846 126.903 245.627 127.034 247.01C127.034 247.01 132.273 245.609 134.654 247.202C134.654 247.202 134.958 245.342 132.496 244.97L130.773 243.11L129.78 244.846Z" fill="#00A66C"/>
<path d="M131.386 239.055C131.386 239.055 130.766 237.92 130.177 238.18C129.588 238.441 126.147 241.151 129.483 244.697C132.819 248.244 135.932 243.879 135.932 243.879L136.26 240.493C136.26 240.493 134.685 237.43 131.672 238.534L131.386 239.055Z" fill="#FA86BE"/>
<path opacity="0.1" d="M127.015 238.943C127.015 238.943 125 242.701 129.291 245.596L129.985 244.096C129.985 244.096 129.067 239.631 127.015 238.943Z" fill="black"/>
<path d="M126.847 238.937C126.847 238.937 124.838 242.694 129.123 245.59L130.407 245.485C130.407 245.485 128.881 239.625 126.847 238.937Z" fill="#FA86BE"/>
<path opacity="0.1" d="M134.784 239.433C135.333 239.869 136.006 240.119 136.707 240.146C137.798 240.146 137.153 242.335 137.153 242.335C137.153 242.335 136.756 245.956 134.127 246.173C131.709 245.076 132.36 244.232 132.36 244.232C132.36 244.232 132.893 240.047 134.784 239.433Z" fill="black"/>
<path d="M134.915 239.501C135.463 239.937 136.137 240.187 136.837 240.214C137.928 240.214 137.283 242.403 137.283 242.403C137.283 242.403 136.886 246.024 134.257 246.241C131.628 246.458 132.49 244.3 132.49 244.3C132.49 244.3 133.023 240.115 134.915 239.501Z" fill="#FA86BE"/>
<path d="M135.975 252.287C135.975 252.287 133.172 251.276 132.484 252.479C132.484 252.479 137.581 254.339 138.616 257.018C138.616 257.018 139.931 255.666 138.133 253.949L137.798 251.431L135.975 252.287Z" fill="#00A66C"/>
<path d="M140.625 248.467C140.625 248.467 140.78 247.19 140.136 247.054C139.491 246.917 135.132 247.171 135.795 252.014C136.459 256.857 141.549 255.04 141.549 255.04L143.763 252.461C143.763 252.461 144.228 249.044 141.128 248.219L140.625 248.467Z" fill="#FA86BE"/>
<path opacity="0.1" d="M137.128 245.863C137.128 245.863 133.321 247.785 135.175 252.616L136.601 251.785C136.601 251.785 138.368 247.593 137.128 245.863Z" fill="black"/>
<path d="M136.979 245.764C136.979 245.764 133.172 247.686 135.02 252.516L136.13 253.167C136.13 253.167 138.244 247.494 136.979 245.764Z" fill="#FA86BE"/>
<path opacity="0.1" d="M143.186 250.724C143.389 251.395 143.797 251.984 144.352 252.411C145.245 253.031 143.465 254.463 143.465 254.463C143.465 254.463 141.059 257.198 138.784 255.865C137.432 253.583 138.449 253.26 138.449 253.26C138.449 253.26 141.289 250.141 143.186 250.724Z" fill="black"/>
<path d="M143.255 250.855C143.455 251.528 143.863 252.12 144.42 252.547C145.313 253.167 143.534 254.594 143.534 254.594C143.534 254.594 141.128 257.328 138.852 256.001C136.576 254.674 138.517 253.397 138.517 253.397C138.517 253.397 141.357 250.272 143.255 250.855Z" fill="#FA86BE"/>
<path d="M140.47 259.883C140.47 259.883 137.668 258.872 136.986 260.081C136.986 260.081 142.076 261.941 143.112 264.62C143.112 264.62 144.426 263.262 142.628 261.551L142.293 259.027L140.47 259.883Z" fill="#00A66C"/>
<path d="M145.121 256.057C145.121 256.057 145.276 254.78 144.631 254.649C143.986 254.519 139.627 254.761 140.328 259.61C141.029 264.459 146.076 262.642 146.076 262.642L148.29 260.056C148.29 260.056 148.755 256.646 145.654 255.821L145.121 256.057Z" fill="#FA86BE"/>
<path opacity="0.1" d="M141.605 253.453C141.605 253.453 137.798 255.375 139.652 260.211L141.078 259.38C141.078 259.38 142.876 255.183 141.605 253.453Z" fill="black"/>
<path d="M141.469 253.353C141.469 253.353 137.662 255.276 139.509 260.106L140.619 260.757C140.619 260.757 142.74 255.083 141.469 253.353Z" fill="#FA86BE"/>
<path opacity="0.1" d="M147.669 258.314C147.869 258.986 148.275 259.578 148.829 260.007C149.722 260.627 147.942 262.053 147.942 262.053C147.942 262.053 145.536 264.787 143.261 263.461C141.909 261.172 142.926 260.856 142.926 260.856C142.926 260.856 145.809 257.731 147.669 258.314Z" fill="black"/>
<path d="M147.75 258.45C147.95 259.122 148.358 259.713 148.916 260.137C149.809 260.757 148.029 262.189 148.029 262.189C148.029 262.189 145.623 264.924 143.347 263.591C141.072 262.258 143.013 260.986 143.013 260.986C143.013 260.986 145.853 257.867 147.75 258.45Z" fill="#FA86BE"/>
<path d="M141.041 262.431C141.041 262.431 138.238 261.421 137.55 262.63C137.55 262.63 142.647 264.49 143.676 267.169C143.676 267.169 144.997 265.811 143.199 264.099L142.858 261.576L141.041 262.431Z" fill="#00A66C"/>
<path d="M145.691 258.605C145.691 258.605 145.846 257.334 145.201 257.198C144.557 257.061 140.197 257.309 140.892 262.158C141.586 267.007 146.64 265.191 146.64 265.191L148.854 262.611C148.854 262.611 149.325 259.194 146.225 258.37L145.691 258.605Z" fill="#FA86BE"/>
<path opacity="0.1" d="M142.176 256.007C142.176 256.007 138.368 257.923 140.229 262.76L141.661 261.929C141.661 261.929 143.44 257.731 142.176 256.007Z" fill="black"/>
<path d="M142.039 255.902C142.039 255.902 138.238 257.824 140.086 262.654L141.196 263.312C141.196 263.312 143.329 257.632 142.039 255.902Z" fill="#FA86BE"/>
<path opacity="0.1" d="M148.252 260.862C148.453 261.536 148.861 262.128 149.418 262.555C150.311 263.175 148.531 264.601 148.531 264.601C148.531 264.601 146.125 267.342 143.85 266.009C142.492 263.721 143.515 263.405 143.515 263.405C143.515 263.405 146.355 260.28 148.252 260.862Z" fill="black"/>
<path d="M148.32 260.999C148.52 261.671 148.928 262.261 149.486 262.686C150.379 263.306 148.593 264.738 148.593 264.738C148.593 264.738 146.194 267.472 143.918 266.139C141.642 264.806 143.577 263.535 143.577 263.535C143.577 263.535 146.429 260.416 148.32 260.999Z" fill="#FA86BE"/>
<path d="M127.387 260.769C127.387 260.769 124.584 259.753 123.896 260.962C123.896 260.962 128.993 262.822 130.022 265.501C130.022 265.501 131.337 264.149 129.539 262.431L129.204 259.908L127.387 260.769Z" fill="#00A66C"/>
<path d="M132.038 256.937C132.038 256.937 132.193 255.666 131.548 255.53C130.903 255.393 126.538 255.648 127.238 260.49C127.939 265.333 132.986 263.523 132.986 263.523L135.2 260.943C135.2 260.943 135.671 257.526 132.571 256.702L132.038 256.937Z" fill="#FA86BE"/>
<path opacity="0.1" d="M128.522 254.339C128.522 254.339 124.727 256.262 126.587 261.092L128.019 260.261C128.019 260.261 129.787 256.069 128.522 254.339Z" fill="black"/>
<path d="M128.385 254.24C128.385 254.24 124.584 256.156 126.432 260.993L127.542 261.613C127.542 261.613 129.687 255.97 128.385 254.24Z" fill="#FA86BE"/>
<path opacity="0.1" d="M134.598 259.195C134.797 259.868 135.205 260.461 135.764 260.887C136.657 261.507 134.877 262.94 134.877 262.94C134.877 262.94 132.471 265.674 130.196 264.341C128.838 262.053 129.861 261.737 129.861 261.737C129.861 261.737 132.701 258.612 134.598 259.195Z" fill="black"/>
<path d="M134.648 259.331C134.848 260.003 135.256 260.593 135.814 261.017C136.7 261.638 134.921 263.07 134.921 263.07C134.921 263.07 132.521 265.804 130.239 264.471C127.957 263.138 129.904 261.867 129.904 261.867C129.904 261.867 132.788 258.748 134.648 259.331Z" fill="#FA86BE"/>
<path d="M128.918 252.417C128.918 252.417 126.11 251.4 125.427 252.609C125.427 252.609 130.524 254.469 131.554 257.148C131.554 257.148 132.868 255.796 131.07 254.079L130.735 251.555L128.918 252.417Z" fill="#00A66C"/>
<path d="M133.569 248.566C133.569 248.566 133.724 247.326 133.079 247.159C132.434 246.992 128.069 247.277 128.739 252.119C129.408 256.962 134.487 255.152 134.487 255.152L136.7 252.572C136.7 252.572 137.165 249.156 134.065 248.331L133.569 248.566Z" fill="#FA86BE"/>
<path opacity="0.1" d="M130.047 245.987C130.047 245.987 126.246 247.903 128.094 252.74L129.526 251.909C129.526 251.909 131.318 247.717 130.047 245.987Z" fill="black"/>
<path d="M129.917 245.888C129.917 245.888 126.11 247.804 127.964 252.64L129.067 253.291C129.067 253.291 131.188 247.618 129.917 245.888Z" fill="#FA86BE"/>
<path opacity="0.1" d="M136.13 250.842C136.33 251.515 136.738 252.108 137.296 252.535C138.189 253.155 136.409 254.587 136.409 254.587C136.409 254.587 134.003 257.322 131.727 255.989C130.37 253.701 131.393 253.384 131.393 253.384C131.393 253.384 134.226 250.259 136.13 250.842Z" fill="black"/>
<path d="M136.192 250.979C136.391 251.65 136.8 252.241 137.358 252.665C138.25 253.285 136.471 254.718 136.471 254.718C136.471 254.718 134.065 257.452 131.789 256.119C129.514 254.786 131.455 253.515 131.455 253.515C131.455 253.515 134.294 250.427 136.192 250.979Z" fill="#FA86BE"/>
<path d="M119.58 265.048C119.58 265.048 127.263 265.897 131.436 279.26C135.609 292.622 122.482 282.627 122.482 282.627C122.482 282.627 119.022 283.321 118.483 276.346C117.943 269.37 119.58 265.048 119.58 265.048Z" fill="#FBBEBE"/>
<path d="M120.433 274.856L118.596 275.671C118.38 275.767 118.282 276.018 118.377 276.233C118.472 276.447 118.725 276.543 118.941 276.447L120.777 275.633C120.993 275.537 121.091 275.285 120.996 275.071C120.901 274.857 120.649 274.76 120.433 274.856Z" fill="#E3E8F4"/>
<path opacity="0.1" d="M87.9505 225.326L86.7104 224.198C82.2583 220.105 79.313 217.451 79.313 214.14C79.3021 213.511 79.4177 212.885 79.6529 212.301C79.8881 211.717 80.238 211.186 80.6821 210.74C81.1261 210.294 81.6552 209.941 82.238 209.703C82.8208 209.465 83.4455 209.346 84.0751 209.353C84.8181 209.357 85.5513 209.523 86.2237 209.839C86.8962 210.155 87.4918 210.613 87.9691 211.182C88.4456 210.612 89.041 210.153 89.7137 209.837C90.3863 209.521 91.12 209.356 91.8631 209.353C92.4922 209.347 93.1162 209.466 93.6983 209.705C94.2804 209.943 94.8087 210.296 95.2521 210.742C95.6955 211.189 96.0449 211.719 96.2797 212.303C96.5145 212.886 96.6299 213.511 96.6191 214.14C96.6191 217.451 93.6799 220.105 89.2216 224.198L87.9505 225.326Z" fill="#FA86BE"/>
<path opacity="0.1" d="M70.6445 154.973L69.4043 153.839C64.946 149.752 62.0007 147.092 62.0007 143.787C61.9899 143.158 62.1055 142.532 62.3406 141.948C62.5758 141.364 62.9258 140.833 63.3698 140.387C63.8139 139.941 64.343 139.588 64.9258 139.35C65.5086 139.112 66.1333 138.993 66.7628 139C67.5058 139.004 68.239 139.17 68.9115 139.486C69.584 139.802 70.1796 140.26 70.6569 140.83C71.1339 140.26 71.7294 139.801 72.402 139.485C73.0745 139.169 73.8079 139.004 74.5509 139C75.1799 138.994 75.8039 139.113 76.386 139.352C76.9681 139.59 77.4965 139.943 77.9399 140.389C78.3832 140.836 78.7327 141.366 78.9674 141.95C79.2022 142.534 79.3176 143.158 79.3068 143.787C79.3068 147.092 76.3677 149.752 71.9094 153.839L70.6445 154.973Z" fill="#FA86BE"/>
<path opacity="0.1" d="M200.512 188.699L199.272 187.564C194.813 183.478 191.874 180.818 191.874 177.513C191.863 176.884 191.979 176.259 192.213 175.675C192.448 175.092 192.798 174.561 193.241 174.115C193.684 173.669 194.213 173.316 194.795 173.077C195.377 172.839 196.001 172.719 196.63 172.726C197.373 172.729 198.106 172.895 198.779 173.211C199.451 173.527 200.047 173.985 200.524 174.555C201.001 173.986 201.597 173.527 202.269 173.211C202.942 172.895 203.675 172.73 204.418 172.726C205.048 172.718 205.672 172.837 206.255 173.075C206.838 173.314 207.367 173.666 207.811 174.113C208.255 174.559 208.605 175.09 208.84 175.674C209.075 176.258 209.191 176.883 209.18 177.513C209.18 180.818 206.235 183.478 201.783 187.564L200.512 188.699Z" fill="#FA86BE"/>
<path d="M51.95 103.55C51.95 103.983 50.9167 104.333 48.85 104.6C46.8167 104.867 44.7833 105 42.75 105C40.7167 105 39.4167 104.883 38.85 104.65C38.2833 104.417 38 104.05 38 103.55V72.85C38 72.0167 38.95 71.25 40.85 70.55C42.7833 69.85 44.9667 69.5 47.4 69.5C48.2667 69.5 48.9167 69.5333 49.35 69.6C50.4833 69.7667 51.2833 70.4833 51.75 71.75L56.55 84.65H56.75V72.85C56.75 72.0167 57.7 71.25 59.6 70.55C61.5 69.85 63.6667 69.5 66.1 69.5C68.2 69.5 69.5333 69.9 70.1 70.7C70.5 71.2667 70.7 71.7833 70.7 72.25V103.55C70.7 103.983 69.6667 104.333 67.6 104.6C65.5667 104.867 63.3167 105 60.85 105C58.4167 105 57.0833 104.683 56.85 104.05L52.2 91.75H51.95V103.55ZM88.6688 103.8C88.6688 104.167 87.6521 104.467 85.6188 104.7C83.5854 104.9 81.5354 105 79.4688 105C77.4354 105 76.1354 104.917 75.5688 104.75C75.0021 104.55 74.7188 104.233 74.7188 103.8V72.7C74.7188 71.9667 75.6854 71.25 77.6188 70.55C79.5521 69.8167 81.7188 69.45 84.1188 69.45C86.2521 69.45 87.6521 69.9 88.3188 70.8C88.5521 71.1333 88.6688 71.4667 88.6688 71.8V103.8ZM106.638 103.45C106.638 103.883 105.604 104.233 103.537 104.5C101.504 104.767 99.4708 104.9 97.4375 104.9C95.4042 104.9 94.1042 104.783 93.5375 104.55C92.9708 104.317 92.6875 103.95 92.6875 103.45V72.8C92.6875 71.9333 93.6208 71.1667 95.4875 70.5C97.3875 69.8333 99.5708 69.5 102.038 69.5C104.071 69.5 105.388 69.9 105.988 70.7C106.421 71.2667 106.638 71.7833 106.638 72.25V80.5H107.038C107.038 80.3333 107.538 78.95 108.538 76.35C110.438 71.45 111.821 69 112.688 69C114.321 69 116.621 69.4833 119.588 70.45C121.021 70.9167 122.254 71.6 123.288 72.5C124.321 73.3667 124.838 74.3333 124.838 75.4C124.838 76.0667 124.154 77.3667 122.788 79.3C121.454 81.2 119.421 83.75 116.688 86.95C117.321 87.6167 118.121 88.4667 119.088 89.5C120.054 90.5333 121.338 92.0833 122.938 94.15C124.571 96.1833 125.388 97.6333 125.388 98.5C125.388 99.3667 124.604 100.383 123.038 101.55C121.471 102.683 119.804 103.617 118.038 104.35C116.271 105.05 114.954 105.4 114.088 105.4C113.521 105.4 112.738 104.55 111.738 102.85C110.771 101.117 109.588 98.5333 108.188 95.1L106.638 96.95V103.45ZM160.437 91.05C160.437 95.85 159.053 99.45 156.287 101.85C153.553 104.217 149.57 105.4 144.337 105.4C139.137 105.4 135.137 104.217 132.337 101.85C129.537 99.45 128.137 95.85 128.137 91.05V72.7C128.137 71.8667 129.07 71.1167 130.937 70.45C132.837 69.7833 135.037 69.45 137.537 69.45C139.537 69.45 140.837 69.8333 141.437 70.6C141.87 71.2 142.087 71.7167 142.087 72.15V87.05C142.087 90.8167 142.22 93.3167 142.487 94.55C142.787 95.75 143.403 96.35 144.337 96.35C145.27 96.35 145.853 95.7667 146.087 94.6C146.353 93.4 146.487 90.8667 146.487 87V72.7C146.487 71.8667 147.42 71.1167 149.287 70.45C151.187 69.7833 153.37 69.45 155.837 69.45C157.937 69.45 159.27 69.8333 159.837 70.6C160.237 71.2 160.437 71.7167 160.437 72.15V91.05ZM186.766 103.55C186.766 103.983 185.749 104.333 183.716 104.6C181.683 104.867 179.649 105 177.616 105C175.616 105 174.316 104.9 173.716 104.7C173.116 104.467 172.816 104.083 172.816 103.55V94.85C166.216 81.35 162.916 74.0167 162.916 72.85C162.916 72.15 164.033 71.4167 166.266 70.65C168.499 69.8833 170.849 69.5 173.316 69.5C176.483 69.5 178.166 70.4333 178.366 72.3L179.716 85.75H180.266L181.216 72.65C181.283 71.7167 182.466 70.9667 184.766 70.4C187.066 69.8 189.249 69.5 191.316 69.5C193.383 69.5 194.816 69.8 195.616 70.4C196.416 71 196.816 71.6333 196.816 72.3C196.816 72.9333 193.466 80.45 186.766 94.85V103.55Z" fill="#40394A"/>
<path d="M36.984 126.06V117.168H40.272C41.28 117.168 42.052 117.38 42.588 117.804C43.132 118.228 43.404 118.832 43.404 119.616V119.796C43.404 120.196 43.328 120.536 43.176 120.816C43.032 121.088 42.828 121.312 42.564 121.488C42.932 121.656 43.224 121.896 43.44 122.208C43.656 122.52 43.764 122.92 43.764 123.408V123.576C43.764 124.368 43.496 124.98 42.96 125.412C42.424 125.844 41.644 126.06 40.62 126.06H36.984ZM40.392 118.704H38.904V120.84H40.392C40.76 120.84 41.028 120.744 41.196 120.552C41.372 120.36 41.46 120.104 41.46 119.784C41.46 119.448 41.372 119.184 41.196 118.992C41.028 118.8 40.76 118.704 40.392 118.704ZM40.716 122.328H38.904V124.524H40.716C41.084 124.524 41.36 124.432 41.544 124.248C41.728 124.056 41.82 123.78 41.82 123.42C41.82 122.692 41.452 122.328 40.716 122.328ZM47.4046 126.204C46.6446 126.204 46.0606 125.96 45.6526 125.472C45.2446 124.984 45.0406 124.24 45.0406 123.24V119.424H46.9606V123.336C46.9606 123.688 47.0606 123.968 47.2606 124.176C47.4606 124.384 47.7286 124.488 48.0646 124.488C48.4086 124.488 48.6886 124.38 48.9046 124.164C49.1206 123.948 49.2286 123.656 49.2286 123.288V119.424H51.1486V126H49.6246V124.464C49.3526 125.624 48.6406 126.204 47.4886 126.204H47.4046ZM54.791 126.168C54.079 126.168 53.503 125.984 53.063 125.616C52.631 125.248 52.415 124.728 52.415 124.056C52.415 123.576 52.539 123.184 52.787 122.88C53.035 122.568 53.383 122.34 53.831 122.196C54.279 122.044 54.795 121.968 55.379 121.968H56.567V121.944C56.567 121.272 56.231 120.936 55.559 120.936C55.383 120.936 55.151 120.944 54.863 120.96C54.575 120.968 54.275 120.98 53.963 120.996C53.659 121.004 53.387 121.016 53.147 121.032V119.412C53.427 119.388 53.771 119.368 54.179 119.352C54.587 119.328 54.963 119.316 55.307 119.316C56.315 119.316 57.083 119.532 57.611 119.964C58.147 120.388 58.415 121.056 58.415 121.968V126H56.891V124.764C56.747 125.22 56.499 125.568 56.147 125.808C55.795 126.048 55.343 126.168 54.791 126.168ZM55.367 124.836C55.679 124.836 55.951 124.748 56.183 124.572C56.415 124.396 56.543 124.06 56.567 123.564V123.036H55.367C55.031 123.036 54.771 123.12 54.587 123.288C54.411 123.456 54.323 123.676 54.323 123.948C54.323 124.212 54.411 124.428 54.587 124.596C54.771 124.756 55.031 124.836 55.367 124.836ZM63.032 126.084C62.368 126.084 61.832 126.004 61.424 125.844C61.016 125.676 60.716 125.4 60.524 125.016C60.34 124.624 60.248 124.096 60.248 123.432V120.828H59.252V119.424H60.248V117.648H62.036V119.424H63.956V120.828H62.036V123.504C62.036 123.816 62.116 124.056 62.276 124.224C62.444 124.384 62.68 124.464 62.984 124.464H63.956V126.084H63.032ZM69.9866 126.204C69.2266 126.204 68.6426 125.96 68.2346 125.472C67.8266 124.984 67.6226 124.24 67.6226 123.24V119.424H69.5426V123.336C69.5426 123.688 69.6426 123.968 69.8426 124.176C70.0426 124.384 70.3106 124.488 70.6466 124.488C70.9906 124.488 71.2706 124.38 71.4866 124.164C71.7026 123.948 71.8106 123.656 71.8106 123.288V119.424H73.7306V126H72.2066V124.464C71.9346 125.624 71.2226 126.204 70.0706 126.204H69.9866ZM75.501 126V119.424H77.025V121.104C77.289 119.848 78.029 119.22 79.245 119.22H79.329C80.089 119.22 80.673 119.472 81.081 119.976C81.489 120.472 81.693 121.228 81.693 122.244V126H79.773V122.136C79.773 121.784 79.669 121.496 79.461 121.272C79.253 121.048 78.973 120.936 78.621 120.936C78.261 120.936 77.969 121.052 77.745 121.284C77.529 121.508 77.421 121.804 77.421 122.172V126H75.501ZM86.0411 126.216C85.4251 126.216 84.8811 126.072 84.4091 125.784C83.9451 125.488 83.5811 125.088 83.3171 124.584C83.0531 124.08 82.9211 123.512 82.9211 122.88V122.604C82.9211 121.972 83.0451 121.4 83.2931 120.888C83.5411 120.376 83.8931 119.972 84.3491 119.676C84.8131 119.38 85.3531 119.232 85.9691 119.232C86.9291 119.232 87.6371 119.596 88.0931 120.324V117.24H90.0251V126H88.5011V124.62C88.2851 125.14 87.9651 125.536 87.5411 125.808C87.1171 126.08 86.6171 126.216 86.0411 126.216ZM86.5211 124.608C86.9611 124.608 87.3411 124.46 87.6611 124.164C87.9811 123.868 88.1411 123.448 88.1411 122.904V122.46C88.1411 122.116 88.0651 121.824 87.9131 121.584C87.7611 121.336 87.5611 121.148 87.3131 121.02C87.0651 120.892 86.7971 120.828 86.5091 120.828C86.0211 120.828 85.6211 121.004 85.3091 121.356C84.9971 121.708 84.8411 122.168 84.8411 122.736C84.8411 123.312 84.9971 123.768 85.3091 124.104C85.6291 124.44 86.0331 124.608 86.5211 124.608ZM93.6386 126.168C92.9266 126.168 92.3506 125.984 91.9106 125.616C91.4786 125.248 91.2626 124.728 91.2626 124.056C91.2626 123.576 91.3866 123.184 91.6346 122.88C91.8826 122.568 92.2306 122.34 92.6786 122.196C93.1266 122.044 93.6426 121.968 94.2266 121.968H95.4146V121.944C95.4146 121.272 95.0786 120.936 94.4066 120.936C94.2306 120.936 93.9986 120.944 93.7106 120.96C93.4226 120.968 93.1226 120.98 92.8106 120.996C92.5066 121.004 92.2346 121.016 91.9946 121.032V119.412C92.2746 119.388 92.6186 119.368 93.0266 119.352C93.4346 119.328 93.8106 119.316 94.1546 119.316C95.1626 119.316 95.9306 119.532 96.4586 119.964C96.9946 120.388 97.2626 121.056 97.2626 121.968V126H95.7386V124.764C95.5946 125.22 95.3466 125.568 94.9946 125.808C94.6426 126.048 94.1906 126.168 93.6386 126.168ZM94.2146 124.836C94.5266 124.836 94.7986 124.748 95.0306 124.572C95.2626 124.396 95.3906 124.06 95.4146 123.564V123.036H94.2146C93.8786 123.036 93.6186 123.12 93.4346 123.288C93.2586 123.456 93.1706 123.676 93.1706 123.948C93.1706 124.212 93.2586 124.428 93.4346 124.596C93.6186 124.756 93.8786 124.836 94.2146 124.836ZM98.8916 126V119.424H100.416V121.104C100.68 119.848 101.42 119.22 102.636 119.22H102.72C103.48 119.22 104.064 119.472 104.472 119.976C104.88 120.472 105.084 121.228 105.084 122.244V126H103.164V122.136C103.164 121.784 103.06 121.496 102.852 121.272C102.644 121.048 102.364 120.936 102.012 120.936C101.652 120.936 101.36 121.052 101.136 121.284C100.92 121.508 100.812 121.804 100.812 122.172V126H98.8916ZM109.312 128.616C108.984 128.616 108.652 128.604 108.316 128.58C107.98 128.556 107.676 128.524 107.404 128.484V126.864C107.684 126.904 107.992 126.936 108.328 126.96C108.664 126.992 108.976 127.008 109.264 127.008C110.04 127.008 110.6 126.872 110.944 126.6C111.296 126.336 111.472 125.916 111.472 125.34V124.764C111.264 125.18 110.968 125.5 110.584 125.724C110.208 125.94 109.764 126.048 109.252 126.048C108.652 126.048 108.132 125.908 107.692 125.628C107.252 125.34 106.912 124.948 106.672 124.452C106.432 123.956 106.312 123.4 106.312 122.784V122.508C106.312 121.884 106.44 121.328 106.696 120.84C106.952 120.344 107.308 119.952 107.764 119.664C108.228 119.376 108.764 119.232 109.372 119.232C109.94 119.232 110.428 119.368 110.836 119.64C111.244 119.912 111.552 120.304 111.76 120.816V119.424H113.284V125.22C113.284 126.436 112.956 127.304 112.3 127.824C111.652 128.352 110.656 128.616 109.312 128.616ZM109.852 124.428C110.292 124.428 110.664 124.284 110.968 123.996C111.28 123.7 111.436 123.288 111.436 122.76V122.412C111.436 122.068 111.36 121.78 111.208 121.548C111.064 121.308 110.872 121.128 110.632 121.008C110.392 120.88 110.136 120.816 109.864 120.816C109.376 120.816 108.98 120.984 108.676 121.32C108.38 121.648 108.232 122.088 108.232 122.64C108.232 123.2 108.384 123.64 108.688 123.96C108.992 124.272 109.38 124.428 109.852 124.428ZM116.818 126.168C116.106 126.168 115.53 125.984 115.09 125.616C114.658 125.248 114.442 124.728 114.442 124.056C114.442 123.576 114.566 123.184 114.814 122.88C115.062 122.568 115.41 122.34 115.858 122.196C116.306 122.044 116.822 121.968 117.406 121.968H118.594V121.944C118.594 121.272 118.258 120.936 117.586 120.936C117.41 120.936 117.178 120.944 116.89 120.96C116.602 120.968 116.302 120.98 115.99 120.996C115.686 121.004 115.414 121.016 115.174 121.032V119.412C115.454 119.388 115.798 119.368 116.206 119.352C116.614 119.328 116.99 119.316 117.334 119.316C118.342 119.316 119.11 119.532 119.638 119.964C120.174 120.388 120.442 121.056 120.442 121.968V126H118.918V124.764C118.774 125.22 118.526 125.568 118.174 125.808C117.822 126.048 117.37 126.168 116.818 126.168ZM117.394 124.836C117.706 124.836 117.978 124.748 118.21 124.572C118.442 124.396 118.57 124.06 118.594 123.564V123.036H117.394C117.058 123.036 116.798 123.12 116.614 123.288C116.438 123.456 116.35 123.676 116.35 123.948C116.35 124.212 116.438 124.428 116.614 124.596C116.798 124.756 117.058 124.836 117.394 124.836ZM122.071 126V119.424H123.595V121.104C123.859 119.848 124.599 119.22 125.815 119.22H125.899C126.659 119.22 127.243 119.472 127.651 119.976C128.059 120.472 128.263 121.228 128.263 122.244V126H126.343V122.136C126.343 121.784 126.239 121.496 126.031 121.272C125.823 121.048 125.543 120.936 125.191 120.936C124.831 120.936 124.539 121.052 124.315 121.284C124.099 121.508 123.991 121.804 123.991 122.172V126H122.071ZM132.419 126V119.424H133.943V121.104C134.207 119.848 134.947 119.22 136.163 119.22H136.247C137.007 119.22 137.591 119.472 137.999 119.976C138.407 120.472 138.611 121.228 138.611 122.244V126H136.691V122.136C136.691 121.784 136.587 121.496 136.379 121.272C136.171 121.048 135.891 120.936 135.539 120.936C135.179 120.936 134.887 121.052 134.663 121.284C134.447 121.508 134.339 121.804 134.339 122.172V126H132.419ZM141.303 118.776C140.943 118.776 140.675 118.684 140.499 118.5C140.331 118.308 140.247 118.068 140.247 117.78C140.247 117.484 140.331 117.244 140.499 117.06C140.675 116.868 140.943 116.772 141.303 116.772C141.663 116.772 141.927 116.868 142.095 117.06C142.271 117.244 142.359 117.484 142.359 117.78C142.359 118.068 142.271 118.308 142.095 118.5C141.927 118.684 141.663 118.776 141.303 118.776ZM140.559 126V120.84H139.683V119.424H142.479V126H140.559ZM144.255 126V117.24H146.175V122.544L148.563 119.424H150.579L148.419 122.232L151.047 126H148.887L146.811 122.928H146.175V126H144.255ZM153.674 126.168C152.962 126.168 152.386 125.984 151.946 125.616C151.514 125.248 151.298 124.728 151.298 124.056C151.298 123.576 151.422 123.184 151.67 122.88C151.918 122.568 152.266 122.34 152.714 122.196C153.162 122.044 153.678 121.968 154.262 121.968H155.45V121.944C155.45 121.272 155.114 120.936 154.442 120.936C154.266 120.936 154.034 120.944 153.746 120.96C153.458 120.968 153.158 120.98 152.846 120.996C152.542 121.004 152.27 121.016 152.03 121.032V119.412C152.31 119.388 152.654 119.368 153.062 119.352C153.47 119.328 153.846 119.316 154.19 119.316C155.198 119.316 155.966 119.532 156.494 119.964C157.03 120.388 157.298 121.056 157.298 121.968V126H155.774V124.764C155.63 125.22 155.382 125.568 155.03 125.808C154.678 126.048 154.226 126.168 153.674 126.168ZM154.25 124.836C154.562 124.836 154.834 124.748 155.066 124.572C155.298 124.396 155.426 124.06 155.45 123.564V123.036H154.25C153.914 123.036 153.654 123.12 153.47 123.288C153.294 123.456 153.206 123.676 153.206 123.948C153.206 124.212 153.294 124.428 153.47 124.596C153.654 124.756 153.914 124.836 154.25 124.836ZM158.927 126V117.24H160.847V120.504C161.199 119.648 161.847 119.22 162.791 119.22H162.875C163.603 119.22 164.159 119.48 164.543 120C164.927 120.512 165.119 121.264 165.119 122.256V126H163.199V122.136C163.199 121.776 163.091 121.488 162.875 121.272C162.667 121.048 162.391 120.936 162.047 120.936C161.687 120.936 161.395 121.056 161.171 121.296C160.955 121.528 160.847 121.832 160.847 122.208V126H158.927ZM171.986 126.216C171.37 126.216 170.826 126.072 170.354 125.784C169.89 125.488 169.526 125.088 169.262 124.584C168.998 124.08 168.866 123.512 168.866 122.88V122.604C168.866 121.972 168.99 121.4 169.238 120.888C169.486 120.376 169.838 119.972 170.294 119.676C170.758 119.38 171.298 119.232 171.914 119.232C172.874 119.232 173.582 119.596 174.038 120.324V117.24H175.97V126H174.446V124.62C174.23 125.14 173.91 125.536 173.486 125.808C173.062 126.08 172.562 126.216 171.986 126.216ZM172.466 124.608C172.906 124.608 173.286 124.46 173.606 124.164C173.926 123.868 174.086 123.448 174.086 122.904V122.46C174.086 122.116 174.01 121.824 173.858 121.584C173.706 121.336 173.506 121.148 173.258 121.02C173.01 120.892 172.742 120.828 172.454 120.828C171.966 120.828 171.566 121.004 171.254 121.356C170.942 121.708 170.786 122.168 170.786 122.736C170.786 123.312 170.942 123.768 171.254 124.104C171.574 124.44 171.978 124.608 172.466 124.608ZM178.768 118.776C178.408 118.776 178.14 118.684 177.964 118.5C177.796 118.308 177.712 118.068 177.712 117.78C177.712 117.484 177.796 117.244 177.964 117.06C178.14 116.868 178.408 116.772 178.768 116.772C179.128 116.772 179.392 116.868 179.56 117.06C179.736 117.244 179.824 117.484 179.824 117.78C179.824 118.068 179.736 118.308 179.56 118.5C179.392 118.684 179.128 118.776 178.768 118.776ZM178.024 126V120.84H177.148V119.424H179.944V126H178.024ZM184.312 128.616C183.984 128.616 183.652 128.604 183.316 128.58C182.98 128.556 182.676 128.524 182.404 128.484V126.864C182.684 126.904 182.992 126.936 183.328 126.96C183.664 126.992 183.976 127.008 184.264 127.008C185.04 127.008 185.6 126.872 185.944 126.6C186.296 126.336 186.472 125.916 186.472 125.34V124.764C186.264 125.18 185.968 125.5 185.584 125.724C185.208 125.94 184.764 126.048 184.252 126.048C183.652 126.048 183.132 125.908 182.692 125.628C182.252 125.34 181.912 124.948 181.672 124.452C181.432 123.956 181.312 123.4 181.312 122.784V122.508C181.312 121.884 181.44 121.328 181.696 120.84C181.952 120.344 182.308 119.952 182.764 119.664C183.228 119.376 183.764 119.232 184.372 119.232C184.94 119.232 185.428 119.368 185.836 119.64C186.244 119.912 186.552 120.304 186.76 120.816V119.424H188.284V125.22C188.284 126.436 187.956 127.304 187.3 127.824C186.652 128.352 185.656 128.616 184.312 128.616ZM184.852 124.428C185.292 124.428 185.664 124.284 185.968 123.996C186.28 123.7 186.436 123.288 186.436 122.76V122.412C186.436 122.068 186.36 121.78 186.208 121.548C186.064 121.308 185.872 121.128 185.632 121.008C185.392 120.88 185.136 120.816 184.864 120.816C184.376 120.816 183.98 120.984 183.676 121.32C183.38 121.648 183.232 122.088 183.232 122.64C183.232 123.2 183.384 123.64 183.688 123.96C183.992 124.272 184.38 124.428 184.852 124.428ZM191.002 118.776C190.642 118.776 190.374 118.684 190.198 118.5C190.03 118.308 189.946 118.068 189.946 117.78C189.946 117.484 190.03 117.244 190.198 117.06C190.374 116.868 190.642 116.772 191.002 116.772C191.362 116.772 191.626 116.868 191.794 117.06C191.97 117.244 192.058 117.484 192.058 117.78C192.058 118.068 191.97 118.308 191.794 118.5C191.626 118.684 191.362 118.776 191.002 118.776ZM190.258 126V120.84H189.382V119.424H192.178V126H190.258ZM196.942 126.084C196.278 126.084 195.742 126.004 195.334 125.844C194.926 125.676 194.626 125.4 194.434 125.016C194.25 124.624 194.158 124.096 194.158 123.432V120.828H193.162V119.424H194.158V117.648H195.946V119.424H197.866V120.828H195.946V123.504C195.946 123.816 196.026 124.056 196.186 124.224C196.354 124.384 196.59 124.464 196.894 124.464H197.866V126.084H196.942ZM201.006 126.168C200.294 126.168 199.718 125.984 199.278 125.616C198.846 125.248 198.63 124.728 198.63 124.056C198.63 123.576 198.754 123.184 199.002 122.88C199.25 122.568 199.598 122.34 200.046 122.196C200.494 122.044 201.01 121.968 201.594 121.968H202.782V121.944C202.782 121.272 202.446 120.936 201.774 120.936C201.598 120.936 201.366 120.944 201.078 120.96C200.79 120.968 200.49 120.98 200.178 120.996C199.874 121.004 199.602 121.016 199.362 121.032V119.412C199.642 119.388 199.986 119.368 200.394 119.352C200.802 119.328 201.178 119.316 201.522 119.316C202.53 119.316 203.298 119.532 203.826 119.964C204.362 120.388 204.63 121.056 204.63 121.968V126H203.106V124.764C202.962 125.22 202.714 125.568 202.362 125.808C202.01 126.048 201.558 126.168 201.006 126.168ZM201.582 124.836C201.894 124.836 202.166 124.748 202.398 124.572C202.63 124.396 202.758 124.06 202.782 123.564V123.036H201.582C201.246 123.036 200.986 123.12 200.802 123.288C200.626 123.456 200.538 123.676 200.538 123.948C200.538 124.212 200.626 124.428 200.802 124.596C200.986 124.756 201.246 124.836 201.582 124.836ZM206.343 126V118.656H205.563V117.24H208.275V126H206.343Z" fill="#40394A"/>
</g>
<defs>
<filter id="filter0_d_34_597" x="-287" y="139" width="950" height="950" filterUnits="userSpaceOnUse" color-interpolation-filters="sRGB">
<feFlood flood-opacity="0" result="BackgroundImageFix"/>
<feColorMatrix in="SourceAlpha" type="matrix" values="0 0 0 0 0 0 0 0 0 0 0 0 0 0 0 0 0 0 127 0" result="hardAlpha"/>
<feOffset dy="4"/>
<feGaussianBlur stdDeviation="50"/>
<feComposite in2="hardAlpha" operator="out"/>
<feColorMatrix type="matrix" values="0 0 0 0 0.980392 0 0 0 0 0.52549 0 0 0 0 0.745098 0 0 0 1 0"/>
<feBlend mode="normal" in2="BackgroundImageFix" result="effect1_dropShadow_34_597"/>
<feBlend mode="normal" in="SourceGraphic" in2="effect1_dropShadow_34_597" result="shape"/>
</filter>
<linearGradient id="paint0_linear_34_597" x1="196.537" y1="502.187" x2="196.537" y2="178.592" gradientUnits="userSpaceOnUse">
<stop stop-color="#808080" stop-opacity="0.25"/>
<stop offset="0.54" stop-color="#808080" stop-opacity="0.12"/>
<stop offset="1" stop-color="#808080" stop-opacity="0.1"/>
</linearGradient>
<clipPath id="clip0_34_597">
<rect width="375" height="812" fill="white"/>
</clipPath>
</defs>
</svg>
