<svg width="40" height="40" viewBox="0 0 40 40" fill="none" xmlns="http://www.w3.org/2000/svg">
<rect width="40" height="40" rx="8" fill="#FA86BE"/>
<path d="M32 20.0002C32 20.5644 31.5836 21.0304 31.0459 21.0987L30.9091 21.1074H9.09091C8.64873 21.1074 8.25164 20.8372 8.08291 20.4224C8.02764 20.2866 8 20.1434 8 20.0002C8 19.7603 8.07677 19.5225 8.22441 19.3277L8.32145 19.2164L17.1215 10.3224C17.5476 9.89132 18.2385 9.89279 18.6633 10.3253C19.0526 10.7231 19.0851 11.3455 18.7584 11.7785L18.6604 11.8915L11.7324 18.8931H30.9091C31.5113 18.8931 32 19.3891 32 20.0002ZM18.6605 28.1085C19.0881 28.5395 19.0881 29.2407 18.6634 29.6747C18.2741 30.0712 17.6611 30.1054 17.2322 29.7764L17.1201 29.6776L12.2678 24.7723C12.0525 24.5553 11.9463 24.2719 11.9463 23.9869C11.9463 23.705 12.0525 23.423 12.2649 23.206C12.6542 22.8082 13.266 22.7738 13.6946 23.104L13.8067 23.2031L18.6605 28.1085Z" fill="white"/>
</svg>
