<svg width="33" height="33" viewBox="0 0 33 33" fill="none" xmlns="http://www.w3.org/2000/svg">
<path d="M21.0317 3.65308C26.1477 3.65308 29.361 6.84241 29.361 11.9904V15.4157C29.361 15.9717 28.909 16.4237 28.353 16.4237H28.341V16.3997C27.7783 16.3997 27.3223 15.9451 27.321 15.3824V11.9904C27.321 7.91974 25.0943 5.69308 21.0357 5.69308H11.0357C6.97434 5.69308 4.73434 7.93308 4.73434 11.9904V21.9904C4.73434 26.0357 6.97434 28.2757 11.0317 28.2757H21.0317C25.089 28.2757 27.317 26.0357 27.317 21.9904C27.317 21.4277 27.773 20.9704 28.337 20.9704C28.8997 20.9704 29.357 21.4277 29.357 21.9904C29.361 27.1304 26.1717 30.3197 21.0357 30.3197H11.0317C5.88367 30.3197 2.69434 27.1304 2.69434 21.9944V11.9944C2.69434 6.84241 5.88367 3.65308 11.0317 3.65308H21.0317ZM13.1141 18.5136C13.5261 18.1283 14.1714 18.1523 14.5567 18.5629C14.9407 18.9763 14.9181 19.6216 14.5061 20.0056L13.5981 20.9136C13.1967 21.2896 12.5701 21.2789 12.1807 20.8896L12.1514 20.8683C11.7727 20.4536 11.7954 19.8123 12.2021 19.4256L13.1141 18.5136ZM12.3498 12.8415C12.7391 12.4428 13.3765 12.4348 13.7751 12.8241C13.7791 12.8268 13.7818 12.8295 13.7858 12.8335L16.2725 15.3215L18.5351 13.0575C18.9418 12.6695 19.5831 12.6735 19.9858 13.0668C20.0578 13.1388 20.1191 13.2201 20.1658 13.3108C20.3965 13.7121 20.3298 14.2161 20.0031 14.5441L17.7498 16.7961L20.2005 19.2481C20.6138 19.6388 20.6298 20.2908 20.2378 20.7028C20.2325 20.7108 20.2245 20.7161 20.2178 20.7241C19.8258 21.1148 19.1925 21.1228 18.7911 20.7401L18.7405 20.6908L12.3671 14.3188C11.9778 13.9055 11.9698 13.2628 12.3498 12.8415Z" fill="#40394A"/>
</svg>
