<svg width="49" height="49" viewBox="0 0 49 49" fill="none" xmlns="http://www.w3.org/2000/svg">
<path d="M31.5263 4.64941C39.2003 4.64941 44.0203 9.43341 44.0203 17.1554V22.2934C44.0203 23.1274 43.3423 23.8054 42.5083 23.8054H42.4903V23.7694C41.6463 23.7694 40.9623 23.0874 40.9603 22.2434V17.1554C40.9603 11.0494 37.6203 7.70941 31.5323 7.70941H16.5323C10.4403 7.70941 7.08026 11.0694 7.08026 17.1554V32.1554C7.08026 38.2234 10.4403 41.5834 16.5263 41.5834H31.5263C37.6123 41.5834 40.9543 38.2234 40.9543 32.1554C40.9543 31.3114 41.6383 30.6254 42.4843 30.6254C43.3283 30.6254 44.0143 31.3114 44.0143 32.1554C44.0203 39.8654 39.2363 44.6494 31.5323 44.6494H16.5263C8.80426 44.6494 4.02026 39.8654 4.02026 32.1614V17.1614C4.02026 9.43341 8.80426 4.64941 16.5263 4.64941H31.5263ZM19.6499 26.9402C20.2679 26.3622 21.2359 26.3982 21.8139 27.0142C22.3899 27.6342 22.3559 28.6022 21.7379 29.1782L20.3759 30.5402C19.7739 31.1042 18.8339 31.0882 18.2499 30.5042L18.2059 30.4722C17.6379 29.8502 17.6719 28.8882 18.2819 28.3082L19.6499 26.9402ZM18.5035 18.432C19.0875 17.834 20.0435 17.822 20.6415 18.406C20.6475 18.41 20.6515 18.414 20.6575 18.42L24.3875 22.152L27.7815 18.756C28.3915 18.174 29.3535 18.18 29.9575 18.77C30.0655 18.878 30.1575 19 30.2275 19.136C30.5735 19.738 30.4735 20.494 29.9835 20.986L26.6035 24.364L30.2795 28.042C30.8995 28.628 30.9235 29.606 30.3355 30.224C30.3275 30.236 30.3155 30.244 30.3055 30.256C29.7175 30.842 28.7675 30.854 28.1655 30.28L28.0895 30.206L18.5295 20.648C17.9455 20.028 17.9335 19.064 18.5035 18.432Z" fill="white"/>
</svg>
