<svg width="24" height="24" viewBox="0 0 24 24" fill="none" xmlns="http://www.w3.org/2000/svg">
<path d="M21.2585 11.4098C21.6652 11.4098 21.9957 11.7388 21.9957 12.1459V16.0999C21.9957 19.629 19.722 22 16.3364 22H7.65825C4.27372 22 2 19.629 2 16.0999C2 15.6939 2.33154 15.3639 2.73821 15.3639C3.14587 15.3639 3.47641 15.6939 3.47641 16.0999C3.47641 18.79 5.1171 20.527 7.65825 20.527H16.3364C18.8786 20.527 20.5213 18.79 20.5213 16.0999V12.1459C20.5213 11.7388 20.8508 11.4098 21.2585 11.4098ZM19.7586 2.76688L19.9006 2.90001L21.0975 4.09503C21.6805 4.67604 22 5.45005 22 6.27006C22 7.02358 21.7315 7.73591 21.2377 8.29693L21.0975 8.4461L13.7135 15.8182C13.2199 16.3109 12.579 16.602 11.8909 16.6509L11.6831 16.6582H7.99711C7.79878 16.6582 7.60847 16.5782 7.46924 16.4352C7.35866 16.3216 7.28847 16.1767 7.26686 16.0218L7.2599 15.9042L7.35305 12.1942C7.37035 11.5223 7.61861 10.8869 8.05643 10.3847L8.19343 10.2381L15.5434 2.90001C16.6982 1.74615 18.5494 1.70177 19.7586 2.76688ZM16.7005 3.83722L16.5861 3.94103L15.9812 4.54504L17.8552 6.41607C18.1427 6.70407 18.1427 7.16908 17.8552 7.45808C17.711 7.60108 17.5217 7.67309 17.3334 7.67309C17.1819 7.67309 17.0311 7.627 16.903 7.53536L16.8115 7.45808L14.9385 5.58605L9.23713 11.2791C9.0182 11.4969 8.88096 11.777 8.83991 12.0787L8.82746 12.2312L8.75434 15.1852H11.6831C12.0025 15.1852 12.3057 15.0794 12.5523 14.8829L12.6707 14.7772L20.0548 7.40508C20.644 6.8159 20.6787 5.88035 20.1588 5.25125L20.0548 5.13705L18.8579 3.94103C18.2677 3.35278 17.3307 3.31818 16.7005 3.83722ZM11.3355 2.0379C11.7431 2.0379 12.0737 2.36791 12.0737 2.77391C12.0737 3.18092 11.7431 3.50992 11.3355 3.50992H7.65845C5.1173 3.50992 3.47561 5.24795 3.47561 7.93799V11.707C3.47561 12.1131 3.14507 12.4431 2.73841 12.4431C2.33074 12.4431 2.0002 12.1131 2.0002 11.707V7.93799C2.0002 4.40894 4.27392 2.0379 7.65845 2.0379H11.3355Z" fill="white"/>
</svg>
