<svg width="32" height="32" viewBox="0 0 32 32" fill="none" xmlns="http://www.w3.org/2000/svg">
<path d="M28.3446 15.2131C28.8868 15.2131 29.3276 15.6518 29.3276 16.1945V21.4666C29.3276 26.172 26.2959 29.3334 21.7819 29.3334H10.211C5.69825 29.3334 2.66663 26.172 2.66663 21.4666C2.66663 20.9252 3.10868 20.4852 3.6509 20.4852C4.19446 20.4852 4.63518 20.9252 4.63518 21.4666C4.63518 25.0533 6.82275 27.3693 10.211 27.3693H21.7819C25.1714 27.3693 27.3617 25.0533 27.3617 21.4666V16.1945C27.3617 15.6518 27.8011 15.2131 28.3446 15.2131ZM26.3448 3.68919L26.534 3.86671L28.13 5.46006C28.9073 6.23474 29.3333 7.26676 29.3333 8.36011C29.3333 9.36479 28.9753 10.3146 28.3169 11.0626L28.13 11.2615L18.2846 21.091C17.6265 21.7479 16.772 22.136 15.8545 22.2012L15.5775 22.211H10.6628C10.3983 22.211 10.1446 22.1043 9.95895 21.9136C9.81151 21.7622 9.71792 21.5689 9.68911 21.3625L9.67983 21.2056L9.80403 16.2589C9.8271 15.3631 10.1581 14.5158 10.7419 13.8463L10.9245 13.6509L20.7246 3.86671C22.2642 2.32822 24.7325 2.26905 26.3448 3.68919ZM22.2673 5.11632L22.1148 5.25473L21.3082 6.06007L23.8069 8.55478C24.1902 8.93878 24.1902 9.55879 23.8069 9.94413C23.6146 10.1348 23.3622 10.2308 23.1111 10.2308C22.9092 10.2308 22.7081 10.1694 22.5373 10.0472L22.4153 9.94413L19.9179 7.44809L12.3161 15.0389C12.0242 15.3292 11.8412 15.7027 11.7865 16.105L11.7699 16.3082L11.6724 20.247H15.5775C16.0033 20.247 16.4076 20.1059 16.7364 19.8439L16.8943 19.7029L26.7397 9.87346C27.5253 9.08788 27.5715 7.84049 26.8784 7.00169L26.7397 6.84942L25.1438 5.25473C24.3569 4.4704 23.1075 4.42426 22.2673 5.11632ZM15.1139 2.71722C15.6575 2.71722 16.0982 3.15723 16.0982 3.69857C16.0982 4.24124 15.6575 4.67992 15.1139 4.67992H10.2112C6.82302 4.67992 4.63411 6.99729 4.63411 10.584V15.6094C4.63411 16.1508 4.19339 16.5908 3.65117 16.5908C3.10761 16.5908 2.66689 16.1508 2.66689 15.6094V10.584C2.66689 5.8786 5.69852 2.71722 10.2112 2.71722H15.1139Z" fill="#40394A"/>
</svg>
