<svg width="24" height="24" viewBox="0 0 24 24" fill="none" xmlns="http://www.w3.org/2000/svg">
<path d="M21.8055 10.0415H21V10H12V14H17.6515C16.827 16.3285 14.6115 18 12 18C8.68648 18 5.99998 15.3135 5.99998 12C5.99998 8.6865 8.68648 6 12 6C13.5295 6 14.921 6.577 15.9805 7.5195L18.809 4.691C17.023 3.0265 14.634 2 12 2C6.47748 2 1.99998 6.4775 1.99998 12C1.99998 17.5225 6.47748 22 12 22C17.5225 22 22 17.5225 22 12C22 11.3295 21.931 10.675 21.8055 10.0415Z" fill="#FFC107"/>
<path d="M3.15301 7.3455L6.43851 9.755C7.32751 7.554 9.48051 6 12 6C13.5295 6 14.921 6.577 15.9805 7.5195L18.809 4.691C17.023 3.0265 14.634 2 12 2C8.15901 2 4.82801 4.1685 3.15301 7.3455Z" fill="#FF3D00"/>
<path d="M12 22C14.583 22 16.93 21.0115 18.7045 19.404L15.6095 16.785C14.5718 17.5742 13.3037 18.001 12 18C9.399 18 7.1905 16.3415 6.3585 14.027L3.0975 16.5395C4.7525 19.778 8.1135 22 12 22Z" fill="#4CAF50"/>
<path d="M21.8055 10.0415H21V10H12V14H17.6515C17.2571 15.1082 16.5467 16.0766 15.608 16.7855L15.6095 16.7845L18.7045 19.4035C18.4855 19.6025 22 17 22 12C22 11.3295 21.931 10.675 21.8055 10.0415Z" fill="#1976D2"/>
</svg>
