<svg width="32" height="32" viewBox="0 0 32 32" fill="none" xmlns="http://www.w3.org/2000/svg">
<path d="M5.99911 9.3725C6.41976 9.24286 6.88451 9.39157 7.14971 9.75622C7.44438 10.1614 7.40952 10.7188 7.06666 11.0841L6.12753 11.7797C5.68255 12.1494 5.42368 12.6969 5.42028 13.2754V23.8841C5.43298 25.6122 6.83415 27.0082 8.56231 27.0145H13.8956V27.0377C14.4719 27.0377 14.9391 27.5049 14.9391 28.0812C14.9391 28.6575 14.4719 29.1247 13.8956 29.1247H8.56231C5.67707 29.1183 3.3397 26.7809 3.33333 23.8957V13.2754C3.35178 12.0482 3.92783 10.896 4.89855 10.1449L5.86086 9.42611L5.99911 9.3725ZM12.829 3.73335C14.5895 2.31821 17.0974 2.31821 18.858 3.73335L26.8696 10.1218C27.8189 10.8853 28.3762 12.034 28.3884 13.2522L28.3768 23.8841C28.3768 26.772 26.0357 29.1131 23.1478 29.1131H20.829C19.4312 29.1131 18.2962 27.9833 18.2898 26.5855V21.7855L18.279 21.6647C18.2221 21.3509 17.9475 21.1131 17.6174 21.1131H14.1391C13.9587 21.113 13.7859 21.1855 13.6595 21.3141C13.533 21.4427 13.4636 21.6168 13.4667 21.7971V23.629C13.4667 24.2053 12.9995 24.6725 12.4232 24.6725C11.8469 24.6725 11.3797 24.2053 11.3797 23.629V21.7971C11.3797 21.0622 11.6716 20.3574 12.1913 19.8377C12.711 19.3181 13.4158 19.0261 14.1507 19.0261H17.629C19.1548 19.0325 20.3884 20.2712 20.3884 21.7971V26.5855C20.3884 26.8289 20.5857 27.0261 20.829 27.0261H23.2058C24.9347 27.0261 26.3362 25.6246 26.3362 23.8957V13.2754C26.3277 12.687 26.0553 12.1337 25.5942 11.7681L17.5826 5.37973C16.5723 4.54801 15.1146 4.54801 14.1043 5.37973L11.5304 7.30437C11.0534 7.64695 10.3889 7.53794 10.0464 7.06089C9.70379 6.58384 9.8128 5.91941 10.2898 5.57683L12.829 3.73335Z" fill="white"/>
</svg>
