<svg width="32" height="32" viewBox="0 0 32 32" fill="none" xmlns="http://www.w3.org/2000/svg">
<path d="M5.99904 9.37238C6.41969 9.24274 6.88444 9.39145 7.14964 9.7561C7.4443 10.1613 7.40944 10.7187 7.06659 11.084L6.12745 11.7796C5.68247 12.1493 5.4236 12.6967 5.42021 13.2753V23.884C5.4329 25.6121 6.83408 27.0081 8.56224 27.0144H13.8956V27.0376C14.4719 27.0376 14.939 27.5048 14.939 28.0811C14.939 28.6574 14.4719 29.1245 13.8956 29.1245H8.56224C5.67699 29.1182 3.33963 26.7808 3.33325 23.8956V13.2753C3.3517 12.048 3.92775 10.8959 4.89847 10.1448L5.86079 9.42599L5.99904 9.37238ZM12.8289 3.73323C14.5894 2.31809 17.0974 2.31809 18.8579 3.73323L26.8695 10.1216C27.8188 10.8852 28.3761 12.0339 28.3883 13.2521L28.3767 23.884C28.3767 26.7718 26.0356 29.1129 23.1477 29.1129H20.8289C19.4311 29.1129 18.2962 27.9832 18.2898 26.5854V21.7854L18.2789 21.6645C18.222 21.3508 17.9474 21.1129 17.6173 21.1129H14.139C13.9587 21.1129 13.7858 21.1854 13.6594 21.314C13.5329 21.4426 13.4635 21.6167 13.4666 21.797V23.6289C13.4666 24.2052 12.9994 24.6724 12.4231 24.6724C11.8468 24.6724 11.3796 24.2052 11.3796 23.6289V21.797C11.3796 21.0621 11.6716 20.3573 12.1912 19.8376C12.7109 19.3179 13.4157 19.026 14.1506 19.026H17.6289C19.1548 19.0324 20.3883 20.2711 20.3883 21.797V26.5854C20.3883 26.8287 20.5856 27.026 20.8289 27.026H23.2057C24.9346 27.026 26.3361 25.6244 26.3361 23.8956V13.2753C26.3277 12.6869 26.0552 12.1335 25.5941 11.768L17.5825 5.37961C16.5723 4.54788 15.1145 4.54788 14.1043 5.37961L11.5304 7.30425C11.0533 7.64682 10.3889 7.53781 10.0463 7.06077C9.70372 6.58372 9.81273 5.91929 10.2898 5.57671L12.8289 3.73323Z" fill="#40394A"/>
</svg>
