<svg width="32" height="32" viewBox="0 0 32 32" fill="none" xmlns="http://www.w3.org/2000/svg">
<path d="M20.9962 2.66644C26.1442 2.66644 29.3335 5.85711 29.3335 11.0078V21.0078C29.3335 26.1438 26.1442 29.3331 20.9962 29.3331H10.9922C5.85621 29.3331 2.66687 26.1438 2.66821 21.0038C2.66821 20.4411 3.12421 19.9838 3.68821 19.9838C4.25088 19.9838 4.70821 20.4411 4.70821 21.0038C4.70821 25.0491 6.93621 27.2891 11.0055 27.2891H20.9962C25.0535 27.2891 27.2935 25.0611 27.2935 21.0038V11.0038C27.2935 6.94644 25.0669 4.70644 20.9962 4.70644H11.0042C6.94688 4.70644 4.70688 6.94644 4.70688 11.0038V14.1118C4.70688 14.6691 4.25488 15.1198 3.69888 15.1198H3.68421C3.12154 15.1198 2.66554 14.6624 2.66687 14.0998V11.0038C2.66687 5.85711 5.88021 2.66644 11.0055 2.66644H20.9962ZM15.9929 14.1676C16.5449 14.1676 16.9929 14.6156 16.9929 15.1676V21.061C16.9929 21.613 16.5449 22.061 15.9929 22.061C15.4409 22.061 14.9929 21.613 14.9929 21.061V15.1676C14.9929 14.6156 15.4409 14.1676 15.9929 14.1676ZM16.0066 9.93858C16.5586 9.93858 17.0066 10.3866 17.0066 10.9386C17.0066 11.4906 16.5586 11.9386 16.0066 11.9386H15.9933C15.4413 11.9386 14.9999 11.4906 14.9999 10.9386C14.9999 10.3866 15.4546 9.93858 16.0066 9.93858Z" fill="#40394A"/>
</svg>
