<svg width="32" height="32" viewBox="0 0 32 32" fill="none" xmlns="http://www.w3.org/2000/svg">
<path d="M21.1379 2.66675C25.4224 2.66675 27.9884 5.26866 28 9.61303V22.3871C28 26.7315 25.4456 29.3334 21.1495 29.3334H17.3411C16.8527 29.2788 16.483 28.8604 16.483 28.3621C16.483 27.8639 16.8527 27.4454 17.3411 27.3908H21.1379C24.4122 27.3908 26.061 25.7072 26.061 22.3871V9.61303C26.061 6.29294 24.4122 4.60935 21.1379 4.60935H10.8505C7.5762 4.60935 5.91582 6.29294 5.91582 9.61303V22.3871C5.91582 25.7072 7.5762 27.3908 10.8505 27.3908C11.3389 27.4454 11.7086 27.8639 11.7086 28.3621C11.7086 28.8604 11.3389 29.2788 10.8505 29.3334C6.56604 29.3334 4 26.7315 4 22.3871V9.61303C4 5.25689 6.56604 2.66675 10.8505 2.66675H21.1379ZM20.7896 20.68C21.3154 20.68 21.7417 21.1122 21.7417 21.6454C21.7417 22.1786 21.3154 22.6108 20.7896 22.6108H11.1756C10.6498 22.6108 10.2235 22.1786 10.2235 21.6454C10.2235 21.1122 10.6498 20.68 11.1756 20.68H20.7896ZM20.7896 15.0288C21.157 14.9877 21.5152 15.1633 21.7116 15.4808C21.908 15.7984 21.908 16.2018 21.7116 16.5193C21.5152 16.8368 21.157 17.0125 20.7896 16.9714H11.1756C10.6872 16.9168 10.3175 16.4983 10.3175 16.0001C10.3175 15.5018 10.6872 15.0834 11.1756 15.0288H20.7896ZM14.8447 9.38934C15.3331 9.44394 15.7028 9.8624 15.7028 10.3606C15.7028 10.8589 15.3331 11.2773 14.8447 11.3319H11.1872C10.6988 11.2773 10.3291 10.8589 10.3291 10.3606C10.3291 9.8624 10.6988 9.44394 11.1872 9.38934H14.8447Z" fill="#40394A"/>
</svg>
