<svg width="32" height="32" viewBox="0 0 32 32" fill="none" xmlns="http://www.w3.org/2000/svg">
<path d="M21.1379 2.66663C25.4224 2.66663 27.9884 5.26854 28 9.61291V22.387C28 26.7314 25.4456 29.3333 21.1495 29.3333H17.3411C16.8527 29.2787 16.483 28.8602 16.483 28.362C16.483 27.8638 16.8527 27.4453 17.3411 27.3907H21.1379C24.4122 27.3907 26.061 25.7071 26.061 22.387V9.61291C26.061 6.29282 24.4122 4.60923 21.1379 4.60923H10.8505C7.5762 4.60923 5.91582 6.29282 5.91582 9.61291V22.387C5.91582 25.7071 7.5762 27.3907 10.8505 27.3907C11.3389 27.4453 11.7086 27.8638 11.7086 28.362C11.7086 28.8602 11.3389 29.2787 10.8505 29.3333C6.56604 29.3333 4 26.7314 4 22.387V9.61291C4 5.25677 6.56604 2.66663 10.8505 2.66663H21.1379ZM20.7896 20.6799C21.3154 20.6799 21.7417 21.1121 21.7417 21.6453C21.7417 22.1785 21.3154 22.6107 20.7896 22.6107H11.1756C10.6498 22.6107 10.2235 22.1785 10.2235 21.6453C10.2235 21.1121 10.6498 20.6799 11.1756 20.6799H20.7896ZM20.7896 15.0287C21.157 14.9876 21.5152 15.1632 21.7116 15.4807C21.908 15.7982 21.908 16.2017 21.7116 16.5192C21.5152 16.8367 21.157 17.0123 20.7896 16.9713H11.1756C10.6872 16.9167 10.3175 16.4982 10.3175 16C10.3175 15.5017 10.6872 15.0833 11.1756 15.0287H20.7896ZM14.8447 9.38922C15.3331 9.44382 15.7028 9.86228 15.7028 10.3605C15.7028 10.8588 15.3331 11.2772 14.8447 11.3318H11.1872C10.6988 11.2772 10.3291 10.8588 10.3291 10.3605C10.3291 9.86228 10.6988 9.44382 11.1872 9.38922H14.8447Z" fill="white"/>
</svg>
