<svg width="32" height="32" viewBox="0 0 32 32" fill="none" xmlns="http://www.w3.org/2000/svg">
<path d="M19.5311 20.8801C20.083 20.8801 20.531 21.3172 20.531 21.8555V23.0475C20.531 26.1459 17.9469 28.6666 14.7693 28.6666H8.44006C5.25727 28.6666 2.66663 26.1395 2.66663 23.0336C2.66663 22.4952 3.11463 22.0594 3.66652 22.0594C4.21842 22.0594 4.66642 22.4952 4.66642 23.0336C4.66642 25.0654 6.35976 26.7159 8.44006 26.7159H14.7693C16.8444 26.7159 18.5312 25.0704 18.5312 23.0475V21.8555C18.5312 21.3172 18.9792 20.8801 19.5311 20.8801ZM28.3331 15.0236C28.7383 15.0236 29.1031 15.2617 29.2577 15.6278C29.4122 15.9926 29.3252 16.4132 29.0395 16.6919L25.2451 20.3767C25.049 20.5655 24.7945 20.6618 24.5387 20.6618C24.2829 20.6618 24.0257 20.5655 23.831 20.3742C23.4414 19.9917 23.4414 19.3748 23.8336 18.9948L25.9126 16.9756H12.7321C12.1802 16.9756 11.7309 16.5386 11.7309 16.0002C11.7309 15.4619 12.1802 15.0236 12.7321 15.0236H28.3331ZM14.7566 3.33331C17.9407 3.33331 20.5313 5.86041 20.5313 8.9664V10.1457C20.5313 10.6828 20.0833 11.1198 19.5314 11.1198C18.9795 11.1198 18.5315 10.6828 18.5315 10.1457V8.9664C18.5315 6.93459 16.8382 5.28406 14.7566 5.28406H8.42864C6.35352 5.28406 4.66668 6.93079 4.66668 8.95247V18.5985C4.66668 19.1369 4.21868 19.5739 3.66678 19.5739C3.11489 19.5739 2.66689 19.1369 2.66689 18.5985V8.95247C2.66689 5.85408 5.25104 3.33331 8.42864 3.33331H14.7566ZM23.8284 11.6302C24.2179 11.2451 24.849 11.2426 25.2425 11.6226L26.1982 12.5448C26.5917 12.9248 26.5943 13.5417 26.206 13.9242C26.01 14.1168 25.7528 14.2143 25.4957 14.2143C25.2412 14.2143 24.9867 14.1193 24.7919 13.9318L23.8349 13.0084C23.4427 12.6296 23.4401 12.0115 23.8284 11.6302Z" fill="black"/>
</svg>
