<svg width="32" height="32" viewBox="0 0 32 32" fill="none" xmlns="http://www.w3.org/2000/svg">
<path d="M18.1875 26.0927C18.5575 25.7626 19.1252 25.7421 19.5201 26.0661C19.9546 26.4224 20.0155 27.0606 19.6562 27.4915C18.7704 28.6403 17.3999 29.3199 15.9417 29.3334L15.6522 29.3212C14.3078 29.2237 13.0635 28.5607 12.2392 27.4915L12.1515 27.3692C11.894 26.9469 11.9802 26.39 12.3752 26.0661C12.8097 25.7097 13.4531 25.7701 13.8125 26.201C13.9703 26.4102 14.1575 26.5959 14.3684 26.7524C14.9323 27.1687 15.6403 27.3446 16.3355 27.2411C17.0306 27.1376 17.6554 26.7632 18.071 26.201H18.0829L18.1875 26.0927ZM15.9536 2.66675C20.0465 2.66675 24.6363 5.5528 25.1568 10.1869V12.6037C25.3345 13.476 25.7428 14.2857 26.3398 14.9501C26.3751 14.9902 26.4068 15.0334 26.4344 15.0791C26.9757 15.8939 27.2862 16.838 27.3334 17.8127L27.2979 18.059C27.3387 19.3928 26.8936 20.6964 26.044 21.7311C24.9591 22.9018 23.476 23.633 21.8801 23.7842C17.949 24.2157 13.9818 24.2157 10.0507 23.7842C8.47814 23.6227 7.02084 22.8917 5.95778 21.7311C5.09424 20.7113 4.63574 19.4139 4.66838 18.0825V17.9183C4.73341 16.9145 5.06836 15.9463 5.63838 15.1143L5.73302 14.997C6.32584 14.3299 6.73349 13.5213 6.91595 12.6506V10.2338L6.98137 10.0988C7.18025 9.75607 7.56759 9.5556 7.97327 9.59949C8.42965 9.64887 8.79614 9.99528 8.8678 10.445V12.8618C8.8724 12.9047 8.8724 12.9479 8.8678 12.9908C8.62149 14.2012 8.0585 15.326 7.23535 16.2523C6.91834 16.7531 6.73891 17.3274 6.71486 17.9183V18.1764C6.68859 19.0073 6.96585 19.8197 7.49559 20.4641C8.23004 21.2164 9.21217 21.6826 10.2637 21.7781C14.0694 22.1887 17.9088 22.1887 21.7145 21.7781C22.7947 21.6797 23.8008 21.1912 24.5417 20.4054C25.0454 19.7763 25.3093 18.9911 25.2869 18.1881V17.9183C25.2627 17.3254 25.0877 16.7484 24.7783 16.2406C23.9209 15.3248 23.3248 14.199 23.0512 12.9791C23.0466 12.9362 23.0466 12.893 23.0512 12.8501V10.4216C22.7081 6.87851 19.1475 4.68464 16.0482 4.68464C14.7306 4.68163 13.4346 5.01711 12.2865 5.65839L12.1459 5.72819C11.8568 5.84492 11.526 5.82443 11.2512 5.66599C10.9305 5.48115 10.7366 5.13785 10.7453 4.77009C10.754 4.40232 10.9638 4.06838 11.2928 3.8986C12.7155 3.10151 14.3196 2.67753 15.9536 2.66675Z" fill="black"/>
</svg>
