<svg width="32" height="32" viewBox="0 0 32 32" fill="none" xmlns="http://www.w3.org/2000/svg">
<path d="M26.6666 24.4402C26.6666 28.8254 20.5792 29.3334 15.9999 29.3334C15.5384 29.3334 15.0835 29.3267 14.6367 29.3134C14.1054 29.3001 13.6868 28.8588 13.7029 28.3294C13.7177 27.8015 14.1765 27.4041 14.6917 27.4001C15.1211 27.4121 15.5572 27.4175 15.9999 27.4175C21.7988 27.4175 24.7399 26.4162 24.7399 24.4402C24.7399 22.4456 21.7988 21.4336 15.9999 21.4336C10.201 21.4336 7.25996 22.4363 7.25996 24.4135C7.25996 25.0602 7.49074 25.9975 9.49392 26.6721C9.99841 26.8415 10.2681 27.3841 10.0977 27.8841C9.92596 28.3841 9.38122 28.6574 8.87539 28.4841C5.94776 27.4988 5.33325 25.7268 5.33325 24.4135C5.33325 20.1165 11.1747 19.5413 15.7177 19.5197L16.5077 19.5199C19.5374 19.5354 26.6666 19.8029 26.6666 24.4402ZM15.9999 2.66675C19.9607 2.66675 23.1821 5.86933 23.1821 9.80524C23.1821 13.7398 19.9607 16.9424 15.9999 16.9424C12.0392 16.9424 8.81635 13.7398 8.81635 9.80524C8.81635 5.86933 12.0392 2.66675 15.9999 2.66675ZM15.9999 4.5827C13.1018 4.5827 10.7444 6.92531 10.7444 9.80524C10.7444 12.6838 13.1018 15.0264 15.9999 15.0264C18.898 15.0264 21.2554 12.6838 21.2554 9.80524C21.2554 6.92531 18.898 4.5827 15.9999 4.5827Z" fill="#40394A"/>
</svg>
