<svg width="32" height="32" viewBox="0 0 32 32" fill="none" xmlns="http://www.w3.org/2000/svg">
<path d="M19.254 2.66669C19.2806 2.66669 19.3032 2.68011 19.3298 2.6828H19.6036C19.8748 2.6828 20.134 2.79421 20.3227 2.99289L27.0555 10.0754C27.2336 10.2633 27.3333 10.513 27.3333 10.7734V23.0778C27.3333 26.4687 24.607 29.3334 21.3795 29.3334H10.76C7.34377 29.3334 4.66663 26.5855 4.66663 23.0778V19.7138C4.66663 19.158 5.11326 18.707 5.66358 18.707C6.21389 18.707 6.66053 19.158 6.66053 19.7138V23.0778C6.66053 25.4565 8.46168 27.3198 10.76 27.3198H21.3795C23.4891 27.3198 25.3394 25.337 25.3394 23.0778V11.1775L20.251 5.82534V7.57985C20.251 8.92762 21.3356 10.027 22.6702 10.0297C23.2205 10.0311 23.6658 10.4821 23.6645 11.0392C23.6632 11.5936 23.2179 12.0433 22.6676 12.0433C20.235 12.0379 18.2571 10.0364 18.2571 7.57985V4.69639H10.76C8.53745 4.69639 6.66053 6.52741 6.66053 8.69538V14.2408C6.66053 14.7966 6.21389 15.2476 5.66358 15.2476C5.11326 15.2476 4.66663 14.7966 4.66663 14.2408V8.69538C4.66663 5.43605 7.45676 2.6828 10.76 2.6828H19.1769C19.2035 2.68011 19.2261 2.66669 19.254 2.66669ZM19.0021 19.8602C19.5524 19.8602 19.9991 20.3113 19.9991 20.867C19.9991 21.4228 19.5524 21.8738 19.0021 21.8738H11.8267C11.2764 21.8738 10.8298 21.4228 10.8298 20.867C10.8298 20.3113 11.2764 19.8602 11.8267 19.8602H19.0021ZM16.2877 13.2124C16.8381 13.2124 17.2847 13.6634 17.2847 14.2192C17.2847 14.775 16.8381 15.226 16.2877 15.226H11.8267C11.2764 15.226 10.8298 14.775 10.8298 14.2192C10.8298 13.6634 11.2764 13.2124 11.8267 13.2124H16.2877Z" fill="#40394A"/>
</svg>
