<svg width="32" height="32" viewBox="0 0 32 32" fill="none" xmlns="http://www.w3.org/2000/svg">
<path d="M29.0075 27.4754L24.4243 22.9945L24.3169 22.8312C24.1171 22.6323 23.844 22.5203 23.559 22.5203C23.2739 22.5203 23.0008 22.6323 22.8011 22.8312C18.9061 26.4045 12.9043 26.5988 8.77609 23.285C4.6479 19.9713 3.67431 14.1779 6.50099 9.74697C9.32768 5.31604 15.0775 3.62254 19.9372 5.7896C24.7969 7.95665 27.2585 13.3118 25.6894 18.3035C25.5764 18.6642 25.6688 19.0563 25.9317 19.3323C26.1947 19.6083 26.5882 19.7262 26.9641 19.6415C27.3401 19.5569 27.6413 19.2826 27.7543 18.922C29.6299 12.9983 26.7971 6.62349 21.0882 3.92149C15.3794 1.2195 8.50787 3.00118 4.91882 8.11397C1.32978 13.2268 2.10032 20.1363 6.73199 24.3727C11.3637 28.6092 18.4665 28.9013 23.4456 25.0599L27.5036 29.0274C27.9227 29.4354 28.6003 29.4354 29.0194 29.0274C29.4381 28.6137 29.4381 27.9475 29.0194 27.5338L29.0075 27.4754Z" fill="#40394A"/>
</svg>
