<svg width="32" height="32" viewBox="0 0 32 32" fill="none" xmlns="http://www.w3.org/2000/svg">
<path d="M29.0074 27.4753L24.4242 22.9944L24.3168 22.831C24.117 22.6322 23.8439 22.5202 23.5589 22.5202C23.2738 22.5202 23.0007 22.6322 22.801 22.831C18.906 26.4044 12.9042 26.5986 8.776 23.2849C4.64781 19.9712 3.67421 14.1778 6.5009 9.74685C9.32759 5.31592 15.0774 3.62242 19.9371 5.78947C24.7968 7.95653 27.2584 13.3117 25.6893 18.3034C25.5763 18.664 25.6687 19.0562 25.9316 19.3322C26.1946 19.6082 26.5881 19.726 26.9641 19.6414C27.34 19.5568 27.6412 19.2825 27.7542 18.9219C29.6299 12.9982 26.797 6.62336 21.0881 3.92137C15.3793 1.21937 8.50777 3.00106 4.91873 8.11385C1.32968 13.2266 2.10023 20.1362 6.7319 24.3726C11.3636 28.6091 18.4664 28.9011 23.4455 25.0598L27.5035 29.0273C27.9226 29.4353 28.6002 29.4353 29.0193 29.0273C29.438 28.6136 29.438 27.9474 29.0193 27.5337L29.0074 27.4753Z" fill="white"/>
</svg>
